<mxfile host="app.diagrams.net" agent="Mozilla/5.0 (Windows NT 10.0; Win64; x64) AppleWebKit/537.36 (KHTML, like Gecko) Chrome/141.0.0.0 Safari/537.36 Edg/141.0.0.0" version="28.2.8">
  <diagram name="Seite-1" id="5QAATJUAL95Mrq2n-_GP">
    <mxGraphModel dx="3294" dy="947" grid="1" gridSize="10" guides="1" tooltips="1" connect="1" arrows="1" fold="1" page="1" pageScale="1" pageWidth="827" pageHeight="1169" math="0" shadow="0">
      <root>
        <mxCell id="0" />
        <mxCell id="1" parent="0" />
        <mxCell id="QATL2oIaA7AdP9qNfyrX-3" value="" style="rounded=1;whiteSpace=wrap;html=1;" vertex="1" parent="1">
          <mxGeometry x="-1160" y="30" width="360" height="170" as="geometry" />
        </mxCell>
        <mxCell id="QATL2oIaA7AdP9qNfyrX-5" value="IBM I" style="text;html=1;whiteSpace=wrap;strokeColor=none;fillColor=none;align=center;verticalAlign=middle;rounded=0;" vertex="1" parent="1">
          <mxGeometry x="-1035" y="30" width="110" height="20" as="geometry" />
        </mxCell>
        <mxCell id="QATL2oIaA7AdP9qNfyrX-7" value="DB2" style="shape=cylinder3;whiteSpace=wrap;html=1;boundedLbl=1;backgroundOutline=1;size=15;" vertex="1" parent="1">
          <mxGeometry x="-1070" y="75" width="60" height="80" as="geometry" />
        </mxCell>
        <mxCell id="QATL2oIaA7AdP9qNfyrX-10" value="" style="rounded=1;whiteSpace=wrap;html=1;" vertex="1" parent="1">
          <mxGeometry x="-1560" y="240" width="360" height="170" as="geometry" />
        </mxCell>
        <mxCell id="QATL2oIaA7AdP9qNfyrX-11" value="Microsoft Azure" style="text;html=1;whiteSpace=wrap;strokeColor=none;fillColor=none;align=center;verticalAlign=middle;rounded=0;" vertex="1" parent="1">
          <mxGeometry x="-1435" y="240" width="110" height="20" as="geometry" />
        </mxCell>
        <mxCell id="QATL2oIaA7AdP9qNfyrX-12" value="SQL Server" style="shape=cylinder3;whiteSpace=wrap;html=1;boundedLbl=1;backgroundOutline=1;size=15;" vertex="1" parent="1">
          <mxGeometry x="-1297.5" y="285" width="60" height="80" as="geometry" />
        </mxCell>
        <mxCell id="QATL2oIaA7AdP9qNfyrX-15" value="Machine Learning Studio" style="whiteSpace=wrap;html=1;aspect=fixed;" vertex="1" parent="1">
          <mxGeometry x="-1522.5" y="285" width="80" height="80" as="geometry" />
        </mxCell>
        <mxCell id="QATL2oIaA7AdP9qNfyrX-16" value="PowerBI" style="whiteSpace=wrap;html=1;aspect=fixed;" vertex="1" parent="1">
          <mxGeometry x="-1412.5" y="285" width="80" height="80" as="geometry" />
        </mxCell>
        <mxCell id="QATL2oIaA7AdP9qNfyrX-17" value="Auftrags-anlage" style="whiteSpace=wrap;html=1;aspect=fixed;" vertex="1" parent="1">
          <mxGeometry x="-970" y="75" width="80" height="80" as="geometry" />
        </mxCell>
        <mxCell id="QATL2oIaA7AdP9qNfyrX-27" value="" style="rounded=1;whiteSpace=wrap;html=1;" vertex="1" parent="1">
          <mxGeometry x="-1160" y="240" width="360" height="170" as="geometry" />
        </mxCell>
        <mxCell id="QATL2oIaA7AdP9qNfyrX-28" value="IBM I" style="text;html=1;whiteSpace=wrap;strokeColor=none;fillColor=none;align=center;verticalAlign=middle;rounded=0;" vertex="1" parent="1">
          <mxGeometry x="-1035" y="240" width="110" height="20" as="geometry" />
        </mxCell>
        <mxCell id="QATL2oIaA7AdP9qNfyrX-29" value="DB2" style="shape=cylinder3;whiteSpace=wrap;html=1;boundedLbl=1;backgroundOutline=1;size=15;" vertex="1" parent="1">
          <mxGeometry x="-1070" y="285" width="60" height="80" as="geometry" />
        </mxCell>
        <mxCell id="QATL2oIaA7AdP9qNfyrX-30" value="Auftrags-anlage" style="whiteSpace=wrap;html=1;aspect=fixed;" vertex="1" parent="1">
          <mxGeometry x="-970" y="285" width="80" height="80" as="geometry" />
        </mxCell>
        <mxCell id="QATL2oIaA7AdP9qNfyrX-31" value="" style="rounded=1;whiteSpace=wrap;html=1;" vertex="1" parent="1">
          <mxGeometry x="-1560" y="450" width="360" height="210" as="geometry" />
        </mxCell>
        <mxCell id="QATL2oIaA7AdP9qNfyrX-32" value="Microsoft Azure" style="text;html=1;whiteSpace=wrap;strokeColor=none;fillColor=none;align=center;verticalAlign=middle;rounded=0;" vertex="1" parent="1">
          <mxGeometry x="-1435" y="450" width="110" height="20" as="geometry" />
        </mxCell>
        <mxCell id="QATL2oIaA7AdP9qNfyrX-33" value="Lake-House" style="shape=cylinder3;whiteSpace=wrap;html=1;boundedLbl=1;backgroundOutline=1;size=15;" vertex="1" parent="1">
          <mxGeometry x="-1297.5" y="495" width="60" height="80" as="geometry" />
        </mxCell>
        <mxCell id="QATL2oIaA7AdP9qNfyrX-34" value="Machine Learning Studio" style="whiteSpace=wrap;html=1;aspect=fixed;" vertex="1" parent="1">
          <mxGeometry x="-1522.5" y="495" width="80" height="80" as="geometry" />
        </mxCell>
        <mxCell id="QATL2oIaA7AdP9qNfyrX-36" value="" style="rounded=1;whiteSpace=wrap;html=1;" vertex="1" parent="1">
          <mxGeometry x="-1160" y="450" width="360" height="170" as="geometry" />
        </mxCell>
        <mxCell id="QATL2oIaA7AdP9qNfyrX-37" value="IBM I" style="text;html=1;whiteSpace=wrap;strokeColor=none;fillColor=none;align=center;verticalAlign=middle;rounded=0;" vertex="1" parent="1">
          <mxGeometry x="-1035" y="450" width="110" height="20" as="geometry" />
        </mxCell>
        <mxCell id="QATL2oIaA7AdP9qNfyrX-38" value="DB2" style="shape=cylinder3;whiteSpace=wrap;html=1;boundedLbl=1;backgroundOutline=1;size=15;" vertex="1" parent="1">
          <mxGeometry x="-1070" y="495" width="60" height="80" as="geometry" />
        </mxCell>
        <mxCell id="QATL2oIaA7AdP9qNfyrX-39" value="Auftrags-anlage" style="whiteSpace=wrap;html=1;aspect=fixed;" vertex="1" parent="1">
          <mxGeometry x="-970" y="495" width="80" height="80" as="geometry" />
        </mxCell>
        <mxCell id="QATL2oIaA7AdP9qNfyrX-40" value="Spark" style="whiteSpace=wrap;html=1;aspect=fixed;" vertex="1" parent="1">
          <mxGeometry x="-1412.5" y="495" width="80" height="80" as="geometry" />
        </mxCell>
        <mxCell id="QATL2oIaA7AdP9qNfyrX-42" value="Start Architektur" style="swimlane;horizontal=0;whiteSpace=wrap;html=1;startSize=23;" vertex="1" parent="1">
          <mxGeometry x="-1600" y="15" width="810" height="215" as="geometry" />
        </mxCell>
        <mxCell id="QATL2oIaA7AdP9qNfyrX-45" value="" style="rounded=1;whiteSpace=wrap;html=1;" vertex="1" parent="QATL2oIaA7AdP9qNfyrX-42">
          <mxGeometry x="40" y="15" width="360" height="170" as="geometry" />
        </mxCell>
        <mxCell id="QATL2oIaA7AdP9qNfyrX-46" value="Linux Server" style="text;html=1;whiteSpace=wrap;strokeColor=none;fillColor=none;align=center;verticalAlign=middle;rounded=0;" vertex="1" parent="QATL2oIaA7AdP9qNfyrX-42">
          <mxGeometry x="165" y="15" width="110" height="20" as="geometry" />
        </mxCell>
        <mxCell id="QATL2oIaA7AdP9qNfyrX-47" value="Jupyter Notebook" style="whiteSpace=wrap;html=1;aspect=fixed;" vertex="1" parent="QATL2oIaA7AdP9qNfyrX-42">
          <mxGeometry x="180" y="67.5" width="80" height="80" as="geometry" />
        </mxCell>
        <mxCell id="QATL2oIaA7AdP9qNfyrX-43" value="Stand 2022" style="swimlane;horizontal=0;whiteSpace=wrap;html=1;" vertex="1" parent="1">
          <mxGeometry x="-1600" y="225" width="810" height="200" as="geometry" />
        </mxCell>
        <mxCell id="QATL2oIaA7AdP9qNfyrX-44" value="Stand 2025" style="swimlane;horizontal=0;whiteSpace=wrap;html=1;" vertex="1" parent="1">
          <mxGeometry x="-1600" y="425" width="810" height="255" as="geometry" />
        </mxCell>
        <mxCell id="QATL2oIaA7AdP9qNfyrX-41" value="SynapseML" style="whiteSpace=wrap;html=1;aspect=fixed;" vertex="1" parent="QATL2oIaA7AdP9qNfyrX-44">
          <mxGeometry x="100" y="135" width="80" height="80" as="geometry" />
        </mxCell>
        <mxCell id="QATL2oIaA7AdP9qNfyrX-53" value="" style="shape=image;verticalLabelPosition=bottom;labelBackgroundColor=default;verticalAlign=top;aspect=fixed;imageAspect=0;image=data:image/png,iVBORw0KGgoAAAANSUhEUgAACLEAAASHCAYAAAAXhn0jAAAABHNCSVQICAgIfAhkiAAAAF96VFh0UmF3IHByb2ZpbGUgdHlwZSBBUFAxAAAImeNKT81LLcpMVigoyk/LzEnlUgADYxMuE0sTS6NEAwMDCwMIMDQwMDYEkkZAtjlUKNEABZiYm6UBoblZspkpiM8FAE+6FWgbLdiMAAAgAElEQVR4nOzdTXLbaJq20ccdPZe+OSLEGmEo1QrMWoHVC0CYuYJUrcDKFSR7BSkHFlDyCkyvoKQhRkVFYN7WCvgNSKcsp239EXwI4JwIR2emZfLqsiUPcOt9X61WqwAAAAAAAAC601blJCK+/hERcRgRJ9986FVEfN788/LLj6Julp0GAsAeeGXEAgAAAAAAANuzGaxMYz1QOYmI11t66U+xHrUsImJh2ALA0BixAAAAAAAAwAu1VXka6+HKaUQc7ehtb2I9aLks6uZyR+8JAJ0xYgEAAAAAAIBnaKvyJCLOYj1cOUjOuY2IyzBoAaDHjFgAAAAAAADgkdqqPIz1aOUsIo6Tc37kJiIuImJe1M3n5BYAeDQjFgAAAAAAAHjAZrxytvmRferKY305neW8qJtlcgsAPMiIBQAAAAAAAH6gp+OV73kfxiwA7DkjFgAAAAAAAPiOtipnETGPfo9XvvVbuGYIgD1lxAIAAAAAAABfaatyGuvxynFySlduI+KsqJuL7BAA+JoRCwAAAAAAAMSfVwedR8SvySm78ikiZq4YAmBfGLEAAAAAAAAwem1VnkTEZUQcZbfs2G1EnBd1M88OAQAjFgAAAAAAAEatrcrziHiX3ZHsQ6xPZfmcHQLAeBmxAAAAAAAAMEqb64MuI+J1dsueuI2I06JuFtkhAIzTf2UHAAAAAAAAwK5trg+6CgOWrx1ExMe2Ks+yQwAYJyMWAAAAAAAARqWtyllELCLiKLdkb/3eVuVFdgQA4+M6IQAAAAAAAEZjM2D5I7ujJ64jYlrUzefsEADGwUksAAAAAAAAjEJblfMwYHmK44hYtFV5mB0CwDg4iQUAAAAAAIDB21yP8za7o6duY30iy1V2CADD5iQWAAAAAAAABs2A5cUOYn0iy0l2CADDZsQCAAAAAADAYBmwbI0hCwCdM2IBAAAAAABgkAxYts6QBYBOvVqtVtkNAAAAAAAAsFVtVc4i4o/sjoG6jYiTom6W2SEADIuTWAAAAAAAABgUA5bOHUTEZVuVh9khAAyLk1gAAAAAAAAYjM1VN//O7hiJ64iYFnXzOTsEgGFwEgsAAAAAAACD0FblJCIWyRljchz+9wZgi4xYAAAAAAAA6L3N1TaXsb7qht05bqvyIjsCgGEwYgEAAAAAAGAI5rE+GYTde9tW5Xl2BAD992q1WmU3AAAAAAAAwLO1VXkWEb9ndxC/FHVzkR0BQH8ZsQAAAAAAANBbbVWeRMS/szv409+LurnKjgCgn4xYAAAAAAAA6KW2Kg8j4ioijrJb+NNtREyKuvmcHQJA//xXdgAAAAAAAAA80zwMWPbNQUQssiMA6CcjFgAAAAAAAHqnrcrTiHib3cF3HbdVeZEdAUD/uE4IAAAAAACAXtlcI7SM9akf7K9firq5yI4AoD+cxAIAAAAAAEDfXIQBSx/M26o8yY4AoD+MWAAAAAAAAOiNzTVCb7I7eJSDiLjYnJwDAA8yYgEAAAAAAKAXNmOIi+wOnuQ4IubZEQD0gxELAAAAAAAAfTEP1wj10dvNCToA8FOvVqtVdgMAAAAAAAD8VFuV04j4mN3Bs91GxElRN8vsEAD2l5NYAAAAAAAA6IOL7ABe5CD8HgLwACMWAAAAAAAA9lpblecRcZTdwYu93vxeAsB3uU4IAAAAAACAvdVW5SQirmJ9kgfD8Peibq6yIwDYP05iAQAAAAAAYJ/Nw4BlaC6yAwDYT0YsAAAAAAAA7KW2KqcR8Sa7g607dq0QAN9jxAIAAAAAAMC+usgOoDPv2qo8yY4AYL8YsQAAAAAAALB32qo8i4ij7A46dZEdAMB+ebVarbIbAAAAAAAA4E9tVR5GxDIiDpJT6N4/i7qZZ0cAsB+cxAIAAAAAAMC+OQ8DlrE4b6tykh0BwH4wYgEAAAAAAGBvbAYNv2Z3sDMH4VohADaMWAAAAAAAANgn59kB7NzrtipPsyMAyPdqtVplNwAAAAAAAMCXU1j+k91BipuIOCnq5nN2CAB5nMQCAAAAAADAvjjPDiDNUUScZUcAkMtJLAAAAAAAAKRzCgsbfyvqZpkdAUAOJ7EAAAAAAACwD5zCQUTERXYAAHmcxAIAAAAAAECqtioPI2IZEQfJKeyHX4q6uciOAGD3nMQCAAAAAABAtlkYsHBnvhk2ATAyRiwAAAAAAABkc5UQXzuIiPPsCAB2z3VCAAAAAAAApGmr8jQi/pXdwV76e1E3V9kRAOyOk1gAAAAAAADINMsOYG/NswMA2C0nsQAAAAAAAJCircpJRPwnu4O99ktRNxfZEQDshpNYAAAAAAAAyHKaHcDem7dVeZgdAcBuGLEAAAAAAACQ5Sw7gL13EBHn2REA7IbrhAAAAAAAANi5tipPIuLf2R30xt+LurnKjgCgW05iAQAAAAAAIMMsO4BemWcHANA9IxYAAAAAAAAyzLID6JXXbVXOsiMA6JYRCwAAAAAAADvVVuVpRBxkd9A787YqD7MjAOiOEQsAAAAAAAC7dpodQC8dRMR5dgQA3TFiAQAAAAAAYNeMWHiuX9uqPMmOAKAbRiwAAAAAAADszGaA4CohXmKeHQBAN4xYAAAAAAAA2KVZdgC997qtyll2BADbZ8QCAAAAAADALrlKiG2Yt1V5mB0BwHYZsQAAAAAAALATbVVOIuIou4NBOAjXCgEMjhELAAAAAAAAu+IUFrbpbVuV0+wIALbHiAUAAAAAAIBdmWYHMDhOYwEYECMWAAAAAAAAduVNdgCDc9xW5Vl2BADb8Wq1WmU3AAAAAAAAMHCba18+ZncwSLcRMSnq5nN2CAAv4yQWAAAAAAAAdmGaHcBgHYRrhQAGwYgFAAAAAACAXZhmBzBobzen/QDQY0YsAAAAAAAA7MLr7AAGz2ksAD1nxAIAAAAAAECnnJDBjhy3VXmWHQHA8xmxAAAAAAAA0LVpdgCjcd5W5WF2BADPY8QCAAAAAABA16bZAYzGQbhWCKC3jFgAAAAAAADo2kl2AKPy1hVWAP1kxAIAAAAAAEBn2qo8ifXpGLBLTmMB6CEjFgAAAAAAALrkFBYyHLdVeZYdAcDTGLEAAAAAAADQpWl2AKN13lblYXYEAI9nxAIAAAAAAECXnMRCloNwrRBArxixAAAAAAAA0KXj7ABG7W1bldPsCAAex4gFAAAAAACAThgPsCcusgMAeBwjFgAAAAAAALriKiH2wVFblefZEQA8zIgFAAAAAACArhixsC/O2qqcZEcA8HNGLAAAAAAAAHTFiIV9cRAR8+wIAH7OiAUAAAAAAICuHGcHwFfetFU5zY4A4MeMWAAAAAAAANg6YwH21EV2AAA/ZsQCAAAAAABAFybZAfAdR21VnmdHAPB9RiwAAAAAAAB04SQ7AH7grK3KSXYEAH9lxAIAAAAAAEAXjFjYVwcRMc+OAOCvjFgAAAAAAADoghEL++xNW5XT7AgA7jNiAQAAAAAAYKs2V7UcZHfAAy6yAwC4z4gFAAAAAACAbZtkB8AjHLVVeZ4dAcAdIxYAAAAAAAC2bZodAI90tjk5CIA9YMQCAAAAAADAtk2yA+CRDiJinh0BwJoRCwAAAAAAANs2yQ6AJ3jTVuU0OwIAIxYAAAAAAAC273V2ADzRRXYAAEYsAAAAAAAAbFFblZPsBniGo7Yqz7MjAMbOiAUAAAAAAIBtmmQHwDO9M8ICyGXEAgAAAAAAwDZNswPgBS6yAwDGzIgFAAAAAACAbZpkB8ALvG6r8jQ7AmCsjFgAAAAAAADYpkl2ALzQvK3Kw+wIgDEyYgEAAAAAAGCbXmcHwAsdRcRZdgTAGL1arVbZDQAAAAAAAAxAW5WTiPhPdgdsyd+KullmRwCMiZNYAAAAAAAA2JZJdgBs0UV2AMDYGLEAAAAAAACwLdPsANii121VnmZHAIyJEQsAAAAAAADbMskOgC2bt1V5mB0BMBZGLAAAAAAAAGzLJDsAtuwoIs6yIwDGwogFAAAAAACAbXmdHQAdeNdW5SQ7AmAMjFgAAAAAAAB4MQ/5GbiL7ACAMTBiAQAAAAAAYBsm2QHQoddtVZ5mRwAMnRELAAAAAAAA2zDNDoCOzduqPMyOABgyIxYAAAAAAAC2YZIdAB07ioiz7AiAITNiAQAAAAAAYBtOsgNgB961VTnJjgAYKiMWAAAAAAAAtuE4OwB25CI7AGCojFgAAAAAAAB4kbYqncLCmLxuq3KWHQEwREYsAAAAAAAAvJQRC2Mzb6vyMDsCYGiMWAAAAAAAAHipSXYA7NhBRJxnRwAMjRELAAAAAAAALzXNDoAEv7pKC2C7jFgAAAAAAAB4qUl2ACSZZwcADIkRCwAAAAAAAM/WVuVhRBxld0CS121VzrIjAIbCiAUAAAAAAICXcJ0KYzffjLkAeCEjFgAAAAAAAF7CiIWxO4iI8+wIgCEwYgEAAAAAAOAlJtkBsAd+bavSoAvghYxYAAAAAAAAeAkP7rtzmx3Ak8yzAwD6zogFAAAAAACAl3idHTBQ1xEx3fxf+uF1W5Wz7AiAPjNiAQAAAAAA4FnaqpxkNwzYVVE3V2HI0jfztioPsyMA+sqIBQAAAAAAgOeaZAcM2DIioqibz2HI0icHEXGeHQHQV0YsAAAAAAAAPNc0O2DAFl/+4ashy01WDE/ya1uVJ9kRAH1kxAIAAAAAAMBzeVDfnauv/2UzZDlNauHp5tkBAH30arVaZTcAAAAAAADQQ21VXkXEcXbHAN0WdXP4vZ9oq/I8It7tNodn+qWom4vsCGC/tVV5GHej0Onm/07ir1f2ncT6yrKv3cY3o8fNv3/e/PMiIj4XdfPtx+wtIxYAAAAAAACepa1KD5q68amom+mPfrKtymVEHO0qhme7jYjJ5hQdYOTaqpzEeojy5cdhRLzeYcJNRCxjPWxZRsTVPo5b/js7AAAAAAAAgP5pq3Ka3TBgiwd+/iwi/rWDDl7mICLOY/37BYzIN4OVaex2rPIjR5sff7a0VXkb679zFhGx2IdRi5NYAAAAAAAAeLK2KmcR8Ud2x0D9T1E3lz/7gLYqF7EfD0V52D+KullkRwDd2YxWpl/96OtpWTexHrRcPvT3UFecxAIAAAAAAMBzTLIDBmz5iI+ZRcR/us1gS+axPo0BGIi2Kg/jbrByGv0drXzrKCLeRsTbzSktlxEx3+UJLU5iAQAAAAAA4MmcBNKdom5ePebj2qo8j4h33dawJf8s6maeHQE83+YavWmsRyvHqTG7dx3rMctF129kxAIAAAAAAMCTtVX5OSIOsjsG6FNRN9PHfODmJICrGM4JAEN2GxGTom4+Z4cAj9NW5UncnbbyJjVmf9zG+nSpeVdfz4xYAAAAAAAAeJLNeOL/sjsG6n+Lujl77Ae3VXkaEf/qsIfteV/UzSw7Avi+tioncf+KIEPNH7uN9ZDlfNsvbMQCAAAAAADAk2yuVPiY3TFQT752xtVOvfKPom4W2RHAn4PMaawHK9NwqtVz3ETEbJtf1/57Wy8EAAAAAADAaJxkBwzY1TN+zSwi/rPlDroxD58/kGYzwvwyWjlOjRmGo4j42Fblh1iPWV58xZCTWAAAAAAAAHiStiovIuJtdscQFXXz6jm/rq3K84h4t90aOvLk03aA52mr8iTuTltxYlW3bmM9ZLl8yYsYsQAAAAAAAPAkrq/pzHVRN886pWNzLcZVuA6jD24jYrKNEwuA+9qqnMT9K4IOEnPG6n+Lujl77i92nRAAAAAAAABPZcDSjeVzf2FRN5/bqpxFxMet1dCVg1hfKzRL7oDe2wz4vgxWpmHItw9+3ZyAc/qcsZ6TWAAAAAAAAHi0zXe5/ye7Y6B+K+rm/CUv0FblZUS82U4OHftHUTeL7Ajom7Yqvx6tHKfG8DPXsR6yLJ/yi5zEAgAAAAAAwFM867obHmWxhdc4C1do9MU8fD7Bg76c6hHrr21OAuuP44i4aqtyWtTN1WN/kZNYAAAAAAAAeLS2Ks8j4l12x0D9v+dcvfAtv0e98s+ibubZEbBPNid+fX3ailFev91GxKOHLEYsAAAAAAAAPJrrajpzW9TN4bZerK3KZUQcbev16MxtREy2MV6CvtqMVqZf/fC1a3huIuLkMV/rXCcEAAAAAADAU7j+pBuPvmrhkWYR8XHLr8n2HcT6WqFZcgfsTFuVh3F/tHKcmMNuHEXEYnO10E+HLP+1oyAAAAAAAACGwXfId2OxzRcr6mYRER+2+Zp05m1bldPsCOhSW5XTtirP26pcRMT/RcS/IuLXMGAZk+NYj/Z+ykksAAAAAAAAPIoH7Z3a9kksERFnsT7l4KCD12a75uGUIwakrcqTuH/aiq9DRKxHe4uibi5+9AGvVqvVDnsAAAAAAADoq7YqZxHxR3bHQP29qJutD1naqjyPiHfbfl068VtRN+fZEfAcbVVO4v5oxald/MhtRJwUdbP83k8asQAAAAAAAPAobVXOY339A1tW1M2rrl67rcpleKDcBz99sAv7pK3Kw7gbrJyGrzE8zaeibqbf+wnXCQEAAAAAAPBYrjvpxqeOX38WER87fg9e7iDW1wqdZofA92yulJvG+s/ocWoMffe6rcrTom4uv/0JIxYAAAAAAAAey4ilG1u/RuhrRd0s2qr8EBFvunwftuJNW5XTom4W2SHQVuVJ3J224usH2zaPCCMWAAAAAAAAnm5zdcRBdsdALXfwHmexfhDt93D/XUTEJLmBEWqrchL3rwjy9YIuHbVVOSvq5uLr/2jEAgAAAAAAwGM4haU7nZ7EEhFR1M2yrcp5RLzr+r14saO2Ks+LujnPDmHYNuPEaawHK9OIOMrsYZTOYz3c+9Or1WqVUgIAAAAAAEB/tFV5HgYQnSjq5tWu3qutymV4UN0HtxFxUtTNMjuEYWmrchp3o5Xj1BhY++Xr01icxAIAAAAAAMBjTLIDBupmx+83i4iPO35Pnu4gIuaxHhvAs7VVeRJ3p628zq2B7zqLr05jcRILAAAAAAAAD2qrchEegHbhQ1E3Ox0qtFV5GRFvdvmePNs/irpZZEfQH21VTuL+FUEHiTnwWH/7cvKUk1gAAAAAAAB4DAOWblwlvOdZeLjdFxfhFCR+oq3Kw7gbrEzDdWH009nmR/xXcggAAAAAAAB7bnMdBd1Y7PoNN9/tPt/1+/IsR21VnmdHsF/aqjxtq3LeVuVVRPxfRPwREW/DgIX++vNEMtcJAQAAAAAA8FNtVZ5GxL+yOwbqzysUdq2tymV46N0HtxFxkvXnhHybIeGX01acisVQ/a2om6XrhAAAAAAAAHiIk1i6cZs8TJhFxMfE9+dxDmJ9cs7pQx/IMLRVOYn7VwS5+osxmEbEhRELAAAAAAAAD5lmBwzUVeabF3WzaKvyQ0S8yezgUd60VTkt6maRHcL2bUYr069+OCGJMZqGEQsAAAAAAACPMMkOGKhFdkBEnIWTHvriInwuDkJblYdxf7RynJgD++IkIsKIBQAAAAAAgIc4FaAby+yAom6WbVXOI+JddgsPOmqr8ryom/PsEJ6urcpp3I1WXme2wJ46joh4tVqtskMAAAAAAADYU5sHrx+zOwbq70XdpF4p9EVblcswVuqD24g4KepmmR3Cz7VVeRL3T1tx2hE87O9OYgEAAAAAAOBnTrIDhmpfBiwbszBW6oODWF8rNM3N4FttVU7i/mjFKAye7tCIBQAAAAAAgJ+ZZAcM1HV2wNeKulm0VfkhIt5kt/Cg121VnhZ1c5kdMmZtVR7G3WDlNIxWYBtOjFgAAAAAAAD4GSexdGOZHfAdZ+Hak76Yt1W5KOrmc3bImGyuV5vGerRynBoDw+QkFgAAAAAAAH7KiKUb+3SVUEREFHWzbKtyHhHvslt40FGsR0fnyR2D1lblSdydtuKUItiBV6vVKrsBAAAAAACAPdRW5SQi/pPdMVD/KOpmkR3xPW1VLsPVKH3xt6JultkRQ7H5mjeNu9NWnEoEu/Wbk1gAAAAAAAD4kUl2wIAtswN+YhYRH7MjeJSLWA8ueIa2Kg/jbrAyDeMtSGfEAgAAAAAAwI9MswMG6nafT88o6mbRVuWHcH1KH7xuq/K0qJvL7JC+aKtyGnejlePUGOAvjFgAAAAAAAD4kUl2wEBdZQc8wlmsH/K7TmX/zduqXBR18zk7ZB+1VXkSd6etvM6tAR5ixAIAAAAAAMCPnGQHDNTej1iKulm2VTmPiHfZLTzoKNajo/Pkjr3QVuUk7l8RZIgFPfJqtVplNwAAAAAAALCH2qr0IKkb/yzqZp4d8RhtVS5jPZJg//1tn6+p6kpblYdxN1iZhj+v0Ge/OYkFAAAAAACAv9hcwUE39v4klq/MIuJjdgSPchHrEcfgtVX59WjlODUG2ConsQAAAAAAAPAXbVXOIuKP7I4hKurmVXbDU7RVeRkRb7I7eJT/KermMjti2zajui/Dlde5NUCH/sdJLAAAAAAAAHzPJDtgoG6yA57hLNbjgYPkDh42b6tyUdTN5+yQl2irchL3rwjyZw/G4bMRCwAAAAAAAN8zzQ4YqGV2wFMVdbNsq3IeEe+yW3jQUaxHR+fJHU+yGa1Mv/pxlFcDJLpynRAAAAAAAAB/0VblMjxI7sJvRd2cZ0c8hz8TvfK3om6W2RE/0lblYdwfrRwn5gB7oqibV05iAQAAAAAA4J7NA2ZjhW5cZQe8wCwiPmZH8CgXsWenKbVVOY270crrzBZgL32KiDBiAQAAAAAA4Fsn2QEDtswOeK6ibhZtVX6IiDfZLTzodVuVp0XdXGYFtFV5EvdPWznIagF64SrCiAUAAAAAAIC/MmLpSFE3fT6JJSLiLAwS+mIeETsbsbRVOYn7oxWnOQFPYcQCAAAAAADAd02yAwbqU3bASxV1s2yrch4R77JbeNBRW5Wzom4uunjxzbVj082P0zBaAV7mKiLi1Wq1yg4BAAAAAABgj7RVuYiI19kdA/S+qJtZdsQ2tFW5DKOFPriNiOm2TgBqq3Iad6OV4228JkBE3BZ1cxjhJBYAAAAAAAD+yoClG8vsgC2aRcTH7AgedBARF5sTWZ48ZGmr8iTuTlt5s900gD8tvvyDEQsAAAAAAAB/aqtykt0wYIvsgG0p6mbRVuWHMGzog+OIWLRVefbQ1UKbz/9p3J22ctBxG0BExOWXfzBiAQAAAAAA4GuT7IAB28qVLnvkLNZjB0OH/XcQEX+0VXkeEfNY/1m8Kurm8+aKoJNYn67jiiAgw+LLP7xarVaJHQAAAAAAAOyTzUPud9kdA3Rb1M1hdsS2+fMCwAtdF3Vz8uVf/iuzBAAAAAAAgL1z8vCH8AxDO4UlIiKKujmPiJvsDgB66+LrfzFiAQAAAAAA4GuT7ICBGuSIZWOWHQBAb11+/S9GLAAAAAAAAHztODtgoAY7YinqZhERH7I7AOid66Jull//ByMWAAAAAAAAIiKircppdsOALbMDOnYWEbfZEQD0ysW3/8GIBQAAAAAAgC8m2QFDtTmtZLA230k/z+4AoFcuvv0PRiwAAAAAAAB8MckOGKib7IBdKOrmPEby/ysAL/a+qJvP3/5HIxYAAAAAAAC+mGYHDNRVdsAOzbIDAOiFi+/9RyMWAAAAAAAAvjjJDhio0YxYNtcmfcjuAGCvXf/omj0jFgAAAAAAAKKtysOIOMjuGKjRjFg2ziLiNjsCgL01/9FPGLEAAAAAAAAQ4RSWLo1qxFLUzTJ+8oASgFG7Kerm4kc/acQCAAAAAABAhBFLZzajjlEp6uY8Im6yOwDYOxc/+0kjFgAAAAAAACKMWLryKTsg0Sw7AIC9chsPnNRlxAIAAAAAAEBExCQ7YKCW2QFZirpZRMSH7A4A9sa8qJvPP/sAIxYAAAAAAAAiIl5nBwzUVXZAsrNYf+c9AOP24CksEUYsAAAAAAAAo9dW5SS7YcBGPWIp6mYZj3hoCcDgnT10CkuEEQsAAAAAAAARJ9kBAzbqEUtERFE35xFxk90BQJqbom4uHvOBRiwAAAAAAAAYsXTj9jHfdT4Ss+wAANKcPfYDjVgAAAAAAAAwYunG6E9h+aKom0VEfMjuAGDnPhV1c/nYDzZiAQAAAAAAwIilG4vsgD1zFhG32REA7NTsKR9sxAIAAAAAAMBRdsBALbMD9klRN8uImGd3ALAzv22+9j+aEQsAAAAAAMCItVU5zW4YMNcJfaOom/OIuMnuAKBzN/GM4aIRCwAAAAAAwLhNsgOGqqgbI5bvm2UHANC5WVE3n5/6i4xYAAAAAAAAxu0kO2CgrrMD9lVRN4uI+JDdAUBnPmy+1j+ZEQsAAAAAAMC4GbF0Y5kdsOfOIuI2OwKArbuNF5y4ZcQCAAAAAAAwbkYs3XCV0E8UdbOMiHl2BwBb96xrhL4wYgEAAAAAABiptioPI+Igu2OgFtkB+66om/OIuMnuAGBr/reom8uXvIARCwAAAAAAwHg5haU7y+yAnphlBwCwFTcRcf7SFzFiAQAAAAAAGK9pdsBQba7L4QFF3Swi4kN2BwAvdvqSa4S+MGIBAAAAAAAYr0l2wEB9yg7ombOIuM2OAODZ/lnUzdU2XsiIBQAAAAAAYLwm2QEDtZUHeWOxObVmnt0BwLN8KOpma1/DjVgAAAAAAADG63V2wEAtswP6pqib84i4ye4A4EluImK2zRc0YgEAAAAAABihtipPshsGzEkszzPLDgDgSU6Luvm8zRc0YgEAAAAAABinSXbAgBmxPENRN4uI+JDdAcCj/FLUzdb/vjNiAQAAAAAAGCcnsXTjZtvflT4yZxFxmx0BwE+9L+rmoosXNmIBAAAAAAAYp2l2wEAtswP6rKibZUTMszsA+KHrom5mXb24EQsAAAAAAMA4TbIDBmqRHdB3Rd2cR8R1dgcAf3EbHY9gjVgAAAAAAADG6Sg7YKCusgMG4iw7AIC/mHZ9ZZ4RCwAAAAAAwMi0VTnNbhiwZXbAEBR1s/V03yEAACAASURBVIiI99kdAPzpl6JuOh9qGrEAAAAAAACMz0l2wFDt4gHfiJzF+uoKAHL9VtTNxS7eyIgFAAAAAABgfCbZAQN1nR0wJJsrK86zOwBG7n1RN+e7ejMjFgAAAAAAgPFxEks3nMKyZUXdzMM4CCDLdaxPxdoZIxYAAAAAAIDxMWLpxjI7YKB2+gAVgIhYX+c23ZyKtTNGLAAAAAAAACPSVuUkIg6yOwZqkR0wREXdLCLifXYHwIikDFgijFgAAAAAAADGZpIdMGDL7IABO4v1Q1UAujcr6iblijwjFgAAAAAAgHGZZgcM1G1RN8vsiKHanAZwnt0BPJnxWf/8s6iby6w3N2IBAAAAAAAYl0l2wEClfMf6mBR1M4+I6+wO4KduI+JDRPwzIv4e/s7pm/ebr7Vp/jvzzQEAAAAAANi5k+yAgTJi2Y2ziPiYHQHc8ykiFhGxKOpm8fVPtFU5S+jheT4VdTPLjjBiAQAAAAAAGJfj7ICBMmLZgaJuFm1Vvo+It9ktMGLXsR6tXH47WvmOs85r2IbriDjNjogwYgEAAAAAABiNtiqdwtKdZXbAiJzF+mHrQXYIjMSX0coi1qetfH7ML2qrchqGk31wGxGnj/197ZoRCwAAAAAAwHgYsXTkEacRsCVF3Xxuq/I8In7PboGBuon7o5XlM1/nYjs5dGz6gt/jrTNiAQAAAAAAGI9JdsBA3WQHjE1RN/O2KmfhlAfYhtvYXA8ULxut/KmtyouIOHrp69C5X4q62avr8IxYAAAAAAAAxmOaHTBQe/UAcETOIuJjdgT01Ie4O2llq1/DNgOzt9t8TTrxW1E3F9kR3zJiAQAAAAAAGI9JdsBAGbEkKOpm0Vbl+/CwHB7jU9yNVhZdvUlblacR8UdXr8/WvC/q5jw74nuMWAAAAAAAAEagrcrDcLVDV4xY8pxFxGlEHGSHwJ65jrvRyuUu3rCtypOIuNjFe/Ei17H+2rmXjFgAAAAAAADG4SQ7YMCW2QFjVdTN57YqzyPi9+wWSHYTEZdxN1z5vMs33wwlL8OgbN/dRMR0138+nsKIBQAAAAAAYByMWDpS1I2TWBIVdTNvq3IWEcfZLbBDt3F/tLLMCtkMWBbhtK99dxsRp/s8YIkwYgEAAAAAABiLSXbAQH3KDiAi1ldjfMyOgI59is1wZc/Gc/MwIuuD2Z79ufkuIxYAAAAAAIBxcBJLN5bZAUQUdbNoq/J9RLzNboEtuo71CSeXRd0sclO+r63Kefi864Nfirq5zI54DCMWAAAAAACAcXidHTBQy+wA/nQWEacRcZAdAs90E5vRSqxPW9nra18213j9mt3Bg94XdXORHfFYr1arVXYDAAAAAAAAHWqrchIR/8nuGKh/7OsJCWPUVuVZRPye3QGPdBv3RyvL1JonaKvyJCL+nd3Bgz4VdTPNjngKJ7EAAAAAAAAM3yQ7YMCusgO4U9TNfHM6xHF2C/zAp7gbrfTy68dmwLLI7uBB17E+napXjFgAAAAAAACGb5odMFC3+37dx0idRcTH7AjYuI714GNR1M1lcsuLtVV5GBEX4dqufXcbEad9/DvKiAUAAAAAAGD4TrIDBqqXpygMXVE3i7Yq30fE2+wWRukmNqOViLjs44jgAYtw0lEfTPt0PdXXjFgAAAAAAACGb5IdMFCL7AB+6CzW12g4LYKu3cb90coyM6ZLbVVehAFLH/zS16uqIoxYAAAAAAAAxsBDx24sswP4vqJuPrdVeR4Rv2e3MEif4m600tuxwFNsPp+cbrT/fivq5iI74iVerVar7AYAAAAAAAA60lblNCI+ZncM1D+KullkR/BjbVVehREXL3cdm9NWirq5TG7ZubYqZxHxR3YHD3pf1M0sO+KlnMQCAAAAAAAwbJPsgKEyYOmFszDi4ulu4u6KoMWQrwh6SFuVJxExz+7gQdex/nrXe0YsAAAAAAAAwzbJDhio6+wAHlbUzaKtyvfhGhR+7jbuj1ZGcUXQQ9qqnMT6f5OD3BIecBMR06JuPmeHbIMRCwAAAAAAwLBNswMGapkdwKOdRcRpeBDPfZ/ibrSyyE3ZP21VHkbEZfi82Xe3EXE6lAFLhBELAAAAAADA0J1kBwyUkxp6oqibz21VnkfE79ktpLqO+6etDOahf0cuI+I4O4IHzYZ2cpARCwAAAAAAwEC1VXkSvou+K4N6aDh0Rd3M26qchYfyY3Ib6yHGItajlWVqTY+0VXkREa+zO3jQL0XdXGZHbJsRCwAAAAAAwHCdZgcMmBFL/5xFxMfsCDr1Ie5GKz5Hn2Ez9nqb3cGD3hd1c5Ed0YVXq9UquwEAAAAAAIAOtFW5jIij5IxBKurmVXYDT7c5YcID+uG4js1pK0XdLJJbeq+tytOI+Fd2Bw/6VNTNNDuiK05iAQAAAAAAGKC2Ks/CgKUrn7IDeLazWJ9Q5JqtfrqJ+1cEfc7NGY7N9XMX2R086DoGfsqaEQsAAAAAAMDAbB5Gnmd3DJhrSnqqqJvPbVWeR8Tv2S08ym3cH60sU2sGqq3Kw1j/b2zctd9uI+J06OMtIxYAAAAAAIAB2QxYFuFhZJeW2QE8X1E387YqZxFxnN3Cd32KuyuCDMY6ZsDSK9MxDLmMWAAAAAAAAAZic8LEu+yOEfBgvf/OIuJjdgQRsb4eZRERl0XdLHJTRukiDLr64JexjLperVar7AYAAAAAAACeqa3KSUTMNj+OMltG5P8N/TqHMWir8iIi3mZ3jNBNbEYrsT5txedSkrYq5xHxa3YHD/qtqJvz7IhdMWIBAAAAAADomc1w5TTWwxXfQb9bN0XdTLIjeLnNNSrLcI1K127j/mhlmVpDRERsrtT6I7uDB70v6maWHbFLrhMCAAAAAADogbYqT2I9XDkNw5VMy+wAtqOom8+bK7h+z24ZoE9xd0XQKK5A6ZO2KqdhwNIH17G++mxUjFgAAAAAAAD21Ga4Mov1cMVVQfthkR3A9hR1M9+cSGEY9jLXsf7cWBR1c5ncwk9s/l7xe7T/biJiOsbrtoxYAAAAAAAA9khblV9OW5mG4co+WmYHsHVnEfExO6JnbmIzWon1aSuje9DeR5srtC7DFVr77jYiTsf6eWXEAgAAAAAAkGjzUHEad1cFebi431yNMjBF3SzaqnwfEW+zW/bYbdwfrSwzY3i2RRhH9sFszNdwGbEAAAAAAADs2Ga48mW08iY5hycY84PFgTsLI7JvfYq70Yo/9z3XVuVFuDarD34Z+5VcRiwAAAAAAAA70FblJO6uCTJc6afr7AC6UdTN57YqzyPi9+yWRNdxd9rKYqxXmQzR5s+2k4b23/uibi6yI7K9Wq1W2Q0AAAAAAACD9NVwZRa+A34I3hd1M8uOoDttVV7FeD5Xb+L+aGWZGUM32qqcRcQf2R086FNRN9PsiH3gJBYAAAAAAIAtaqvyJNajlWmM52H4WCyzA+jcWUR8zI7oyG3cH624ImjgNn8fGbDsv+tYD14JIxYAAAAAAIAX+2q4choRR7k1dGiRHUC3irpZtFX5PoZz9cqnuButLHJT2KXN30uL7A4edBsRp67vumPEAgAAAAAA8AxtVZ7GerRyGhEHyTnsxjI7gJ04i/5+Xt9ExGXcDVc8GB+htioPI+Ii+vlneGymrvK6z4gFAAAAAADgETYPBU9jfU1QXx9w83y3HjSOQ1E3n9uqPI+I37NbHuE27o9Wlqk17IvLcJ1dH/ziWq+/erVarbIbAAAAAAAA9tJXw5XTiHiTnEOuT0XdTLMj2J22Kq9iP4cAH+JutOIBOPe0VXkRw7kOa8h+K+rmPDtiHzmJBQAAAAAA4CttVU7ibrjyOreGPWIsMD5nEfExOyIirmNz2kpRN4vkFvZYW5VnYcDSB+8NWH7MiAUAAAAAABi9r4Yrs9jPkxfIt8wOYLeKulm0Vfk+dj8KuIn7VwR93vH700NtVc6iH1dgjd11rAdy/IARCwAAAAAAMEptVZ7EerRyGhFHuTX0gJNYxuks1l8jDjp8j9tYD1a+nLay7PC9GKDN32fz7A4edBMRU8O0n3u1Wq2yGwAAAAAAAHaircpp3F0VZLjCoxV18yq7gRybK1q2fcLFp7gbrRhI8WxtVR7G+qSoLodWvNxtrAcsPt8f4CQWAAAAAABg0Nqq/DJa6fo0BYbrJjuAPEXdzDcnXbzkWqHr2Jy2UtTNYhtdsBmwLMLfbX0wM2B5HCMWAAAAAABgUDYP9b6MVqbh4R4vt8wOIN1ZREwi4vUjP/4m7l8R5PoQunAREcfZETzol6JuLrMj+sKIBQAAAAAA6L1vhitvknMYnkV2ALk2I5RpW5XnsR60fDuOu437o5XlLvsYn7YqL8Lfd33wvqibi+yIPnm1Wq2yGwAAAAAAAJ6srcpJrEcrs/Cd6HTrf3wXPV9rq3L61b8ujVbYpbYqZxHxR3YHD/pU1M00O6JvnMQCAAAAAAD0RluVJ7G+ImgWhivszjI7gP1S1M0iu4FxaqvyNAxY+uA61kNbnshJLAAAAAAAwF7bDFdmsX4YdJRbwxgVdfMquwFg8/fhIv56nRX75TYiTpzQ9DxOYgEAAAAAAPbO5jvNp2G4Qr5P2QEAbVUeRsRlGLD0wdSA5fmMWAAAAAAAgL2wGa58+eEhHftimR0AjNtmwLIIo84++KWom6vsiD4zYgEAAAAAAFJsHsp9Ga1Mw3CF/bTMDgBGbx4Rx9kRPOi3om4usiP6zogFAAAAAADYmbYqJ3F3TdCb1Bh4nEV2ADBebVXOI+JtdgcPel/UzXl2xBAYsQAAAAAAAJ3aDFdOI2IWvpOc/nEtBJCircpZRPya3cGDriPiLDtiKF6tVqvsBgAAAAAAYGDaqjyJu6uCDFfoq9uibg6zI4Dx2fw9+u//z979NEdy3eeef5pii6TCFloj2+HgpIxi3OvJxV00rM3EjaiKLK5m2dDsZpGD6ldAaDHrzl7eFcFX0NWTL4DoV8CqqFqbwMKLtEOhgp3hcIytIDDWSKRICrPIgwa6BaAKqDrnl3++n4iOqyuTJx9Vo/6gzpO/Y50DS51I2ony4tQ6SFswiQUAAAAAAAAAAGyE23AbqSqubNumATaCKSwAgnPvpxPrHFjqTNIuBZbNosQCAAAAAAAAAADurUzji2krQ1FcQftQYgEQVJnGjySNJW0ZR8FyoygveJ/YMEosAAAAAAAAAADgTq4UV3bFJhvajc1JAKFNxDF8TfA0yotD6xBtRIkFAAAAAAAAAADcyt0VflFaeWIcBwhpYR0AQHeUaTwWBZYmeBnlxdg6RFs9OD8/t84AAAAAAAAAAABqpkzjni6PCaK4gk6K8uKBdQYA3VCmcSbpmXUOLDWN8mJoHaLNmMQCAAAAAAAAAAAkvVFcGYk7wYFj6wAAuqFM45EosDTBsarPSfCIEgsAAAAAAAAAAB1WpvGOqtLKUBRXgKsW1gEAtJ97Hz6wzoGlziTtRnlxah2k7SixAAAAAAAAAADQMVeKK7uStm3TALV1ZB0AQLu5CWgTSVu2SbDEmaRhlBcL6yBdQIkFAAAAAAAAAIAOKNN4V1VpZVdslgGroMQCwJsyjR9JOhTvyU2wH+UF7wmBUGIBAAAAAAAAAKCF3ObYUBRXgPtiwxKAT4fiGL8meB7lxdg6RJc8OD8/t84AAAAAAAAAAAA2wBVXLkorT4zjAI0W5cUD6wwA2qlM47GkPescWOpllBcj6xBdwyQWAAAAAAAAAAAarEzjni6LK4ltGqA1ptYBALRTmcYjUWBpgmMKLDYosQAAAAAAAAAA0DBXiisjcRQB4MPCOgCA9inTeFfSC+scWOpE1ZGMMECJBQAAAAAAAACABijTeEdVaWVX0rZtGqD1FtYBALSLex8fW+fAUmeSdqO8OLUO0lWUWAAAAAAAAAAAqKkyjYe6PCqI4goQzsQ6AID2KNP4karXlS3jKFhuN8qLI+sQXUaJBQAAAAAAAACAGnFHDVz8YbMLsLGwDgCgHSiwNMrTKC8m1iG6jhILAAAAAAAAAACG3ObWrqShKK4AtRDlxcI6A4DWGEt6bB0CS72M8mJsHQKUWAAAAAAAAAAACO5KcWVX0hPjOADeNLUOAKAdyjQ+EO/zTfAqyouRdQhUKLEAAAAAAAAAABBAmcY9XRZXEts0AG6xsA4AoPnKNB5J+sQ6B5Y6ljSyDoFLlFgAAAAAAAAAAPCkTOMdVccEjcRRAkBTHFkHANBsZRoPJb2wzoGlziTtRnlxah0ElyixAAAAAAAAAACwQa64MlI1cWXbNg2Ae6DEAuDe3OeAQ+scWOpM0jDKi4V1ELyJEgsAAAAAAAAAAGsq03hX1cQViitA81FiAXAvZRo/UlVg2bLOgqX2o7zg9b6GKLEAAAAAAAAAAHAPrrhy8YfNKqAdzjhWAsAaJqLM2gTPo7wYW4fA9SixAAAAAAAAAACwAnd39UVpZSiKK0AbcVc+gHsp03gs6bF1Diz1MsqLzDoEbkaJBQAAAAAAAACAG7xVXHliHAeAf5RYANxZmcaZpD3rHFjqOMqLkXUI3I4SCwAAAAAAAAAAV5Rp3FNVWhmJO6qBrllYBwDQLGUajyQ9s86BpU5UTdJDzVFiAQAAAAAAAAB0XpnGO7qcuEJxBeguJrEAWJn7/PDCOgeWOpO0G+XFqXUQLEeJBQAAAAAAAADQSW7jaaSquLJtmwZATSysAwBoBvc5YmKdAyvZjfKCkmJDUGIBAAAAAAAAAHRGmcYX01aGorgC4E0nUV4srEMAqL8yjR9JGkvaMo6C5Z5GeTGxDoHVUWIBAAAAAAAAALTaleLKrthsAnCzsXUAAI1xKI4fbIKXUV6MrUPgbiixAAAAAAAAAABaxd0dfVFaeWIcB0AznEk6sA4BoP7KNB5LSqxzYKlXUV6MrEPg7iixAAAAAAAAAAAaj+IKgDWcSRpGeXFqHQRAvZVpvC9pzzoHljqWNLIOgft5cH5+bp0BAAAAAAAAAIB7cUcFjURxBcD9HEsaRXlxZB0EQL2VaTyS9MI6B5Y6k7QT5cXCOgjuhxILAAAAAAAAAKBRyjTekbSvaurKlnEcAM10LOkgyouxdRAA9ec+e0zE5466u5isRTGxwThOCAAAAAAAAABQe+64oJGq8sq2bRoADXUsaSzpkDv0AazKfQaZiAJLE+xTYGk+SiwAAAAAAAAAgNq6MnVlzzoLgEZ6pWrzmeIKgDujwNIoz5mu1Q6UWAAAAAAAAAAAtVOm8UhVeeWxcRQAzfNK0qGq4sqpdRgAjTYWn0Wa4GWUF5l1CGzGg/Pzc+sMAAAAAAAAAABc3O28r+rYII4MArCqM12WVg6twwBohzKNx2ISXBMcR3mxYx0Cm8MkFgAAAAAAAACAqTKNe5IySbtiXD+A1ZyoKq5MKK4A2DQ3EY4CS/2dSBpah8BmUWIBAAAAAAAAAJi4Ul5hkwjAKi6KK+MoL46swwBopzKNdyW9sM6Bpc4k7XJsXPtwnBAAAAAAAAAAICjKKwDu4FjSWNVRQQvbKADarkzjHUkTMRmuCT6O8mJiHQKbxyQWAAAAAAAAAEAQlFcArOiVqk1kiisAginT+JGqaU8UWOrvKQWW9qLEAgAAAAAAAADwivIKgBW8UrV5fMjREABCcwWWiaRt4yhY7mWUF2PrEPCHEgsAAAAAAAAAwAu3IbQv6Zl1FgC1c6bL0sqhdRgAnXcg6bF1CCz1KsqLkXUI+EWJBQAAAAAAAACwcWUa76uavsJIfgAXTnR5TBDFFQC1UKbxgZgW1wTHkkbWIeDfg/Pzc+sMAAAAAAAAAICWKNN4KGksxvEDqJyomrgyjvLiyDoMAFxVpvFI0gvrHFjqTNJOlBcL6yDwjxILAAAAAAAAAGBtZRr3VJVXEtskAGrgWNXrwYTiCoC6KtN4R9KX1jmw1JmkIe8n3cFxQgAAAAAAAACAtZRpnEl6Zp0DgKmpqokrh9wpD6DuXIFlYp0DK9mnwNItlFgAAAAAAAAAAPfC0UFA573SZXHl1DoMAKyiTONHqj6/bBlHwXLPo7wYW4dAWJRYAAAAAAAAAAB34jZ/MkmfGEcBENaZXGlF1VFBFFcANNFE0mPrEFjqZZQXmXUIhEeJBQAAAAAAAACwMjd+/1BMXwG64kTVhu9hlBeHxlkAYC1lGo9FgaUJjqO8GFmHgA1KLAAAAAAAAACAlZRpvC/pU+scALw7UVVWG0d5cWQdBgA2oUzjTNKedQ4sdSJpaB0Cdh6cn59bZwAAAAAAAAAA1Jg7Pmgs6YlxFAD+HKt6nk8orgBomzKNR5JeWOfAUmeShrwPdRslFgAAAAAAAADAjTg+CGi1qarn92GUFwvjLADghfssM5G0ZRwFy30c5cXEOgRscZwQAAAAAAAAAOBa7q7lA7HpA7TJK10WV06twwCAT2Ua90SBpSmeUmCBRIkFAAAAAAAAAHCNMo33JX1qnQPA2s7kSiuqjgqiuAKgE9xxiIeiwNIEL6O8GFuHQD1QYgEAAAAAAAAAvKFM47GkPescAO7tRNXkgcMoLw6NswCAlUNJj61DYKlXUV6MrEOgPiixAAAAAAAAAABeo8ACNNaJqg3bcZQXR9ZhAMCS+zyTWOfAUseSRtYhUC8Pzs/PrTMAAAAAAAAAAIxdGbnPhg/QHMdyRwVRXAGASpnGI0kvrHNgqTNJO1FeLKyDoF6YxAIAAAAAAAAAHecKLBMxch9ogmNJY1XFlYVtFAColzKNd0WBpQnOJA15H8N1KLEAAAAAAAAAAMaiwALU2StdTlw5tQ4DAHVUpvGOqs80qL99JojhJpRYAAAAAAAAAKDDyjQeS3pinQPAG85UlVYmorgCAEtdmSq3ZRwFyz2P8mJsHQL1RYkFAAAAAAAAADrKFVj2rHMAkHRZXDmM8uLQOgwANAUFlkZ5GeVFZh0C9UaJBQAAAAAAAAA6qEzjfVFgAaydqCqujDlWAQDubSyORWyC4ygvRtYhUH+UWAAAAAAAAACgY8o03pX0qXUOoKOOdTlxheIKAKyhTOMDcSxiE5xIGlqHQDM8OD8/t84AAAAAAAAAAAikTOOepCMxch8I6VjVpIDDKC8WtlEAoB3KNB5JemGdA0udSRpS3MSqmMQCAAAAAAAAAN1yKAosQAivdDlx5dQ6DAC0SZnGQ1FgaYpdCiy4C0osAAAAAAAAANARbuT+Y+scQEudqSqtTERxBQC8KdN4R9XrLervaZQXE+sQaBaOEwIAAAAAAACADijTeFfS59Y5gJa5KK4cRnnBhioAeFam8SNVxyJuW2fBUi+jvBhZh0DzMIkFAAAAAAAAAFrObfiMrXMALXGiqrgy5ngEAAhuIgosTfCKAgvuixILAAAAAAAAALTfgaQt6xBAgx3rcuIKxRUAMFCm8Vgci9gEx5JG1iHQXBwnBAAAAAAAAAAtVqbxUNIX1jmABjpWNcHoMMqLhW0UAOi2Mo0zSc+sc2CpM0k7vG9iHUxiAQAAAAAAAIB2O7AOADTIK1UTVyZswAFAPZRpPBIFliY4kzTk/RProsQCAAAAAAAAAC3lNn0Yuw/c7EzSRJdHBZ3axgEAXFWm8Y6kF9Y5sJJ9jtzDJnCcEAAAAAAAAAC0UJnGjyQtJG0ZRwHq5kyXpZVD6zAAgOu5AstEfJZpgudRXmTWIdAOTGIBAAAAAAAAgHbaF5s+wIUTXRZXJsZZAABLuDLuWHyWaYKXFFiwSZRYAAAAAAAAAKBl3MbPvnUOwNixqjv4xxxvAACNcyiORGyC4ygvRtYh0C6UWAAAAAAAAACgfXbFncvopmNVd+4fRnmxsI0CALiPMo3HkhLrHFjqWNLQOgTahxILAAAAAAAAALRPZh0ACOiVqjv2JxRXAKDZyjTel7RnnQNLnUkaRXlxah0E7UOJBQAAAAAAAABapEzjXUnb1jkAj85UHRN0qGriChtoANACZRqPJH1qnQMr2eWoPvhCiQUAAAAAAAAA2mVkHQDw4EyXpZVD6zAAgM0q03hH0oF1DqzkaZQXE+sQaK8H5+fn1hkAAAAAAAAAABtQpvEjSV9Z5wA25ESXxZWJcRYAgCfu88tC0pZxFCz3WZQX+9Yh0G5MYgEAAAAAAACA9ti1DgCs6VjVUUFjjikAgPZzBZaJKLA0wSsKLAiBEgsAAAAAAAAAtAclFjTRsaSxqokrC9soAIDAxpIeW4fAUsfiyEoEwnFCAAAAAAAAANACHCWEhnml6qigCcUVAOimMo3Hkvasc2CpM0m9KC9OrYOgG5jEAgAAAAAAAADtMLQOACxxUVw5ZCMMALqtTOORKLA0wZmkIe/bCIkSCwAAAAAAAAC0A0cJoW7OdFlaObQOAwCohzKNdyW9sM6BlexHeXFkHQLdQokFAAAAAAAAANphaB0AkHSiy2OCKK4AAN5QpvGOpLF1Dqzkl1FejK1DoHsenJ+fW2cAAAAAAAAAAKyhTONHkr6yzoHOuiiujLlbGwBwE/d55UjStnUWLPUyyouRdQh0E5NYAAAAAAAAAKD5dqwDoHOOVd1JfxjlxcI2CgCg7lyBZSIKLE1wTIEFliixAAAAAAAAAEDzDa0DoBNeqdqApLgCALirA0mPrUNgqWPxuRLGKLEAAAAAAAAAQPP1rAOgtV6pOiroMMqLU+swAIDmKdP4QNKedQ4sdSZpxPs9rFFiAQAAAAAAAIDm61kHQGuc6bK0cmgdBgDQbGUajyR9Yp0DK9mN8uLIOgRAiQUAAAAAAAAAmm/HOgAa7URVcWVCcQUAsCllGu9IemGdAyt5GuXFxDoEIFFiAQAAAAAAAIA22LIOgMY5kzSWNOauawDAprkCy8Q6B1byWZQXY+sQwAVKLAAAAAAAAAAAdMeJpIzNKgCAL2UaP1JVlKRkW3+vorzYtw4BXEWJBQAAAAAAAAAarEzjoXUGNMKZqvLKgXUQAEDrTSQ9tg6BpY4ljaxDAG+jxAIA2YORswAAIABJREFUAAAAAAAAQLtNJY2ivFhYBwEAtFuZxmNRYGmCM0nDKC9OrYMAb6PEAgAAAAAAAABAe02jvBhahwAAtF+ZxpmkPescWIoCC2qNEgsAAAAAAAAAAO2VlGl8JOlA0iEbVgAAH8o0Hkl6Zp0DK9mP8uLIOgRwk3esAwAAAAAAAAAAAK8eS3oh6asyjcdlGg+N8wAAWsQVWA6sc2Alv4zyYmwdArjNg/Pzc+sMAAAAAAAAAIB7coWEL6xzoHFOVG04jpnOAgC4rzKNdyRNJG0ZR8FyL6O8GFmHAJZhEgsAAAAAAAAAAN2zLelTMZ0FALCeQ1FgaYJjCixoinetAwAAAAAAAAAA1rKwDoDG25O0V6Yx01kAACtzxwhtW+fAUieShtYhgFVxnBAAAAAAAAAANFyZxnzRi017qarMMrEOAgCopzKNjyQ9ts6BpT7m/RxNQokFAAAAAAAAABqOEgs8YjoLAOBafP5ohJccI4Smecc6AAAAAAAAAABgbcfWAdBa25I+lfRVmcbjMo2HxnkAADXA+0FjZNYBgLt61zoAAAAAAAAAAGBtTMhACHuS9so0vpjOchjlxcI2EgAAuMGU92k0ESUWAAAAAAAA1M6gn+xIeuT+7Kzwr5xKOpKk2Xw68ZcMqK0jSYl1CHTGxXSWT8s0fqXqqKFD40wAAOBNE+sAwH1QYgEAAAAAAICZQT8Zqiqp9Nz/uyNpa801JelM1ab+xZ/JbD5drLMuUHML6wDorCeSnrjpLGNVhZaFaSIAQAhH1gEAtNOD8/Nz6wwAAAAA7mHQTxaq7oAM4flsPs0CXQs3GPSTfVUTCepoocvNswUbxe0y6CeZpGeBLnc8m09XmbqBhnKllYs/oadGnKi6G/FwNp8yMeAO3HvQrsdLjGfz6djj+kEM+slYVSHLl/3ZfHrthlGZxkNJX3i8dq395/m7+h//z19YxzAz+PE3+t8++Mo6xlVMZwGADijT+EjSY+scuNHzKC8y6xDAXTGJBQAAAGigQT8ZKVyBRfK7GYPV7Svs3/u9uSkIx3pzAgJ3aTXQoJ88UvWzFwpfgLaM+xnadX+GWnPKypq2Je1J2hv0kzNJh6rKExPDTE2xK7+lo7ZsdO9ZXTjKi0mZxlaXN/dP376vX/3OOoWd//0n31pHeBvTWQCgG8aqjpdDPfWsAwD38Y51AAAAAAB34zYDDwJflqkI9dCIAssVj1Vt5n0q6ctBP1kM+sl40E983smPzcsUuHTgJnWg4Qb9ZHfQTw4lfSXphaoNTcsCy9u2VL1GfeFen0buPRbX8z01p/FFxxCvXSsUQo99Z6irf/j6A+sIpv724dfWEW6yrWqa26/LND4s05jPgQDQLmNVx3iinnjfRSNRYgEAAACaZ1/hNwGZjGCsJZv6FxMQPncbxhkbxvU26Cc9SZ8YXLpncE1swKCf9NxzeyHpc1XFlSbYVlW04bXpGu61wLfGl1jk/7VrlYLKxHOG2vrNd939qvuDdx7ozx98Zx1jFU8kfV6m8aJM46xM4551IADAeqK8OJU0ss6BG21RIEUTdfeTPQAAANBABsd6XL0201hste3xv7grlw3jesuMrtu2n/fWc+WVsaRfq3puN21y1IUtudcm4xx10/O8/tlsPj31fI0Qep7XX6zwz0w8Z6it//j2gXUEMx++f24d4a6YzgIALRLlxaGkqXUO3Mjke0RgHZRYAAAAgGaxmMJygU1lWz3rAJ683jAe9BO+WKkRN3lhz+jyvN40hCuvHKoqr1j9vPhQp2OP6mDoef02TGGR6vE4TTxnqK1f/c46gZ2/ee+P1hHWcXU6ywHTWQCgsTLrALhRUqbx0DoEcBeUWAAAAICGcBvKzwwjsKlsq+2P/5akTwf9ZBLo2AosNza8dtt/3hvvrckrTTky6C64k/RNvp+TE8/rh2L+OLmR/q8856idf/zuR9YRTG2/9611hE3YVnWE4a/LNJ6UaTwyzgMAuIMoLybiM3SdZdYBgLugxAIAAAA0R2Z8fTaVbXXl8U8kHQ36ydA6SJe5xz8xjLBFmameBv3k0aCfZGrf5BXcrud5/YXn9b1zx+L5nuCzWPGfm3jMUEv/9v271hFM/eUPWlFiuSqR9KJM41OmswBAo2TWAXAjprGgUSixAAAAAA1gfKzHha6UKGrH/f136WiLLUlfDPrJyDpIh2XWAdTeI7Qaa9BPdlUdZ2I5FSyUiXWAmnnsef02HCfk/XPSbD5drPiPHvrMUUcn37xnHcHUz3/4W+sIvmyJ6SwA0BhuGstL6xy4UWYdAFgVJRYAAACgGQ6sA4jJCJZ61gGMvKDIEl4NprBcGFoHQMVNXzmU9Lmq4x7QIYN+EqKcQYlluZXH80d5sbjLP98G//KHH1hHMPPh+w+sI4TCdBYAaIbMOgBulFAIRVNQYgEAAABqzm0oP7HO4fSsA3TU0DqAIYos4Y2tAzhMf6oBN31lofq8D4UysQ5QIz3P6x97Xj8U369Zdy36jH2EqKvy684UOf7ETx+eW0cIjeksAFBjrkzLNJb6yqwDAKugxAIAAADUX2Yd4IqhdYCO6lkHMPbCbaTDM1cYqsukjZ51gC5z01fGqqavdOk4M/wp3+WMhef1Q+l5Xn9xx3/+UNKZhxy19NW3nStyvPazH35vHcES01kAoJ4y6wC40TYFUDQBJRYAAACgxmp0rMcFJiPY4HGXxhxnFURmHeCKx9YBuso91yaS9myT2JnNpxPrDDUy9Lx+G44Skvx/XrvT4xTlxamqIkvr/f0f/sw6gqnt976xjlAHTGcBgBpx01g+s86BG2XWAYBlKLEAAAAA9XZgHeAtPesAHcVmfrU5MbYO0WaDfpKpPlNYJL0u8iEg95gfidcdXOp5Xn/ieX3vBv0kRNn0PmWfun2O9OLfv39oHcHUf31IieUtV6ezjMs0pgwOADYydWgqXMNsl2mcWYcAbkOJBQAAAKgpd6xH3TYR65an9QJtjDVFMugn+9Yh2mjQTx5JquNj27MO0CXufecLcXzQ1DpAzfguty08rx9Cz/P6J7P59PSu/1KUF0fqwM/zyTfdLrF8+A4llhtsqZoo9mWZxkdlGo/KNH5kHQoAusJNhetEobah9nlfRJ1RYgEAAADqK7MOcB0mIwTXsw5QM5krXGCz9lXP4gIlrkAG/WQs6YV1DtRLiPf82Xy68H2NAHy/Vi3W+HezDWWorX/+prtfcf+XH1knaIzHqt7jFkxnAYCgDsQ0lrraUj1vZAEkUWIBAAAAaslNm6jVsR5X9KwDdAxfsr+JL1o2rMZTWCR+/oNwBZY96xw1MrEOUCO+n4NtmRLi+3Ga3PdfjPJiIulkY0lq6F+/fmAdwcxfPDy3jtA0TGcBgICYxlJ7TGNBbVFiAQAAAGrGbShn1jluwaZyWEPrADW0zzSWjTpQPaewSLzeeEeBBUv0PK9/5Hn9UOo8iUWq9+fKtfzn+bv6/R+7W+T4m/e+s47QZExnAYAAorzI1PJCbYNxkxBqixILAAAAUD91PdbjAl/whtWzDlBDW5JG1iHaYNBPeqp3gWHLZYQHFFhu1JZixSbUvZxRF76n5631MxnlxVgt3Tz6p2/ft45gqvfwG+sIbcB0FgDwL7MOgBs9K9O4Zx0CeBslFgAAAKBGan6sxwVKLGHV9Vgpa3V/njRFZh1gBT3rAG1EgeVWp9YBasT3e37jC0ODfjL0fY3ZfLqJx2m0gTVq5x++/sA6gqm/ffi1dYS2YToLAHjQ5kJtS2TWAYC3UWIBAAAA6iVTvaewSExGCCbExliDbQ/6CRsLa3CPXxNKDEPrAG1DgWWpxhcrNsG913v9TDKbTyc+1w+k53n9400sEuXFRNJ0E2vVyW++6+7X2z95+EB//oDjhDx5ezrLPtNZAGBtmXUA3GiPaSyom+5+ygcAAABqxm0WfWKdY0U96wAdQUnjdrvWARruwDrAingebNCgnxyIAsutZvMpk1gqPc/rt+Vu3CYdudS6KWb/8e0D6whm/qeH59YRuuKxpE8lfeWmswyN8wBAI7lpLBsp58KLzDoAcBUlFgAAAKA+MusAdzC0DtARPesANUeJ5Z7clJ/EOseKKLFsyKCfjNScsuSF6ZU/z92fz678d5v+Ipwv1i8NPa+/8Lx+KI05cinKiyNVz5/W+NXvrBPYiT/43jpCF+1J+qJM4wXTWQDgXlpXqG2RPY7RQ528ax0AAAAAwOspLE26M55fbMPw/Ti/1P03EXckPZJtEeKx4bWbLrMOcAfb1gHawB0f9cI6xxJTSRP35+guE1Hc++iO+7Or+78+MIXlUs/z+hPP64fi+716suH1Mkkj1f/4yqX+8bsfeb/G//U//9b7Ne7rr9/91jpCl22rms7yaZnGLyWN3ZFdAIBbRHkxKdN4qubcUNE1B+KmNdQEJRYAAACgHsbWAe6oZx2gI7xujM3m09G6awz6ySNVG8YjGXwRNegnw9l8Ogl93SYb9JNdNexLQ/6e1+OepxPrHDd4KelQ0mSdY3xm8+lCVSnvUFK2xmvTxqZetEBjJoxYceUp32WQxSYXi/LitEzjkaTPN7muhX/73u9X2x++/0A//2F9SyyojT1Vd6+fqNr8G0d5QSESAG6WSfrCOgSulZRpPKSYiTrgOCEAAADAWMOO9bjABAzPAmyMbeTIjNl8ejqbT8ez+XQo6ZebWPOOmAp0dwfWAe6Bv+f1TFSvqQsnql4vfjKbT0ez+fRwnQLLdd56bfpIVVnmbIV/lY3HS77f6xee1w+h5/sCrqC1UVFeHKqafNRoJ9+853X9nz4897o+WudiOstXZRqPyzQeGucBgFpyBYnGfw5pscw6ACBRYgEAAADqILMOcB+ufAN/ep7XX2x6wdl8eiDp7za97hKPAl+v0Qb9ZKRmHs/Tsw7QVIN+kqk+xcMTSU9n82lvNp8ebLq4cpPZfLpwk6d6qsost2n8dJBNcMdPeTWbT9vwWA89r+9zg2ek1YpdtfUvf/iB1/V/9sPvva6PVtuT9EWZxosyjffLNObzKgC8aWQdADdKKGKiDiixAAAAAIYaOoXlQs86QMsNPa/vZfPQbUqGnMgyDHitNsisA9wTk1juwb3HPLPOoWqj/KK8MrYK4aazjFSV7W6aRsUklkrP8/obmQZWAz3P6y98LRzlxULSvq/1Qyi/fuB1/f/2/u+9ro9OYDoLAFzDfQ5ZVi6HnbF1AIASCwAAAGBrbB1gDWwq+9XzvP7E18JuIsuJr/VxP24iRxOnsEjNLfuZGfSTR6rHe8xnkkzLK2+bzadHs/l0R9Lza/7PbZgOsgm+3+Pb8jg3+nGK8mIs6ZXPa/j01bd+j/v563e/9bo+OufqdJasTOOedSAAMJZZB8CNtss0HlmHQLdRYgEAAACMNPhYjwuUWPzy/fguPK+feV4fd+AKDY2+437QT3rWGRomk+17zImkj2fz6X6oY4PuajafZpJ+oStHqtQ1q4Gh5/UXntcPxfdRXSHKPiM1sHj693/4M6/rf/DOA334zjder4HO2lY1Je3XZRoflmm8ax0IACwwjaX2MusA6DZKLAAAAICdzDrAmiix+OV1Y2w2ny58ri/p0PP6F/g5XM2+pC3rEGvi73pF7hihTwwjvJK0M5tPJ4YZVjKbTw9VFTbO1MCNfI96ntefeF7fu0E/CfGa5L3EEuXFqaTGbaL/+/cPva7/4ft+p7wAzhNJnzOdBUCHZbpSKEetMI0FpiixAAAAAAYG/WRfzZ7CIklbTEbwI8DG2NTz+hfTDI59X0fNL2Z4556njZ7C4lBiWd2B4bV/OZtPd5s00WQ2nx6pKrK05YibTfD9GaUNj3XP8/pnoZ5HUV4cSfpliGttysk3fkssf/PeH72uD7yF6SwAOslNY7H83QW3y8o0fmQdAt1EiQUAAAAIzB3rkQW6nO87Wnqe1++qnuf1Q20eNmYTu+UyhSn7+H69ocSyAleS9H3EyXXOJD2dzaeN/BJ6Np8ezeZTNg31epKPT8HKGZ75fk0KWvSJ8uJADRrp/8/f+P1ae/u9b72uD9yC6SwAuuZATGOpq22144YYNBAlFgAAACC8UMd6nMj/HS1Dz+t3le+NsYXn9UPi+I9buCkse4Eu5/vLLUosSwQuSV51Jmk4m0/HBtfG5rWqnOHR0PP6E8/rX2dfYaaore1fv37gdf2//AElFphjOguATnBHGzayCN8R+0xjgQVKLAAAAEBAboMx1F0M+/JfVmBT2Y+h5/XbsoEotauQ40MW6DrTAAWGph/BFkKokuRVFwWWNr2udF3P8/pt+VnpeV5/4Xn9P+E2kYaq+d3Q/3n+rn7/x3Ov1/j5D3/rdX3gjpjOAqDtmMZSX1tiGgsMUGIBAAAAwjpQmA3G6Ww+PZT/DZCe5/W7qud5/bZsIOIW7kiQUFNYRu7/9XoHf4BjThorcEnyAgWWdmISyxLu+ea7WLfwvP61mlBk+adv3/e6/ofv+53yAqyB6SwAWsl9/sisc+BGTGNBcJRYAAAAgEACH+uRSdJsPp14vs5jz+t3lc+NsZPZfHrqcX3URxboOi9n8+nC/efFLf/cJjD96WYWU1hGFFhaiSPtlvP+WhTgM9yNorw40mU5sXb+4esPvK7/s/f+6HV9YEMuprOclml8wHQWAE0X5cWBOC64rrZEyQiBUWIBAAAAwskCXWf61saH1y8BmIywWQEez4Xn9a9KAlyDDfRruJ+jEI+/9OZrm++/j57n9RvJaArLL93EL7SIK9x6LUNZljM2yHeJxetUq1VEeXEo6al1juv85ju/X2n/9F1KLGiULUmfqJrOMinTeGScBwDWkVkHwI0+oTCJkCixAAAAAAEM+smOAk9huWLh+Xo9z+t3je+NsYnn9SW93ggNgaky18sCXefqFBbJf4mFSSzXCz2F5eVsPj0IeD2E0/O8flvuru15Xn/hef2VRHkxVg2LLP/xrd/jfv7b+7/3uj7gUSLpBdNZADSV++zRls+LbZRZB0B3UGIBAAAAwgi12ff2FBaJTeWm6XleP9Tkkt1A12ESy1sG/WQkmykskv9SUaj/XU0zCnitE4Wf+oJwhp7Xb8trtu/PPrV5nNxm0nPrHFf96nd+1//bh1/7vQDgH9NZADQZv2vU1x4FSYRCiQUAAADwzPBYjwsLz9ekxLJZvh/Phef1L4QqsSwCXadJskDXeXsKS5BjQgJO+WkEV1raDnjJ3dl8ygSk9up5Xr825Yw1+f5cV6vHKcqLTNJL6xyS9I/f/cjr+h+880B//uA7r9cAAmM6C4BGcUcaTq1z4EZM5EQQlFgAAAAA/7JA17luCovEJJam8fp4zuZT7xtjrmQQpLgV4n9PkwQuNGQ3/Pe+xz/zmvOmUcBrPec513qdmTByX4GKdLV7nKK8GKkGRZZ/+/5dr+t/+P651/UBQ0xnAdAkmXUA3OhJmcZD6xBoP0osAAAAgEeDfrIr2ykskv+NkC0mI2yGexy3PF7i2OPaVwU7PivQdRph0E8eyXAKyxU3/febQonFCVkYU1VO4q679nvsef3alTPuoef7Are8vppyRZanlhlOvnnP6/rxB997XR+oCaazAKi1KC8m4vf9OsusA6D9KLEAAAAAfgXbzL/pGI9Axz70AlyjC3qe1w8xhWUo6Ynv6ziTQNdpin3ZT2GR/P+9UGK5NAp4rX2OEWq3QT/x/tyqaznjjoae16/1hk2UF2MZFln+5Q8/8Lr+Xz3kKCF0yp9MZynT+JF1KABwMusAuFHCNBb4RokFAAAA8KQmx3pc8L0hMvS8flcMPa+/8Lm4mwRy6PMab5kEvFatucd+P9DlbpvCIkm+iw6UWC6NAl1nOptPQz63YaPnef1alzPuwPdr0MLz+muzLLKUXz/wuv5HD7/xuj5QY4mkF5IWZRqPyzTm8xYAU24ayyvrHLhRZh0A7eb3EFEAAACg27JA17lxCssVC/k9coIvOTej53n9ia+FXYliIr/HIV11tsLPfZfsK9xjny35v/ue+BOqHFhrbmpGXYqSaAfv7+VuWlfT9Tyv34gjl6K8GJdpvFBVXg31/qOvvj33uv7//ZsfS/qx12vcxf/50/9X/8u7v7OOgW7ZkrQnaa9M42NVk0UPo7xgGhsAC/sKN+kVd5OUabwb5QU3O8ALSiwAJL3+AvRiXOTV//xIf/pF1o42+wXFmf70S5rJNf/5iPHVAICmGPSTTPXaXFx4ztDzvH5X+N5A9LIx5j5LjiU99rH+DfiixBn0k56kZ4Eut2wKixTo2CpKTMEmYK1SlEQ7DD2vn0j6wvM12qARJRapukPajZI/VIDPvX//hz/zfQn9qm59kZ9aB0DHPVY1neWgTONDSQdRXjTmNQpA80V5sSjT+KWqch3q50B8NwNPKLEAHeDuit1Rtbl09c8jhd1ouMmW/vTO8Kv//9dfyA/6iSSdqNqIO1I1qnwiadGSs7UBAC0Q+FiPVTcXJ/K7yV2HzxRt4PNxPPNRCB70k31VRapgd2E7fFFyKavTtWbz6an73O7TjjhOahToOuNA14G9nnUASGpQiUWSorw4cseOTOT58+C/f//Q5/K1xBQW1ATTWQBYykSJpa62yzQeuaMmgY2ixAK0iLsDtqfqC92LaSrevz02sO3+XPxveya9LrhMdVlwOeKOQQCAkTod63HB+xeMTEZYj/ss59PGNsVcUWtX1c+fxdEuJ7P5lBKLXk9hCfWF3ipTWC5M5fd3kZ7HtWvPPQdDlAdPZvPpOMB1UA8c1WXPS+HUN7eRvVOm8Vge35NOvulWieXD9x9YRwCuw3QWAEG5aSyfSfrEOguulYkbH+ABJRagga5MVhnqcsIKdz9XEvdnT3pdbDlWdUfQRFWxZWETDQDQBYGnsLxatTQym0+PAkxG6Pm+QMv1PK9/OugnwzX+/Z77M5R9UXpsfP06OQh0nTPdbeLLQn5/TnyXvupuGOg6lMU6Ys33B2xOozeCo7wYlWk8UbXBvXH//M07PpatrZ8+PLeOANyG6SwAQspUTaIMPQEWy22Xabwf5UWo7ybQEZRYgAZwXyZdLa1wd9TdPHZ/PpGkQT85UVVoOZQ0aeJdTgCAWjtQuF+q71qWOZbf4mvXN5XX5fvxe+L+tAFfjuj17wmh/k4P7lgGv8s/ex/WRSprw0DX4bnWHbyH18PEOsC6orwYl2l8pOo7l41+f/WvXz+Q1J1ix89++L11BGBVV6ezZGxkAti0KC9OyzQ+kN9jsnF/WZnGY4qM2CRKLEDNuLu3h7osrXT9y1kftuXuFJCkQT85VvXlyuFsPm30XU8AAFs1Ptbjgu9fJtkAWw+P32peUkJ+LQt0nTPdvcwwkecvGAf9pNfhKYshXi9OOvz4dlHPOgAk+S8ABhHlxVGZxjuqJqdtpGz5n+fv6vd/7E6BRZK23/vGOgJwVxMxMRGAPwcKe3w3Vrel6u8mM86BFqHEAtSAu4NyKGlXHAtk4WJSyzM3peVQ0phCCwDgHrKaX2sivwVZyrfrocSy3F2PtGkt9ztEqOfcwT2KQyGKRjtqyYbvPYT4u+cooW7hPageFtYBNsXdibtbpvFIG5hU+E/fvr+JWI3yXx9SYkGjPI/yIrMOAaC9mMZSe/tlGh8wjQWb0q2DRIGaGPST3qCf7A/6yeGgn5xL+kLVGy8FFnvbqo4d+nLQTxaDfnIw6Cd8mQcAWMptKNd5CosUYGPETaPB/XBk5HJ3PdKmzUKNab/PFBYFKoR38nN6wN9PKLF0SyefT3Uzm08n1hk2LcqLsaqfr+N11vmHrz/YSJ4m+fAdSixohDNJv6DAAiCQA0kn1iFwrYtpLMBGUGIBAhn0kx1XiDiS9GtJnyrc+fW4n7cLLRkbcwCAW2QNuNZigxluwibYPbgSFG53onDFjVob9JORwhXg7zOF5cJaG5Yr6OrrTZD/3W3cTMf13O+5jGW35/s100yUF4soL3YkPb/vGr/5rltfY/+XH1knAFYylbQT5QXFVwBBuCkfmXUO3Gi/TOOedQi0Q7c+/QOBXSmuLCR9qaoQwbSVZtpWNS3n126Czq51IABAfQQ+1uO+U1hCbUh2dVN5XT3rAA2wv0aZom2yQNe51xSWKxYbynGTrr7e9AJco7Wb6bhWzzoAJLXoKKGbuEkNH6na+L6T//j2wcbz1NlfPDy3jgDc5kzSL6O8GEZ5sbAOA6Bb3JQ3prHU05YoGWFD3rUOALSNG+08krQrRsK31RNJTwb95ETSWOvdnQoAaIesQdc6k9+7rbu6qbwuHrfbvZzNp9zhqddTWEL9nrHu59wj+Z0+2dXft4YBrhHiOCjUx9A6ACR15HnnNryHZRrvq/pcu9Ln0l/9zmOoGvqb976zjgDc5JWkfcorAIxlkl5Yh8C19so0znifwLqYxAJswKCf9NxRMwtdTlzp6heqXXIxneWrQT8Zc9QQAHST21Cu/RSWK3xvkFDGuB8et5udiHOVJUmDfvJI4Y5UWncKixRgqgBHcXmzsA6AoHrWASCpIyWWC1FeHKj62Xu57J/9x++6d7ZO7+E31hGAt51J+kWUF7tsTAKwxjSW2susA6D5KLEAaxj0k9Ggn0wk/VpVmYHiSnftqTpqaMIX6QDQOVnDruV7g4TPQ/dDieV6Z5J2mXr32r78TlK6ahPTBhebCLJEF587IYqTndpMRyefR3XUueddlBenUV6MJH2sW44x+7fvuzdM/G8ffm0dAbjqlaRelBdMRgRQJyPrALjRXpnGPesQaDZKLMAduakr40E/OVU1rizUnddohkTSF5RZAKAbAh/rsYkpLBKTEWrHTdcIVUxomtFsPu3cpt513M9JqIk0m5jCotl8Olk/ylK9ANfoIopj3fLYOgCkDX3Oa6QoLyZRXuxIeqrqPegNJ9+8Fz6UoQ/eeaA/f8BxQqiFE0kfu+krfDYAUCtRXkwkTa1z4EZj6wArLWU8AAAgAElEQVRoNkoswIremrqyJzYacDvKLADQcm5DOQt4yU1dK0QhgDu674bH63pPZ/Mpd3teatoUlgu+Rzx36vnj3ntCYKOqIwb9pFPPoRpjA0avjwboSXquK2WWf/nDD4wS2fjw/XPrCIAkfSZpx20SA0BdZdYBcKOkTOOhdQg0V/dmMQJ3cOVux5EYjY/7uSizTCVlge5GBQCEsa/mTWGRwhzv0QtwjTYZWgeooaez+XRsHaIuBv2kp+r40hA2MoXlioX8vlZ2bTJmkMIBE5A6pWcdAJLCfD5rBDftISvTeKxqY2qv/PqBpO4UO+IPvreOgG47kTSivAKgCaK8mJRpPFX3fi9sikx854V7YhILcI2LI4NUfYnwTBRYsL6LMsuh24QAADRY4GM9pA3eWRJoVD13dd9NzzpAzVBg+VNZwGttcgqLFGD6E5+vgbXwnl0PFMfeEuXFIsqLkaSPvvq2OwUWSfqrhxwlBDPPo7zoUWAB0DAhv5/D3TCNBffGJBbgCjdGd1/VcUGAD08kPRn0k+fa/AYBACCckMd6fOaheOL7LhXugLmbnnWAmjiTtE+B5U2uoBHq95NNT2GRwkwX2Al0HaCNhtYBIIkSy43+j1//dc86Q2h/+YNvrSOge45VTV9pxGuR+3w8knsPm82nQ7s0AKxFeXFUpvFLsa9XVweiOI97YBILIGnQT4aDfjKR9KV4o0MYzyQtBv1kZB0EAHA37guzUHd5nMnPBIaFhzXfwGSEO6H0U40tH1JgudY44LUyDyXrEJshfCEG3F/POgAkUWK5Tc86QGg//+FvrSOgO85UTV/ZaVCBJVP1mvlM/B4F4FJmHQA3elym8cg6BJqHEgs67Up55QvxoRfhbUl6MegnEzcFCADQDJnCTWHxNbVr4WHNt/HetgI+A0iSXknamc2njfjiPKRBPxkq3O8pJ7P5dNNTWCRebxqJ16ZO4fhke2dMab1Vp16PfvLwgXUEdMdU0k6UF5l1kFUM+snOoJ9clFeu/j4+sUkEoE6ivFhIemmdAzfKrAOgeSixoJMor6BmEklfDvpJNugnj6zDAABu1oJjPS4wGaE+etYBDJ1J+sVsPt1l8+5GWdOv5eE4tOvwerN5/F7SAa4oB3uUOG/Xqdf46P1z6whovzNJv4zyYug2fWtt0E8euekrX0p6bBwHQL1l1gFwo22mseCu3rUOAITkNp4ycWQQ6umZpNGgn4xm8+nEOgwA4FpZ4OsdDvpe+rYhNic7teGwhq4+Tp/Jz9E1rRF4CovkPod6WvtMfidYbQ/6ySN+njaKEks3dPU9qG4m1gFqrlM/pz/74ffWEdBuU0mjJpRXpNefh8e6fWrYJEQWAPUX5cWiTOPnqvZZUD+Zwh6XjIajxIJOcNMtDkR5BfW3LemLQT9hYwcAasZ9gRbys8SWmj0xrlMbDmvo2uP0UtVnnIV1kAYYB75ek19vpOq5NLEO0SI7kg6tQ8C7nuf1TxTmSDHffL8+Ljyv31ju+zxvJcifPHyg//7j73wtfy//64/+P+sIaKczVeWVRry3u+d+JukT4ygAmudA0r7CHQOO1W2XaZw15Rg72KPEgtZz4wZ500LTfCJpl6ksAFArmXWAhrntbjlc6kKJ5UzVZjjllRW5iSg8h+6GEstm9awDIAjf70HZbD4de76Gd4N+4vt8l4Xn9ZvM68/of//xd0p//O8+LwHUwStVBZZG3Cg36Ce7qsrcK32Xz/emAK6K8uK0TOMDMY2lrvbLND5oynsSbFFiQWu5D7wH4stfNNfrqSyz+XTfOgwAdJnBsR6tMOgnQ75UXKrNn1Wnqr6APmS63J1l1gEaqAuFMEk6CnSdrjyeXef773nheX3v3GdAr/isdCuvP6N/9bBeU1iADTuRtN+w6StjSU/u8K+d+UkDoOGYxlJfW6r+bjLjHGiAd6wDAJs26Ce9QT+ZSPpc7d4UQHd8MugnR4N+whfJAGDnwDpAQ/HedYsQG2OBnam60/OppI9m8+lwNp+OKbDczaCf7IvfY+6jZx0ghIDPp8duMwktNegnPXn+Yr8l5Yye5/WPPa/fdF4/S/7lD771uTxg6TNJOw0qsOyrKj7epcAihSv3AmgQN+Ujs86BG+2XaczvmliKSSxoDfcF274YE4Z2eixpMugn+20YxwwATeKO9XhsnaOhetYBaq5nHWANJ6q+aD66+DObT/kSeU3ud5rMOkdDMS1r84aqjgJDO/U8r3/ief1QmFZjq+dz8Z//8LcvJe35vAYQ2Imqo4Mm1kFW4QqVY93/cxxleQDXivLioExjbhCppy1V33tw+gBuRYkFreDuYh2LNyS025akF+7nfZ+7mgEgmMw6QIMxieV2vh+fV9r8FKEjPoN4xcjjNQz6yU5HylRThSnt7IoSS5sNPa/fluei7/fqtjxOvvh8rTuO8mJUpnGm6v13JN6D0WzPJR24CQS1N+gnmdb/7MtrKIDbZJJeWIfAtT4p0/ggyouFdRDUFyUWNNo9z8oEmm5P0s6gn+zO5tOFdRgAaDM3hYWS7P0xGeF23jfGWnKUQydcmSyJ++upG5sZoTandgNdBzZ6ntdvy3OREosRN6HBp4Ukuc2T/bfKLHz+R5Mcq5q+0ojXE3dc+libmXa62MAaAFoqyouxe3/nfb2eMlWfu4BrvWMdALivQT/Z1f3OygTa4LGkIzeVBQDggdtQ3vQUi84JsAHRZL43xiae18dmZeIO8HV1ZfpTqE2qLfd7N9qJcsYS7rOg79flxj9OHgX9GY3y4jTKiyzKi56kp6qKAUDdPY/yYqcJBZZBP3nkpq98qc0d17vY0DoA2iuzDoAb7ZVp3LMOgfqixILGcR94DyV9Lr7kRbdtSfpi0E+4YxcA/OBYj83oyqbynbAxhqtc2esT6xwtMLQOEEjI5za/a7TXpjYQb7LwvH4I3j/DMF31VmZFqygvxlFe7Ej6WNXxjEDdTCV9FOVFZh1kFe4mvCNJzza89GLD6wFomSgvxqpeM1FPmXUA1BclFjQK01eAa3066Cdj6xAA0CYc67FRlFiu5/txOZvNp6GOHMH6MusALdGzDhBIyBJLwkSt9nFHOXg1m0/bUKQcel6fDZXbmU8LivJiEuXFrqSPJL2UdOY5E7DMmaRfRnkxdEdh1Zq7GfVA0hfycJwHRUAAK8qsA+BGe2UaD61DoJ4osaARmL4CLLU36CdHbtMVALA+prBsDiWW6w09r9+GzcNOcAWBPescLbHdhc/DbsMm5EZqFvBaCKPnef22lDN6ntdfeF6/6Xo+F7/L5neUF4soL0aqMj2XdOInFXCrqaSdKC8aceTtlZtRfU0b5HkIYCVRXkzUns+nbZRZB0A9UWJB7V0ZN8j0FeB2jyUdhbirDgDazG0ob3rMcZfxvnS9nuf1KbE0x9g6QMt05TVnEvBae+73crSH7+fJwvP6ofQ8r8979e18Hnl1r42sKC9Oo7zIorzoSXoq6XijqYDrnUn6RcOmr4S4GXXhcW0A7ZNZB8CNEqax4DqUWFBrg36SydO4QaCltiVNKLIAwFoy6wAtw+e46/U8r8/GWAO4YkBinaNluvI5eBL4eo246xsrG3pef+F5/VB8vz7zXn2DAMW5xboLRHkxjvJiR9LHkl6tnQi43itJvSgvDq2DrGLQT/ZVPb9C3IzKayiAlblpLLxf11dmHQD1Q4kFtTToJ71BPzkSd0ED97El6ctBPxlZBwGApuFYDz+4g/9avjfGFp7Xx2Zk1gFaiBKLH4/dTSZoh57n9See1/cu0I0hbMDerOd5/Y099lFeTKK82JX0kaSXCnvcG9rrRNX0ld0oL06twyzjvsufSPpU4Y7lrf3jAqB29q0D4EZMY8GfoMSC2nHnZR7J79hQoAteUGQBgDvjTnM/urKpvJIQG2Oz+XTi+xpYj/u9hyksm9ezDhDCbD49UrXBFdIzJj62hu8paW0oZ/Q8r382m0/ZgL1Zz/P6G/8ZjfJiEeXFSFX25wr/Go32+EzSToOmr2SqnlOhP9e24b0GQEDuSLaX1jlwo7F1ANQLJRbUyqCfHMj/eZlAl7xwozwBAEu4aSEhxh53Uc86QM30PK/PpkkzUJrzo0vFoInFNQf95JHBddcy6Ce7rjjWeQGmo7WlnOG7sMXm6+2Gntf39vhHeXEa5UUW5UVP0lNJx76uhdY5kfRxlBf7DZm+snNlkrrFd/m1f4wA1FJmHQA32i7TeGQdAvVBiQW1MOgnj9zIwU+sswAt9Omgn4ytQwBAA2TWAVqMO/ffxMZYx7lpeb4nIXRWh6aFWNyhvaUGFVncdw0XN8uw2VXhPWg1vh+nief1m87n4x+saBXlxTjKix1JH0t6FeKaaKznqqavTKyDLOPeWzNJX8p2knpb3m8ABMQ0ltrLrAOgPiixwJz7gtFi5CDQJXsUWQDgZu6uZD6L+MNj+yY2EJFZB2i5nnWAEGbz6aFsJi89VgOKLO69/UiXN8tQYqn0PK/flvegnuf1F57Xbyz32uJzqkPwn9EoLyZRXuxK+khsnOFNx5L+zk3vqf371JX31mfGUdSSqV8AbOxLOrMOgWsxjQWvUWKBKXcH4kTchQiEQJEFAG42tg7QdoN+0rPOUCOUWDrM3bnK7z9+dWUSi2QzjUW6LLLU7rF2d4iPJX2hK8+12XzKa2PF99/ZwvP6ofieLrDwvH6TtfZzUpQXiygvRpJ+omryBhto3fY8youdKC9q//50ZbLZG++thqbWAQA0lysNcrxvfR2UaVzrGyYQBiUWmHEffF/I5sxMoKsosgDAWzjWI5jabXQa8v3ztvC8Pu7J3V2+b52jA4bWAQKy/PL1osiya5jhtSvHGywk7dmmqbXWFgQ2xU0a8Go2n058X6PBWv8zGuXFqZu88UjSU9lM1YKdqaSPorzIrIOswr3PL3Q52QwA2uBAlEnrakt8bwJRYoEB98XSofjgC1ihyAIAb8qsA3QEJRYF2xgz35zBjfZFiT+EnnWAUGbz6ULSK8MIW5I+H/STQ6vjhd4qrzzT9c8x7tjW66loXl+DWlLO6Hle/9jz+k3XqWlBUV6Mo7zoSfpYvFa13ZmkX0Z5MYzyYmEdZpkr3+F/rvp9fp1YBwDQbExjqb19prGAEguCcl9qTSQ9MY4CdB1FFgCQNOgn+2IKSyiUWCo9z+uz+VFTTGEJatuqUGGkDl++PpG0GPSTLNRjP+gnQ/c7zVe6ubyCN/U8r9+WaRI9z+svPK/fdD2fi9e1aBXlxSTKi6GkjyS9NI6DzZtK2onyog7v2Uu535MXqu93+KfWAQC0AtNY6otpLNC71gHQHe6s7In4Ygmoi71BPzmdzad8GADQSW6TLQt4yanqe8fYjvx/QUmJpdKpu4vxhgOF+13oTPUoNtzkWYBrXPz+2Xqz+XQy6CdTSYlxlC1Vf7f7rlwy3vRkKHekwVDSru5WQp1sMkeDDT2vv/C8fihDz+szMe12Pl/Lal+0chM6RmUa76vavGGKW7OdSRpFeXFoHWQVbmLXWPafKZbhdRTA2qK8OHXvty+ss+Ba+2UaH7ipOeggSiwIwo1NPxS/dAF188mgnxzN5tOxdRAAMBD6C+GRO/ahdtxnNd8lFibeVCixdJDbENgLeMmD2XyaBbzenbi7e32//namxOJkkr6wDuFsqTo++JNBPzlR9V3ARNJkNp+u/AWke97suD9D1X9DrQl6ntefeF4/FN/v1Wy+3sA9731fI/N9jTWML35fcBs2maSsTOOR+898nm6WV6oKLI3YfHPPjaaUphrxmAKovygvxmUaZ+I9to62VN2cMzLOASOUWODdoJ+MRJMRqLMXg34iiiwAusTgWI+XdS2wOIsQFxn0k2FdR7gH5HtjbOJ5fdxPFvBadZ/CIlUbuL4LCZ2a/lSjaSxv25YrtEjSoJ+c6XID/0iXm1A9XRYsHkl6vOEclAYqlDOWcJ8RfW/gNv5x8sj3z+i2wkwDu69r37+jvBhLGpdpPFT1maJur/V404mk/QZNX9lRNX1l0++93mx60huAzsvEHmZd7ZVpnLlJdeiYd6wDoN0osACN8cI9XwGgKzKFvcMsC3itOwtYsOnUpvLb2BjrJrcxEHoKS93vTg3xc9oLcI26acIxoVuqNl8TVcWWZ+7P3pX/3scmWt2fE6H43qBceF4/BO+fVWpebLbW5c+KZ8vev6O8mER5MZT0kaSXQVLhrj6TtNOEAsugnzxy01e+VIMKLKoK2wCwMa4sWvsjBzsssw4AG5RY4I07A5sCC9AcB26TBQBazY0p/yTgJes+heXCcYBr9AJco858v88u3fyAiZBTUZowhUUKUyjo3F3q7q7kz6xz1FTnC34hftdryZ3xvh+nqef1m67L30ms/PyJ8mIR5cVI0k8kPReb+nVwIunjKC/2m3B8kDtO9kj1nkx0kza81wCon5F1ANxor0zjnnUIhEeJBV64AkvIuw0BrG9L0oQiC4AOyFp+vftaBLhG199jhp7X5wvdmnEbBCHLFE2YwiIFOvaqo59rM3EX4Z9oyPPCt57n9UOUYUPw/bqx8Lx+0/WsAxia3PVfiPLiNMqLLMqLR5Keitd/K89VTV+ZWAdZxk1fOZD0harjtZpoYR0AQPu413DKxvXVhJt1sGGUWLBxFFiARtuSdOiOOwCA1nFTWEJ+TnnekCksUpgCROcmI7yl53l9Siz1kwW8VlOmsEjhNh96ga5TG66s0YRjhUJiU7fiu5zRlvegnuf12/I4+dKkI002bbHOvxzlxTjKi56kX4hNuFCOJf2dKxLVviw56Ce7qn7OQk4l9WFhHQBAa2XWAXCjJ2UaD61DICxKLNgoCixAK2yrmshCkQVAG40DXqtJG8pSoC8DXZGoq3qe12djrEbcRkHI4tZ+U6ZNBCz3dXESi2bz6aE4VuiqhXWAmhh6Xn/hef1QfL9u8159Aze9rMsWm1gkyovDKC+Gkv5O0stNrIlrPY/yYifKi9o/p930lUNJn6u6ea3pFtYBALQT01hqL7MOgLAosWAj3IfhsSiwAG3xWM3aeAWApTjWY6lFoOt0clPZ8f3zt/C8Pu4m5Gepk9l8Og54vU0IcfTIMMA16ipTe453WdfCOkBN9DyvP/G8vneBira13/A21LMOYGk2n042uV6UF0dRXowkfaTquJuzTa7fYVNJH0V5kVkHWcWgn+yreh98YhxlkxbWAQC0WmYdADdKmMbSLZRYsDY3rWEiCixA2+wN+klmHQIANigLeK2mTWHZ+Bfnt+hkiWXQT7z/7w74d4glBv1kpP+fvftJbtvY9jj+86s7l+4cVWJGHEqZAwVmBVYWwBK9AssrMLMCyysQXVhA6BUYKHIeaYhRoCrOr7UCvwFaEe2IMkkRON3A91Olynv5Q5ybUGwQ/etz6u52bZm2eK1DaSPkN2jhGl5yIcpzsWkpsdn1oOnPpKrh129D02v1fWAB57YNrAsw1FjoMMrKygUuBpLeiBFr+7qX9C7KylGUlZV1MT+TxOkgidNc0gd1o/vKusq6AADd5bqx0MnMX1PrAtAeQix4kbUAS59n1gJd9t5twgBA0OjCsrU2NjtHLVzDR4OGX5+OC55w35GmLV4yxC4sUjtdG076PCLTjW06t67DAyGuxwfVxpiWFseENanpEAtdWJ43si7AUNX0BaKs/Bpl5SzKyoGk38W4hF0Uks6irAzikII7kHajdr//tqYj6w0Av02tC8BG6Wo8nFgXgXYQYsFLXYkAC9B1V22cHgeAhs1avFZwXVjWtLG5MmjhGj5qei2tGn59bO9SdGHZRtXSdXp9H+s6NL2xrsMYwYHmfw+6shne9L+nvOHXD12fP69b/ZyKsnIeZeVI0q/itPlz7iX9HlD3lbMkTm8kvVf3uq88ILgPoHHuM5/10V9T6wLQDkIs2FsSpzMxQgjogyNJ8z6fYgUQNoOxHqF2YZHa2VTua2cETnf3gHtvX7Z4yVC7sEiEWFrj3iN9DrKEuiYf0qDh1+/KGjRo+PWrhl8/WG797Oqm+zZMfoeirLyJsnIi6RdJf4gRdOs+SxpEWTm3LuRnkjg9dt1X/lL3D5uypgNoy9S6AGx0QjeWfiDEgr0QYAF650TtdjEAgEOatnitkLuwSGwqN4kQSz9cqt1NuGmL1zq0tt6zffy8+Zc+B1kWy4LPR7qBbavpzd+q4dcPWd8/qyvLi0dZWUVZOVUd5Hoj6c6yHmMP3VfOo6z0PjDhxsU9dF/pA9Z0AK1w3Vj+sK4DG02tC0DzCLFgZwRYgN56ncRpmyeLAeDF3Ik0urBsL2/pOn3cqGj6fcgDXWNJnA5EF5atuc/KNk58D1q4RhD6HGQBQcqfaWOErhvvhaf18d7wH76E7aKs/Bpl5SzKyoGk39WdUWHb+qiwuq9cSfqidr/vWgv5uzaA8FyJLmW+OlmNh+xVdRwhFuyEAAvQex/aeLgHAIdgMNYj9C4sUnsPBXu1lrgTko1aLIuq6Wvgp6aiC8uu2ti0S1u4RjDWgix9eRjbtw3Yf3EBu6Y/m7zYgH+hpu9Nbht+/dD16t7wB15+TkVZOY+yciTpV0mfjMtp2p2k36KsvAyk+8q56u49b41LsZBbFwCgP9yaEPpzvi6brsbDPo4r7w1CLNia68BAgAXA3G0MA4Dv2h7rEXoXljZPgQ5auo4vBg2/vpebH33iNonb/K4UdBeWNVUbFyGE/T333hmp3+Mi+mTQ8OvfhX7/4wwafv2q4dcP3cC6AEOVdQHPibLyJsrKiaRfVHcq6VoI8qOksygrc+tCfsZ1X5lL+lPtfs8FgD6jG4u/jtTu4UW0jBALtpLE6UTSB+s6AHjhRJL3rVUB9BtdWF6kjZPCfeuM0PQGetXw6+Pnph2/XlOqlq4zaOk6wXChxTNJn61raVhuXYAHRg2/ftXw67dl1PDrd6FbTZP6dm+4rrIuYBtRVlZRVl6qXlPfKfwg5K2kXwPqvnKp+r3y2rgUU4xlA9A2urF475JuLN1FiAU/5VoUXlvXAcAraRKnU+siAOAZV2r3dNplR04hSy2NFOpZZ4Sm/7eyMWbIjYtqswtL0ZEuLFJ7790+fd5sbbEsvi6WxbnqzUhOF3bXoOHXzxt+/bYMGn591uoNXDezPsutC9hFlJVfo6y8irJyoHo8XYgdAf+IsvIsykrvfy+TOB0kcZqrPlxK9xUAMBBl5VThhze7im4sHUaIBc9ymwsz6zoAeOm927QBAK8w1uPF8pauM2jpOj4gxNJt045fr0lVS9cZtXSdIC2WxZXqz6kQNyJ/hs9HuoH9lOvgd9LwZXgvbtb3oGGw740oK2dRVo4k/Sbpk3E52yhUd1+ZWheyDXd47Eb97lS0rov3KQDCMbUuABu9X42HA+sicHiEWLCR2wDKRcobwGZz98APAHwy7fj1mtZWR5lebFi4dbLp++lgNz9C5wK9bW4sFF1qo+5G2rRh0NJ1grVYFtViWYwk/a5unTLsSpe0lzht+PW7sAY1fk+yWBZV09cIWC/uCTe470I3xygr8ygrJ5J+kfRR/nX3upf0LsrKUSDdV86SOL2R9F48l18X/O8KgHBFWTlTt74ndc3UugAcHiEWPMk9bJ+LG2UAzztS/VkBAF5wXeTowvIybT3YHbV0HWtNb8x0YvMjYNOOX68NbTwIPCF4vZ3FspgvlsVA9YiIkB/SFpJ+71Loax9tjO5rMYzWpKb/PdE94Hl9DrF04ffnH1FWVlFWXqoOj76TH+tIIeksysor60J+JonTY9d95S81H0AMUad+XwAEaWpdADa6oBtL9xBiwSZzcbMMYDup+5INAD5o++HktOXrtYHOCIc1avj1eZhrJInTiejCcghVS9fp8ybpzhbLYhZgmOVedQeAXxbLYrRYFoTtm19rbxt+/bYMGn79quHXD93AugBDnbyPi7Lya5SVV1FWDlSvIxZBrntJb1z3lcrg+jtx3f0euq/gaQT3AZhy3VgIJ/tral0ADosQC/4lidOZmLUJYDfv3RduADBjMNaji11Y1GJXj750Rhg0/Pp5w6+PzaYdv15b8pauQ4hlD2thlt8kfZKfIyI+qe66crxYFpeMbflO0+/7quHXb0vT/546GVQ4oD4fouv8eyPKylmUlSM9riNt+Cxp4DYbvea6r1xJ+iLpxLoez3X+9wVAEKbWBWCji9V4yPf+DvmPdQHwSxKnl2q3BT+A7pgncTpgpAEAQ9OOX69NH9XOhu9A3X8YOWj49auGXx9PcF1Y2txo6GoXFql+D3OazXPu/Ze78OG56i5T57IZQXyrOvyU023lp0YNv35X1vCmQ9Bd+fd0cG497fMa0Jv3RpSVuaR8NR5OJV1Kmujwa8i9pEmUlUGsDUmcnkuayWYtDRHPGwGYi7IyX42HhWgE4Ksr9Wd8eee9+vbtm3UN8IQ7vfzFug4AQSsWy2JkXQQAAL5ooVPZDQFSAFaSOD1T/ZBwpDr8eOhw173qTd784Y985gFA+Fbj4bHqIMulDrN2fJQ0jbLS+zXCBUJnkl4blxKUxbJ4ZV0DAEjSajwcib1Un/3mwrMIHCEWSPrnwVMukt8AXu6PxbKYWhcBAAAAoH0uvDdwP8favrPXjepT1pX7IaQHAD2wGg8nqgMt+5xqv1PdfSU/YEmNcV3Qp+IZ/K7u3HhDAPDCajzMRTcWXxVulCECR4gFD+nvXP2eQQvgsH7rcMt7AAAAAAAAHJA72X6p7TqU3KseGXAVSPeVgeruK2x47ofOzwC8shoPB5L+tq4DG9GNpQP+z7oAeGEmAiwADmvuAnIAAAAAAADAs6KszKOsPJf0i6R3km6f+NtuJf0haRBlZSjjg6aqu40RYNlfZV0AAKyLsrKS9Mm6Dmx0ZV0AXo5OLD3nbqLfW9cBoJM4JQEAAAAAAIC9rcbDY0nHbsMwGEmcnonDo4fC6HIA3qEbi/feRFk5szPkxxIAACAASURBVC4C+yPE0mNuTvUX6zoAdNrHxbK4tC4CAAAAAAAAaJrrTHwpDo4e0u+LZTG3LgIAfrQaD2eSLqzrwJPuoqwcWBeB/TFOqKfczTQ3fgCa9jaJ03PrIgAAAAAAAIAmuUOjNyLAcmjej42Cv3g2jYZNJd1bF4EnnazGw4l1EdgfIZb+yiUdWRcBoBdmSZwOrIsAAAAAAAAADi2J0+MkTq9Udz0/sa6ng26sC0CYkjidSPrTug50lxt1d2VdBzaaurGECBAhlh5yN9TM4gTQliPR+QkAAAAAAAAd47o8VJLeGpfSWYtlQScW7CyJ0zO5cIHrkgQ05Up0Y/HVieoRfwgQIZaecTfV3FADaNupC9ABAAAAAAAAQXPdV+aquzzQ8bw5t9YFIDwuwJLr8XfzzK4adF2UlV9FNxafXdKNJUyEWHokidNjSTPrOgD01ltmkAIAAAAAACBkSZxequ6+8tq4lD6gCwt24sba5/o+XDawqAW9QjcWfx2JbixBIsTSL3ORCgdga+a+SAAAAAAAAADBSOJ0kMRpLumDeM7elty6AITDHeR+ah+MTixolOvGQlDCX3RjCRAhlp5I4nQqKbWuA0DvHan+IgEAAAAAAAAEwT1fvxHP2AEvuQBLLun0ib9MiAWNi7JyJunOug486UjS1LoI7IYQSw+4+X/vresAAOc0iVNmRAIAAAAAAMBrSZyeJXF6o/r5Ot1X2pdbF4BgzPR0gEWSjlzIBWja1LoAbPR2NR4OrIvA9gixdNxa+zQA8MnbJE7PrYsAAAAAAAAAfpTE6bHrvvKXNm+Mo3lfrQuA/5I4nUl6/ZO/rZVuLKvx8Hw1Hs5W4+GE8SX9QzcW702tC8D2CLF031TSiXURAPCEWRKnA+siAAAAAAAAgAdJnI5Ujw6iu7mxxbK4sa4BfnMdvy+2+FvbGil0prqea0n/W42HN6vx8Go1Ho5auj7sXVoXgI0u6MYSjv9YF4DmuC4Hb63rAIANjlR3imImKQAAAAAAAEy5ruZT8UzdF/fWBcBvSZxOtP3va1vPoH/svnLqft6uxsN71SOycknzKCurlmpCi6KsnK/Gw0JSal0LnnQliSkBAaATS0e5G+6ZdR0A8BOnLi0PAAAAAAAAmEji9ExSJQIsPqELCzZyAZbrHf6RQTOV7HSdI9Vjjz5I+ns1HlZu9NA5o4c6Z2pdADZ6TWekMBBi6a6Z6gURAHz31nWOAgAAAAAAAFrlAiy5eJ7um6/WBcBP7nd2lwCL1F5XjF3CVyeqRw/9qXr0UL4aD6er8ZDO5YGLsjKXVFjXgY2m1gXg5wixdJDbDH5tXQcA7GBmXQAAAAAAAAB6aSYCLD6iEwv+ZS10ts8/OzhoMU97yfs2lfRe0l+r8fDrajycr8bDyWo8HBymNLRsal0ANkrpxuI/QiwdwxghAAG6lzSxLgIAAAAAAAD94kaSnFrXgSdV1gXALy6Ekmv/0NngULU8ozrQ6zyMHrpWPXroZjUeXq3GQzqaB8J1Y/lkXQc2mloXgOcRYumemUiNAwjHraSzxbKYWxcCAAAAAACA3rm0LgAbVdYFwB/uAPdcL9v/Gh2mms2irGyqg9CppLeS/lyNh9/c6KFLRg95b2pdADZKCYX57T/WBeBwGCMEIDAfF8uCBwUAAAAAAABondsUpwuLvyrrAuAH97ua6+W/r20FPm7V/GdL6n60Gg/vVP/7ySXNo6z82vC1saUoK6vVePhJ0oV1LXjSlepwHDxEJ5aOcIv4lXUdALCFe0m/E2ABAAAAAACAIToYeGyxLCrrGuCNuQ4TChkc4DW2UbV0nQcnqkMS15L+tzZ6aNRyHXja1LoAbHSyGg8n1kXgaYRYumOqeqECAJ8VkgaMDwIAAAAAAICxgXUB2OjOugD4IYnTmVzHkQNoq/NSUyOFtvUweujLajz8uhoP52700MC4rl6KsrKS9NG6Dmw0tS4ATyPE0gFJnI5UL0gA4LM/FstitFgWtDMEAAAAAACAtYF1Adiosi4A9lyA5aBjWJI4baMDk3WIZd2RpNeSPkj6ezUeVq5Ly/lqPDw2rq1Ppqo71MM/dGPxFCGWbmCMEACf3Uv6bbEsptaFAAAAAAAAAA7jhPzlUwgABpI4nejAARZn0MBr/qhq4Rr7OlF9KP5P1aOH8tV4OF2Nh3weNijKyq9iL9dnV4S6/EOIJXBJnE7VXgs0ANjVw/ig3LoQAAAAAAAAYA0bVv6ik3OPuQDLdUMv33hYI8rKkEJYqaT3kv5yo4dmq/FwwuihRlyJbiy+OpJ0aV0EvkeIJWBJnA7ELxUAfzE+CAAAAAAAAL6i84C/QgoB4ICSOB2puQCLJI0afO11RUvXOaQj1d1vrlWPHrp5GD1kXFcn0I3Fe5d0Y/ELIZawXaleVADAJ4wPAgAAAAAAgO94tu4vDsX1UBKnZ5LmDV9m0PDrP6hauk6TTuVGD63Gw2+r8XC+Gg8vGT20vygrp5LurOvAk+jG4pn/WBeA/bg06mvrOgDgB4Wkc7qvAAAAAAAAwFfu+To8xWjy/nEBllzNh8tOGn79B1VL12nTa/ej1Xh4p/q/Vy5p7rqMYDtTNdttCPu7XI2HsygrK+tCQCeWkM2sCwCAHzA+CAAAAAAAAACwtSROj1XvebXSHamlEFvewjUsnehx9ND/3Oih6Wo8HNmW5b8oK2eiG4uvjlSHjOABOrEEKInTS7WXFkUY7lXPCb1R3Woxd3/+ZptAQRKnAz220TuTdLz2x/SwpaKD7lR3X2FWLQAAAAAAAEIwsi4AGxXWBaA9LsCSqx5d05ZBC9eoWriGT07dz/vVeHiv77u0VHZleWsqurH46mI1Hk5539ojxBIYt6BPreuAuVs93gTcLJZF9ZIXc//8w2vkP/51F3I5U/3lbqR2byjht8+SJnRfAQAAAAAAAADsaK729xsGTV8gyspqNR42fRlfHelx9NAHN3poLrenxeihuhvLajy8FHttvppKmhjX0HuEWMJzqZZaqsEr93pc5OdtBwbWQi5z6Z8w1UjSufsjnYH66d1iWVxZFwEAAAAAAADsaGRdADbKrQtAO5I4ncmmE/yopesUotO9VO8fvXU/Wo2HhR67tPS5u/ulpC/WReBJdGPxACGWgLhuGJfWdaBVnyXNFstibl3IOheimesx1HKm+r15LkJWfcD4IAAAAAAAAITs2LoAbNT7Lg194AIsF0aXP2vpOpUIsTwldT8Po4fWu7RUhnW1KsrK3AV6eI/4aSYCr6Zeffv2zboGbMl4UUd77lR/OF6FOKIlidOJ6jZbLLzdxPggAAAAAAAABC2JUzZG/PXbYlnk1kWgOUmcXkr6YFzGf5t+xu3GxVj/7wzNrR4DLV4d7m7CajwciW4sPvstysrcuoi+IsQSCNeF5W/rOtCoO0nTxbKYWRdyCO49OxXBqy5hfBAAAAAAAACC5kal/8+6Dmz0Kx2gu8sdgr22rkMthKUIKBzEZz2GWjr5ubAaD3NxKNxXRZSVI+si+opxQuGYWheAxtyp7myRWxdySItlUUmaJHE6FWGW0DE+CAAAAAAAAF3R1igR7IFnkN2VxOm5/AiwSPXnQN7wNXgvv9xr96PVeHgnF2iRNI+ysivd4i8l/WVdBJ6UrsbDEd1YbPyfdQH4OdfRggBA99xJerNYFoOuBVjWLZZFtVgWE0m/SPpkXA5291nSGV8eAQAAAAAA0BED6wKw0b11AWhGEqdnkmbWdawZNH0BF7LgPX04J6r3Sq8l/W81Ht6sxsOp63gTLNdhhr0zf02tC+grQixhmFoXgIP7Q3UwYGZdSFvWwiy/qZ5rCL/dqw5ZnTc9GxQAAAAAAABo0cC6AGzEQboOcgGWXNKRcSnr2urIxHu6OaeS3kv6shoPv67Gw/lqPLxcjYcD47r2MbUuABulq/FwYl1EHxFi8Zybz3luXQcOplA903Pa12DAYlnki2VxJumdSCH76lbSqE8hKwAAAAAAAPTGwLoAbFRZF4DDcntcc/kVYJGktKXrEGJpx5HqsUMfJP29Gg+r1Xh4tRoPz1fj4bFxbT8VZWUlurH4bGpdQB8RYvHfpfxb3LGfd4tlMWIsS22xLK5Up50L61rwnU+qAyy8TwEAAAAAANBFA+sCsFFlXQAOxwVYctVjYLyTxOmghctULVwD/3Yi6a2kP1WPHsrd6KG2OvDsYyoOfvvqhG4s7SPE4jG3wF9a14EXu1XdfeXKuhDfuBFDI9GVxQcP44Mmfe0SBAAAAAAAgF4YWBeAjSrrAnBQueqRL74atHANDov6IVU9eugvN3pothoPJz6NHnLdWNhH9NfUuoC+IcTit3PRhSV0dLXYggv4jFQHftA+xgcBAAAAAACgL7zsCgFJhFg6I4nTmfwOsEj1nkTT2Bvyz5GkC0nXqkcP3TyMHjKuS6pDLBz49tPJajycWhfRJ6++fftmXQM2SOK0EjfUIXtH95XduO5DV6pvINCOT5Iu6b4CAAAAAACArkvi9EzSX9Z1YKP/8pwyfC7AEsIz/k+LZTFp+iKr8bASe30h+ay6i1AeZWXrISQXlHjf9nWxlXtJgygrWada8B/rAvC0JE5HYlEL1b2kyWJZzK0LCY37gjJJ4vRG0gfrejruXnV4ZWZdCAAAAAAAANCSY+sCsBkBlvAlcTpVGAEWqb3RYpXY7wvJa/ej1Xh4JxdokTRvKbxwJelSTOrw0ZHq/zZT4zp6gXFC/ppYF4C93Ksey0KA5QVcB5vfRdu0pjA+CAAAAAAAAH10Zl0ANmLUfOCSOJ0orA4SaUvXyVu6Dg7vRI+jh/7nRg9NV+PhqKkLuqAMUx78dbkaDwnEtoAQi4fcSJVQkqp49BBgYcbhAbgg0EgEWQ7to3ifAgAAAAAAoJ/YePIXXVgC5gIs19Z17MqNGGta1cI10I5T1UGtL6vx8OtqPJyvxsPL1Xg4OPB1rsTemK8eurGgYYRY/DSxLgA7I8DSAPfv80yk8A/hXtLvi2VxSVtOAAAAAAAA9NTIugBsxLP1QLkgSKidIwYtXKNq4Rpo35HqsUMfJP29Gg+r1Xh4tRoPz1/aqYNuLN5730BwCT8gxOInElxhIcDSoMWyqFR/uSTIsr9bSWeMuQIAAAAAAADgKQ7eBcgFWHLVG/oharwTS5SVedPXgBdOJL2V9Kfq0UO5Gz2073uMbix+m1oX0HWEWDzjFvwT6zqwNQIsLXCdQ0YiyLKPj4tlcebCQAAAAAAAAECfpdYFYKPcugDsJonTY4UdYJFaCLE4dy1dB/5IVY8e+suNHpqtxsPJth086MbivQu6sTSLEIt/JtYFYCcEWFpCkGVn/4wPsi4EAAAAAAAAANAdHQmwSO2ME5IYl9V3R5IuJF2rHj108zB66Cf/3KzxyvASU+sCuuzVt2/frGvAmiROvyr8Rb8v3iyWxcy6iL5Zuzk+NS7FZ7eSzum+AgAAAAAAANSSOB1J+mJdB562WBavrGvAdrr2jL6N995qPJyq7soBPOWz6t+pPMrK7wJPq/FwpjoAAz/9xsiwZvzHugA8SuL0XARYQvGRAIuNxbL46r5w5urITfKBfaT7CgAAAAAAAPAvx9YFAB1xpQ49m0/idLRYFnnDl6ETC57z2v1oNR7eyQVaJM1Vd/sgxOKvqeopEjgwxgn55Wdto+CHW0ICttxooYnqkTmoMT4IAAAAAAAA2OzMugBsVFgXgO0kcTpT9zbUBy1co2rhGuiGEz2OHvqf6iDLnWlFeE66Gg9H1kV0ESEWvxBi8d+9+O/khcWyuFGdbiTIUn/JO1ssi7l1IQAAAAAAAICn6MTir6/WBeDnkjidqnsBFqmFEMuPI2KAHZyqDrbAX1PrArqIEIsnkjg9E6OEQjBdLIvKugjUXJBlYl2HsT8Wy2LE+xIAAAAAAAB4Fp1Y/MUGv+eSOJ1Iem9dR0NGLV3ntqXrAGgX3VgaQIjFHxPrAvBTxWJZXFkXge+57iNvrOswcC/pt8WymFoXAgAAAAAAAARgYF0ANqITi8dcgOXauo4GDVq6TtXSdQC0b2pdQNcQYvEHI2r8N7UuAE9bLIuZpE/WdbSokDRYLIvcuhAAAAAAAAAgEIxj8BedWDzlpgh0OcAiSSdJnLYxboz3OdBddGM5MEIsHkjidCBuoH33icCA3xbLYqJ+tON7GB/E6QQAAAAAAABgC+4ZPPxVWReAf3MBlty6jpa0MW6MEAvQbVPrArqEEIsf6MLiv6l1AdjKSPWYnS5ifBAAAAAAAACwn4F1AdhssSwq6xrwPRf8yiUd2VbSGkIsAF4qXY2HbXyW9AIhFj+MrAvAsz5zEx0G151kZF1HAxgfBAAAAAAAAOxvYF0ANrqzLgDfc6N15upPgEVq4TMiysqq6WsAMHdpXUBXEGLxw8i6ADzryroAbG+xLG4kvbOu44AYHwQAAAAAAAC8zMC6AGxUWReARy7Akks6NS6lbW11Tyhaug4AGxer8XBgXUQXEGIx5mYK9inNGpo7ul+EZ7EsriR9tq7jhRgfBAAAAAAAABwG7f39VVkXgO/M1L8Ai9TeZ0TV0nUA2KEbywEQYrE3si4Az5pbF4C9TVQHQUL0WYwPAgAAAAAAAA7l2LoAbFRZF4BaEqczSa+t6zBy5LrQNK1q4RoAbE1W4yH3HS9EiMXeyLoAPGtmXQD248bvnFvXsYd3i2VxzvggAAAAAAAA4GDoxOKvG+sCICVxeiXpwroOY218TuQtXAOArSOFuT/pFUIs9kbWBWCju8Wy4AY6YK6TSShjhe4k/epGIQEAAAAAAAA4nCPrArARh/mMJXE6kfTWug4PjFq4RtXCNQDYY6TQCxFiMZTE6UDcPPssty4ABzGR/2OFPks6IzQFAAAAAAAAHFYSpyPrGvAsnokacgGWa+s6PDFo+gJRVlZNXwOAF05X4yFd4F6AEIst3rx+y60LwMu5sTw+Jx4ZHwQAAAAAAACgl3guascFvAiwPBq0dJ2ipesAsOXz3qT3CLHYIsTiNxLgHbFYFjP5d2PI+CAAAAAAAACgeSPrArDRrXUBfZXE6ZmkuXUdnklbug57T0A/nFsXEDJCLLZG1gVgM0a7dM5E/owVYnwQAAAAAAAAgL6jC4sBF2DJJR0Zl+KdJE4HLVymauEaAOwdrcZDgix7IsRii04s/rqzLgCHtVgWlaSpcRkS44MAAAAAAACANo2sC8BGuXUBfZPE6bGkmQiwbNLGvh2HW4H+mFgXECpCLEbcjQI3Cf6qrAvA4bnRPVYtKm/F+CAAAAAAAACgbcfWBQA+cPtSuaRT41J8RogFwCG9Xo2H3IfsgRCLHbqwADYmBtf8JGnE+CAAAAAAAACgdWzY+yu3LqBn5uL34Wca37uLsvKrpPumrwPAG4wU2gMhFjuEWPxWWReAZrggyR8tXe5e0pvFspgwPggAAAAAAABol+s8AX/xzLQlSZzOJKXWdQRg0NJ1OPAK9MfIuoAQEWKxM7AuAM+qrAtAo64k3TV8jVvV3VdmDV8HAAAAAAAAwNM4TOoxOle3wwVYLqzrCERbnWp47wP9QSeWPRBiscPNs99I6HeY64oyafASjA8CAAAAAAAA7A2sC8BGjFNpQRKnExFg2UkSp23s31UtXAOAH45W4+HIuojQEGKxQ0jCb4SMOm6xLHLVYZNDYnwQAAAAAAAA4I+BdQHYiAOADXMBlmvrOgI0aOEavP+BfhlZFxCa/1gX0GNttSQDsNml6jZeRwd4rVtJE7qvAPBBEqejDX/pWNsFNW/09Fzqr3zOAQC6LInTp9bK0U/+sef+ev7MX/uqHx5eu7A9AAA4nIF1AdiIQ4ANcs+GCLDs50zSvMkLRFmZr8bDJi8BwC8j6wJCQ4jFgHsoBr/x36gHFsviq0uj//nCl/ok6ZLuKwCa4FqYHuv7AMpAjw/ijtViODaJ0/X/916Pm2/rG3GV+yH0AgAwt2EtffhzD//3IYLtT0l//rc8+mGdLdwf19fYh6DpDd8/AADYysC6AGzE84KGuPvfRkMYHTdq6Tp3kk5auhYAWzs9GwAhFiuMqvEfnXJ6YrEs5kmcFtpvAblX3X2FLwQA9ra2sTZyf+rhjyHc2B7p+zpf//g3uM24h7DLwyZc5X7YgAMAvFgSpwPVG1Q/rqlNhlPasM0ae6vv19cbSdViWVTNlwcAQBAG1gVgo8q6gC5yz5lyhX0fbG3Q0nUqEWIBemM1Ho6irMyt6wgFIRZggyROBzz4642J6oe9u9zY30o65z0CYBtrownO9LjJNlB/vqiuh12+24RL4vQh4PLP5hujFAAAT3Et0QfuZ6SWu5F56uF//3fhVxdwKfQYbLkR4VEAQD/15Xt3iCrrArrGPX+aiwDLS7X1uZErjENsAA7jIWSILRBisTGyLgBbORM30r2wWBZVEqdTSR+2/Ec+LpbFZYMlAQjY2gbb2doPDw82ewi4/POlfe1k+fqmW25RHACgfWudVUZ6XEvZgNrdw/p68fAnkji90+P6mrO+AgC6zHWkgL8q6wK6xAVYcnHffBBJnI5auFeuGn59AH4ZSbqyLiIUhFiAzUZibmRvLJbFVRKnEz1/kpPxQQC+4wIr62GVvp8GP6RT93MhfRdsyd3PDd2wACB8a93KRmt/JPzZnBP381rSe9ZXAEDHHVsXgM245zi4XDyXOqRBC9eoWrgGAH8MrAsICSEWYLORdQFo3UTSXxv+GuODgJ5zp8JHetxg48FA+x6CLW+lf06T5+5nzogEAPDf2no6EgFQX7C+AgC6ik4s/rqzLqBLkjidifvqQ2v88yPKynw1HjZ9GQD+4HN6B6++fftmXUPvJHGaizl3ofiF0EK/uLFC73/404wPAnrItR0erf1wKtx/DyfJ54xHAAA//BBaGYn25iFifQUABGnDcz74oVgsi5F1EV3gAiwXP/v7sLNW3qOr8fBGbGwDffJrlJU31kWEgE4swPNGkmbGNaBFi2UxdWOFTsT4IKBXCK10wj8nyZM4vZfbcBOnyAGgNW480LkIrXTJj+vrXHRpAQCEYWRdADZiA+8Akji9FAGWprTVyakSIRagTxh1uCVCLMDzLkWIpY8mkq7E+CCg09hk67wjSa/dz3USp7eq1/Q5n+0AcFguCDoR4/b64Ej1RsmF6vX1swiMAgCA3XHf8ELuIOYH6zo67CiJ0+MW7nFvVD+7AtAPI9WHQvAThFiA550mcTpgs6tfXItsZuYCHbTWbWUiNtn65lT1w50PBFoA4GV+CIKei+5lfbYeGCXQAgDwTWpdADaiE8sLJHF6Lunauo4eOFPzm838LgDAEwixAD83Vb3ZCQAIUBKnI9UbbOei2wpqPwZarsSGGwA8ay24ci5OCuJp/wq0LJbFzLYkAH3mDjFs27J9l7+3j44Xy+LSuohduHsX+Ivv33tyn20z6zp6oo0QS9Xw6wPwy8i6gFC8+vbtm3UNvZPEKf/Sw3IvacDGFgCEw51IefjhdDi29VnSbLEs5taFAIAPkjgdqF5LJ6KDGfZzr7o7y9ViWXDKFMBBuY3cgepNxoH7ORZrVhNuF8siqK7F7kDLF+s68LTFsnhlXUOI3OdeLp51teXTYllMmr7IajxkzxDojyLKypF1ESGgEwvwc0eSLlV3ZAEAeIrgCg7gtaTXSZzeqz7VdMW4IQB9s9ZxZSJa8OPljiRdSLqg+xmAfbm16WE07ENghaBKu0L83KYTCzrFfRbOxTOvNg1aus6tWNcA4DuEWIDtXCZxOmMjCwD84k6gTNwPX+JxKEeS3kp6m8Rpobo7y8y2JABoVhKnEzEqCM06lXQt6SqJ07mkKd+xATzFdQIb6TG0wsaevRC7aQXVOaZnCusCQuMCLLkYk922tkL9lVjrgL7g/mRLhFiA7Ryp7sQysS0DAOAeaE7cD1/e0bRUUprE6VSP3VlCPIUIAP/iwqCXoosZ2rXenaVQvbYyyg/oOddZc6R6TeJ7nn9C/A5EJxZ0wlqAhZCDgSROBy0Er2/EYQKgL3j2siVCLMD2Llw3lty6EADoI3dCfCJGG8DGiaT3kt4ncfpJ9YZbiKcRAfScewg+UR1eYZMQ1h7ConeqD44wagjoibXxdXQBC0OI33046eyv3LqAwFyJAIulgepOKU3KVT9zAgA4hFiA3cySOD3joRoAtMN1XbkU44Lgl/XT41MCrgBCkMTpSPV6emFbCfCkEz2OGroSnc+ATiK4ErQQP5MH1gVgoxDfTyaSOJ2J+3drIzUfvKoafn0ACA4hFmA3J6pPh10a1wEAnUbXFQQilfQlidNb1ZttM+N6AOA7dF1BgI5Un0K9JMwCdIf7fkdwJWCBBve59/FXiJ19WufGGhNgsTdo+gJRVlar8bDpywBAUAixALt7m8TpDRtVAHBYruvKRPVGG11XEJJTSdfuAdOUewQA1pI4PVO9nvLQG6EizAIEjq6asOTef/AXa/pPuPAf42X80NZoskIc5gOAfxBiAfZz5YIspMYB4IUYb4AOORFhFgCGkjg9V71hyMNPdAVhFiAwdNXspMK6gD0MrAvAZjxTf577HL22rgP/OG3pOpVYOwHgH4RYbNyqvYUPzTiSNEvidMQDNADYj/tSfinWRHQPYRYArXEjg85Vjz2lbT66ijAL4DG3Fj10XWEt6p4QP2/b6pyA3d1ZF+Az11HxyroOfC+J07MWwldVw68PwA+sg1sixGIjxBt//Nup6hvKiXEdABAM93BzovoBJw830XXrYZZJoHPkAXhqbcOQMXzok/UwyyVBUcAWI4N6I8SuGcfWBWCjyroAX7kASy4+T300UPOfhbkYIQX0QWVdQCgIsQAvc+HGCpGOBoBnsNGGnjuR9CWJ00J1Z5bcuB4AAXMbhlPV3VdYU9FXRyIoCphZW4sYCdsPIR7IpBOLvyrrAnzknpvl4v7eV2eS5g1fo2r49QEgKP9nXQDQAR+SOkTpoQAAIABJREFUOB1ZFwEAPkridJDE6Uz1F7H34ss4+i1VHWaZuQf/ALC1tTX1b9WbhqypwGNQNGdtBZr3xFqEfqATCw6psi7ANwRYgtD4Z0qUlZWk+6avA8BciOFgE3RiAQ5jnsTpgJncAFDjZB7wrAvV3dz+kHTF/QOA57CmAltJJf3N2go0w22wXom1qK8q6wL2QCcWf1XWBfhkLcByalwKntfWZ8qN6vtaAN0VYjjYBJ1YbOTWBeDgjsR/VwDgZB6wm/eSqiROJ9aFAPAPayqwl/eSbpI4PbcuBOiCJE6P3diuSqxFvbVYFpV1DXugo4W/KusCPDMTAZYQtLXpzOY2ADiEWIDDOXUPmQGgd9hoA/Z2JOnajUHgtCAA1lTg5U4k/cmIIeBlXNC6EmNh++7OuoBdMfbde2zSO+6e/7V1HdhKW13+qpauA8BObl1AKAixAId1wWlqAH2ydjLvRmy0AS+RSvoridMr104YQM+4NXUmwivAoaSqu7JcWhcChCSJ01ESp7mkaxFeARuqODBG/tWSOGVEW1jmLV2HkBfQfayDWyLEYoOFqNuuOUkNoOt+aCvNyTzgcN6qHjHEGASgJxjVADTqSNKHJE5v+J4OPG8tTPlFdQgMkMIMsYysC8BGt9YF+MAdgn1rXQe2drdYFowTAnAQUVbye74lQiw2SFl1H22LAXSW+7J9I8IrQFOOxBgEoBdch4hKrKlA005VdzybWhcC+GhtdBBhSvyosi5gD3S29Ffv90Xc5+21dR3YybStC0VZ+VXSfVvXA9C6wrqAkBBisdH7m7UeOJI0ZxwAgC5xbaUr1V+2T4zLAfqAMQhARyVxeu7W1A8ivAK06T1dWYBHSZwOGB2EnwjxtDCf8f4K8f10MO7+gwBLWIrFspi1fM1e/54AHVdZFxASQiwGWmw9Blunkq6siwCAl1p7sPlFhFeAtj2MQaArC9ABSZyeuTX1T7GmAlZOVXdPJSSKXnO/AzdidBCeF+JhTA4V+ivE99NBuABLbl0HdnIvyWLUc2VwTQDtyK0LCAkhFju0BOuHC9oVAwiVm4l+Jelv8WATsEZXFiBga2vqX2JNBXywHhJlsxO9snZIgW5g2EaIhzFPrQvARrl1ARbcgZRcfOaG5F7SaLEsLIJXM4NrAmhHiPdVZgix2OGN2h/vkzi1SOwCwN7WZqK/ta0EwBq6sgABcuGzSqypgI9SSRXf2dEX7nse3VewNaMN3L0RTIRv3HtyLgIsIXkIsJjs4UVZmUsqLK4NoFH3UVaSDdgBIRY7QX0BwIvNmLkNIARJnI6SOL0RM9EBnz10ZWHDDfDY2prKSXfAb0eS/nTdkoBOch3B5uJ7HnYT4iYqz189tlgWuXUNbXIBllx0BwqJaYBlzURMcwC6Zm5dQGgIsdixXgTRriNJc04DAPDV2piDL+LLNRCChw23GfcXgF/cmjoTayoQmrdJnN7Q7Qxd4w5V3Uh6bV0L0IKBdQHYqI8b8jPxfSA0Ew8CLIqyslIdyrs1LgXA4eTWBYSGEIudyroAtO5EfEgB8BCjg4CgXajuysKJQ8ADa2vqhW0lAPZ0KrqdoUPcSLu/VD+TAnaVWxewh4F1AdjIPBjQJhdqJzwYljeLZeFNp4QoK6soK88kvZH0Wf0MggFd4s3nSygIsdiprAuAiVN3AwsA5pI4HSRxmouW0kDoTiT95TYpABhgTQU65aHb2dS6EGBfa13BPljXArRsYF0ANvpqXUBb3OcvofawvFksi5l1EU+JsnIWZeV5lJXHkn6V9FHSnXFZAHZzG2Vlb9bBQyHEYqRv8x/xnQsehgGw5j6HbiSlxqUAOJwPSZwyvhBoGWsq0FnvWVcRItehLxcbqHi53LqAPQysC8BGvejE4joz8vkbFm8DLD+KsvImysrLKCsHkn6R9E5SYVsVgC3MrAsIESEWW6Ql++u9u6EFgFYlcXqWxOmNpPfipDjQRa/FeCGgFaypQC+8lpSzriIUbhRWrno0FvBSIZ4Y5vPaXyG+n3binvdfW9eBnQQTYPmRGzd0FWXlSNJ/xdghwGeMEtoDIRZbvUgfY6MrHoQBaJM7Kf6XeKAJdN3DeKGJdSFAV7GmAr1yqjrIcm5dCPAcN1ryTxGsxIEslkWIz655//srxPfT1pI4HYkAS2g+hhpg+VGUlV9/GDv0uxg7BPjic5SVlXURIXr17ds36xp6yz34fG9dB0zdSzpbLIvKuhAA3eUCczOx0Qb00SdJl4tl0flTb0AbWFOB3nu3WBZX1kUAP0ridCbGV+Cw7hfLIqhxau4+7S/rOrDRL119Br42xo0QVTg+LZbFxLqINqzGwzNJ5+6H77FA+95EWTmzLiJEdGKx1en0MbZyJIkZ2wAaw0lxoPcuVJ8e514DeCHWVACSPriwAOCFJE6PkzjNRYAFhxfic2u+83iMAAs80psAiyRFWXkTZeU0ysozSb/ocewQgObdEWDZ33+sC+i5EL8M4PBOVd/oMloIwMFwUhzAmlNJVRKno0BbggOmkjgdqJ5fzJoKQJIu3OfCOZ3OYMmFlHOxPqEZlXUBe+DZqr86OdLEfQ7PRIAlJL0KsPzIjTSZSZqtxsNjSSM9dmnhfQwc3sy6gJDRicWQSx/fW9cBL5xymgvAobhZ6Ll4mAng0ZGkv5I4nVgXAoTErak3Yk0F8L1UdDqDIXdooRLrE5pTWRewBz6T/VVZF3BoBAmD1OsAy4+irPwaZeU8yspJlJXHkn6V9FEdDZ0BRhhF+wKEWOzl1gXAGxeuRTkA7GWtlfQHkZ4H8LRr7jeAn3Nr6lysqQA2e+h0xsl/tIrRFWhJZV3AHkbWBWCjyrqABtCpMSwFAZbnubFDl1FWDlSPHXonqbCtCgjapygr6dz5AoRY7OXWBcAr7zkhDWAfSZyeq34okBqXAsB/7+kAB2yWxOlI9Zr62rYSAAE4Ut2RhSALWkGABS2qrAtAp1TWBRyS+z7N87dw3Koel4MtRVlZRVl5FWXlSNJ/Jb2R9FlMlgB2MbUuIHSEWOzdWBcA71y7B+cAsJUkTq8k/SkeZALY3kUSpzeMQQC+5zoVfRFrKoDtPQRZ2BxBo9yzolysUWhHZV3AHggV+KszeyAuwHJhXQe2ditptFgWdEPYkxs7NIuy8tyNHfpdjB0CfuZTlJWVdRGhe/Xt2zfrGnoviVP+I+BH96pvrjpzgw/g8JI4HYj2pQBe5lbS+WJZVNaFAJZcoGsuNj8AvMybxbKYWReB7nFde6+t60B/LJbFK+saduHu5f5nXQc2+m2xLHLrIl4qidNL1eNGEQYCLA1bjYdnqrvcnIvn08CDe0lnhFhejk4sfmCuHH70cJJrYF0IAD+5h5g34gsCgJc5lXTDGAT02dr4IAIsAF7qmhHBODQCLDBwa13AHvg+47fgD2q6z2ICLOEgwNKCKCtvoqycRll5JukXPY4dAvrsigDLYRBi8UNuXQC8dCRpTpt/AD9y44OuRRtpAIfxEJ7lwS96h/FBABpAkAUH48ZUEWBB20Lc9OX5qcdCDxLwWRycOxFgaV2UldXD2CFJ/1U9duiT6q4UQF/cSbqyLqIrCLH4YW5dALx1qnpTiS9iAJTE6SCJ0xtJb61rAdA5D0GWkXUhQBuSOD1O4jSX9N66FgCdRJAFL+YCxjPrOtBLIXbNIJDvr6C70PNZHJx71SOTCbAYirLya5SV8ygrJ1FWHkv6VdJH1Rv8QJddRlnJ58+BEGLxwGJZ3Ig0IjY7Fck9oPfcxjLjgwA06UjSFzbd0HXuQfSNGB8EoFkEWbA3t1blolMYbIS4+cIBQBwcn8XBuVfdgSXEIF6nubFDl1FWDlSPHXqnwANuwBOKKCtpWnFAhFj8kVsXAK9dJHE6sy4CgA1GHQBoGZtu6Cz33v5L0olxKQD6gTUVO2PTFB7IrQvYA51Y/JVbF7AP1xl9Lj6LQ0GAJRBu7NBVlJUj1WOH3kj6LA76I2z3kibWRXQNIRZ/kM7Cz1wkcXppXQSA9rhRB3Mx6gBA+9h0Q+e4UDiz7AG0jTUVW3ObprnYNAV2NbAuAN2x9llM8D0MBFgC5cYOzaKsPHdjh34XY4cQpmmUlZV1EV3z6tu3b9Y1QP/cGP3Pug4E4c1iWcysiwDQrLWZu4wPAmCJ+w4Eb+0hNGsqAEusqXgW6xV8sVgWr6xr2FUSp2xy+Ou3xbLIrYvYRRKnjPMOy68EWLpnNR6eSTp3P/w+wmefo6w8ty6ii+jE4onFsvgq6da6DgThOolTPhCBDkvidCQeXgLwA6fHETQXCuUhNAAfsKbiZ3KxXgE7S+J0YF0DnvXVuoBduO6NfBaH4w0Blm6KsvImyspplJVnkn6R9E712CHAJ4wRahAhFr/MrAtAMGbugTyAjnEPtr+I9tEA/MGmG4Lk3re5aAMOwB+sqXgSm6bwSGFdwB4G1gVgs5ACBu6z+MK6DmyNLnc9EWVlFWXllet28V/VY4c+qQ4QAJZGUVYGFdYMCSEWv8ytC0AwjiTlBFmAbnFflq+t6wCAJ7DphqAkcXqpek0lFArAN6yp+E4Sp1OxaQp/hLgRw/NRfwWzwey+P/BZHA4CLD0VZeXXKCvnUVZOoqw8lvSbpI+S7oxLQ/+8ibIymKBmiAixeGSxLCoxUgjbewiyHFsXAuBlkjg9TuI0F1+WAfjtmgAtQuBCoR+s6wCAZ7CmQpLkxkW/t64DWBPiZgzPRv0VxPvJhUv5/hAOAiz4R5SVeZSVl1FWDvQ4doh9VjTtU5SVM+siuo4Qi39m1gUgKARZgMC52c25pNS2EgDYCp3g4C0XCr0RoVAAYWBN7Tn3339mXQfwAzqx4JC8fz+5AAtdkcNBgAUbrY0dOlM9duiNpM8KqCsUglBEWTmxLqIPCLH4h5FC2NWpCLIAQXIPLW/E7HMA4WCkIby0FgplTQUQCtbUHnPPcOZi7B38E0TnjB/wTNRfXr+f3Bp8ZV0HtvaJAAu25cYOzaKsPHdjh36X9EmMHcLL3Eo6ty6iLwixeMaNFCqs60BwTsXpHSAo7qRHLh5aAgjPkaQ5AVr4glAogIAdSZqxpvbSTNKJdRHAEyrrAvZAGNBflXUBm7jvELl4LheKT4tlMbEuAuGKsnIeZeXEjR36VdIfYuwQdnMraRRlpfddxrqCEIufZtYFIEivkzidWRcB4OfWWpXyRRlAqE5EJzh4IInTkXj4DCBsdFftmSROp5JeW9cBPMUdsAwN94H+qqwLeIpbc3Px3gkFARYcVJSVN1FWTt3YoV8kvVM9dgjYhACLAUIsfpqLGW3YzwVBFsBv7oEls3YBdMGpGIUJQy4U+kU8fAYQvlMxzqAXXPjyvXUdwAbBjVhwv1PwV2VdwI8IsASHAAsaFWVlFWXlVZSV55L+q8exQ+zR4gEBFiOEWDy0WBZfxYYA9nfhNskBeMaFzHhgCaBLUgK0sLDW1QwAuuIiiVOCLB3mNk553gefVdYFoFt86+yzFmBhDGkYCLCgVVFWfl0bO3Qs6TdJHxVgyBMHQ4DFECEWf82sC0DQ3rsH+wA84TZ5L6zrAIAGXCRxemldBPqDrmYAOuwt3+U7bSZO/sNvlXUBexhZF4CNbq0LeMKVCLCE4pYAC6xFWZlHWXkZZeVAj2OHfPxsQzMIsBgjxOKpxbLIRboPL3PNwy/AXhKnx0mc3ogAC4Bu+5DE6bl1Eeg+upoB6IFrxmN0jwv8vrauA/iJyrqAPRxbF4CNvNr043BZUG5FQA2eWRs7dKZ67NAbSZ/F2KGu+hRl5RkBFluEWPw2tS4AwSPIAhiiTSmAnpklcXpmXQS6iwfPAHpknsTpwLoIHIb7bzk1LgPYxo11AXvg+4e/vHk/uU6OfI8Iw62k0WJZsHEMb7mxQ7MoK8/d2KHfJX0SjQm64l2UlRPrIkCIxXdzkeLDyxFkAQwQYAHQQ0eqgyychsTBEWAB0DNHqoMsrKndMBNjhBCGEDeN+Zz0lxfvJ/dcnE6OYSDAgiBFWTmPsnLixg79KukPMXYoRPeSfouy8sq6ENQIsXjMLdYz6zrQCVecjAbaQ4AFQI+divtXHBgBFgA9xZraAW6MUGpdB7Albzpn7IDnLv4yfz+5AMu1dR3YCgEWdEKUlTdRVk7d2KFfJL1TPXYIfisknUVZmVsXgkevvn37Zl0DnuFajv5tXQc64V71jaD5FwigywiwAIAk6Y/FsphaF4GwuTV1Ljb/APTbu8Wy4DRggNwzvRvRhQWBWCyLV9Y17MLdK/7Pug5s9NtiWeRWF3cHOnPxGRyCe0lni2VRWRcCNGU1Hh5LGkk6dz98Nvnjjygrp9ZF4N8IsQSAk4c4IIIsQIPcF+S5pBPrWgDAA6YPLRE2QqEA8B3W1AAlcZqLICbCUSyWxci6iF0kcTqS9MW6DjzNMhRFgCUo7Fegl1bj4UiPgRb2EmzcSppEWcnnj6cYJxSGmXUB6IwjSTmjhYDDW/uCzE0nANTmLogA7IQACwD8C2tqYNwICwIsQLMG1gXAP64LVi4CLCEgwILeirIyj7LyMsrKgR7HDt3aVtUb96q7r5wRYPEbIZYAuNM2hXUd6IyHIAsPwIAD4YQHADzpSHV3KmBrBFgA4EmsqQFxaxkjoBCa3LqAPQysC8BGJnsZa+NIeT7nPwIsgBNlZRVl5VWUlWeS/ivpjaTPqn9PcFifJZ0xPigMhFjCMbUuAJ1CkAU4EE54AMCz0iROp9ZFIChzEWABgKewpobjSnw/BNowsC4A/iAMHxQCLMAGUVZ+jbJyFmXleZSVx5J+l/RJ0p1xaaErJP3m/r1W1sVgO4RYAkE3FjTgVARZgBfhhAcAbOW9m1cPPCuJ05kYvQAAz2FN9Zz773NhXQewh9y6gD0MrAvARrnBNWciwBKKcwIswHairJxHWTlxY4d+lfSHGDu0i4fwyijKyty6GOyGEEtYptYFoHMIsgB74oQHAOxkxv0GnuMCLGz6AcDPzVlTvTa1LgDY01frAvZwZl0ANmr1/eS+S7xu85rY2xt3YBvAjqKsvImycurGDv0i6Z3q8Tj4N8IrHUCIJSB0Y0FDCLIAOyLAAgA7O1F9Mg74FwIsALCTI7GmeimJ04noKIZABdoVga64/mrt/ZTE6ZX4LhGKN4tlMbMuAuiCKCurKCuv3HicV6rHDn1Uv8cO3asevfQr4ZVuIMQSnql1AeikU/EQDNgKARYA2NvrJE7PrYuAXwiwAMBeXidxemldBP5lal0AsKd76wJ2lcQpXVj81konFhcefNvGtfBiBFiABrmxQ5du7NAvkt6o7tIS3Bq/h1vV/3sHbvRSiMFcPOHVt2/frGvAjpI4zcXJDjTj02JZTKyLAHxFgAUAXuxe0mCxLEJsV44Dc6cmeegMAPu5lzQKtHtC5yRxOpX03roOYE/FYlmMrIvYRRKnI0lfrOvA0xbL4lXT13ABluumr4ODIMACGFqNh2eSRqrH8I1Ud0sO3a3qg/nzKCsr21LQlP9YF4C9TMVNOppxkcSpCLIAG81EgAUAXuJhBAIdWXqOU5MA8GIPayrdCIy5ww50xkHIKusC9sBnn78aH2XhOvEQYAnDOwIsgC3XmeSf4PtqPByoXkfXwy2+j+i7V324eC4pJ7jSD4RYArRYFnkSp59E2200gyAL8AQ37uC1dR0A0AGvkzg9XyyLuXUhsMGpSQA4mNMkTqeLZTG1LqTnLuX/g3/gOZV1AXs4ti4AG1VNvrgLsORNXgMH82mxLK6siwDwPRcAqVQHQiT9K9hypnqdtZwIcqs6eJNLumFEUD8xTihQSZwOJP1tXQc67eNiWXCSCNA/ARaCgwBwOIwV6ilavwNAI35lrJAN14WlEiEWhC24UR9JnOay3VzDZo2Nq18LsPCZ67/G3gcA2rMaD49Vh1oG7kequ7dIddBl3671t5Iengnma3/8SmAFD+jEEqjFsqiSOP1DzNtFc94mcXoT2pdY4NDcaXECLABwWIwV6iH30JkOPABweDMxWsMKXVjQBZV1AeiUqokXdaHBmfjMDQEBFqAjoqz8qj26X63Gw5H753f+Z4EH/2ddAF7kSi3MmESvXbsNfKCXGHcAAI167bpyoAdcJ8lcPHQGgCacJnE6tS6ib9yGKh1s0QWVdQF7oAuLv6pDv6D7vM21/4l/tIcACwBFWZkTYMFLEWIJmGu/PrWuA51HkAW95E6LE2ABgGbN3ANJdJj7bzwXARYAaNKlCwyiPXRhQScslkVlXcMu+P7gvaqB15yLAEsIPhNgAQAcCiGWwLlRL4V1Heg8gizolbUZuwCAZp2IE8x9kIuHzgDQtIdRfWgBXVjQIbfWBeyB8Wl+uznkiyVxOhOdd0JwK2liXQQAoDsIsXQDX5rRhmu3sQ90GqfFAaB17zk53l3uoTMBFgBoR5rE6bl1ET1xLr4zohu+WhewBzqxeMx1jz8I913i4lCvh8bcShod8r89AACEWDpgsSxuJP1hXQd6ISfIgi5bm7F7YlwKAPTNzLoAHF4Sp1Px0BkA2saovnZMrQsADuSgXTNawrNJfx2ss4/rCs53Cf8RYAEANIIQS3dcSbqzLgKddySCLOi2K3FaHAAspEmcjqyLwOG4h87vresAgB46EgGLRrl7Fg4+oCtC3HgmqOevg7yf3HeJ60O8FhpFgAUA0BhCLB3hbhQm1nWgFwiyoJM4LQ4A5mbWBeAw3H3ilXUdANBjb/nO3ijGeqNLcusC9sDnm79e3NnHBQUJsPiPAAsAoFGEWDpksSxySR+t60AvPARZBtaFAIfAaXEA8MJJEqdsCgVubTTfkXEpANB3hAkb4J6DvLauA+i5gXUB2OhFgQYXwJwfqBY0517ShAALAKBJ/7EuAAc3lXQu2pqieUeS5kmckrhG0DgtjkDcSarW/v/qh/9/kzN932r5TGwsw2/TJE5n3FsELRefMwDggzSJ0/PFsmAz8LAm1gUAh+QORYaG597+yvf9B93zuVx8l/DdveoOLC/uugMAwHMIsXTMYll8dR0FvljXgl44Vd2RhSALguROi8/FF2TYulfdcrf64edrkw8FXIte6THoMnJ/PG3qmsAWjlS36J8a14E9JHE6E58h8E/h/nij+nTwV33f6r5aLItqnxd2my0PYdFjPY43GLgf1lVYuxIn2g9tYl0AcED31gXsiq7Q3eSez83E8znfEWABALTm1bdv36xrQAOSOL2S9Na6DvQGMzARpCROb8TGAtp1q3rj7J8fHz873abcQPVm3Eh0cEG77iWd7bupDBsuSM/selgp9BgCvVEdBM0N6/mO25h5WFsHqtfWgThJjnb8sVgWU+siuiCJ03NJf1rXARxQsVgWI+siduEOY3B401OLZfFq139mbRwpz+f8RoAFANAqOrF011T1gzFu/tAGOrIgOC7sx2ckmnSv+kFMrjqsklsWswv3UOJGayd3XbDlIdQyEhtvaM6R6nvZiW0Z2Jb7fCDAgjY8dC/L9RgGrSwL2ob7jpT/+OfXwi0j98czsb7i8C6TOL3iu/pBnFsXABxYiJ8LZz//W2Bk384+uXg+5zsCLACA1hFi6ai1sUJ/WdeC3jhV3faRhzrwnvt8pFsVDu0htDKXlIewqbaLtWDLTPqnjfNI9ef+SHRqwWFdJHE67drvURetnZwEmnCnx0BoF9fWh3BL/vDn1tbXhx9CLXgpRvUdgFvveN6BrglxQ/r4538LjOz8fmIcaTAmBFgAAG0jxNJhi2Vxk8TpO0kfrGtBb7xO4nS2WBYT60KATdxp8SvrOtAZhR5DK736Qu82Emd6DLU8hFnOxYYbDmMqurGEYC5CbDic9dDKvI+dI55YXwd6DIy+tqkKHXDpvqtX1oUE7Fysd+ieENdZOrH4a6f3kwuwXDRTCg7ozWJZzH/+twEAcFivvn37Zl0DGpbE6Vw87EK7PhFkgY/c6bkbscGO/d3LhVbU0821bbiw2EQEWvByv7Dh5q8kTqeS3lvXgeD1NhC6q7VOEOfiOz52x/f0F+DZGjrqt5DG3kpSEqe5pNS6Djzpj8WymG7zNyZxeikO3obgzWJZzKyLAAD0EyGWHmDTFkZ4QAbv8OARe3oIrsw5fbI716HlXJywwn64n/CU+93+07oOBOuzHtdWAqF7WAu0TMRmHrZHOHRPSZzyABVdFNxnQhKnX0VXJF+9WyyLn3Y+diO+r5svBy9EgAUAYIoQS0+4E9F/WdeB3vm4WBaX1kUAEqc8sJdPIrhyMG6zbSLpUgRrsZvgHq53nRtvciM2ELAbgisNcb+TE/fDGovnEA7dA8FNdNViWbyyrmFXBMq89tPOPnyeBoMACwDAHCGWHmEDF0a46YU5gnzYQSFpJjbYGpXE6UjSVJwcx3bYcPMMbdyxg1tJV2JdbY073TwRv6PYjHDojpI4nYmuguieu8WyGFgXsQv3PfKLdR3Y6Nn1xT2by0UQ3nccSgUAeIEQS8/wxRtGCLLADCPVsIV71cGVKx7ot8udHJ+KexP83H/ZAPdDEqdTSe+t64DXWFc94Db6LsUoTfwb4dAdJXFaie+T6J5isSxG1kXsghCL357r7EOAJRjcIwAAvPF/1gWgdZeqT8MBbbp2JwIBCzPxwBFPK1SH7I4Xy+KSjbb2LZZF5R6Q/KJ6fBOwCSfBPOA2DgiwYBPWVY8slkW+WBbnYo3Fv124IDG24DZe+T6JLrqxLmAPI+sCsNHdpr/gDpfNRYDFdwRYAABeoRNLDzHDHoboyIJWufDUtXUd8M7/s3d3x21j27qGx+7a9+wTgXAikPc9UMCOQFoRGI7A6gjMjqDlCExFsOQITBRw31IEDUVwrAjWucCUTcmkxB8A3/x5nypXr15tm1+3SQKYc8wxbmw4HR7iol3U6MyCVzyaWUY3Fh23+NwbzxD4FdfVALhr7MoYM4QBG1V7YjR31B5tWB+9M7PvNtzn9MI8c+tDKzgH87u4AAAgAElEQVQt8vLazD6qc2CrrZ193DPE2szO5w6Eg3BfAADwDkUsiXInSf5W50CS/ocFbsyBVqV44dHMrm3YZGMT3HMUs2AHimGFiry8NcaS4Ceuq4FyHZWujc2k1FEcuqciL9dG8VcsHm1YI7g1szvWpsLD59Frn9uuedY9kwKWYFDAAgDw0n+rA0Cj7Zq7Ii8/GB0KML91kZcViwWYwcooYMHQ0vbazFYs0ofDnQisi7xc2VDMwkIlzIb3wkqcIUnuFDoFLDDjuhq8tmvWZvbOdSy8Nu6XU7WwYVTfUpwjBNyHhu+rDdetW3UQnOx3dQDstO2+kKJZ/zUUsAAAfEUnlsTRhhEij2ZGIQsmU+Tl0sw+qXNA6sHMlnRtiAMbbdjwLzYg5sUoUjhcVyPkTkgvjTWBVD22XcOG8CvoYhy0p45hq9BG5mC3Ii/ZyPDXs+c0dyCFzqp+u7dhfZ7CdACAl35TB4CWa/N3o86B5Cxs6MjyTh0E8XEt0ilgSdeDDSNHMjba4uH+LDMz+6xNAg/U6gAJujUKWFLGdTVibdd8d2sC/2vDnzXSsnCFwtitUgfAwR7N7E8bxmUtKWCJhyu8hL9+FEK4g2UUsPiNAhYAgPfoxAIzMyvy8s5o74f50ZEFo3KLGndmdqbOgtk92nBC/FodBNNyBZAr474lZf+XDYl50NksaY9mdt12zVIdBPOgK0uyHtquydQhfFXk5a0xTi8kX83sivvEOLkDS9/UObDT/2m75rsrjvyiDoNXUcACAAgCnVjwpLLhBgaY08LMVpymwIiWRgFLajZP2lHAkoC2a+7arnlnw5870nSlDpACVzBGAUuafpxgVwfBfF50ZXlU58FsztzGMLaje2wYHs3sf9uuuaSAJWqZOgBe9TsFLEGggAUAEAyKWGBmw4KVUcgCjXMbRgtRyIKTuMVXTo6m5cbM3rk20TyAJ8Ztrv6Pce+SolodIBErdQDM7qsNnY64rias7Zq1DRuFjTYJZkRx6BZujYIDEv77akPh5VodBJPL1AHwqjsz42CR3x6MAhYAQEAoYsEP7gamNk5dYX4UsuAk7r1zq86B2TQ2nLSrOWmXNjeOrjKzz+IomNfCnfLDRNwYIUZ2pePeOMGODa4rS2V0PUvFRZGXmTqEh+jC4r8/3bWLDdk0ZOoAeNXC/YCfHs2M70sAQFAoYsEzG5tBFLJgbhSy4BRL42E5BY9m9qHtmoqTdniyMf7gX8b9S0ou1QFixRihpDya2R9t17zjuoptXNczrq9pqNUBPEQRi98+MPYuOZk6ABCoRxs6sNypgwAAcAiKWPCLjUIWYG7nRjcNHIgxQsm4saFN9EodBH5qu+bWhs0GxgulgVPj01mpA2AWT+MXaPuOV7nra2VDC3rEq1YH8FCmDoCtHm3oHrZSB8HsKCwDDkcBCwAgWBSxYCt3Y/NBnQNJKou8XKlDIAyuc89KnQOTerCfo4Noe4pXuTEYlQ1FT4gf3VhGxhihJDyY2b8Yv4BDuPUBCkXjdlbkJdfV59gw9xNdOdNF913gMBSwAACCRhELdnKnGihkgcJ7Clmwp6WZnalDYDJ/mhkjDnAQN16oNrM/1FkwuSt1gJi4zjb8N43bZxuuq3Q+xMFc0VNlZo04CqZDEctzmToAfvGBzdg0uXGXAA5DAQsAIGj/9Z///EedAZ4r8vLaGNUBjRu3EQn8wo0R+qbOgUncm1nNwzZO5U4Ur4xTezH7H74rxlHk5drMSnUOTOLBhuvqWh0EcXAHDt6rc2AS/4cuTYMiL1kw9csfjMBLF+s/wME+MHYNABA6OrHgTW3XXBlt+aFBRxa8hgWsOH02TotgJK7bQGVDG13EqVYHiEGRl7VRwBKrr0ZXM4zMHTRgjSBOdGMxuj546CsFLMnjMwnsjwIWAEAUKGLBXlikgtB7t7EC/FDk5dLMztU5MKpHM/vftmuuOP2JMbmCqMyGDj+ID5ttJyry8nejMDRGj2b2r7ZrLrmuYgqsEUSLsXKD39UB8MODUbQMPpPAvihgAQBEgyIWHOLK2ACCxhcKWfCkyMvMWFyNzVczyzgljqm4DdzKuI+J0ZlrL47jLY2RW7G5t6H7yq06COJGIUuUzt3zVuro+uCPmmJM2PAsB+B1FLAAAKJCEQv2xgYQxChkwZNrY7MtJn9wShxz4D4marU6QKhcAdBHdQ6M6nPbNe/arunVQZAGClmiRJczuj744oaDDgCwFwpYAADRoYgFB9nYAHoQR0GaKGRJXJGXl2Z2oc6BUTyY2f8w2xxz2riPacRRMK5KHSBgfAfH42l8EN3qoEDX1rjU6gAeqNQBYI9GB1b8VKoDAB67oYAFABAjilhwMLcBdGnDAyUwty+MDUgam21xaGwYc3CnDoL0tF3zve2ayoYxVojDWZGXtP0/UJGXV2Z2rs6BUTA+CFJ0O4sOI4Xgg2u6dcLMrMhLOiMBu924rngAAESHIhYcxW08VkYhCzRu2axKT5GXSzM7U+fAyT63XVOxIAkP1MZmW0xqdYCQuM2ApToHRnFjZhXjg6DGYZfopD5SiK4PWo/GARb8xPofsB0FLACAqFHEgqO5QpbUFzagsTCzNYUs6XAnAWklHLZHG2b08ucIL3BqPDrckx5macP9FML2R9s1NYWh8IUrpqrEMTCOWh1Aha4PXlhxbcMGPpPAryhgAQBEjyIWnKTtmrWZfVDnQJIoZEnL0thsC9mjDafEV+ogwCYKWaJyxuiD/bj/Th/VOXCSRzP7V9s1nFKHd9xhF9YIwpfySCHWGPS4vmETn0ngOQpYAABJoIgFJ3ObkixSQYFClgQUeVmZ2Xt1Dhzt3szeuQ0NwDsbhSyMPwgf3Vj2s1IHwEmeCkNv1UGAXdwawY06B06W6nU1UwdIXMOIPLyQqQMAHrmngAUAkAqKWDAKFqkgtDCzFS1/o7ZUB8DRGhs22np1EOA1FLJEI9XNtr25wtBSnQNHuzezjMJQBOLK6HQWukodQCRTB0gcRZp4KVMHADxxb+lemwEACaKIBaNxVcAUskDh3IaOLBSyRKbIy9rYbAvVTds1FbPMEQq3KUwRRNi4XrxtpQ6Ao93bUBjKdRVBcO/V2igQDdmFOoBIpg6QOIpY8FKmDgB4gGcBAEByKGLBqFwhy1d1DiSJQpY4LdUBcBTm8yJIbdesjRGJQSvykkKkHVxh6Jk6B45y03bNOxatERpXIHqlzoHjJXpdzdQBEnZPF09swf0rUkcBCwAgSRSxYAq10TYYGhSyRKTIy6WxWBGiPyhgQcgYkRi8Sh3AR+7e6FqdA0ehMBRBc9dVDrqEq1IHEHinDpCwtToA/FLkZabOAIhRwAIASBZFLBidu6mqjEIWaJwb7WeD5zbbOLUZng9t17BJiuC5DWPuY8JUqQN46srMFuoQOBgFLIhFbYwVClWKnVi4Xuqs1QHgnUwdABB6NLNLClgAAKmiiAWT2ChkYaEKCmWRlyt1CJyEzbbwfHAnbYFYXBr3MSE6pyPbcxSGBosCFkTDrQ/U6hw4yllKnRCKvKzUGRJ3pw4A79AZCal6tKEDS68OAgCACkUsmAyFLBB7TyFLmNwiKZttYaGABdFxi0W1OAaOU6kDeIbC0PB8oIAFsWm75tYYKxSqSh0ASXhgsxZbUJyOFD0VsFDYBwBIGkUsmJS72aqMQhZoUMgSpqWx2RYSClgQLbfh9lmdAwer1AF84QpDP6lz4CBcVxGzK2NtIESVOsCMKnWAhPXqAPASnViQGgpYAABwKGLB5NxNV63OgWRRyBIQt9n2Xp0De2OjDdFru+bKzO7VOXCQSh3AI0t1ABzkM9dVxMx1WViKY+BwlTrAjOj6oLNWB4CX+EwiJRSwAACwgSIWzMKdZP6gzoFkvS/yslaHwF6W6gDYGwUsSEmtDoCDnBd5mfyCN4WhwblxRXNA1NquuTazB3UOHOTMXVNSQNcHHTZtsU2pDgDM6JICFgAAfqKIBbNxm51/qHMgWV8oZPEbm21B+ZMCFqTELST9qc6Bg1TqAB5YqgNgbzdt19TqEMCManUAHKxSB5hJpg6QsO/qAAAg9KHtmrU6BAAAPqGIBbNyp65u1DmQLApZ/LZUB8BebtquWapDAHNz73vGCoUj6ZPUFIYGhQIWJMdt0jTqHDhIKtfVM3WAVLF5i5eKvKzUGYCZ0OkYAIAtKGLB7NwiLYUsUPlS5GUqC3DBYLMtGGy0IXW1OgD2VqkDiC3VAbCXe66rSFitDoCDVOoAU0toZJKPHtUBAECEAhYAAHagiAUSbrGWk1dQWVPI4p2lOgDexEYbkufGCn1W58BeSnUAFQpDg3FvCWwKA7u0XdMbh1tCcq4OMINMHSBhd+oA8FKlDgBMjAIWAABeQRELlC6NtvzQWNhQyPK7OgjYbAsEG23AT0sze1CHwNsSLlhdqgPgTY9mVrVd810dBBBbqgNgfwmM9kj1vsEHvToAvMSaHWL2BwUsAAC8jiIWyLhF28ooZIEGhSz+WKoD4FWPZlaz0QYM3GfhSp0De0luM8rd11AY6jcKWACHbizBif26ytqATq8OAC/F/p2DdN20XXOtDgEAgO8oYoGUW7y9NObfQuPczG7VIVLGZlsQLt0IFQBO2zW3xljEEKS48E2Blf9qrqvAM0t1AOwt9utq7P9+PuvVAeAlCssQoxtGdQMAsB+KWCDnTl9VRiELNMoiL1fqEAljs81vH9quWatDAJ7i+8t/SW1GucJQ3pd++8MVwQFw6MYSlNivq2yY6/TqAPDSuToAMDIKWAAAOABFLPCCO41YGYUs0Hhf5CWbPjNjs817N8znBXZz9y5suvkt9s22l65sGJcIP9E2HNhtqQ6AvcS+oVyqAySsVweAX4q8zNQZgJFRwAIAwIEoYoE33GYQG9pQ+avIy0t1iMTUxmabr+55uAb2slQHwKsWiS2A1+oA2OneeM4BdqIbSziKvIyyQNQdsICI+w4ANmXqAMCIKGABAOAIFLHAK+7U/wd1DiRrFeuinKfYzPHTo5lR0AXsgU23IGTqAHMo8rI2szN1Dmz1aGaXbdd8VwcBPLdUB8BeYn1ejvXfKwT36gDwUqYOAIyEAhYAAI5EEQu84wpZ/lTnQJIWZnbLKazpsdnmtZqTcMBBluoAeFWlDjATCkP9xXUV2IP7nDTqHHhTpg4wEdYAdCjyxDaZOgAwgoYCFgAAjkcRC7zUds3SONkMjTMzu1WHSECtDoCtPrddw/sfOADdWLyXqQNMrcjLyszO1TmwFddV4DBLdQC8qVIHmAidWHTu1AHgpUwdABjBu8TG2wIAMCqKWOAtV6nMphAUyiIvr9UhYuVGNpXqHPjFfds1nOQHjrNUB8BOmTrADPju9hPXVeBAbdeszexBnQOvirVjSaYOkDA6sWCbTB0AGMHCzFhfBgDgSBSxwGuukIX5uFD46EbeYHxs6Pjn0cwu1SGAUNGNxWtRF026k30X6hz4BddV4HhLdQC8KtbOX5k6QMLoxIJt6I6EWFwUeclzAQAAR6CIBSGojEIWaFy7riEYSZGXv5vZe3UO/GLpNuEBHG+pDoDt3LUnVhSG+qnmugoc7daGQjB4KtLRCDz369CJBdss1AGAEV1H/kwKAMAkKGKB99qu+W4UskBjYWYrHjRGxWabf762XUN7U+BEbsO6UefAVlFuTLn7k1qdA7/42nbNrToEECr3/M9nyG+ZOsAE2DAXcWPEgB84TIYInRmHXgAAOBhFLAiCW8iqjRNZmN+5Mb90TLU6AJ55NP5MgDEt1QGwVaYOMJFLY9PNNw/GdRUYA89ffotqg5kNc8A7HCRDjD4WeVmpQwAAEBKKWBCMtmvubOjIQiEL5va+yMtaHSJ0bgbsmToHnqldkSCAEbiTpA/qHPhFpg4wEbqb+YfrKjAC9+xPJ1Z/xbbBHNu/T0joYohtKnUAYCK3dPsGAGB/FLEgKBuFLMDcrjmhdbJaHQDPMO4AmAanx/0T3fXb3ZOcq3Pgmc+MRABGtVIHwE6xXVcrdQAAQBIWxv0NAAB7o4gFwXGFLB/UOZCchZmtqJg/TpGXmZldqHPgh0fjBD8wlZU6AH4R47Wb73C/PBrjxICxrdQBsFOM11VorNUB4KVKHQCY0EWRlzzLAQCwB4pYEKS2a1ZGIQvmd25sUByrVgfAM8u2a3p1CCBGbpTIjToHnonqxLgrqL1U58AzjBECRuY+U1/VObBVpg4wskodIGFcOwGkaEm3bwAA3kYRC4LlClk+q3MgOR+LvGTj6HC1OgB+uG+7hnEnwLQY1eWXhTrAyC4tvn+nkDGeD5gOny0/nakDjIzOMjp36gDwUqkOAEyMsUIAAOyBIhYEre2aK+O0M+bHWKEDFHlZWXwLnSGr1QGA2LkN7Ud1DvzkxtrFolYHwA+M5wOmRREL5nCuDpAwOrHgGdbakJDzIi85YAYAwCsoYkHw2q6pjUIWzIuK+cPU6gD44abtGk67AfNYqQPgmUwdYAyuGIfTqf64ZjwfMB1GCvnLHVQIXmRFrsHh2RRbMGIFKfkYy/UUAIApUMSCWFyZ2b06BJJyUeQlJ2/f4E7RMH7JD5wWB+a1UgdAlGp1APzw0HbNUh0CSADdWDClTB0gYQ/qAPASnViQmls6EAEAsB1FLIiCO6FVGYUsmNeSk1tvurShcw30rt13JYAZuJOlLM77o1IHGEmtDoAfanUAIBEUsfgplg23TB0gYb06ALxEJxakhm7fAADsQBELorFRyMKGEebCg8bb6MLiB06LAxprdQDEw7WaPlPngJmZNW3XrNUhgBQwUshbsWw0Z+oACevVAeClTB0AEKDbNwAAW1DEgqi4Ba5LG8ZmAHMoedDYzrXDvFDngJmZLdUBgERxetwfmTrACGp1APxQqwMAiVmrAyBasRTjhKhXB4CXMnUAQGRZ5CXXJAAANlDEgui49v2VUciC+SyZX7oVXVj80LRds1KHAFLUdg1FLP7I1AFGwHXVDzdt1/TqEEBiuJ5iKjzH6/TqAPBSpg4AiNDtGwCAFyhiQZRcIQsL/ZgLDxrb0aHGD0t1ACBxjEDAyYq8vLThfgNaj8Z1FZidKxxjbLBfMnWAkZTqAAnr1QHgJUZnImXnRV5eq0MAAOALilgQLTen/oM6B5JxUeRlpQ7hiyIvMzM7V+eANe67EIDOWh0AZhb+ZhvF2X64pgsLIEM3Fr9k6gAI3p06APzi1pGA1H1kfRkAgAFFLIiaG6FBIQvmsmKs0A9stvlhqQ4AgCIWT4R+qpPrqt6jmXEyEtBZqwMgLmwSarVd812dAd7J1AEAT9yyvgwAAEUsSIArZLlR50ASzowROk9qdQDQhQXwgRtx+KjOgXAxSsgb12y4AVJrdQBEhw1CnXt1AHjpnToA4AnG1gMAYBSxIBFt19RGIQvm8Sn1FqjutACjhPSW6gAAfqBdOk5BFxY9urAAYq6IrFHnQFTYMNehKBTbUFgG/HRR5CUHJQEASaOIBclwhSxf1TmQhNQ3Odhs06MLC+CXtToAzIq8DHWziuuqHl1YAD9QFIoxZeoACVurA8BLod6rA1NZpn5QEgCQNopYkJraaFuK6V0kPl+bzTa9pToAgGfW6gAwswBPdzJKyAt0YQH8sVYHwA8xbDZn6gAAngnuXh2Y2MLMbtUhAABQoYgFSXEnKCujkAXTW6kDKLhRQhfqHIl7oAsL4B1OjuNYFIbqrejCAnhjrQ6AH2IosMzUARK2VgeAl0p1AMBD50VeLtUhAABQoIgFydkoZHkUR0Hczoq8rNUhBCp1ANCFBfCNu/d4UOdAkCp1ANCFBfCFu55yIAVjOVMHAABgD58S7/gNAEgURSxIEoUsmMnSdSZJCSfGtR7brlmpQwDYim4sekFdk4u8fGdssKndtF3Tq0MAeIbrKU7mrrEQoXMoXmKDHnjTKsE1ZgBA4ihiQbLarrkzClkwrTMzu1KHmFmlDpA4TosD/mLTTS+0DSsKQ/W4rgL+4XqKMbARqMMaHAAc7swSHV0PAEgXRSxImitkqdU5ELWrVCrlOTHuhZU6AICd1uoACA5FLFqNe1YA4Bc+lxhDaIWtMeEzjG0qdQAgABeJjq4HACSKIhYkr+2aWzP7oM6BaC0snW4slTpA4hh5APitVwdAOIq8zMzsXJ0jcSt1AAC/YgwJRpLEQRNPfVcHgJf4TAL7uXbPigAARI8iFsDM2q5Zmdkf6hyIVirdWDgxrrVSBwCwG0VmOFClDpC4R/d8AMBP9+oACF6lDpAwOrFgG7ojAftZmNmtOgQAAHOgiAVw2q65NrMbdQ5EKZVuLKU6QMIeOJUKBKFRB0AwKnWAxK3UAQC8qlcHQPBSOGTiq14dAF7iMwns77zIy6U6BAAAU6OIBdjQdk1tFLJgGlF3Yynyki4sWtfqAAD20qsDIBhcV7W4rgJ+o5MDTsXIPp1eHQBe4jMJHOZTkZeVOgQAAFOiiAV4wRWycFIaY4u9G0ulDpA4WokCYejVAeC/Ii/f2XDfAI2G8V+A9yhiwdFiPlwSiF4dAH4p8jJTZwACteKaBgCIGUUswHaXxpxtjC/mbiyVOkDCvrLZBgRjrQ6AIFTqAIlbqQMAeFOvDgB7UAc4wTt1gJTx7IotMnUAIFBnxrMLACBiFLEAW7Rd892GDQQKWTCmhUU4HsAV5tD6VYcuLEA4enUABCG6e4WAPBrXVcB7bdfQiUWvVwc4QaYOkLCQi58wnUwdAAjYRZGXtToEAABToIgF2MEVslzasJgNjGWpDjCBSh0gcWy2AYHg5Cn2VKoDJOzWPQMA8B+b4ThWpg6QsF4dAF7K1AGAwF0zlgsAECOKWIBXuM2myihkwXjOiryM7YR1pQ6QsBs224Dg0OUNOxV5WakzJI7CUCAcvToAgsU4IR26KGGbTB0ACNzCeI4BAESIIhbgDa5VcWUUsmA8V+oAI2MRUIeHVCA8vToAvFapAyTsse0arqtAONgMx7F+VwdIGAcwsE2mDgBE4LzIy6U6BAAAY6KIBdiDK2SJrfAAOmVkbR4ZeyDCZhsQJDbd8JpKHSBhXFOBsLAZjmNxCEOH+2Bsw2cSGMcnOnsCAGJCEQuwp7ZrVmb2QZ0D0ViqA4yBhyOpr+oAAI7C4j1ewyK+DkUsQFi4nmr16gAnWKgDJIziM2zDZxIYz6rISzqOAQCiQBELcABXyPKnOgeicBnJQ0WlDpAwNtuAMPXqAPBTkZfvjEV8FUYJAeFhM1yrVwc4BocwtNquWaszwC/u/hfAeM7MbKUOAQDAGChiAQ7Uds3SzG7UORC8hZldqkOMgAUHHTbbgAC5EYXANpU6QMK4pgLh6dUBEKQYDpIAMeEzCYzvosjLWh0CAIBTUcQCHKHtmtooZMHpanWAEVDEotG0XcPpUyBc9+oA8BLXVJ21OgCAw7Rd06szIEhca3UadQB4qVIHACJ1XeRlpg4BAMApKGIBjuQKWdiEwinKkB8o3DikM3WORHFiHAgbRWjYplIHSBjXVQBIA10fAGA/n83sUR0CR1sYzzgAgMBRxAKcpjIKWXCaWh3gBJxi01mrAwAAxkNhqNQ93c2AYNHZQWetDnAknmF11uoA8FKlDoCd1hb2miXMzou8XKpDAABwLIpYgBO4Be/KKGTB8Wp1gBNU6gCJemy75k4dAgAwKjbVdDihCADpyNQBEkbBKBCW723X3JrZV3UQnORTkZc8awIAgkQRC3AiV8hSGy0WcZyzgB8mQs0dOjbbgPDRyh4vVeoACVurAwAAZkPXMx0OYmCbUh0AOz19ZmtjzTt0t67zJwAAQaGIBRiB64pQGTf1OE6tDnAkilg01uoAAE52rg6QKJ83T7imirRds1ZnAHA0n7/XYxdcV40iLzN1hsQF957BtNhU99vTuM2Nw5sI15mZXatDAABwKIpYgJFsFLIAh7pUBzgSp9g01uoAABAonzdPKGLRaNQBAJzE5+/1qAU63jRTB0hZoO8ZTIv7X389u0dmrFAU3hd5Ger6MwAgURSxACNyD+Uf1DkQnOBGChV5WakzJOqh7ZpeHQLA8ThxiJfce4LCUI21OgAAYDZBPXNH5kEdAF7iuSgstdGBPHQrupIBAEJCEQswsrZrVkYhCw4XWjU8C4AanF4Dwsf3J17iPaGzVgcAAMyGDXOdXh0AXuIe2F/rl/8HY4WisDCzlToEAAD7oogFmACFLDhCaEUsLABqrNUBACBgvo6dYAFfpO2atToDgJP06gCJulcHOFKlDpCwXh0AXsrUAXAYxgpFoSzycqkOAQDAPihiASbiCllu1DkQjPPAWjqy4aZBJxYgfHx/irixjz7iPaER6iYsgJ96dYBE+VoUCn/16gDwUqYOgJ3Wr/yzK2OsUOg+hTbWHgCQJopYgAm1XVMbhSzYX6UOcAA6sQhwYhyIAt+feClTB0jUWh0AADCrUh0gYb06ALyUqQNgp53Fim3X9Ga2nC0JpnJb5CVrEwAAr1HEAkzMFbLQahH7qNQBDsAC4PwadQAAo8jUAeAdrqkavnbmAQDf9eoAh2KjTq5XB4CXztQBsN1bHSzbrrk21qhCd2Zm1+oQAAC8hiIWYB610bIcb7tUB9gHC4AybLYBccjUARLl5X1YYKMEY8N1FQCO06sDHIGxCVpcc/EM98Be23dUUH3Az4Wf3hd5GcRaNAAgTRSxADNou+a7DV02vNxAgTcWgcwkDSFjjFj4A+JAIaDGzpbYYpk6QKreOmEKAIhKpg6QMrcmBmzK1AGw0173yIwVisaKojIAgK8oYgFmslHIQpU6XlOpA+yBDViNXh0AwCjO1QHgFQpDNSgsB4DjhVgEmKkDJIxrLrbhHthf/b4/kbFCUViY2UodAgCAbShiAWZEIQv2EMKDfAgZo9N2zVqdAcBpOOEk5euGG4WhGr06AAAELMSuGpk6QMJCfL9getwD+6s/8OfXxjp36MoiL2q+zM0AACAASURBVJfqEAAAvEQRCzAz17q8Mm7wsV2lDrCHTB0gQQ/qAABGkakDJMzXDZRKHSBRvhY1AQCmkakDJGytDgAvcTjKX/0hP5mxQtH4FMiIewBAQihiAQRcIcuVOge8dBbASf1MHSBBvToAgFGwKKTjaxELp1A1KGIBgOOF+B3KPRjgF+6B/dUf+gsYKxSN2yIv+WwCALxBEQsg0nbNysw+qHPAS74vsPmeL0ZrdQAAo2BBSMfXDbdzdYBE+VrUBADec2OSQ7NQB0jYWh0AXirVAbBTf+Svq42u46E7M7NrdQgAAJ5QxAIIuUKWz+oc8I7vRSIsAM6vVwcAMIpKHQD+CKDzWrTarlmrMwBAoILboGQ8AgDsz40HOvbXLcfMAon3RV5eqkMAAGBGEQsg13bNlZndqHPAK5U6wC4sAMr06gAARpGpA6TK06KFTB0gUcFtwAKAR3ztbPYaOuEJeXoPBqEiLyt1Bux0f8ovZqxQNFYcuAAA+IAiFsADbdfUduKDAqLic6EIC4AaIS4WA/jVmToAvJKpAySKayoApKVSB0gYhaNAWMYYF1cbn/3QLcxspQ4BAABFLIA/KqOQBYNFkZe+FotU6gApCnTuPIANnDiU8vU0YKYOAADAgUIsBPT12ToFIb5fML1KHQA7nfyZdWOFrk+PArGyyMulOgQAIG0UsQCecJvUtVGtjoGv3VhYAJwfxW1AHDJ1AHiHa6rGWh0AAAIWYnG9r8/WKQjx/YLpcQ/sr1E+s23XLI21rBh8Yqw8AECJIhbAI23X3BknEjDw9SHB11wxY+EPiAPfnzprdYAdeE8AAEIT4rMJG+Y6dGLBNtwD+2s94u9Vj/h7QWflcbdwAEDkKGIBPOMKWT6oc0DO1wcEX3PFrFcHADAKFmt1Qtxww3R6dQAAo8nUARIUYlHCuTpAwrgHwzasKyXArW//qc6Bk52b2VIdAgCQJopYAA+1XbMys8/qHJCq1AF2YAFwfr06AIBRlOoACfN1w43CJo1eHQDAaDJ1APityMtMnSFxvt6DQYt1JU+1XbMe+fdbGmOFYvCxyMtLdQgAQHooYgE81XbNlZl9VeeATKYO8BILgABwHOZIy/XqADss1AEAADhQaEUJmTpA4np1APiFdaUk1eoAGAVjhQAAs6OIBfBbbVSsp+pMHWCLTB0gUWt1AAAno4hFqO2aXp0BAIAYtF0T2ngY7sGEuAfDFpk6AHZqpvhNGSsUjYWZ3apDAADSQhEL4DG3QFSb2aM4CgQ8PKHCAiAAHIfvT51JFmNPVeRlpc6QqrHbpANAQh7UAY7AqXGdEN8vmF6mDoCdJitSZKxQNMoiL6/UIQAA6aCIBfCcq1iv1TkgkakDvMACIAAcp1IHSFhoJ8YBAPujSHRevTrAEXiP6PTqAPBSpg6AnaYeF1dP/PtjHn8xLhkAMBeKWIAAtF1za7ReTFGmDvACDykavToAgOO5udHn6hwJm3oxFgCgQ5H9vEIsDOU9osM9GLbJ1AGw06Tf8YwVisrKrXMAADApiliAQLjWi1/VOTCrTB3gBR5QBJgjDgSvUgdInK8bKBSGAgBC4+s19TWlOkDCQix6wvQydQDsNPl3PGOFonFuZkt1CABA/ChiAcJSGzf70GEBEAAOR7GClq8bbhSGAsDp+C7FTpwSl/P1HgxaPBv5q5/pdeqZXgfT+ljk5aU6BAAgbhSxAAFpu+a7DTf7j+IomEelDvCEBUAAOBoLO0J0swKAqDGub15rdYADsVmuRScWbLNQB8B2cz03MVYoKowVAgBMiiIWIDDuZv9KnQPJYQEQAA7kFnTYYNNp1AEAAIAMG2tadGLBM0Vesq7kr4c5X8yNFZr1NTGJhZndqkMAAOJFEQsQoLZrVmZ2o86Byfm06OZTFgAIRaUOkDifN09YxAeAExR5makzpKbtmrU6w4G41gq5TsLAJtaV/NULXrMWvCbGVxZ5yWFbAMAkKGIBwnVlZvfqEJiUT6f3WQAEgMNV6gCJ87mIhUV8ADhNpg4A72XqAAmjGx62qdQBsFM/9wu6wsjPc78uJvEXnZYAAFOgiAUIlDvVUqtzIBmZOgAABOhSHSBxPhexAAAQkhAP0GTqAAAQiF70uktjrFAsVm6cMgAAo6GIBQhY2zV3ZvaHOgeSkKkDAEBI3JiDM3WOlLn7JABAnDjxO68QR8Nk6gAJW6sDwEuVOgB2kjw3cUAzKuc2FCUBADAailiAwLVdc220ao2WR+0YfckBAKGgC4sW90YAEDdO+84rxMJQiol1Qix6wvT43vaX7DPLWKGofCzyknUQAMBoKGIB4lCb2aM6BCbhy0P+Qh0AAAJTqQMkLsTNNgDA/jJ1gMQEVZTg0WGQVHEfhm3O1QGwk/ozuzTGCsWCsUIAgNFQxAJEoO2a3mi/iImwAAgAh3GLNhfqHIlbqwO8oVQHSBWLqkA0MnWAxPTqAAfiu14rqKInTI/7L7+5sT7q16+VGTCahZndqkMAAOJAEQsQibZrbs3sqzoHosRigxBFRECQaKGrpz5NCH9xXQXikKkDJKZXBzhQpQ6QsrZruA/DS9x/+cuLMayMFYpKWeTllToEACB8FLEAcamNsUIYX6UOkDiKiIDwUMSi9eC61AEA4nWmDpCYXh0AwWBNCtuwroF9LI2xQrH4i0N5AIBTUcQCRMS1X6TSGWNjsQEA9sQoIS+s1QEAANMp8jJTZ0hNgMWhlTpAwujCgm3YzPbXWh3gCWOForNilBgA4BQUsQCRabtmZZ60gkQ0WGzQ4oEPCAtdWPTW6gDwGvc1QPgydYDEcCoeh+jVAeClTB0AYWCsUFTObeiuAwDAUShiAeJEN5Z4ZOoARhGFGpttQFgoYtFbqwPAa9zXAOHL1AES06sDHKFUB0hYrw4AL2XqANhprQ6wxdIooIzFxyIvK3UIAECYKGIBItR2zZ2Z3ahzYBSZOoANlfMAgDcwSsgLDwGOPMC8KGIBwpepAySmVwc4BKML5Hp1AHgpUwfATt/VAV5irFB0brk2AwCOQRELEK+lOgDCx7x5L9CJBQgHXVj01uoA8B7XVSB8fI7n1asDHIj3h1avDgAvnakDYDt3ENI7bqzQV3UOjGJhZit1CABAeChiASLlTiH/qc6B4GXqAODEOBAQxvnprdUB4D2uq0D4+BzPy8sNzlfw/tAK7f2CiRV5SWGZvx7VAd5Qm/8ZsZ+LIi9ZLwEAHIQiFiBu1+oAOJl6AYjFBj3+DIAAuM5VjF/TW6sDwHt8ToHwcX88L+9GTbyB94eQGwMCbKKwzF/qNcdXMVYoOkuK2gAAh6CIBYiYu9m/UefASdQLQCw26C3UAQDshVNFeg+uEx3wKsYlAsHj/nheXm9ybpGpAyTsXh0AXmLT2l+9OsBb2q65NcYKxYKxQgCAg1DEAsRvqQ6AoLHY4AFOKgBBqNUBYLfqAAhGpg4A4DjcF88vwM4amTpAwkJ7r2AeHI7yV68OsKfaGCsUi/MiL+kcDwDYC0UsQOTciWQq1nEsFhv8kKkDANityMvaOBXug7U6AILBJjgQLp5P5hViZ41MHSBhoXXtwTy47/JXrw6wD8YKRedjkZeVOgQAwH8UsQBpWKkDIFilOgDMjEUfwHe1OgB+tJoG9pGpAwA4GvfF8wqxs8aZOkDCQny/YHoUH/qrVwfYF2OFonNb5CXfDQCAV1HEAiTA3eg/qHMgLDxMeIXFesBTbqwBBX96oS1ocl+mxXUVCBfPKPMKqrNGkZeZOkPi1uoA8BLPSv7q1QEOVBtjhWKxMA7dAgDeQBELkA5OJ+NQbPD4gz8LwF9X6gAws/A2TXp1gMSxmQKEq1IHSExonTUydQAACIUbQR8MxgpF56LIS9ZTAAA7UcQCpGOlDoCj9MLX5pSjP87ojAP4x532fa/OATOjWBcHcl2UAACvW6sDHIjvdqG2a9bqDPBLkZeVOgN2ulcHOAZjhaKz5LkMALALRSxAItquuTNa1wdHfCqChwi/8OcB+KdWB4CZmd2HdooQXuC6CoSJTkp4DYX/Ooz4wDZ8Jv0VWqetTbXxnRMLxgoBAHaiiAVIC6eUcYhMHQDPVOoAAH5y3ZFofeuHlToAgkQRCwC8IcDOGny369ypA8BLfCb9FexnlrFC0Tkv8vJaHQIA4B+KWIC0rNUBEJRMHQDPsPgD+OXKhlND0FurAxwh5JOPsajUAQAchrEU2ANdH3S4t8E2fCb9FfRnlrFC0fnIfR4A4CWKWICEuBt8hKMRvz5FE36p1AEADOjC4pUHNzIxNCFmjs25+ywDALZTP48eg3FTOtzbYBvWlfy1VgcYwZUxVigmtzyfAQA2UcQCpCfEhSho0GHAL4siL1kAAvxAFxZ/UKCLU1TqAAAOUqkDJCboU/qYHe8XbMOGNCbTdk1vZktxDIxnYYwKBgBsoIgFSA+nY/AmiiW8VakDAKmjC4t3VuoACFqlDgDgIGyGziuotQPGEMgF9X7BbM7VAbBd2zVrdYYxtF1zbRzYjMlFkZestwAAzIwiFm8Uefl7kZerIi85TYqprdUBsLe18LVZIPZTpQ4AgC4sHgl1lJCZWa8OADPjugqEhkL7edFZA4fo1QHglyIvM3UGJKM2xgrFZMnhSgCAGUUscq54ZWnDw957G6pNM2UmRK9XB0AQKnUAbHWhDgCkjC4s3lmpA5ygVweAmZmd8+wFBIVC+3mFVihaqQOkzI31ADZl6gDYKarOJYwVig5jhQAAZkYRi9RG8cone36itxbEQSICPrGcIuWfFQvEniry8lKdAUgYXVj8slIHQBQqdQAAe2Msxbx6dYAD8Qyr86AOAC9l6gDYKbpOW4wVis55kZfX6hAAAC2KWASKvKyLvOzt1+KVJ5zwxdRYYAiD8qGSto3+qtQBgBS5bg3co/njPvATv706AH6gOBQIgOuGhhkFeJ3lGVanVweAlzJ1AOwU6wHH2hgrFJOPRV5W6hAAAB2KWGZU5GXlile+mNnZKz91UeRlPUsopKpXB8Be6MSCbdhsAzSWRhcWn6zUAU4R4MZgzBjVB4SBAoV5hXjwhWdYnVg3xHEavrf9FV0nFjPGCkXqlkJmAEgXRSwzcMUrazP7Zq8Xr2yqJwsEUMQShLZrlA+VtOr211mRlywGATNyp3/eq3PgmZU6AOLBqD4gCGxgzKtXBzgCz7A6UW6I42R8b/sr2sIzxgpFZ2E8+wNAsihimVCRl9lG8Up54C8v2aTEhHp1ALzpXvXCbmQG/FarAwCJWaoD4Jmv4kLPsbC46g+KWAD/sT4yr14d4BA8w8pFuyGOk/C97a9eHWBitTFWKCYXTC0AgDRRxDIBV7yyMrN/7PDilU1X4yQCEKBe+NqZ8LWxHzbbgJm4xZJT7ucwvpU6AKLDdRXwX6YOkJheHeBAmTpA4mIoLsb4GMXqqdhHmzJWKErXFKwCQHooYhlRkZe/F3m5tKF4ZYyW8++5OAPJUp5k4rSM/87ceBMAE3Kzl6/VOfDMY9s1t+oQI+HUsj8WnO4DvJepAyQmtGtUpg6QuNDeL5gY3cW99qAOMAfGCkVnYWaxrAMAAPZEEcsINopXejP7NPJvvxz59wMQhl742swtDkOtDgAkYGmcIPTNSh1gRJxa9gvdWAC/ZeoAiQntGpWpA6QskjGPGBfrSv7q1QFmVBtjhWJy7vbgAACJoIjlRO7EXm9D8coUmxx0YwHS1AtfmxMzYbh0XSIATMB1O/qozoFfxNQZp1cHwDMXPHcBXjtTB0hMaJ01eIbVodMBtqnUAbBTrw4wFzdWKKbnR5h9ojM1AKSDIpYjFXlZF3nZm9kXm/6E7nLi3x+AZ9quWQtfnsKIMCyMU+PAlFbqAPhFE9n89l4dAL+o1QEA/IoCs/kF2FmDZ1gA2E+vDjCntmuWZnavzoFRrTjUBwBpoIjlQEVeVkVe3tlQvDLXSSBO2wNpUc+nLcWvj/1dqQMAMXItajnx7Z+VOsDIQjvlnoJaHQDAVpk6QGJC3OyjE4vOWh0AXqrUAbBTis8gtToARnVm8a0NAAC2oIhlT654ZW1m38zsfOaXXxgblUBKZA+UFMwF57zISxZsgRG5z9QndQ784qHtmpU6xJgCPOWegrMiL+lyBviH+915hXh9mrpDMoDDsLbkrxC/40/Sds2dmf2pzoFRXRR5WatDAACmRRHLG4q8zIq8XNlQvKLsTnDF5jJGVKkD4FXKUxEsEIeHIkdgJO5ea6XOga1W6gATadQB8Auuq4B/WAuZ11od4BAU9cut1QHgpbkPgGJ/KXZiYaxQnK4ZOQkAcaOIZYeN4pV/zOy9OI7ZcKqEU4FAGtbC12aBODzveWgDRrM0Flx9tVIHmEhyJyEDUHJdBbxDkQJewzOsFvcyeIZDmH5LvBtkrQ6AUS3M7FYdAgAwHYpYXijy8vciL5c2VCX7ULyyaakOgGiwCOg3OrHgULU6ABA6N0LkozoHtrppu6ZXh5hIkichA7BUBwDwDBui81qrAxyoUgdImRvTAWxiXclfSXeBZKxQlM7dXh4AIEIUsWxwF7zezD6Zn/N0z5j1h5H4+P7G4EF8KiITvjaOx8g54ASMEfLeSh1gQmz8+IkuZ4Bf2BAF/PSoDgAvsTYBbzFWKEqfirys1CEAAOOjiMXMirysi7zszd/ilU3MaMdJuKnz3lr8+pn49XGchXF9AE5xa/7fA6aqabtmrQ4xoV4dADtxXQX8wTV6RgFedyt1gIRRjIttKDz011odwBO1OgBGt+JwHwDEJ+kiliIvL13xyhczOxPH2dc5RQg4EQ+TflMvAvH+CBfdWIAjuE58pToHdlqpA0yJFvxeq7muAnpFXvJ8grfwXa3TqwPAS5k6APAaxgpF6cwiXzsAgBQlWcRS5GVV5OXazP5t4RSvbFqqAyBoLAL6bS1+fU45hotuLMCBXGHwJ3UO7PTQds1KHWIGtLP208J47gJ8QIHCvBp1gCOcqwMkrFcHgJcydQDstFYH8AVjhaJ0UeRlrQ4BABhPUkUsRV6+c8Ur3yzsE7clp5FwgkodADs9Kk9k870SBbqxAHsq8jKzYYwQ/LVUB5gJ3Vj89dF9VwDQqdQB4C+efeR6dQB4KVMHwE7f1QE8U6sDYHTXPL8BQDySKGIp8jIr8nJlZn9b2MUrmzhtj4O5m7gQuw+lYi1+fRYAw0c3FmAPbsPj1ug+5bNHS6fIiCIWvy3VAQBgRmt1gANxEEOrVweAl1h39BSjTJ9jrFCUFpbOOgIARC/qIpYiL38v8vLazP4xs/fqPCN7T1UpjlCpA+BVa/HrV+LXxziuuD4Ab7o2Ws/77rrtmlROCrKY7Lf3dKsDpCp1AHiNgxhavToA/MI9k9ce1QE8dW1mD+oQGNV5kZdLdQgAwOmiLGJxxStLGx6mPmrTTGqpDoDgXKoD4FVr8euzABiHhXF9AHZy94ixFTfH5tGGxcQktF2zVmfAm5J5PwJI3lod4EBsmAu1XdOrM8A7rCv5i8L5LdzBiVqdA6P7VORlpQ4BADhNdEUsRV5e2VC88snibxFPNxbszY1OuFDnwE6PHrT1ZAEwHu95WAN+VeRlbcM9IvyWUheWJ/fqAHhVWeQlxeCARiwjoTGNTB0gYdy7YBvWlfzVqwP4yh0q+KzOgdGt3H4IACBQ0RSxFHlZF3nZm9lfFn/xyqalOgCCwcK733yY18mNfVw4NQ5scK2tv6hz4E1JdWHZoC5kxduuWQQFELsAu4Nl6gAJS63gGPvhXslfvTqA55bGWKHYnJnZSh0CAHC84ItYirysiry8s2FT4kydR4BuLNhXrQ6AV63VAczsXB0Aozp33cmA5LkClrU6B/aSYhcWM4pYQnBmZlxXgRnRWXB2j+oAR8jUARLGvQu2oROLv3p1AJ8xVihaF64jLwAgQMEWsbjilbWZfTM2XpfqAPCbK3SiDbPf1soXpxguWkv+bJE61zlhbWl16gtVql1YzCiyCsUnVxQHYB6c6J9XiEUJKR5m80WKRcd4G9/b/urVAXzHWKFoXbM2CgBhCq6IpcjLrMjLWxuKV9iUH9CNBW9ZqgPgVfdt1/TiDJn49TGNhaW7IQxQwBKeVLuwWNs1dxbmCfgUcV1Fsoq8/H3mQi6KxuYV1DWYokK5tToAvMRavb96dYBALI2xQrFZGGOFACBIwRSxuOKVlZn9Y2YX4jg+WqoDwE9uA+9SnQOvulUHMBaIY3ZR5CXfAUjORgFL6h37QpFyF5Yna3UA7KVkXB9StHFdnRMn+ucVWicW3h8AsCcPDs8FgbFC0SqLvFyqQwAADuN9EYs76bO0oXjlvTiOz+jGgl2ujBPovvOhiIUFwLit3MYDkAQKWIKUbBeWDaFtHqbsLzoAICWb11XXOWoufM7m1asDHIj3h5AbuwH8UORlpc6Ane7VAULCWKFoMRoWAALjbRHLRvFKb2aftGmCkfrpVbzgFhs5Keq3h5kXgnfhJj5uC/OjWAqYHAUsQaILy2CtDoCDrNQBgDm8uK7OPfaMIux59eoAB+L9AfiFz6S/Uj8scIylMVYoRrcc8gOAcHhZxFLkZW3DScRPRgeJQ1xQ9Y4X6MLiP18KC7iBjx/jDxA9CliCRRcW+3Hib+4NYhzvvMhLiq8QtS3X1bmL77mez6tXBzgQBzF0GnUAeInPpL98ODwXFMYKRevMOEADAMHwqoilyMu6yMvezL7YcEHB4bgIw8zM3HgpNqz9t1IHcEp1AMyC8QeIFgUswXpou2apDuGRtToADvKxyMtLdQhgCjuuq7MVHHJKdn5t1/TqDAfiPaKTfPExtuIz6S8+s0dgrFC03vMMBwBh8KKIpcjLqsjLtVG8MoZzTtrDuTa6sPjOi1FCLBAnh9aZiA4FLEFbqgN4Zq0OgIOtXPE4EI1XrqtzPrtQeD2vEEcmcBBDR76OAS/xve2vtTpAwJYW5jUSr+MZDgACIC1iKfLynSte+WY8fI5pyQZl2txYqQt1DrzJl1FCLDSk5cz86QAEnIwClqDdt12zUofwzFodAAdbmD/3dMDJ3riu9jNGyWZ8LYQ3SghadHXANqxFIzpurBAHhuOzMNZGAcB7kiKWIi+zIi9XZva3UbwyBS7CCXOLjit1DuxlpQ7gsNCQnosiL5fqEMCpKGAJHouBL7gObZz0C8+5e74FgubGTva2+7razxaGIpa5BdVZwx3cgU5Q7xfMhmcyT7mxODhS2zW3ZvZVnQOjK1kbBQC/zVrEUuTl725x7x8zez/nayfogof6ZC2NsVwh8GKUkEMnljR9YgYsQrbHRhv81rCYutNaHQBHec9YV4TMXVfX9vpI2n6WMINsxtdCeJ01OIih1asDwC+M5UACajN7VIfA6D65e2AAgIdmKWJxxStLGx5yKF6Zz4qxQmlxhUsf1TmwF5/azmfqAJBZ8bCGEO250Qa/1eoAHvPpHgGH+YsCUYTIPUeu7Y3rats1/QxxnmQzvhbC66zBM4zQzN8FCEOmDoCdGnWAGLixQrU6ByZxyx4aAPhp8iKWjeKVT8ZGw9zOzOxaHQLzcDdbbHqEw6fPZqYOAJmFma15WENIirysbRhJyX1luP5k82M3164a4aJAFEFx19Vv9vZ19X76NM9kM79e6ujEgn0x9hDbZOoA2Cm073dvMVYoWuyhAYCnJitiKfKyLvKyN4pX1N5zGjAZt8ZnLRT3nm3esdGSNgpZEAxXHP1FnQMneTQWiPbB4mi4nq6rmToI8BY3Amvf6+rcm2CMyJ1RgCP+eIbV6dUB4KVMHQA7hdZpy3e1MVYoRuyhAYCHRi9iKfKycsUrX4xFB18wVihyRV5em1mpzoG9+bZ5R/ETzo1CFnjMjaZc2VAcjbBduVbMeB3dWMK2MNpSw3PuuvrXAb9ktk0wisCwB75fdXp1AHiJwjJ/8ew1IsYKRW3FPSgA+GW0IhZXvLK2oQ0txSt+WRgL4dFy7Z8/qnNgb4/m0eeRdvfYcG7+FVgBTxtZazN7r02CETRt16zUIQLhzb0CjkaBKLzkCkPXdvh1dc5NsGzG14JZow5whHN1gIT16gDwEvc7/qITy8gYKxSthZmt1CEAAD+dXMRS5GW2UbxCJwh/la5VMCLiChAYqxCWW89OoLPQgE3v3alcwAtFXlY2LLqxUREH7kX35O4VQtxUxHMUssAr7vlxbcet3axHDfM6Cu2xE6ek5dgQxzZ8b/urVweIVG2MFYpR6cZYAwA8cHQRiyteWZnZP0bxSij+outCPDYWIBEW3zpdVOoA8A6FLPCCK779Zow8i8XntmvY9DgM3VjiQCELvFDk5aUNz48hFIbyeZnXWh3gQJk6QOJ8OpQDf/DM5qm2a3p1hhgxVihqn9hDAwA/HFzE4lrPXttQvEJb9/Awmz0CGwUsPCSG5d7DDTy+D7ANhSyQcfeat2b2lzoLRvNoZkt1iABRxBIPClkg5U6U/ttOeH5su2Y9Vp49sHEwr9CKEjJ1gMT5tqYBMTZ7vfagDhAzxgpFjT00APDA3kUsbkNhaUMLuo9TBcLkzowF8aBRwBI037qwmLFAjN0oZMHs3DXuzswu1FkwqtqzUXpBcKcmWRSNB4UsmN1GYegndZYD8TmZV2hFCZk6QMq4p8MWfGf7q1cHSEBtjBWK0Zn5uY4PAEnZq4ilyMvahpueT8bGeQxKNibDRAFL0B7brlmpQ2zBYgNe877Iyzs23DAHNz7obxsWCxCPxp1Qw3H4bxeXp0IWiogxuZELQ5sRfo9D8BmZV2hFCbw/dOb+LkAYKnUA7NSrA8SOsUJRe+/GcQIARF4tYinysi7ysjezL8ameWzeu+IkBIICluD5Wr19rg4A73FyHJNyp8TXxvigGD0aC3qnooglPhSyYHITFIbOXeTAM++MPBx5+xaeSwBgP706QArcoQ2K/OK0KvIyU4cAgFRtLWIp8rIq8vLOhuIVTsPG6wuFLGGggCUKB7Qk3AAAIABJREFUK3WAl7gJxwHOzeyODTeMzZ1q6c2sFEfBNJZuJA6O5E723ahzYHQLGwpZONmHUW2MDxq7MHS2IgfuN2f3oA5wBN4jOmt1AHipUgfATqEVKYasNsYKxWhhHq7pA0AqnhWxuOKVtZl9M07np+KaRSK/uUKjv40ClpDdeLqJl6kDIChnNmy4VeogCJ/bZFuZ2b+N61usmrZrfO1CFhq6scRpYWb/dh0zgJO5e7Texhkf9NKcnVjosjGvXh3gCNw7An7he9tfoY2LC5Zb912KY2AaZZGXS3UIAEjRb2bDaXy3kfDNOAmbmqdTgBSyeMjdIH1R58DJVuoAO/C5x6EWZvaNDTecwm2y3ZnZe3EUTIvviZG49tQhnpTHfv4q8nLF2D4cyxWGXtuwnjPV5v6cJ7mrGV8LgRWxsHYlt1YHgJc4COsvOrHMyB3iYKxQnD5xDwIA8/vNFa/8Y2wkpIxCFs9snFD/pM6CkzVt16zVIXZgswTHYsMNB9u4tn0zxlXG7s+2a1gwHRfdWOL23obnsUwdBGHZKAz9OPFL9RP//tDp1QEOxPOHFl0d8AxrAn5zo0kxr9oYKxQr1kEBYGa/GadcMKCQxRNu8XptFJbFYqkO8Ao+7zjF04Yb7yO8qcjLSxs2Sbi2xe++7ZqlOkSEGM0Uv3Mzu3Pfl8CrXnRfmbwwdObRqNWMr4XwilgqdYCUUaSMLVgP8BcdQQQYKxS1c+PPFgBm9Zv5O+YC86OQRcwtWt8ZrThjce9xFxYzTrHhdOc2XDdqdRD4yY2svDWzf9t0Iw7gj0cbTp5hZG4xlIXo+C3M7N9FXl5zyg+7bDwzTt195QnjzOLWqwMgGHQWwDbcrwAvMFYoah85dAAA86GIBS89FbJU6iCpcSfp2OSLi++npkt1AERhYWZfiry8ZcMNm4q8XNqwyXYhjoL5LDmhO6mVOgBm89E4XIAXXhSGzjmWr5/xtcx4RplbaNftSh0gYaG9VzAP7lX8tVYHSFxtFP/FirFCADCT39ypvq/qIPDKwsy+cbJ+HkVevivycs6TdJjHQ9s1K3WIXbjZxgQubBiDUKmDQKvIy6rIy97MPhmFmSlp3IkzTMTdV9ARIR3nZva3KwhE4sSFoWxcR6ztmu/qDAfiOVanVweAlzJ1AMBHjBWK2sLMbtUhACAFv7m/rpQh4K0vrjsIJlLk5ZWZ/W2MD4rRUh3gDZyWwRTObCiCZAxCgjZOiH+zeU+IQ48xQvNZqQNgdp+KvLyjK0uairy89KAwdLYiB4qhZ3evDnAE1k50enUAeClTB8BOa3WA1DFWKGql29cBAEzoNzOztmtujVN92O4jIyLG57qvrM3sL3UWTMLrLiwOn2lM6aMNXVmYE5uAIi9/dyfE/zFGB6WqdifNMD0KzNP0oysLz2VpcF3N1jb/6KBt5uzEwvt7XkF1YeH7T65XB4CXMnUA7BTUd3zEamOsUKz+4qABAEzrt43/vVKFgPeeRkRwUR6B2+j725j1HbOlOsAe+Dxjamdm9u8iL9dFXmbqMJiGO3nS23BCHGn66griMQM39uFGnQMyn4wi0ai96Grmy/PinJtgPKPMK7RRUbw/tHp1AHhJXWiJHdquCe07PkqMFYreiiJbAJgORSzY15kNp/9ok3Ykd5quNzb6YhdCFxYzTstgPqWZ/cPp8bgUeVm7a9pfphtvAL0HY4yQAt1Y0kaRaIRc8crK/OxqRieWeIV2Sj9TB0hcrw4Av3DY0Wt0/vAIY4Widm4UKQHAZH4Usbiq0K+6KAjEXyyYHsYtSK5tOE3HCYX4hVLolakDIDmfzKwv8rJWB8HxNopXvhjXNJhdus4gmJE7VckiKCgSjcCL4pX34jhbzfw9z4bovNbqAAfK1AFSxuhIbMH9h7/owuKfWh0Ak/lIp0wAmMZvL/5+pQiB4JQ2tLEOZbNeosjL3zcWJH1pBY1pNQGNVGCBGAoLM/tS5CXFLIGheAVb/EmLaqmlOgC88VQkyrNZQFyXzrV5XLzizF0wx4YoXpOpAyTsXh0AXmJdyV+9OgCec4WAf6pzYDKMFQKACTwrYnGbr7Sbwz4W9rMrCw8tG1zxytKGBwafFyQxvqU6wAEY/wGlMxuKWdZFXlbqMNiN4hXs0LRds1SHSFnbNWtjQwk/PT2bUSTqOXddvbOhSycHHX51rg6QEnctCUmmDpAwOu9hGzZs/dWrA+BX7hmaZ7g4LcwslIOtABCM/97y/63M7OPMORCu0sz+LvLys5ktU24p76ptr9wPCgTS04SyCEjhGTxSmtm3Ii8fbLiGrMR5YM+uZ7VRuIJfPZoZrXL9cG1DgRnw5KlIdGlcV73hRvHWFuZz4nquF2Jk8exCPMCWqQMkjO572Ia1JX/16gDYqTazv9UhMImyyMurtmuu1UEAIBYvxwmZDYuhwKE+2tDGOrmZ7BtzzP+fDe28Q1uYxDhqdYADJPUZRRCeNt36Ii+vUruO+GLjetbbcD2jgAXbXKZctOwTV6DwoM4BL21eV2t1mFS5riu3NowMCvU5cc7v+2zG10KYRQncm+pw74dteG73V68OgO3cSF7GCsXrLw6PAsB4filicfP55p57jDgs7OdM9uiLWYq8vNxYlGRsUNpu3HdnKCp1AGCHMzP7y4bryIoTufNwm2xr+3k9C3GTDfP4M5SuYwlZqgPAa0/FLN9TeD7zQZGX74q8vC7y8rsNnZIu1JlONGehQzbjayGwogQ2hOTW6gDwEmPx/NWrA2A3xgpFb8VzFwCMY9s4IbNhpBA3ojjWUzHLlTvRfR3YBv9OG62ga+MUEAaPNrQGDwk30vDdwoZiivdFXjY23Jfc0v1hPO569jQyiKIV7OOrW2yDR9quWbnRMdyX4jVPz2efiry8seH5LMQuDF5y19RLG66rsX0W6cQSr9C+A3iGBYA9xbIOH7naGCsUq3MbDpuEtl8AAN75r//85z9b/4E7OcSmBsby1YYNyJU6yKFc5eylDTeXFHfhpT9D29RzHRd4LyM0j2Z2a8O15FYdJkTuela7H+fSMAjNg5m9o5DMT25czBd1DgTn3oZRwhSJHmGjcKW2iK+pbdf811yv5Q7A0OF0Pn+0XRPMOPEiL69s6NgIgTm/CxCGIi8rM/umzoGt7tuuoXtVANxhhE/qHJjMv1i/BIDT7OrEYjZsFLGAgLFcmNlFkZfXFsAm5MaiZGXht4DGdB5CK2BxOMWGEG12Z6GgZU8bhZiXxvUMx3k0s0s2uf1FNxYc6dyG4qcvrjsL19Q3uHEmlUVeuLLhcebXy2Z+vdTRiQXAKfhM+ovntkC0XbMs8vLS0rivTNGqyMuMtRQAON5rRSzXRhELxvdyE3Jtw0bkWtnq0BWtPC1KXhqbANhPrQ5wJB6OELqtBS02XEuSfzjcKMS8NLou4XRXjB0JwtLoxoLjUSS6g9tYqCzNZ8S5v/uzmV8vdb06wIEqdYCENeoA8BKdPvzFs1tYamOsUKwWNjxbVeIcABCsneOEzMyKvLwzNjsxnwcbbrTX7q93U2xGus29zIYbiHfuR2oLkjhd03ZNpQ5xKPf+/0edA5hQYz8LWpJZvEl8kw3T+dx2DXOcA8G4QIzsqaBlbQmNHHLjEZ5+pP55umm7pp7rxYq83L04hdGFNh6Ga5zU17ZrLtUh4BfXafujOge2Cm7seeoYKxS9oEY4AoBPXuvEYjZ0Y+FEH+Zy5n78GHfgTgPe2dAK8Wkz8unv35LZz9Nclfsrix4YS60OcKRMHQCYWOl+2EbHr7UNhZFrWaoRuRFBT93DKuPahmk0FLAEZ2lm39QhEI0fXc9sGDl0bz+vqVF0PuN6+qZ+rhdyo5ownwd1gCPw+dRJ5mAADsL3tr/W6gA4DGOFovdXkZdJHbQDgLG8VcRya0Mhy2KGLMA2C/u5WHHx2k8EZvSncvzViVhoQEoWNlw7LszMirw0Gzq13NnPjl/eP0S6U+HvNn6wsIGpPdjQ1QcBabtmXeRlY2z0YRrn7sdHMzNX1PLURbP3vVD0RcEK3Tj308/4Wr/P+FoIb5QQtIIvWsQk+N4GxlUbY4VitirysorhIAAAzOnVIpa2a74XeXlrw+krAIDZQ+BtOVloQOp+dGox+1HYcm/DYv6d+2tvE42022Vj1N07Gz6nlft7Ntgwt0czu2RxJVi1MTYQ83gqanlvtvV6+qOb5szX08r9z8p+duZ8ZxzMOUY/42tRaD8v74u4N218rqER1PsFs+Fghad8LyzGdm3X3BV5+acxVihW5zZ0TqXbLQAc4K1OLGZDJxaKWABgUKsDnIgFYuBXTxtxzzp+uQ25B/u5ibN+8ete/v0uT6e/n2T2c7QXG2vwTR1ChyJs13ZNX+TljfH8Bo3Xrqf39vM0/3rjH2+OjX1LtePvfzc206Yw57WAQvt5hVaoyvtDK7T3CybmDmAAGN+1DevOHGaK08ciL28pNAOA/b1ZxOKqQO+NRSEA+BrBjSYLgMBhzuznAsLLER2ckEFs/mi75lYdAie7smEcFAVy8MnmegIjrwIwc0cuCu3nFVqxKu8PIYqbsUWmDoCdGnUAHM9NRajN7Js6CyZzW+RlRudbANjPb3v+vOtJUwCA/x4t/C4sZmwaAAC2u2m7hnv+CLgFMf4sAZzifubXo9B+XqFtnPD+0HlQB4CXMnUA7BTa9ztecIcnP6tzYDILM1upQwBAKPYtYrm1YQMXAFK1DL1KushLFv8AANvct11Tq0NgPG3XLI2NJwDHm/u5h04b8wqtswbvD51eHQBeytQBsFNo3+/Ybmk8y8XsosjLK3UIAAjBXkUsbuN2NW0UAPBWE8npdBb/AAAv3ZtZpQ6BSdTqAACCtZ759Rh/NqMAD2dk6gAJ69UB4CXWlvwV2vc7tnDX6VqdA5NaFnnJdykAvGHfTixmtKQGkKZYxgiZ0YYZAPDco5nVAW5mYQ+uFfVXdQ4AeE2Rl5U6Q2IadYAjnKkDJKxXB4CXWFvyF51YIsFYoegxVggA9rB3EUvbNb2F+bALAKdYuu+/GFDhDQB48mhmVds1LHTGrTbGwgI43FodADAzK/IyU2dIHPeJ2Ia1JX/16gAY1dIYKxSz8yIvaRwAAK84pBOLGd1YAKTl/7d3d8dxHGm6gL85sffksYC1FhBz3x3dskCQBdO0YCgLBFmwlAUH9ICyYFHRfX8IC7ZowSEs0LnoahEkAQk/3fllVT5PBIKa2RnWG7MAqqvyzS/ncozQQZcdAIBqvFVgmb9xys5Fdg6Av7DODtCYq+wAj9RlB2icaX3cxRFwlZrRJjzCsUKN+LephAD3e1SJZbvrP4T2J9CGOR0jdNBlBwCgCm+2u/4yOwRljIVcEzWBBxtH2DNPUysldNkBGqfwzFeWi5UpLPWyZjNDjhVqwoflYuWYNoA7PHYSS4RpLEAb5nSM0IGXDQD8qsDSpLfZAYDJKH0E2brw9Vo3tVJClx2gZeMUALjNQmu9huwAnMxFKCnN2YuIuMwOAVCjp5RYLsO56sC8ze0YoQMjXwHa9n676y+yQ1DeeHTUr9k5gEmYWsmBx5laKcFGjDzX2QGo0jo7APcasgNwGo4VasKPy8XKxhOAbzy6xDLeND+cIAtADW4i4jw7xLEZ+QrQvPfbXb/JDkGescBkQQr4O6VLDqvC12vaWGqcElMf8kyt8AStG7IDcDqOFWrChff3AF97yiSWiP0IM4A52sx0ZK6XfwDtulZgYbTJDgBUr1jJYblYeUYpa4pTlS3m5LnKDkCV1tkBuNfUSoo83kU4VmjOHCsE8I0nlVi2u36IiPfHjQKQ7rftrp/rpKl1dgAAUlyHewAjxwoBDzAUvJaCQllTXOB0JC7URfmwXnPckMct46ZLR87M2+vlYvUuOwRALZ46iSVCKxCYl+uY95QpLxoA2nMdEeuZThjjiRwrBPyNoeC1PKOUNWQHeIzlYrXOztC4q+wAVOl1dgDuNcWiIo80br78PTsHJ/Vvn4EA9p5cYhnP4euPFwUgzU3M9xihA7scAdqiwMJfOY9pHisBnN5Q8FqeUcoasgMwKT5D8hVHwNXNc19TNuFZbu4++J0L8LxJLBHznloAtOPtOF5/znzwBWjHTSiw8BfG42GNoga+M/5+KMUzSllDdoBHWmcHaFkD70h4PMXDetlo3JDxOX+TnYOTehFOwgB4XonFNBZgBt5vd/1ldogCjHwFaIMCCw8yfv4xihq4rfRRYxZEyxqyAzAZdvhzly47ALDnWKEm/LhcrGw8AZr23EksERqBwHRdRwO7kJeLVZedAYAiDgUWO2d5qE1EfMoOAVSjdAHSJJayhuwAj7TODtAwnyW5S5cdgHtdZQcgxSaUDufuYrlYKX0DzXp2iWXcwefFJzA1NxGxaWSnepcdAICTU2Dh0cbPQefZOYBqlL6HmBZZUOGjoo5BySlPC+9JeLwuOwDwhWOFmuBYIaBpx5jEEhFxcaS/B6CUtw0t9GlsA8ybAgtPNn7f/JydA6hCsYVr0yKLK31U1DEoOeXxmZK7dNkBuNdVdgByOFaoCa+Xi9W77BAAGY5SYhmnsUzxgRho02/j761W2MEGMF8KLDzbdte/Cy8/gbIL113BazGxyRrLxcozbK4hOwBV6rIDcK9J/Y7n6DbhWKG5+/dysVpnhwAo7ViTWCIi3h7x7wI4lX6761v7fWUSC8A8KbBwTJtwTCy0ruQiWFfwWkxvsoZn2FxDdgCq9Co7AHfzPNg2xwo144OSL9Cao5VYtrv+KiL6Y/19ACfwKSLOs0Mk8AEXYH4UWDiq8eXnedjFB80a3+uU0hW8FtPbpd9lB2jckB2AuiwXK8WyevnsjmOF2vAiIi6zQwCUdMxJLBERF0f++wCO5SYizscFmtassgMAcFQKLJzE+D3V2sQ6IEeXHaAxV9kBHqnLDtCy7a4fsjNQHZuj6uWZkINNKDXN3Y/LxWqTHQKglKOWWExjASq2aXGxz5hBgNlRYOGktrv+MiJ+y84BFFf6XU5X+HpMS5cdoGHX2QGokkks9Wpxsx53cKxQM94tF6suOwRACceexBLhRgnU5+dxrGKLvGgAmI/riDhTYOHUtrv+bdicAK0pvQjWFb5e0wofFXUMXXaAhlkQ5y42SNXLsyF/Gt9/e46btxcR0eo6B9CYo5dYxpGTdu4BtXi/3fXvskMk8qIBYB6uYz+BZcgOQjPOw25saEnpRbBXha/HtHTZARpmQZy7rLMDcK8hOwDV2YRjhebu9XKxusgOAXBqp5jEEhFxEW6UQL5+u+s32SGSmcQCMH2HAoudsRRzaxy15zpoQ7F7zHKx8oxS1hR3ZCs55fF5E6ZlyA5AXcaNLxfJMTi9X5aL1To7BMApnaTEMr7wvDjF3w3wQNex30Hcui47AADPosBCmvHoqnV2DqCIktMXTIssa1KfIZSc0pnEwl1W2QG415AdgPqMU8mnWGLlcS6Xi5XP1cBsnWoSy+FGafw0kOFTWPA76LIDAPBk78P9jGRjkeVNdg7g5IaC11JSKGtqpQSLMbl87oQJcdwsf2ETpmrO3auIuMwOAXAqJyuxjN6e+O8H+NZNRJxb8PtTlx0AgCd5v931G/czarDd9ZcR8Wt2DuB0Ci+CKSmUNbXPEkpOiba7/io7A3VxXEXVbCDmXo4VasaPy8Vqkx0C4BROWmIZH3zen/IaALfcxH7H+tR2mp2Ss8QBpue37a7fZIeA27a7/iI828FcfSp8PSWFsqb2fKzkBHXxM1mvqZUUKcyxQs14t1ysuuwQAMd26kksEftpLMaWASWcK7B84SxxgEl6s931phlSpbFc9Xt2DuDohsLXsyBa1pAd4JHW2QEaZqGTu3i3VC/vQHmITVifm7sXEfEhOwTAsZ28xDKOQPciHji1N8befsfLYYDpuImIn8ZjW6BmmzC6HOZmKHy9VeHrNa3wUVHA/Hi3VC+TWPhbjhVqxuvlYnWRHQLgmEpMYjmcoa7ND5zKG4t+d7JbBmAaDsfh2TlD9cZNCutQZIE5GbIDcDKlj4o6BiWnPFfZAaiSd0v1MomFB3GsUDN+WS5W6+wQAMdSpMQy2oSxZcDxKbDcz24ZgPpdR8SZ4/CYEkUWmJ1i9yAv1osbsgMwKaY6cJcuOwD38jPLY2zC+lwLLpeLlTUBYBaKlViMLQNOQIHlr9ktA1C3PvYTWIbsIPBYY5FlE16EwhxYBJuvITvAYyg5pVOq5i6vsgNwN8eq8xjW55rxKiIus0MAHEPJSSzGlgHHpMDy97SuAer1frvr12MRACZpnCC0DkUWmLqSC9frgtdiYiWW8AybzedSvrJcrLrsDMDxWJ9rxo/LxWqTHQLguYqWWEab8JITeB4FlodxljhAnd5sd/0mOwQcgyILTJ9C5axNbbKGaaKJHG/JHbrsANxLEYGn2mQHoIh3iojA1BUvsYxjy96Wvi4wGwosAEzVTUT84D7G3CiywKSVXgRbF75e66ZWUDKJJY97OHfpsgNwr6n9fqcS4/rcr9k5OLkXEfEhOwTAc2RMYonxxf3vGdcGJk2B5YGcJQ5QneuIOHNuOXOlyAI8kJJCWVObrGESS56pfa9QRpcdgHv5meXJtrv+IvbvKJi318vF6iI7BMBTpZRYRpuI+JR4fWBaFFgex8thgHq8j4j1uOMJZkuRBSbpqvD1Xhe+XtMmeFRUlx2gYVP7XqEMxbJ6+ZnluTbZASjiF5tdgalKK7GMD9LnWdcHJkWB5fG8aACow8/bXb+Z4CISPIkiC3Cf5WKlaF/WFHdYv8oO0DBTHbiL39v18jPLs4zPbY4VasOlz+HAFGVOYjncKH/OzABU7SYi/qnA8iQ+mALkOtzD3mUHgdLG57wuprmACq25KngtRfuyJlWgXS5WXXaGxg3ZAaiS39v1mtTveOrkWKFmvIqIy+wQAI+VWmKJiBhf7P+enQOozk3sj16ws+BpvGgAyNNHROceRsvG6UPr8FIUaldyEUzRvqyr7ACP1GUHaNyQHYAqvcgOwN08a3JEm+wAFPHjcrHaZIcAeIz0EstoE15uAl9chwLLc3XZAQAa9et2168dHwSKLDAFhZ+5FO35K112gMYN2QGoy3KxWmdn4F6fsgMwH44Vaso7k++AKamixDK+3NyEc9MBBZZjcZY4QFk3EfHDOI4XGG13/eftrj+LiPfZWYDvlH4HYxJLWVfZAR6pyw7Qsu2uH7IzAA82ZAdgXhwr1IwX4VghYEKqKLFE/Nn43GTnAFK9j32Bxe71Z9CoBijucHzQVXYQqNV2129CkQVqU3rjgEksZU3tubrLDtAwUx24yzo7APcasgMwS5vsABSxWi5WF9khAB6imhJLRMR213+IiJ+zcwApftvu+o0Cy1F02QEAGvKz44PgYcYiy5vsHMCfhsLX6wpfr2kTnG7aZQdo2JAdAHiUITsA8+NYoab8slyslMuB6lVVYomI2O76d2GHHrTmzXbXv80OMSNddgCABnyKiH+On12BB9ru+suI+CkcJQs1GApfz5Gn5Uzxd2yXHaBhQ3YAqrTODsC9plZSZCIcK9SUD8vFylGfQNWqK7FE/LlDr8/OAZzcTewXAC+zg8xMlx0AYOZ+i4izCe5whiqMEzjX4fgCyDaUupAjT4ub4mcUJac8Q3YAqmRxs16mgHJKm+wAFPEqImzKAqpWZYlldB5anzBn12EB8FSMAwQ4jZuI+Gm76986PgieZ/wMeBae+SDTUPBaXcFrMbEFTiWndN7LcJfX2QG4l59ZTsaxQk3513KxOs8OAXCfakss48LAOuzOgzl6HxHr7a4fsoPMlN0yAMf3e0R04wQJ4Ai2u/7zdtefheNkIUvJRbCu4LWY3gJnlx2gcZMqPXF6jpiomw0VFPAurMu14lKZGKhVtSWWiD8/kJ3HNM/yBe72ZrvrNx64TsokFoDjOUxfOXfvgtMYj5N9k50DWlP4vtYVvBbTOx7GM2yuqZWeOD0/k/UyxZCTGz8jbrJzUMSLiLjMDgFwl6pLLBF/ji9bhyILTN2niPjndtdfZgdpwIvsAAAzYfoKFDJ+Rvxn2PEHpZReBOsKX691Q3aARzL1IZGiNnfwM1kvP68Usd31VxHxW3YOilgtF6uL7BAA36q+xBKhyAIz8HtEnI0/y5zQcrFaZ2dozPuI+Cncn2BuTF+BBONnxbOI6LOzQANK39+6wtdr3ZAd4JFMfchjqgN38TNZr6vsADTlImwyaMUvy8XK736gKpMosUQossCE/WwRkBkbxgkNXdidAHPxW5i+Amm2u/7zdtevI+LX7Cwwc6U3GHSFr9e07a4fsjM8kqkPebyr4S5+JgHHCrXnw3Kx8vsfqMZkSiwRiiwwMYfjg95lB2nMOjtAY4aIPxfc3sb+GAQ72WCariPih+2uf6t4Cfm2u/4iIn4IO//gVErf614Vvl7Lpvg8YudvnqvsAFTJz2S9rrID0BbHCjXlVURYywGqMakSS4QiC0zE+3B8EG0Ybv+L7a7/uN31ZxHxc7hPwVTcRMSv211/Nr6cASox/kyexf5oSuC4rkpdyI7O4qZYxn2RHQD4it/b9Zri73im7yJsLmjFv5aL1Xl2CICICZZYIhRZoGI3EfHTdtdv7GJPs84O0Jg7i1rjBKJ1THMXJLTk99iXLi+ygwB3G6ednUfEm/D8B1NlR39Zk9pMslysfH/kusoOQJVeZwfgbjYMksGxQs25XC5WXXYIgEmWWCIUWaBCv0dEt931H7KDNM5umYL+qqx1ayrLrwUjAQ/zKfZHB51vd/2QHQb4e9tdfxn7hfA+OQrMQuHpY55RyprahhLfHwAPYx2ENI4VasqLiLjMDgEw2RJLxJ9FlrOw0x0y3UTEz+NC4NRels2R3TLlPOjeM054+OdD//PASR2ODuocHQTTs931w3bXr8OxffBcpX9+TNooa2q79H1/JPKZmG8tF6t1dgbuNbX19VgDAAAVUklEQVTf78zPRThWqBWr5WJ1kR0CaNukSywR+xeZ4cgGyNLH/hiGd9lBcNZ8ggeXtkxlgSq8j/3EsIvsIMDzjJ89TWWBpyu9COY5paypbS7x/QHwMFP7/c7MOFaoOb849hHINPkSS8SfN8917BcngNO7iYiftrt+7RiGqvhQWdbVY/8LprJAij4i/rnd9RsTw2A+TGWBZyl9P/ScUtAEJ2v4/sijDMpd1tkBuJdJLKRzrFBzPtg4C2SZRYklYl9k2e76TbiBwqkddrJ/yA7Cd7rsAPy9b6ayWHSD0/kUET+MhUsv+2CmTGWBJzGJhZr4/sij4A3TMmQHgNFFOFaoFa8iwhR+IMVsSiwH213/NiLeZOeAGTosBtrJXq8uO0Bjrp7zXx6nslh0g+P7FBFvtru+m+BOZOAJbk1l+Sm8TIWHGApf73Xh67Vsis8WJrHkUfTmLuvsANxryA4AEX+ejPA2OwfF/Gu5WJ1nhwDaM7sSS0TEdtdfxv64Bjvc4fluIuJXi4GT0GUHaMyzy1wW3eCobt+vLrPDAOWNkwIP086A+w3ZATiZKW44eZEdoGFT/H6Blg3ZAeBgfPb6PTsHxVwuF6suOwTQllmWWCL2xzXEfkF3irtQoBbvI+JsnBhB/brsAC055vEkFt3gWW5i/7PTuV8B4zGzFxHxn+FZEO5TbPrCcrFal7oWETGxyRrLxcoUllyT+n6hGD+Xldru+iE7A3xjEzaSt+JFRFxmhwDaMtsSS8SfLzDXYVEQHus6vhwdNGSH4cG67AANOfoD2jeLbnYywN/7qrziqDvgtlvTzn4I087gtvfumbM2tf/fvswO0Lipfb9QhulIdbrODgDfGj9TbrJzUMxquVhdZIcA2jHrEsvBuCj4Q2iFwt/5FBFvtrv+zNFBk/QqO0BDTrZjbVx0O4/9fctLCvie8grwYNtdf7Xd9V1E/ByeByEi4qLw9daFr9e6qU3WWGcHaNkxp4syD6YjVc1zL1VyrFBzfnGvAEpposQSsX95GY4XgvscFgTPtrv+MjkLT+DDY3HDqS8wLrqdRcSbsIMcIvY/B8orwJNsd/272D8P/hrKLLTrjUmbs+fzEQ/lXshdTEeql9IZNduE+0pLLpeLlfsFcHLNlFgivjpeyC48+MKC4Dz44FjWUOpC211/Oe4gt+hGqw5TwtyrgGe5dXTfWUS8T44DJd3E/l56mXDtdcI1mzXByRrr7AANm9r3CmXYIFUvz8FUy7FCzXkd5ac7Ag1qqsRyMO7COwtTWWjb+4j4TwuCs+FFQ1lD6QuOi25dKLPQjj4ifhrLK5fZYYD5GI/u20TEf4YyC/N2e4rZZXIWTs/0Rh5jyA5AlWyQqpfiGVVzrFBz/r1crM6zQwDz9h/ZAbKMI3TXy8Xqbexbgy9SA0E57yPiwhjp2fGioawh46Jj4exiuVi9i4i345f7F3PzPiLeTXAnMTAx4+fhzXKxuoj9M+G/MvPAEV3H/l56mR0kIlbZARoyZAd4At8feYbsAFTJBql62YDIFGxif3/xrrINl8vFqrNBGjiVJiex3GYqCw05TF7ZKLDM0jo7QGNSF9dvHYfQhckszMNN7L+XD/cpBRagGJNZmJH3EfHDdtefVVJgoawhOwCTMmQHoEo2SFVqu+uvsjPA33GsUHNeRMSH7BDAfP3jjz/+yM5QjXH81buIeJWdBY7kJiIuY78Lb8iNwiktF6ursIutmO2u/0d2htuWi9XLMJmFaeoj4tJCG1AT91Um5lPsn/kua3vmWy5WZxHxf7NzNOTXseg+CcvFah0R/52do2E/WBTnW8vFagjvxatU23so+CvLxepDRPyYnYNifh6HBQAcVbPHCd1lu+s/jAvBbyPil+Q48Bw3sS9kvTPOrRkKLOVUN7nrm2OGNrG/j3nxRK0ULIGqua8yEVMogtrRX9aQHYBJGbIDUCWfd+pU3Xso+BubcKxQS/5ruVhdmaoMHJtJLPdYLlZd7EsAGqNMyaeIuIiID8or7Rh3C/+/7BwN6be7fp0d4u8sF6tN7BfdXidHgYMpLLYB3Gm8r25CcZhc1U5ductysXobEf+VnaMhk5qssVysLsIGsjSmOvCt8V34/2Tn4E6/b3f9eXYIeIzx+en/ZOegmOuIWFuTAo7JJJZ7jC+EzsfxphfhZSV162O/o90ZhG06yw7QmKvsAA8xFgUux/vYJiL+lZmHZk1qsQ3gPrfuq13snw/Pw85Cynkf+40KU3veM4mlLLtfeajr7ABUqcsOwL38fmdytrv+ciyyWFdrw+vYDwXYJOcAZkSJ5W+Mu1jW4w33IoxVpB6OY+DAy+GyJtUoH+9jV+NOx8345V7GKd1ExIfY35+8bANmZfzcvRkn4Z2HqWecTh/7570pT9lUti/nZoLfJ+vsAA2b2vcKZXTZAbiXn1mm6jz2mwE9L7XhX+Omj/MJfi4FKqTE8kC3dt5tQpmFXNexb7VO+WUmx+XlcFmTXJQfF90uIuJiuVidx77M4sg8juVQXJniLnGARxs/h1/G/hnxLL4URU1n4Tmu40txZciNchTK9uVM8hmFNL5fuEuXHYB7+Zllkra7/vM4IfpDmMjSilXsN1M6Wgh4NiWWR1JmIclh6sqlXe3cwcvhsib/AXwsGXw4tONjv4vc/YzHUlwBiIjx8/nbiHirKMoTzK24cpuyfTlX2QGewGJWnsk/03ISXXYA7uVnlskaiwzr5WL1NvbraUr/8/c69p9NPQsAz6LE8kS3yizr2N98PXxzCr/HvrhicZC/4gNhQXMqko0LJe8i4t24i/xt7EstHii5z6fYP4gqrgDc4VZR9HDc0HkotPC9ORdXbpvN5+YJmOL/1n12gIZdZQegSlcRMSRn4A5zeg9Fu7a7/t1ysbqML89I6/D+cc4cIQU82z/++OOP7AyzcGvx71/ZWZi8wwvNSyPXeIjlYjWEKRqlfNru+i47xKmNu8gPXx4ouY4vE1e8PAN4JIUWYj+97Cq+3E895wEAALO0XKxeeuYBnkuJ5cjGF5RvYz9C2qIyD9XKTjxOYLlY+UVeTr/d9evsECUptDTp9kLblfsSwPHcKrSsw7117q7jy/Syq9woAAAAANOhxHJCtxb+TGfhLoorPNtyseoi4n+yczTk/XbXb7JDZBmP0Dvc2xQ156WPLwttpq0AFHLr3roOI5en7nDk3lUogQIAAAA8mRJLAbd2270NLyZb93t8WSQccqMwB+PCx39n52jIr9tdf5EdogZjgeqw6OZohOk5lFau7A4HqMN4b13f+lIYrduniPgYX+6nSqAAAAAAR6DEUtitRb9NKLS04LAb73Akg3MAOarlYvU2Iv4rO0dDftru+g/ZIWo0FqoOX6vMLHzn9iLbR6UVgGlQaqnOdXxdWhlS0wAAAADMlBJLIoWW2TpMW7Ebj5NbLlYXEfFLdo6G/KAA8DBKLWlu4lZhJfallSEzEADHMT4/nsX+3noW7q+ndCiAfgxTywAAAACKUmKpxK0jhw5HM7xIDcRjOJKBNMvF6kM4yqWk/22i0tMsF6uz+HrhTXnz+T5FxBAKKwDNunV/PXwptjzeYcLKEF+mlvm8BwAAAJBEiaVSdrBX6/YOd6UV0i0Xq6vwO6KY7a7/R3aGORnvdV18vfimxPm922WVISIG9x8A7nNrYsvh62X4vBix33wwjF8fY38/NTkTAAAAoDJKLBMwTmlZh7HRGQ678g5jpL3kpCrLxepzWPQvpd/u+nV2iLkb73m3F93W459zn9xyHRGfY3+/+Rz7wspn9x0AjuXWPbaLLyXSl+M/v8rKdUTf3kv//NNkFQAAAIDpUGKZqFuTWg5HM1jEfr6vxkjb5c4ULBcrv8TLUWJJdmvx7fBn3PrXtRZdDlNUIr4sph0W1sK9BoBa3LrPRny5v0bsnzcPSt5vD1MwDw730dv/rPAJAAAAMDNKLDPxzcjodcxnN90pHF6GHr4cy8AkjWW2/87O0ZBft7v+IjsEDzP+fBzcXpT7Vjd+/Z3bC2ffuvr2P2vHNwCt+Kb88lTDdtcPR4gDAAAAwMQpsczYN0cydLf+bKXc0seX3e7D+GVhkdlQYinu5+2uf5cdAgAAAAAAAObqP7IDcDpjWeMqvt8hHsvF6jAeej3+W4c/z2IaRxPdHi19Nf7pzHNas84O0Bij6gEAAAAAAOCElFgadevc8Ku7/u/fjIT+djx0F3cfvbB6ZIxPsZ+O8q1vj2y4OvyDY3/gKy+zAzRGOQ4AAAAAAABOyHFCABO1XKyu4vHlMZ5ou+v/kZ0BAAAAAAAA5ux/ZQcA4MlMYinnU3YAAAAAAAAAmDslFoDpep0doCFDdgAAAAAAAACYOyUWgAlaLlamsJQ1ZAcAAAAAAACAuVNiAZims+wAjRmyAwAAAAAAAMDcKbEATFOXHaAxH7MDAAAAAAAAwNwpsQBMU5cdoDGfswMAAAAAAADA3CmxAExTlx2gMSaxAAAAAAAAwIkpsQBMU5cdoCXbXW8SCwAAAAAAAJyYEgvANJ1lB2hInx0AAAAAAAAAWqDEAjBNL7IDAAAAAAAAAByTEgvAxCwXK1NYyrrKDgAAAAAAAAAtUGIBmJ6X2QEa8zk7AAAAAAAAALRAiQVgekxiKetjdgAAAAAAAABogRILwPSYxFKWSSwAAAAAAABQgBILwPSsswO0ZLvrTWIBAAAAAACAApRYAOB+n7IDAAAAAAAAQCuUWACmZ5UdoCFDdgAAAAAAAABohRILwIQsF6uX2RkaM2QHAAAAAAAAgFYosQBMy1l2gMYM2QEAAAAAAACgFUosANNiEktZH7MDAAAAAAAAQCuUWACmxSSWsj5nBwAAAAAAAIBWKLEATEuXHaAxJrEAAAAAAABAIUosANPSZQdoyXbXm8QCAAAAAAAAhSixAExLlx2gIX12AAAAAAAAAGiJEgvAtLzKDgAAAAAAAABwCkosABOxXKy67AyNucoOAAAAAAAAAC1RYgGYji47AAAAAAAAAMCpKLEATMdZdoDGXGUHAAAAAAAAgJYosQBMx8vsAI35nB0AAAAAAAAAWqLEAjAdJrEUtN31H7MzAAAAAAAAQEuUWACmwySWcm6yAwAAAAAAAEBrlFgApmOVHaAhprAAAAAAAABAYUosAPC9z9kBAAAAAAAAoDVKLAATsFys1tkZGmMSCwAAAAAAABSmxAIA3zOJBQAAAAAAAApTYgGYhnV2gMaYxAIAAAAAAACFKbEATMPL7ACNGbIDAAAAAAAAQGuUWACm4Sw7QEu2u37IzgAAAAAAAACtUWIBmAaTWMr5lB0AAAAAAAAAWqTEAjANr7MDNGTIDgAAAAAAAAAtUmIBqNxyseqyMzRmyA4AAAAAAAAALVJiAahflx2gMUN2AAAAAAAAAGiREgtA/brsAI0ZsgMAAAAAAABAi5RYAOrXZQdozJAdAAAAAAAAAFqkxAJQvy47QGM+ZgcAAAAAAACAFimxANSvyw7Qku2u/5ydAQAAAAAAAFqkxAJQv7PsAA25zg4AAAAAAAAArVJiAajfi+wADTGFBQAAAAAAAJIosQBUbLlYmcJS1sfsAAAAAAAAANAqJRaAur3MDtAYk1gAAAAAAAAgiRILQN3W2QEac5UdAAAAAAAAAFqlxAIAAAAAAAAAQDolFoC6rbMDtGS766+yMwAAAAAAAECrlFgA6vYyOwAAAAAAAABACUosAHV7nR2gIX12AAAAAAAAAGiZEgtApZaLlSksAAAAAAAAQDOUWADqdZYdoDFX2QEAAAAAAACgZUosAPUyiaWsz9kBAAAAAAAAoGVKLAD1MomlrI/ZAQAAAAAAAKBlSiwA9eqyAzTGJBYAAAAAAABIpMQCUK8uO0BLtrveJBYAAAAAAABIpMQCUK8uO0BDbrIDAAAAAAAAQOuUWADq9So7QENMYQEAAAAAAIBkSiwAFVouVmfZGRrzOTsAAAAAAAAAtE6JBaBOL7MDNMYkFgAAAAAAAEimxAJQJ5NYyhqyAwAAAAAAAEDrlFgA6mQSS1lDdgAAAAAAAABonRILQJ1MYilryA4AAAAAAAAArVNiAaiTSSwFbXf9kJ0BAAAAAAAAWqfEAlCnVXaAhnzKDgAAAAAAAAAosQDAkB0AAAAAAAAAUGIBqM5ysVpnZ2jMkB0AAAAAAAAAUGIBqNHL7ACNGbIDAAAAAAAAAEosADU6yw7QmI/ZAQAAAAAAAAAlFoAamcRS1ufsAAAAAAAAAIASC0CNTGIpyyQWAAAAAAAAqIASC0B9TGIpaLvrTWIBAAAAAACACiixANTndXaAhlxnBwAAAAAAAAD2lFgAKrJcrExhKcsUFgAAAAAAAKiEEgtAXc6yAzTmKjsAAAAAAAAAsKfEAlAXk1gAAAAAAACAJimxANTFJJayrrIDAAAAAAAAAHtKLAB1MYkFAAAAAAAAaJISC0BdTGIpaLvrr7IzAAAAAAAAAHtKLAB1MYkFAAAAAAAAaJISC0BdXmcHaEifHQAAAAAAAAD4QokFoBLLxcoUlrI+ZwcAAAAAAAAAvlBiAajHWXaAxnzMDgAAAAAAAAB8ocQCUA+TWMoyiQUAAAAAAAAqosQCUA+TWMoyiQUAAAAAAAAqosQCUI8uO0BjTGIBAAAAAACAiiixANSjyw7Qku2uN4kFAAAAAAAAKqLEAlCPLjtAQ26yAwAAAAAAAABfU2IBqMer7AANMYUFAAAAAAAAKqPEAlCB5WLVZWdozJAdAAAAAAAAAPiaEgtAHbrsAI0ZsgMAAAAAAAAAX1NiAahDlx2gMUN2AAAAAAAAAOBrSiwAdeiyAzRmyA4AAAAAAAAAfE2JBaAOXXaAxgzZAQAAAAAAAICvKbEA1KHLDtCS7a4fsjMAAAAAAAAAX1NiAahDlx2gIdfZAQAAAAAAAIDvKbEA1OFVdoCGfM4OAAAAAAAAAHxPiQUg2XKx6rIzNOZjdgAAAAAAAADge0osAPm67ACNMYkFAAAAAAAAKqTEApCvyw7QGJNYAAAAAAAAoEJKLAD5uuwAjTGJBQAAAAAAACqkxAKQ7yw7QGNMYgEAAAAAAIAKKbEA5HuZHaAl211vEgsAAAAAAABUSIkFIJ9JLOX02QEAAAAAAACAuymxAOR7kR2gIUN2AAAAAAAAAOBuSiwAiZaLlSksZV1lBwAAAAAAAADupsQCkOtldoCGXG93/WV2CAAAAAAAAOBuSiwAuT5GxG8RcZMdZObeR8Q6OwQAAAAAAABwv3/88ccf2RkAaMx4jFKJKTSft7v+Y4HrAAAAAAAAAM/0/wE7/Q8KEWFWuAAAAABJRU5ErkJggg==;" vertex="1" parent="1">
          <mxGeometry x="-670" y="460" width="90" height="46.88" as="geometry" />
        </mxCell>
        <mxCell id="QATL2oIaA7AdP9qNfyrX-55" value="" style="shape=image;verticalLabelPosition=bottom;labelBackgroundColor=default;verticalAlign=top;aspect=fixed;imageAspect=0;image=data:image/png,iVBORw0KGgoAAAANSUhEUgAAAMwAAADACAMAAAB/Pny7AAABAlBMVEUAAAD///9Cq+9Qw+RCqfBOwOdKuulFs+xDofRMvedPweVSx+NWzeFGtOtDn/VCru5CpfJCo/NCp/FUyeFEk/dY0N4LGSUgVGZDm/cZP1JDnfYdSFQnYGYDCQtEqskkW2gfUWgTLjZQv9JTxdIfRWoteKTx8fFBpMs+jeI+oNE1hb7b29uwsLDMzMwvLy9JtdpGRkZNvNdubm6QkJATExNcXFyhoaE7Ozs7mdMpYZcwfqElJSWFhYVSUlK7u7tDrN0oZ4QvcaswdY0+k+ALGhs5j69AnLY7ktZFpq8RJT0iTX4xbrU2dcQsYaAZM1YUM0MbQ18WNU8kXII2irUhUFQ9kp4/keA7AAALLUlEQVR4nO3d6VbbOBgGYIelQKHsDYWM2QoOWQlxEigJIbRQysAMATr3fysjW/Km3bvSw/uTEprnyJY+ybasFf6gaHl/gSTzjlE17xhVkx6mNqzXe+Zg0IYZmGavXq/XUvv/CulgjLrZbfb7nU5H1zVfdPCTfr/fMnspkRLGGDWzq8nkvN0wkv2vC4lijFpPDuKkZTZqiYqSwtQavVYoCUx/MEzQkwjGGIZsE3+ag8R6hQQwtV67H5lip2sOE2me2JhGu6WLv66wedq9BDgxMcNuM77ETqdlxubEwgyvOglR7DTjcmJgGudJSuzo8Q62yJha9P6Ll2Y9BicipmamQrHSbWSLMepRBkjpmFHHnSiYRjvR855MK+KxFgFjJn/i4+m0IzVOaEwt2e6YlfN6BphhzMpFPoO0MUY7K4qV0CdOKExKYwszYQ+1MJhhqh0yJXrI+iYEpp5+L0ZoBqE08pj0xnxeumH6aFmMMcjFomlXITSSmGy7sUCa8rWaHCZHC4h020hhjIy7ZDyybSODybddQPqSGglMbue+l3M5jRijgEW2TxNjVLBIjjdCTC9vBkpbohYQYYaZzF5kYsbGpLCcFDm9mBjjKm+BP8IujY9R4+R3IzptuJieMicMjKgT4GFUOmHsdASnDQeTd0VGiaCC5mBUGWH84R9obEwt7y9ODfdAY2OSuoqUbDq8A42JUaxXdsM70FgYNQ8yK5zFNBYm7/kYO012/czAqFNfkmEvQtMxCg4xvjCbho5RrY4JphsKk/UCediwumcqpp73txWE1TQ0jOoNo/WH8hjVGwaMnNKY3Nf8xGGso1Ewjby/qkToYw2JmYCG0bQWdawhMepWZf5QpwIkJp8rZGFDXeEkMUoP/m46tN6ZwEzC6W+FdiGawCi17McJbSaAY4y8v6R0KMcZjlF/9HdCmT/jGNXLMi8d8jjDMIaaazLUkCUNhqlPRsdsh6w2McwklDJuiJMmiFHreowoxHEWxCi37s8NUToHMQotZBQfHh4ET0xc8THKrMkW/358enr851/+b3Exykxl9L837TzxNfhIE8A0ePct6qW9va1ASvAftvfJPAc+WhyDHx2BvBB/9OUI5iVwSL08QczmIxeDT2oCmCFvyLz9OX12Gsgd/D7layKVi4tX/3erzlhZX68+YH/06IeVk5Plm2Lgx8iy+VTUOMF7gACGe60MYEA+Wpm1srDgYD5Y+eRkzsrK3ErF+x7bFzNQM/OK/dGbZSs7OzssDK4P5JyH4U4yIcavCWBwDcjYw0whzX3wQDv6sQzDxHBbpmmwMfzz//bnIqYJYkhNxTlzAMbRBJqmeDM/P0/DvJxInTP9GhtT447/AINpMIzF+RDQHPswU6hp/MfN0fy8owli9G+oYY64mE6dg+HehH3782x3dxdpZk93d08pmGDbXDz7MEjz6nVbxer8mqMJYrTit8enk6dHvoW4L8CPaXDrf720VSp9P4Oa3b1SCXXNenkBUi5HKJfXjubVj5mCfYDXNOM1EKS5wU+O4sO/3JPfxphszFD0YU0rncEj7eeBh3Qw7o/0EWqbuWMHs+JqZo7dT1bXPA2BkUqbjZGYMiPMdBCzEMRozxWk8TA+jfO1x2urrmYewzzAoVTUON2YmEUaZiGIub1E582lh/E0TtPcr656Ggzz7QvI5uaJ4KThYCTuLwEYu0/DMZbGK2H0S9QL+FrGp4Hfe7y66tPQMF++ZIBZxDCzUONh7JYBmuuRH+NqIPHew6xFxhgsjCGxygwxiwHMro1Z8GGe32APXXG7ZrsiWLlA441VGryur1uYe9Q20TBXbIzEbAZhFoMY2DS+3uwaYtApo21XIOb4GLZNFfxOdd3WfKvGwWBXNpLB2BpnmBm9XQcbxsOM0ei5r72CGhpo7l9u4IEWDYNdQQuN2aBiLM3pqd1DXzvFQGXb+RUXo9lNMzVVfajO2Job7QaeOIljJOaZALNBYD4iDeqirZTvLn0TNA+zj2qBCzi/uT/SqrAbwDE7WWAON2wNiZkNYD5cv/kmm9uVFYTR3nyj58w6+EEVdmoEZicjzAaOoWnAkbbvYZyW0cb+ysaa3UDMKonZSf+csTEbOMan8TifPo10FzOHMKBpgrUAG7OTEWYDx1gatDJQLrtzAnfQrHjzmwOvTruwAFU43uCYZVuTA2Yaar7v7Y1G9trMyOGgztnGzKHJ2rFTC0zZEwQ03hAYWxNjnJGpAA6XGJiPs96PtGdnXWDkw8xBTNGpbC40B7NOw1iaH5ErAKna7HBpicTApvGvlV2iprm8hRj/jOAVacYeBgw4JGZZjGHXZrKYJRJja/yYEcLADnq74p8R3MIaugp/0xk9KZhlMabAxMjMZyzMEoZZhBoapuxifDOCfbuffnYxMyzMchaYpSUCMy3EfHIxxarVs+keZobEzOeKmZ72Y+7QcHN34GG8KnrsLdxADBhycMy8DIazBtAQbylR+goxvwIYqPF+VNxy1gUudRqmeOw2DBszL8bonNUZ/rqZXvr9+/dfXz/bmMO9Uql04GJszXc3d6dOKTDSaBht/82tqKuwsiEOM1sjwPDWzQQrmv99BfkMMUtnZ2eH/3kYdKTBssar08rOoIlhis/uUmAVVTYYBq5AiTCcFU3BWvOvzyhLKH4Mvg4N67Tv8KPbZQzjSxWtC+AYWyPA4M88h7gK4GI+0zA0TRmdRtuVD1zMFHmYwTUbAYZ3FSAehtScOl3CdhmuQ9Mwb7DqpGDWxJgCB8O/cuZhEMfBbNA1ZfejFuYDCwOrTvIwszQCDH6Phvw1zdtfX305BEGYX4dngaCZwJb3UYCxrw7SMZZmBcO8rtrXB+/HlE94wZ8QDl5t5t3TpP/+Cwu6QFvaC8a+eHvg/2hxi3bZFkHhPwUv0Grouu2Yv5yO36Kh6H0AcilwMQrdoSGRFh/D7QGUi+DemT/qrqY/6n6ziboTkHwkaILv0STvBca7twk6aYR3zyr5qDk9Evc1T84d55THgolRNOut8qIGv2+GipG4s0GJ0DbYIzCTcpxJPT8zIcWm5JNNf9QzZ8rcQstLi/qgJuU5zUnoAmSf01R8MwA7TfrDzRP6bDN9VxDqU+eqF2j4SiYPo3yBRsyXeRjVNwRgbAcwkXtoEI+a8DFqrwUwdzhi7Duj8vSZsU0DG6Pw85q02l+AUbdC42wKNnG7aPE2bmXvb5b3t2aE1S3zMWpuDMDd55SzJ6CK+0/w99Pl7dao3toGaysgMUa9awL4TQxhMMpVNVcxdjhVbgYt2oCav5Eu/waUrMM/YYQYpfYGFL+QRrSTtjpTaImX6wj3OFelrBGd/FIYRa4M0rfNCo1RokuTe8uBzBsb8tcw1skiYPJf3xBUMaEwuWtkX0Qlhcl58JR+qZYcJtf156TfDJRjLyD5tpZQmLzGG6nxJTymYGb2WkAv4d7eGAKTw1vbwr2zLRSm0Mh41Tbs63VDYTLuBkK/IDQcJstLN93wr24NiynUsukGdPGrcxLAgBlOBpxo7zuOgCkMuylPps8jvic8CqZg9FLtpAdRX0MdCQM66fRm01fRXxAeEVMwUhpzmr2or9OOgQGcNFZvBzEocTDWqZNwvxaPEg8D0jtPrGPryLwwL1UMqD6vkjja+q2IvXGyGDDsDOK+/rzVjt6D+ZMABpQ49UH0RYJmuxd1XMGTCAb0BcATZSDtA0kijWInIUzB8gzNcGPPeXuYoKSQJAbEMGqNgRyo2a7XjEQlhYQxMEbNbHMPufagkbjDTgoYFKPe65mDdveqZafbHphmL06xIk56mBzyjlE17xhV845RNf8D8OTH54HLEmwAAAAASUVORK5CYII=;" vertex="1" parent="1">
          <mxGeometry x="-570" y="30.99000000000001" width="76.5" height="72" as="geometry" />
        </mxCell>
        <mxCell id="QATL2oIaA7AdP9qNfyrX-58" value="" style="shape=image;verticalLabelPosition=bottom;labelBackgroundColor=default;verticalAlign=top;aspect=fixed;imageAspect=0;image=data:image/jpeg,/9j/4AAQSkZJRgABAQAAAQABAAD/2wBDAAMCAgMCAgMDAwMEAwMEBQgFBQQEBQoHBwYIDAoMDAsKCwsNDhIQDQ4RDgsLEBYQERMUFRUVDA8XGBYUGBIUFRT/2wBDAQMEBAUEBQkFBQkUDQsNFBQUFBQUFBQUFBQUFBQUFBQUFBQUFBQUFBQUFBQUFBQUFBQUFBQUFBQUFBQUFBQUFBT/wgARCALHBOUDASIAAhEBAxEB/8QAHAABAAIDAQEBAAAAAAAAAAAAAAEEAgMHBgUI/8QAGwEBAAIDAQEAAAAAAAAAAAAAAAMEAQUGAgf/2gAMAwEAAhADEAAAAf1SAAAAAAAAAAAAAAAAAAAAAAAAAAAAAAAAAAAAAAAAAAAAAAAAAAAAAAAAAAAAAAAAAAAAAAAAAAAAAAAAAAAAAAAAAAAAAAAAAAAAAAAAAAAAAAAAAAAAAAAAAAAAAAAAAAAAAAAAAAAAAAAAAAAAAAAAAAAAAAAAAAAAAAAAAAAAAAAAAAAAAAAAAAAAAAAAAAAAAAAAAAAAAAAAAAAAAAAAAAAAAAAAAAAAAAAAAAAAAAAAAAAAAAAAAAAAAAAAAAAAAAAAAAAAAAAAAAAAAAAAAAAAAAAAAAAAAAAAAAAAAAAAAAAAAAAAAAAAAAAAAAAAAAAAAAAAAAAAAAAAAAAAAAAAAAAAAAAAAAAAAAAAAAAAAAAAAAAAAAAAAAAAAAAAAAAAAAAAAAAAAAAAAAAAAAAAAAAAAAAAAAAAAAAAAAAAAAAAAAAAAAAAAAAAAAAAAAAAAAAAAAAAAAAAAAAAAAAAAAAAAAAAAAAAAAAAAAAAAAAAAAAAAAAAAAAAAAAAAAAAAAAAAAAAAAAAAAAAAAAAAAAAAAAAAAAAAAAAAAAAAAAAAAAAAAAAAAAAAAAAAAAAAAAAAAAAAAAAAAAAAAAAAAAAAAAAAAAAAAAAAAAAAAAAAAAAAAAAAAAAAAAAAAAAAAAAAAAAAAAAAAAAAAAAAAAAAAAAAAAAAAAAAAAAAAAAAAAAAAAAAAAAAAAAAAAAAAAAAAAAAAAAAAAAAAAAAAAAAAAAAAAAAAAAAAAAAAAAAAAAAAAAAAAAAAAAAAAAAAAAAAAAAAAAAAAAAAAAAAAAAAAAAAAAAAAAAAAAAAAAAAAAAAAAAAAAAAAAAAAAAAAAAAAAAAAAAAAAAAAAAAAAAAAAAAAAAAAAAAAAAAAAAAAAAAAAAAAAAAAAAAAAAAAAAAAAAAAAAAAAAAAAAAAAAAAAAAAAAAAAAAAAAAAAAAAAAAAAAAAAAAAAAAAAAAAAAAAAAAAAAAAAAAAAAAAAAAAAAAAAAAAAAAAAAAAAAAAAAAAAAAAAAAAAAAAAAAAAAAAAAAAAAAAAAAAAAAAAAAAAAAAAAAAAAAAAAAAAAAAAAAAAAAAAAAAAAAAAAAAAAAAAAAAAAAAAAAAAAAAAAAAAAAAAAAAAAAAAAAAAAACGHjvUHtI8Kmr+6eDM+8eD+h49+uRMVsAAAAAAAAAAAAAAAAAAAAAAAAAAAAAAAAAAAAAAAAAAAAAAAAAAAAAAAAAAAAAAAAAAAAAAAAADV+Wv1L+Vd5ylKMI6nimE6yPc+F91r9p+jZieK+lyGQAAAAAAAAAAAAAAAAAAAAAAAAAAAAAAAAAAAAAAAAAAAAAAAAAAAAAAAAAAAAAAAAAAAAAAAANX5T/Vn5Q3nK/PYR1PE565wxmPeeB93r9p+kpieL+lAyAAAAAAAAAAAAAAAAAAAAAAAAAAAAAAAAAAAAAAAAAAAAAAAAAAAAAAAAAAAAAAAAAAAAAAAABq/Jn6z/JO85f58Rj1HFZxhDOXu/A+7obP9K5Y5cV9IBkAAAAAAAAAAAAAAAAAAAAAAAAAAAAAAAAAAAAAAAAAAAAAAAAAAAAAAAAAAAAAAAAAAAAAAAADV+Rf11+Q93y/z8cHU8bnGMM5e88B77XbL9Mzhnxn0YGQAAAAAAAAAAAAAAAAAAAAAAAAAAAAAAAAAAAAAAAAAAAAAAAAAAAAAAAAAAAAAAAAAAAAAAABBr/H/wCsPyrvuV+KvOl5Gjj9DJn5/QPIdM1+z73OGfGfQwZAAAAAAAAAAAAAAAAAAAAAAAAAAAAAAAAAAAAAAAAAAAAAAAAAAAAAAAAAAAAAAAAAAAAAAAEEU9nAbesp+WmO4+dBPWH04pvpfomn9fiPoifk81r2exTrzhuSiXoAAAAAAAAAAAAAAAAAAAAAAAAAAAAAAAAAAAAAAAAAAAAAAAAAAAAAAAAAAAAAAAAAAAAAYGWrLjlin83ne7X2/wA3xFumMvObH6H+X7zju9yqb+BUdj8nzevHtfm/X+v/AJD7VznX9WnDLSdTIZAAAAAAAAAAAAAAAAAAAAAAAAAAAAAAAAAAAAAAAAAAAAAAAAAAAAAAAAAAAAAAAAAAAIDCeey1qHJLdfs/n1fXv17DWaIyxz4ns/we28v2WTLnGi6X4fHMMey+d7mpf1u3LRHmT9C9E/Hf6P5LuvcThlqehkAAAAAAAAAAAAAAAAAAAAAAAAAAAAAAAAAAAAAAAAAAAAAAAAAAAAAAAAAAAAAAAAAAgRHmvUNLjdyn1vBaK9uvs9TV1b9MnjT6+l+htH0VndGXK9xHMenxJD+M8O/fn/r+BzaWx1e7DHE2XPnRHY/VvqfyD+oeP7r78xOv3AAAAAAAAAAAAAAAAAAAAAAAAAAAAAAAAAAAAAAAAAAAAAAAAAAAAAAAAAAAAAAAAADGcXn4nIPp/G6TiK1azX3Oir17FeXxot0PnVNh+o/tflvLle5/Uj8uT5l/UT8vQfp/l/L8Ja3kcJw6riZxLFMDL0XnEVn9h/W/P/f+K+gzJXuAAAAAAAAAAAAAAAAAAAAAAAAAAAAAAAAAAAAAAAAAAAAAAAAAAAAAAAAAAAAAAAAMM8TlPkulcr6ngGnLTtNRr0bPCJqPwcMtX023LXl5m2Try9+dmMRkhj49Rdo4eoPXR8L7uz54JaqUYk7/ANb8v6jhPoySG4AAAAAAAAAAAAAAAAAAAAAAAAAAAAAAAAAAAAAAAAAAAAAAAAAAAAAAAAAAAAAAAAB8Pg36Q/O+85Wnrw+F0PLUefNep6fbnq2eLGWeDLYxemxrZTDHBix8p+j8og9ll530O3599P5nSIpP0Zuxz4n6KGPQAAAAAAAAAAAAAAAAAAAAAAAAAAAAAAAAAAAAAAAAAAAAAAAAAAAAAAAAAAAAAAAAGPFO182uazjHKPQ0Nvp/iz9hWu/Iz+xl68/Hy+w9vjvsj4uX1zPyMPuRjPw4+3OcfAw9Dh4x8L6m6PXj73e/z5+uMQ+pk0XUgAAAAAAAAAAAAAAAAAAAAAAAAAAAAAAAAAAAAAAAAAAAAAAAAAAAAAAAAAAAAAAAAAREyYzJiEmYSYwZBGQhIgEMjERkZxZDDKWMxJkAAAAAAAAAAAAAAAAAAAAAAAAAAAAAAAAAAAAAAAAAAAAAAAAAAAAAAAAAAAAAAAAAAAAAAAAAAAAAAAAAAAAAAAAAAAAAAAAAAAAAAAAAAAAAAAAAAAAAAAAAAAAAAIIxc1mpdLeZ9PHLkifNgAAAAAAAQSAAQSwyJRIMDNhmAAAARE/Nefpol6EEsZYkMgAAAAECQAAAAAAAAAEYsZolkAAAAAAAAAAAAAAAAAAAAAAAAAAAAAAAABDE+Twr3m/ecR5rtfAe3Q2/po+Rqeo+y5tjc1nSnN7mM+7n53nYLntWGUdqHl70lX7UY+Fw988n8SWv0Zh5WOx61yb61ij0RX309tPzPp/Hz44z3r8hfpLa6T184ZanoI577/8ANd7VdR6PxzsUU2TGK13NiZyYGcmMPMcJ7twa/rO+TiobPLCcjhfa9mUlfOcUdiWIzQepYw85sMnqSDznnfr+Qu6vrecTS2hGJkwPOxhk9GB52Ncs5GBsYGMmMGc68jDhXd8JIMtmtHY2RjDGxrzepRixlOsxsYZvQAAAAAAAAAAAAAAAAAAAAAAAAAAAGOvZ5SSrynt/IO07PnObbvW8alr/AKC+fdz0nYeMw9p5G3qea+48v2e9qPh8w6hy/Oe3TOOk6/kvo/N+k3XI+y/Of6M/OfqP3npvSWddu/Hc/wAfYbTnfveN9dVqbPz/AFT8+9/xJu+R9f5Gu3vGlvZudD2x8L7ml6DwvjaXUNjp/D9h4/2CC5x6l2Sx5fn3uHlfnT1em8i9F8nxP8GO4vEmr8+fof8AMtmn7T5/cN0FjlXVvz7+gcZ432Lg3efXnkVnz3TZa3O6fe+QpOtafg+FrW6OXSPSSQcR7ZzX62ce7FHb+S8f7Dx+x0/Xhrtxhzr2vFbets0+9a/UflvX8A774m43p7JuxjgPdPCb5oPp+C9t4D3Hl1P73zqt3jN7zH6Pt0eAdH9hwrznvvGuy8Gisd54p2380yePZUew/Qik4v2fgHdc4ocdx7b7h5G7dzpnHpPJesw3JmJrXQAAAAAAAAAAAAAAAAAAAAAAAAABBjxrrPA9vy07+7Wcw/n75f6T8HNU+r6rjvXNbv6XFfodAu6r730MWn6r4XLetcS3XJ/oOdGel6zk3pee9B3fHe0/PX6F/PWLP6Gyxz03Ufnn13z/AF/QcL8h09rOi530Svaq7CfkfX+RHY5N1XlXbrtDh/R+ZVbNP0fuvq/KpX/Bdb5L7D358RrvdazHwX031flz1vj9V8D9qKx76cMtfuceBd84HsdT30nW7XgXeuDd62Wo4H3rgvemOGdu4l23z7s8v6hzCvZ+1yvqnP7+u2ZdW+xXm4X7z26KzmTWv+R8h67yGx0/XZwnXbjyfFe+8m2mh2Y9uVrPDu07/CYl8ll9vpktbgPt9FieH6HzPp/Phn6T8r6vyqOy5P2zifbLVOOCd74F6i75+fv0D+f5PP6B/P36B/P/AJ9d/wAonX7Th/XOTdZv6viX6A/O/wCgst3lfV86qW/k9c5H1yaJJU2IAAAAAAAAAAAAAAAAAAAAAAAAADGR4PzvWouabLZE09vjRvHn879A6G2Wh/O32e3zYpcQ+j13Ovcx452fGtf4Pc7BuuavinvvZoLmvgf6CwjmbCrtPicd77qu6fibsO+el433cTrt9PyPr4+JuL9pw2SReY5z2zCSHPzno4gtck6P9LOWH85+r63onp8X9H1B4lqcK/QMRy8b1dd3yRTw/uuMcuTJDb4R3NlNU4T3Ocjh/aN2b1HM+m4+JPG/W+7Lz+ePUdZrWafG+yW9kFplExWvJ8R/S2NrW8Oz7bPvzS5R2eIbHErXWcpa/hfT/cmtc/Onquta7dPifsuho5PFUeiI5Mvk/WxhscW7Tjsliw4N3vWxPBe+4Z8uDd8wwzjJFb4t1T6MzVPC83/QOqSLk3xu3+Ilr/H63zjo8NqRWvgAAAAAAAAAAAAAAAAAAAAAAAAAAAAAAAAAAAAAAAAAAAAAAAAAAAAAAAAAAAAAAAAAAAAAAAAAMM4OefO6d5+xr/I+N7D9+WPTblS2Uh6AAAAAAAAAAAAAAAAAAAAAAAAAAAAAAAAAAAAAAAAAAAAAAAAAAAAAAAAAAAAAAAAAAAAAAAAAAAAAAAAAAAAAAAAAAAAAAAAAAAAAAAAAAAAAAAAAAAAAAAAAAAAAAAAAAAAAAAAAAAAAAAAAAAAAAAAAAAAAAAAAAAAAAAAAAAAAAAAAAAAAAAAAAAAAAAAAAAAAAAAAAAAAAAAAAAAAAAAAAAAAAAAAAAAAAAAAAAAAAAAAAAAAAAAAAIEoEoEoEoEoEoEoEoEoEoEoEoEoEoEoEoEoEoEoEoEoEoEoEoEoEoEoEoEoEoEoEoEoEoEoEoEoEoEoEoEoEoEoEoEoEoEoEoEoEoEoEoEoEoEoEoEoEoEoEoEoEoEoEoEoEoEoEoEoEoEoEoEoEoEoEoEoEoGKBKBKBKBKBKBKBKBKBKBKBKBKBKBKBKBKBKBKBKBKBKBKBKBKBKBKBKBKBKBKBKBKBKBKBKBKBKBKBKBKBKBKBKBKBKBKBKBKBKBKBKBKBKBKBKBKBKBKBKBKBKBKBKBKBKBKBKBKBKBKBKBKBKBKBKBKBKBKBraxsaxsaxsaxsaxsaxsaxsaxsaxsaxsaxsaxsaxsaxsaxsaxsaxsaxsaxsaxsaxsaxsaxsaxsaxsaxsaxsaxsaxsaxsaxsaxsaxsaxsaxsaxsaxsaxsaxsaxsaxsaxsaxsaxsaxsaxsaxsaxsaxsaxsaxsaxsaxsaxsaxsaxsaxsaxsaxsaxsaxsaxsaxsaxsaxsaxsaxsaxsaxsaxsaxsaxsaxsaxsaxsaxsaxsaxsaxqVxYVxYVxYVxYVxYVxYVxYVxYVxYVxYVxYVxYVxYVxYVxYVxYVxYVxYVxYVxYVxYVxYVxYVxYVxYVxYVxYVxYVxYVxYVxYVxYVxYVxYVxYVxYVxYVxYVxYVxYVxYVxYVxYVxYVxYVxYVxYVxYVxYVxYVxYVxYVxYVxYVxYVxYVxYVxYVxYVxYVxYVxYVxYVxYVxYVxYVxYVxYVxYVxYVxYVxYVxYVxYVxYVxYVxYVxYVxXUxcUxcUxcUxcUxcUxcUxcUxcUxcUxcUxcUxcUxcUxcUxcUxcUxcUxcUxcUxcUxcUxcUxcUxcUxcUxcUxcUxcUxcUxcUxcUxcUxcUxcUxcUxcUxcUxcUxcUxcUxcUxcUxcUxcUxcUxcUxcUxcUxcUxcUxcUxcUxcUxcUxcUxcUxcUxcUxcUxcUxcUxcUxcUxcUxcUxcUxcUxcUxcUxcUxcUxcUxcUxcUxcUxcUxcUxcUxUAAAAAAAAAAAAAAAAAAAAAAAAAAAAAAAAAAAAAAAAAAAAAAAAAAAAAAAAAAAAAAAAAAAAAAAAAAAAAAB/8QAORAAAQIGAAMGBAQFBAMAAAAAAAUSAQIDBAYRECA1BxMUFTFwFjI0NhcwM1AhIiRAQSMlJmCQoMD/2gAIAQEAAQUC/wDiE4x0VMpsaU/xhYHxjYHxinnxknnxknFjklmo3HsrP8qlH+v2b5MM657Kz/KpfX8uGdc9lZ/lUuo8kTC+ueys/wAql1DkiYX132Vn+VS6jy4V132Vn+VS6jy4V172Vn9FLqPLhHXvZWf0VOpbN8mD9f8AZWb0VOpcuEddh7K315Tsre8khcXXhjwx4Y8LA8KYUk1IX/spcXEltSXVudWrcqIkTqtza20lrR9k6lWFKTIV6dTq8qcn1VG4Tk6km2woqFNOtknLZp7yEd+yE0zYZNkEb2py29vUu6iGjyJVqXFeS2pLizUVrnZi+R6IR37HRiZLkHfc0ssZpsbQYJtImi2GUZBFQrb4OMWySFxLD2MiZIvM4R5cYx7uiBsy7IWw3w3wknjJPjORQUqXr7F5CueGhN/HhHkxZB8TNLDUDKsh8spTTxnm3y0q89vVxzIaaxQ9iVxahYyVIxnnmIkeOOoUVStTpwpS8MoxnzKWeWanNybNlne1bG5Qlums2m/YdXVIWNKtNPVqESJHgjpFRVubS1p2dHkyjF/MJZoRkm2bN8iWp1kq6SFakr2nsKpKEljRuKs1xUiRIkSJY2NRQrpidTTbbmynFoKMs8k1KfmRFmqjXdhfUlC29g4inPUnvIkxEmIlSeFOWyza5TI/iYqH4lqh+JSofiSqH4kqh+JSofiWqH4lqYoZBUVrne+fs+q1vHewmQ0e6vpokSJEiKih4qfjvhs3yW9z3fP2f2nd2HsJk9F1s4jEjEiLCm6JD8u2uWHry45aQskf2EV6Pf2GzfBYU4UZd7j+Zstrru4+vFMtfGqEkGw9hJoblv6Mba6FRShZ0p5ozTw/Njwtrruz14YLad+sQ9hsqo90o319JZUa9aa4q8m+O/yYlrd92Qidn1oyx9hsxtp57K8Tle9reQqkDyNUPI1U8iVDyJUPI1M8jVDyNTPI1M8jUzyNTPJFQ8iUzyJTPIVM8hUiKCpnkSmeRKhaJqpJNjtn4BI9htGv/HXGOoKOUVLa7RFTzK3/AL6P5kl/b1av7Tv/AKMo3XhLSjb1FCrjV34e/hHf9woVI0bJEy67qKMP5uTLFudKtcPVq6pR/Jj6IEf+Xci9eKtNco7jS/MXrqeyScQVbhUtv7Sb0s71YjkcP+i5dd6lxaz1aqVCNgp2FxC5thRvoJ9vHMaZ8ZUz4xpFrk8l1Xu7qFpbJ2Q01G54Kq3IlzpijKpW8Y6hRymlWrqa7RTyyymN1dekFDIKFlGOZVN2mWUqs1OpCpLwVOnUbWpUtcbUfMkvhGOoLNWouKnZ59Pw2b5Nmyb5ce+79juOuTZvk2b5Mp6F2e/R8jh3HY43x2b4bNjufZvjscbN/vU8zYKFeKkqWVvC2tsts/5MRvHUy8s6d7S+FbIjitjAWaNtbVsaSPD0lzpeLdV4Zh+tifTKn6dKr3F2nInmhSx22oV8hVI2NukI8ytPLj1nLKtY9Jb08WUpoVIR4KnTsIoS3dDGLmZFW4cMsU/LkxNTvD4r2efTiotql0pfDCxcE12r4vcJ17Io2kY6gs5ZVjcyY8t3sJ0peSiHyJl1JZ5P3yxkcbjHliylxbJql7V9TIFS6oZFD0zJVubC+vly8Ua0+LK8wnL98iX1OeE8tzcSWtGuuKa/cxxZWhCxyO/R76nNCeXhlHQez76Lh6GRZRBLjIkLirLXslvHoY+vSLNtEv1hWUr/AOFlatCVUVcZubW5lvLfKLmpaItlk1egiTIq9dG6tFJQcoqULXwa4uwvE5ZQjGV/zq3iWKpdzZcX61c22W1lFSyKtWxlYoSY7k9xLebFRUpJVrLfrGSzRxdYpQ+JL61tcLv69/ZfvOQXnhbHGbbvr6E8BToS3dmk3EbFRkmdDgvK0LCigJcb+4lg2C50zF+q8Mw/WxPplX5KUne3dGSFOnH0yKtGspJaxY2Nn8S2JcZBYVqKTOxUh6Cr07s7huObWE1vco6hKpWMRXnjkWSLNKWig9nn6BJQp0o/wMupU6yNgdSM6Zl6lGwSsMR5KFmepN6UrLzDJqVKWlJGXcFOn5dl8vy5N/DLJPl7QOoY6mSpycZ/aQ7jGq0bhGzy9mEJOkTE8zixlrJeIXcbpF4ZT0Hs9+j4X9xC0tcStPNFQnllnlS/9py3/FOhJSNma05KiRhVSM6NmHQcDsO/qaFD6LDkyS+U4Q1CtSlrUsZh4DJ4ifHecGRUI3OV2VpTs7czajC0WLap3tvlNaorL9jaU7K2MyTpLhM7P/oP3nK7vvbqlZ3jPDKJ4ZRKtCrQigXni08v7uSyt5YVl5RtLWS0oi50zF+qQ4ZhH+pxPptT5bLqcnpH0WYRgqUMUlr0vg4+DS1xWFCvCGoCp07s6+ZUspVCxwu9ms73IVLyxMwZObJkPRez36eeeFOW+y26vbnyXIb0U8TrWtjgH0HaFN/MkagncI+mP/eHDJ/uqBk33ZJ8ue9RofpGf9JxDoOYyzz5FBFyXXk2SlfHV+6p4ul3CRZcMp6D2e/RcMpi1DQrBUuaEUbJYnkuSljiypIq1astCldZXfKdzBEXrsWMWq2KfgvRcx6BgksII4o/Q9nnCPon/e8fRM+9y+++4cO0H9ZO6fZfz5vwyfoXZ99B+8XNaFC3pyzKSjRpS06bRplNl3tnil33dzGZsq2pTKd0hpcthbcFSl31ikXELNQkn3CabUMgvYXl/iXTKny2XU5PT/GUWcaV9jilLcWmzZLXknn4KnTuzv5jLLSdKVlxSjkV9Z20tnb5D0Xs9+nymrNSQ8AoyRsjM72W3R8B6dnllGtY4kpS3yXwj6Y/948Mn+6oemTfdkvpnnUqH6Rn3ScQ6DndtNRvUu9lv7LlynoPZ79FwV7fxadg17ChX3xzSrNTQ8Go05Ukzm+lpJmC9GzHoGC9FFL6Ls89SInx/wCcxEv73L7774doP6ib09T/ANny6SeFSUzO/hbJHZ99D+8ZTWnls8WsZvFQ43VGFxRlo1rG9X1Cr4WjC4oVPNlOB5upieqKFW81uC4iVLevbLt5aQioqKvMrpMbGXFZIyJtT+MtnQqwUpflFGwkUKFym3aXWp5Le05ai2oXpjVhXtZeCnDdh2f0Z6cRfTYKabhCRGFYX5Izo2A0Z6VuoWct/Z21e9xK8jnfeS3CbeqFnglKemn3FvJc0blIUcYvKefwllqZXfqsYbYhUakuXcMloVJsnh6ZHRqT5VL8uc0p51CjD/SM7pTVErE5IyIiumU1ayozqeJ14Z/I2otq67G0pzUbfhk0sZ0NHWb1GpfGimS5opFpVmubTIscr0bu0zavbS1M4qVzG6ajUrK6dBTsLC/vcVrzZzGtC+Sbq5TcIpzUkfL5IzoWEU5qaOKMN2WAUZ5IkRPoVIZtH0TKFSGaF7QqRzfhntGepOnQ1Y5KgQWaCdkF/j5PnUZ5blMu7yxwCH9D+8RlhElkhLyxpyjIRO7gd3A7qUhJCHCMsIk1lRnJaMtODYRIQbwZDkjThMRsaESWhTkIQ1xiSywhx1rhrZCGuE1OWpCS0pU46Naga2RsaE0ZKMlOGhsIcWwjwjJCJojLCPGMNmtcJpJZ4QsaBCSEvJE7uU7uUZKf40T2tGoS21OnwiT0ZakKdrRpDdkJdEYbIQ1w0QkhLxbDY2HBsN8IywjxnoyVYS21KnHNLuWgjYPbxoo/sxkS5co9WhntlPC5zy0khJbX2W39tQltqPsxPTlnhVx1OrFLHk+jGWSEkP8A3edmzZs2bNmzZs2bNmzZs2bNmzZs2bNmzZs2bNmzZs2bNmzZs2bNmzZs2bNmzZs2bNmzZs2bNmzZs2bNmzZs2bNmzZs2bNmzZs2bNmzZs2bNmzZs2bNmzZs2bNmzZs2bNmzZs2bNmzZs2bNmzZs2bNmzZs2bNmzZs2bNmzZs2bNmzZs2bNmzZs2bNmzZs2bNmzZs2bNmzZs2bNmzZs2bNmzZs2bNmzZs2bNmzZs2bNmzZs2bNmzZs2bNmzZs2bNmzZs2bNmzZs2bNmzZs2bNmzZs2bNmzZs2bNmzZs2bNmzZs2bNmzZs2bNmzZs2bNmzZs2bNmzZs2bNmzZs2bNmzZs2bNmzZs2bNmzZs2bNmzZs2bNmxw4cOHDhw4cOHDhw4cOHDhw4cOHDhw4cOHDhw4cOHDhw4cOHDhw4cOHDhw4cOHDhw4cOHDhw4cOHDhw4cOHDhw4cOHDhw4cOHDhw4cOHDhw4cOHDhw4cOHDhw4cOHDhw4cOHDhw4cOHDhw4cOHDhw4cOHDhw4cOHDhw4cOHDhw4cOHDhw4cOHDhw4cOHDhw4cOHDhw4cOHDhw4cOHDhw4cOHDhw4cOHDhw4cOHDhw4cOHDhw4cOHDhw4cOHDhw4cOHDhw4cOHDhw4cOHDhw4cOHDhw4cOHDhw4cOHDhw4cOHDhw4cOHDhw4cOHDhw4cOHDhw4cOHDhw4cOHDhw4cOHDhw4cOHDhw4cOHDhw4cOHDhw4cOHDhw4cOHDhw4cOHDhw4cOHDhw4cOHDhw4cOHDhw4cOHDhw4cOHDhw4cOHDhw4cOHDhw4cOHDhw4cOHDhw4cOHDhw4cOHDhw4cOHDhw4cOHDhw4cOHDhw4cOHDhw4cOHDhw4cOHDhw4cOHDhw4cOHDhw4cOHDhw4cOHDhw4cOHDhw4cOHDhw4cf/xAA0EQACAgECBQEGBQIHAAAAAAABAgADBBESBRATITFBFDIzUWBxIjRAUmEgIxUlNVBwkKD/2gAIAQMBAT8B/wDDvZclXvGe20funttH7oMmpjoG+jOOa7RNxm4zh5JyF+jOOe6OeB+YX6M437gmnLB+OsH0Xxv3RNJpMH46/RnGXXQDWaibhOHqWvGn0Xm5i4qE+svua9tzcqaja2wTBwhjL/Msy6qnCMe5gOv0Rk5K467jMrIbIcs3JELnQThnDxSu9/MzMtcZNTL7mts6hnDOIbx07D9D3XLQu5pmZTZLanxDANZwrh+n9xxLbBQm4zLyTkvqfE0iEodROHZ4uGxvP0LbYtS7jM3LbJb+IeXDOH9U9R/EACjQS6pbl2tMzDbGb+JpAJW5rbUTBzRkLofP0GZxHLa1inpyMw8cWsC3iJbXWu0T2lJ7Skuaq9drTIpNTdvHOm1qm1WYt3WqDfQfE6+nef55UUm1tJWgrGg56crKxYNDLajWeSjUiYqbKgPoPjFXYPKkNjaSmoVL/XYgsHeX0mszDr6lwEA0Gn0Hn0m6rQTHxDWNdJsb5TY06bTptOm06bTpmdMx8bqDQiYGG1d2pH0Lp/Rpz0mk0/4CycuvFXWw6Sq1b0Dr4/Skgeeev+7Z4PEMroDwJwWwpux29I7isbjDxTFHlonEsaxtit3jZNaMEY9zyGRWX6YPeW5FdJAc6axuIUK+zXvLciukbnOkXimM50DRWDDUSwkKSJw/JZyUfln3mmv8PkzDYvSC01mvLUTKJ6iATUcq6yrEk6zWajlrzssYZKoPHPcOWo56zUQEHxLELEEHTlry1moPj9dk2imsvOEKpLXue5mQwxM9bF8GfhsXv4mTjYlKF2UTheGHsOQRoPScQ/1CrlQf8zace131ATHwakUMw7/ONamXmEXHRVmRXgNWQpAM4LebaipPiW+4YiFaxcvpFYMusce0MzegmD8ERsbcfxGUsarulrqJdYz2dJIMQDvqZn6goBPZSw1J7zEsY6q3pMZ2NjgxTbZkMmvaX0mld6HxHv2U74lHUG527zHdktNTHX5crPzi/blk2kMK1PcxsUaa7u8xrTapB9IcYN3cylilvS11Evd/aRWpgq6KE6zFVr01Y9oVbGuXQ9jMpyrLp85n2NWq7fnBjdRdWPeYjsC1Td9Jq2VaVB0Al1BpQtWZiMbKgT+t41cSq46+WlXAwFH4zMzg5qrNoYkicNyhdjgn0llh4nk7F90RFWsBROKf282pz4gYbdZhuLOJsRONfFq+8XvXKMeps10vn+E4nqJjY9WONKpZ7hmGu6jaYLjSpp9fSCvpUETGbbj7pTWb13uYta15YCxDsyjr68szu6feekw/iWTD+I/3mP8AmGmZ8Ey9d+KsTERlBBMrxUrbcD35Wfm1+3LLrVshd09iX9xgRcVCwlNJvXe58ytETL0X5Q/nB9pd7hmB8ITN95PvMz3kmd4T7wdhKfjvMIgFlPzmUwSo6zA+CP1tnDxbki8nxANI6B12mV8LapGRW7GJwRqvh2ESvhtyNqbDMzBXLTa3mV8LvX8Js/DMbhiY15uUzMwRlMrE+IBoAJmcOTKO4djBw3J8G3tKauigWMu4aSmrortj4qNaLTHXcpWV0hK+mYMaxOyN2iYgVxZr3l2OLe/gxKbh5aWUdQqflyqoFbMw9ZVR0mZvnK6em5fXzLa+qu0xagK+mfEXGsTsjdpVUU7sdeV+KbXDg6QY1oPd5bQLV0Pmez2gaboKhs2nvFxbE7K3aJihLN4ho1t6kddw0lFXRXaJdT1SD8pdQLSD8pdR1tNfTklOywv85bi6vvrOhl9LdMmxtZhjSofRr13btVaez2W/EPaAbRoP+tb/xAAxEQACAgECBAQFAwQDAAAAAAABAgADBBESEBMhMQUyQVEUIjNgcSM0YSBAUFJwkKD/2gAIAQIBAT8B/wDDuqM/lE+Ht/1nw9v+sNNijUj7M8L8545wHIP2Z4X5zNeGb9A/ZnhXnPHN+gfszwvznjmfQP2Z4Up3kzQzQzOIFJ1+y8fHa9tBKaVqXavC2wVDeZl5RyG/iJQ7qWAnb7Ippa9tomPQtCgLwYhRqZnZhuO1e0opNzaCU0itNomdh7PnT7Hrqa1tqzFxxjr07wTWeI5u79NJWhtbaJi44x14EbhpM3DNJ3L2+xVQu2gmJjikfzBAZ4hnbRy07wnWV2GttyzFyhev88XQONhmXimltR2+xMLHVV3wQTJsKJ8neNj2sdTPhLJ8JZK6bqjuEqsLqNe/G2sWLtaX1cpyv2HgNvrHBnCCM+89ZrAZrD1isUMRw/A9pc29yfsPwx+pWMwQayywuesHHWHgrlDK3DCZT8uomH7DxLBVYCZfkizoDOYvvOYvvOcvvOcvvOYvvOYvvOYvvC6+8W8Ke8zckPXoD/yhVS9x0UR1KHaf7XTX/M4x+Gp5nqZnLrpcPWKCToJ8Hf8A6xsW1RqRBWxG4DpwNbBd2nSIjP5RBj2Fd2nSJWznRRDiXAa6TsdIvcTNpRQHThh1LZZq/YTKUJaQP6NJjgbH19uLuGAGmmn9aoDjl/546cNP6ksCggjX/B1pvYKJmnTSodhKgb8YofSdVPSV2XWMFBmXeUXkg/mY37V+Fn7NZ4Zp8+ssyHYkA9IFbHxwax1MqbJVwes8QrCWAj1ieYRyDa1R7GMpU6QfpKqepmX9Yxb9g+USzS2rmaaGVIq181xrDksRpoJhgEPugyCh0A6TJQDRl9ZegVFI9RCESlX9ZTcLm2OO8SrdbsjXcs6IOkuCvWLFGnvwr/at+eFNYILt2EGQddCOkyKxW2o7GC/Z0US0B6ubpoZUqfDl2HrDbzCARMgrS+ijrARkVnUdRMdAwbX2mHWrsd3tOfsOijpMhRoHUd58uPWCRqTK7ha4W0TJUJaQP73w9BuNrdhH8RJbyiY+fucKw6TKqNdpAiqMSrcfMYdWOpmIN2O4E066S9SmIoM8O8r/AIh7y21xjo1c+Nv95Za9h1eL5hMo6X6iGsXOLfT1hffcDMgbsgrLHFJ2oO0Z2fGJaP8ANjLp6cMXyWfjhk+Sv8TI+mn4lv0EmN9VZSdMoxslgSCBGvZ12ntwT9q354Y7kUMAJ8UfYQu2Q4DSy3kttQR3d8XVveD9qfzE8wmX9UzG7N+Ji+V/xMTu344XfRSZfUKw9pQC1gAmZ9Zv71MnZUawO/AHQ6iPmB2VmXtG8QD+ZBHykYaBBKL2obUR8us9QnWWZTW17DKMg0AgesPUyjKakbT1E+Kq7hI78xtYDodZa/NbdEyHSs1j1inaQY9hZ98N6P1ZesbILJs9JVc1fTuDGsq9FiW7AR78Hs3gD2llvMCr7RrCyhfaI2xg0LnfvHeG9LOrr1juG6AacKrwilSNYb69PJK7TW2ohtqPXbN53bhGyEfqy9Y2QWr5ZnN/T5cB2nWWvzW3Suzlg/zK7eWCPeV2mvX+eDWbkCn0iX6LscaiVON4FQ0mSdbT9mq9WmjCC9Kh+mOsJ1Ov/Wt//8QATBAAAQIDAwUKCwUHAgcBAAAAAQIDAAQREBIhEyAiMTIzQVFhcHFyc7HRBRQjNUJSgYKRkpQwUKHB4TRAQ1Nik6IkYGN0g4SQsLLA/9oACAEBAAY/Av8A8QopJWapNNUbavljbV8sbavljdD8sbZ+WAy0olZ4uReY6ZzkdBXIvMdNWcjoK5F5jpqzm+grkXmesOcjoK5F5nrFZyOgrkXmusVnI6CuRea6w5yOgrkXmusVnI6CuRea6w5yOgrkWU64q6kQ67WgWsqjajbjajajagzX8JIu14eRVTjirqRrMYaLKdlOdd1NDaVCW0C6lI5FCpRoBGTbNJYf5ZyWmhzn1YS02Oc8NinXDgPxhSJojJrOH9EVHIhU4QqXYVRlOs+tnJbbTeWrVARrcO2qxTizdSkVMV2WU7KbEykyroLPZyIGVlzoemob+cABUngjKODy6tfFZUwZdk+QQcf6sxMpMK8qMEqPpchypaXOl6as8TT40/RSd60ycudL+Ir8s0KBoob8ZF8gTKf8uQwy7J8qdavVzxNvp8mNhJ37ci0f9SsfKIJOs5yXEEpUk1BEUOjMJ2kchWTRi8fwgqUbxOdfcH+nRr/qgJAoBaqZl/2kD54UhYooYEHPQ8ybq0wHBRLg20cHIRQUyp1CFKUaqO/nBNKNjaVCWmxdQM0zMsAJkax68FKgUqGsHPDzJx308MJea9qeA8g1TtbwhS1mpOclpsYn8IS037Tw55mJdNJlOsevCkLF1SdYOelxGLZ20cMIeaVeSrkFcvqxBpnKUrACFiWYZuk7SxpRucv8p743Nj5TG5y/ymNzl/lPfG5y/wAp743OX+U98bnL/Ke+NzY+UwHX2mkK31NjX9g+2FeQuVKePkFv7yxnZNB8mPx+zorZz3XyN0VT4cgqXPVOaWGjhvq+1uq2c6WbpQ3KnkFeTSujmZFs+UOvi+3orZzJdn11iAOQZ1r1VGyg3U6ovHX+4UOzblfRaRX28g4XvLTBWdreEFazif3K4dmx58jdFUHs5B0PNNLeUg7LaSpX4QVq8GT3EPFl4fhHmue+mX3R5rnvpl90eap76ZfdHmue+nX3R5rnfpl90ebJ36ZfdHmyd+mX3R5snfpl90ea576ZfdHmyd+mX3R5snfpl90ebJ36ZfdHmyd+mX3R5snfpl90ebZ36ZfdHm2d+mX3R5snj/2y+6PNk99MvujzZPfTL7oCVeDZ27/yy+6JZsi6oJqocf8A5dFtNtpUlO+YvEAKBoQPustoeQpweiDj/vBxzgEOUxVS+YyZwSvt/eX1p2koJHwhlM04FNK0ThTNSGCA8s/AQ+X1XilVBh9nMc6824yXAiouBOzCb+1TH7WYebN1aU4GH1zCgpSV0GH7sEKLhRlNNJGjd/2M2wDr0jCnVfxINN5V4QhwaiLC6oVAjcV/GNxXG5LhLQZXVRhbpFborGSShScK42oSpBXe4IyqUlONKGwNZJWJpFDpL9UQhrIUvGla2Xa31+qmMJcfGLryS0eHei8DUWzPVq7IcmEamqV9sNr9NOirnzJxxG4y6CRzCJrpj7OY51/uc30Ymet/If7brCqY1N1MIbHoiETCd7RMLYJ2cRZk3Boxsn4xsq+aMlLjSG0axl3R5RWocETHQMDoG2X5jHvGDCXOBVYM1NE6epMIdQFJUg11xcb3RerigrWSlrfPDFMik84gvS+FNaY8WWcNabZnq1dkT7ShoqSkdsPSLuCVmmPDvWqCd0c0RE6+oeUeZWfZSJrpix6SkGruTNCuLzs9RXTMJyzheZPDiDCH29lYs8U8Goyjmq/r+EX35woJ3iqL7L6nkjeSa/gbJt1w0Sm/BVLnxSU9HjjKtzSnVD1VmseKTW6gYK4bGWGn1IbN3RFkslh5TaSnG7zwqU8GDFO29wRfM+SvpmBKz95aNRvejAUNRhTrhupSKkwpnweMkyPSGuL/AI7VfSMCU8JVWg+kdYgKGINs30Ymet/IZmQZGUmTvcEZR6YLNd6tIy4mC80NeN6K0uup202Pysg3cQ2q6Vjvi8ud0umYSiZUXmjvKNajiMIdRilYqIecaUUOClFJhskmYnXVkNg4xlVzFFa7t+NM+WS1ieOkTT028p4poEIO+Yyi3fE2jqRepHjAmFOIGspNYN+gfRtAdtipZT61M31aJsyPjCkywUmqa4aoUjwd5CVTgXeGMoicK18AWY8Rn6lRN0KVrB47C86eYcMK8XJYZr6OA+MXkT1V9MxNSk7VqbS2cm4N+HVTDinFBdNL76XjirARlVam8fbY43wiEE4Y3VZl1O6r1RlnB5NJrzmyY6Bj3DbL8xj3jBgI4V0gAYAWLx0UaMNt5UVAxwjdfwMKRldY4DDBB9KBZM9Wrsic9384Y8INCnoq596GnxvjHnsRLI3Fo074m0JFEhhQHwib6YsUUpAvG8eOx6u0MRCkk7K4UEmi3NAR424KvO6jwJzFsnZLyq80BKRQCxot6IUtKvjZL+5ZLdD84aRTyhF5Z47JeYA0gu5Ess67tIZk0na0jDbY2qVUrhMa4L/psmteKG660aFs30Ymut/IWuunUhJVD8+/pUNRX1rCDiIVLp3NRKaWaCQnGuFilYXkEEQgH0SREx7O2HJleKW9BHFY/wBBUX3NJDOlTjsKVCoMOS4OjpCxfTXYtkfxFITCGmxdSkWMPIwKxX2iG1eskGG5FKtBNB7YQ00m6hIsW9QX2dKvFD3WffSWRqRF5tp0JPqgxsTHwMbnMfAwMqhSCfWENn0k6JsU4s4CN/H/ABTCW0CiRZMdAwOgbWOYx7xgwz1lr9fWhKw8cRwRu5+Ebur4Q25libprqtmerV2ROe7DrB9IYQ94Pew3xzw67XylKI54cnV7TmAid6lXZE10xBUTQCDL+DGSvGl+lYq7O5EcF7uh2YfnVOlCa0h7rIkxvaRiXp/LGY/zrtludHbYx7kCJXofnCeaxrrh2GJb29sISk6V1ITGE4n+5+kftg/ufpBbdmkOIOtJc/SFtzF28V3tA2zfRia638hbNdGFKkHw0iuNVUxj9tH9z9I/bR/c/SGZqYW0uiqqN/HsgrWbqUipJgs+DGD0iKx5edyfMvuhyZdmy6pO9HvmJj2dsEjfcNj/AEFRNey1zpqsX012I6xHZbKcyol+rHZCq/zFWzvVGJjrfvlaz6IrAB1urxgJAwFuVTrbxhTJO1qisZJvYBoOOMd0VtG15A30mG3FYCt0wKWaOKUaIj3jYz1luVGpyA0T5RG9aUhQKhrtmeqV2ROe7Yz4RaGCjjzxKyjGLZp8TDbSNlApE71KuyJvpiJkp10pEw76Zdu+ygscRXTd0QId6yG3wK5JWPNDYrpt6ChmP867ZfnR22Me5ZK9D84TzWNdcOwxL+3tiWm083tENvJNQoZ030Ymes/K19r1kGHpReipWkMx276RAMZQbSlmpsDFfKOqj/qGJj2dse+bH+grsib9lrvWLsX012I61H/zbK+9Ev1aeyMsdioX7IBGo2LarpvaAh/rPvkNIBJXrpwQp5SSLooK5i0HURSL4QoltfBDaGUKOUFTQb0BaW1BY/pjWv5I2l/JDSVqXcJx0LFOtIK21Y0SNmLoVUDeWIySahKvVFIlkISVLNbygIooFJvGxoltW6cFpQofpFReH/ERFDdVxqTFxFfcTDi39pfDbMgfy1dkTd5CkbO0LHWqaVKp54cmXEFNzRTeFk4AKnIq7Imr6CjTGsQ4wvUsUhxKmStk6+AxRqScUvexian59JvXPJM8EO3kFHlN8QptYqlQoRBmJOrrPFwccUelFhfEYyUhKKRX0zjGMPqLagnTxpbLkIUpOhiBZLkIUU6GNIESpShStDeHHCeaxu4kq8sNXMYlwQQab8KYXv6jwGFJLZcl/wDExjKOXueMlJy6pdtWtf6w2hRqoDE2zYAJNzehbbcoV3je0gY/YR8pjGS/xMNOLF1SkhREePSAN7WpKdYPFFyclipY3xhF2VklFfHD0zP1F8UQgw6wfSGELZdYKmidX5iLrEk4pw6hEzPzqSqYI8m36ogBQKTfOuHwkFRw1c8AKBSb6tdj/QMTd5Ck6tYtdVk1Xb68aWLUW1Xb68aWIVcVcyqNKn9NstcSpevUIYB3mx2QFIwfRsn8o8Xmpda0J9beijEk4pw8MTfhDwlths5Ns+jD/WffWGbqjVZqjVmYtpPsiiQBmaszGNyT8IwSBm4fYUIBiqW0pPELMLalpBPGIolITzfY4iudQisbkj5YwGbqjVGq3SbSrnEaKEp5hbRSQrnjRbSnmGfgPssbdJIVzxVLaU8whxv0ndECEqIplFFXIywptrKMqBv4R5VLjZ5qx5FDjquakBx1Jblhv7w5oS2gUSkUHIzRQqI0pRv2CKplW68YrFAKD/1Rf//EAC8QAAMAAQMEAAUEAwACAwAAAAABEXEhMVEQQWHwcIGRocEgsdHxMFDhQGCAoMD/2gAIAQEAAT8h/wDxCcIs+cZXuNP8w/th/dD+9H9mF54bSbrYT+Cu8Ntf7i/UX6htjb7Db5Nx6QR2+CmthtP2pSjY2Nj+p26dvgpuD+t3GyjY30eg4+C2+P7HcpRsfQ/udvgtuD+h3KUbKNje52+C24P6HcpSlKP6nb4Lbo/sdxvrRs1+L9gXwV3RvQ79Rspobj2nwW3xvZ7lKXr6jj4KqxPpPVsSCYE1yyf6E/0J/oJ3/Ilb0b6GvlMoy3PjkVF8EmJcJ1j2JOm8nl/qTUThfGuMin8RJE4LdmL4IqyLVt7JDzZWkl38sb/QvJS7WuFOWSBJdjVuX0RvStF3bskL4NfS+RPwLVMTT7o1F8DkPYkWrbH5HYvu/g8fpeWZiIXiLJw3f8Egku2Y+yGh621f7vyJ1syiB2c+4Umh3nwMb4EpVjm0to39C8DS4Guur2GBnEklrvgW1mnd28ISFvYklrWMAqR13/wbS7iZNa7O0hyVU28ZHve/Ax4NThSey4Q02q9xRofTupuIXVaqm3nIsWg4xyaF7aJ7Lh0XpbHonKl7MU0VmPK8lC+BFG4bXRpdn8jN23W+WNaijGataIfqgaDfy/AiH7GyEuWeg/cYwJt1bffopSjdEjzMtmKbUpvb+V4E/gO+j+2XZdvI/C1W3uxNdheljRfxMWTgXSSiS6MUoJahdkXbPkY0fh6piZSlGNJZKd+Vw+TbZCm7+OhfANlY2MzW3bt5Y5e7W29GuReu0LQzyfGv5Em0YkidWtBagXY0T8Mb1KI6p/oFGymhlbj0XhjIN9Hb8TF8BGMTq1l3Y3pvmxelevWszV9k5YpDZVu7d2xKfpaoqctUaJOH58jqLERjTHoUvVDgW5KaL/IpMldHs+H56L4BbNBCvbELZInp3jHcOalrbNToVTb6Msc9u/J7F+esyJ5jpCj7vveRh1KMl82upCKP58/q2wWQjhtejX3Fj4BMZohaN3ytH+Oi446THSTbcSWr4GvaT+z3c9EJ+RdRhsY4lGMdOb7fAmmqnh/p01vBESzNPdaP3vwDY9hSfebc7P1Dp79fe3U2Be093wXXoTOwmUpejGeBsan7BNKmnVz+j5CX6Iry9X+/wFiSPTSfK1Hrgy2OXZzp7Mm81vkpRFKUug2Xo2Pk3kJ1/aJpU06ns+rFasTxdfsmLSKJKC+AinLkaxRqK8dvtGNsYtVOjjyMT62rb7voQulKUperZeijmvX+wmlTTqfc2LzKtVw2i/PwGdiULdbd1p/BqEtpzsu1YXohC/QUvRvpR9GfYe6bXe/BRJpprkVqAl07f9P4DN6E4P70nwkbfYnKbaAgbM+cjcZ6wZd4Muoj4Y5eugFif6MWBQinTHxVfYEY+4T1cP3egNGdWFGm1d+ovgKyBQQhCEXBCEIRdIT5mhCGhOjSEjv8Bd//AAIT9U/+TrfS/BrUByIJV7jXPMCon/49LSi6s+wm32F/hbiKnEq7Sb6Cd6MpS/5ayl/8RuKnyCf/AKGxsW67zXljpZoZrH2o2o/oEL+p7CO36G/1Ppp+hoUb3DTDop7CG9mOkqF0hprTNqw3f4J/4giin+NU0Aur0QmQkXdLyO/SOkef8jEm6z1Y6WZrlEUTE9f81/U7TzfsaIRNCd8+Q/W/+guwXro0PC2J81bTCNd6Sse53/0Ufdk0Qm9PpBf9dHB9RE9cK1aeRuZHMkKLo2rx/vq8RK2uMJAFYJr/AALchztsSqj1p+XgeuOg3PsN6nYZ2ZPozaQuHrF1k7VQvJOVTQunv+QpWtn3XY/r+4l2+x+HtKUU5tqLejGnfO0Pyz2nA3oXyTNWhJyUr7lPlJ7M3in0lD2aE6Mim2pS6eCRLqUpX4I5EU+u396ro8lOjG9BpyhI9oXp5kco1mSlDTs0Xnoc7sSiY9URdobFfKKeU+pXSnk0R4E24r/3MEtZ6IZKvTy42RsyKRpxq3yXt75Nz5vlvt7yJDU42abScH+fs137wR9abh68ELSmotnQnoPHR7HufA+knmAuGtoHOk1UPt2JzyNbT+ohs7TcOS02aG75O363s/qKce+59vA2XRqdvBRdPZchBJtCyG3ab+4+aNgy9Zdd1V3Zp2YTSfye04HRrdIdVvzXohyOPWupC9gbPDwm9mNmtiXHKFub2G5K9Kt3h3yboGWVfJbEjXs/+0Dd28FbH3bZYekZuNObuxoSGz94H+DYb1HO6a5Ng3x9s0deprvwNjaaNu+RfsqLVTeH/Yn7xRo1NUQqmvg0+6Gs1FT5F6WzPZDlrkehPLb2Jw+7GSlGCSVocp90MJSCaa7o79Pb8rpYuj0EN09217N8vwJE5qd2XyWxYOaqZPmn+52mdZe68G1lG1LtauW2wh0en3DgrYn2Bj4ojDln4C1RrUN6RPfAgufodk18lohUXJhseqCmnDVs4E0c1Km0YQkW72YXlPsIitZsGuBoFKClO0iTg1oKjWExDpjZqadH87/ZDQntYDYkMicS4HIVdiUhLRG7cIkgYrQ8Pc2VcXql3PmajQFI27fMiMAbWKLov9u9i3UK+sUdmi8iG0c9rXjfZ9h4bXQeGLS+jcLG0GvHyat2oMlpUh7zg9jyujPUeDZDUdX2sxTTtCSSPILN6BIuOR0UbQ+/fsafu+w6FWU/5DdInFXdG8Eev5HygVGBNMXZN34Hs9pOE3GSVHRN0X203/gUKURdlZ6zgaqHClzUt3Jkix1FbdtWxcwnpaljRonqk9/sLSiOosCQoaDQ6FrtcL4MRCWiSWwqDVLiUBSwfQ9hyJpwfI3sJcpbnPq/psNXuR01h8ppv8DVLqnjT8DF6OpvfWJCd03TlG7KgrCUPPTjX3QkXr2zvG3X3/K/Qtu3k+SELHnDVr9kJJLdQkixRpj0DUK4aqv2E6graQNmSbt9xolqxkXVHfeP7Ma42ktfal+rsOF9X3PVtfX7iSDT2tGaKk9Tv2/liJJCBybTT7oc/qb8LboRD6JnYalHU4qQpOmSSRNNSsa1muTcZ/2xVGCkxKT0rdiYkpJER2E1+4h76tkdhf7duIujRr17slJzU9YngpuYwTV7hyTYpw6rV7td/wA9IXl/Vmst2t9gkYqSXRPc7Dp23f4Ohmm9077o2+htWB+5s9HkM4tBk5/Yj3/kaP8AilcpUTqROnv+R6ORbqd0z7Ps/qPUqtD7JuvyR6GbM2HJtbV7zu/mz0PI9ZwKJKVt7JDyam3J+UtkvLItWdutfRDvoLTT+rGTlrq1+SGeKd9l+WKj2fhJ03Og102gNiNfq3PsDZ+YWS4dRmFp+4SwM9biTbYomg7ax/bxAkdCMa6UJRqRePB36e/5XQZdGsrf+Zs5RsZ/QzYPqR/bQ2OrpN0E7eEBDAxJzWs8JZFVZfba+hIXYlO609fLLqs9L/WgUxGy/Oy/B2PTcMht4r/2I3jQnpnuuDsJV+0GzoupP7Eeh4EOQ5qYTO3T2PA19GyOwv8AbUcnExhWFo8EKWJSSRHA0uyJWg7Zw9xmlS3V3X/BVGy11F17cinv5NqHJ/jNEWjN7LfYeRDUdk9BDjJpi3NtJLkf6ionvyzZDfPtH79F8hZU4LblCYc4+S7MQcLU1pwonsLp73kezkewxFG47J/KGLyO2vmXCF1RFDfetHuOBy0ZaXDaTGEjsPhGJfdm2SA2h3e+o97Wr9kcLIV3eokVPV6qbP6CY2PqNh6UXVraPuf3G3gX6sP9J0fWE+x/dEEaRM/JRG5O9Hs+66beBNci6f8APyjR57+wrL5RykoswcEmovu1uLQNlVmgvGnyc3qTKtstdHEjbAiaQReFq2KlpH3vA2vfUp6rkPoe9xbG00z0hsZr9/Q7H2Z9gtl0X6P4Gr0NAzjxrNq2j/I4BNFTQ3oS0WgeO795NPu2/wBux7ODwfyPZuNp7oRrV7idHsLBrzIr3PVPqkx1pqDKuBtrcbuCQiXj/g878v8ABD8KqNMwaz5GXgr0IQd5ia/InL0R6SeWKQ41KvQTNiBqCNq8CQBJNW/JoTpcg+z5ckBw2RoJ2heZ9mSmpVqvzCbmotJq/n1esVvQ+YfyxqdC7j2NQL5Qmw7+aKDvc0GDnRSVb1aGtBQ0Lp5ESV3V24H5BTRJw5T5F212NN/lqIeFlS57zsId02aTl2Qpe0YXYQBbrFXgn5FBEaOUvzE2paqbL6KLJTmmuR9pPVaP5i6ILh0y0teRYosOnoO1uV8gVwKVc9RoL4dFWyTGlugKNJqljWrNMXdLAx9hOyN+RNbM+golEfQFBppZLT5EyVqm77i36PBNot26F8jXcKdunLD0R8Q2xbWw3Nr+tzlgWdNW9eU0a9Norb+yQx5SWEmt0XbsM3j1nD7FLAW2ib5NuxskMx3X5C7R1Cuy7LYqRHEg/SdCWvYbVMSx79GIpV7awx3KG4sruKi6DmodydptyJXQrY3l5tyRtIXRyMhpsFt0c+ibp/sS5HSvkJ2317ruw+2vpaGnh90Pe1BNV9lqXyUJxPzOw9bP9Edv9u0jdVTYSROj1IMaibVGeJdF4BsCRKhRrqak25kl2+EPcpMX2EFewTbpDSkq8mqtr8qLfpigjZ1RNRo2ROqRODsNU1VFbFMEJ1vlU8sQWjbBJDQLYaJrseZMJZDo4SEC2C+wkQblaVGtBlqlcdE+GSJ0RuVEmxTpEpOHqIu6/MC5JCXBOsSMSuwTOwl2fQSEtamqPuVs+1JIi7CDKkcJTVH3jQ0SNacCtqErGqhe1To0ajWhtAsLo0byK8kNaxUUNxNeejRsK5RFIeNCIVcJS4BytFEaqs7bv7I0ykF42/B2+C75N9nA2j0mq27iAuH6H2G3QOicD5cbDxW7ITOQuEbfBeDem7s1Rw3S93H9haRps/yhfSRskokJf/UFpSlKUpSlKUpSlKUpSlKUpSlKUpSlKUpSlKUpSlKUpSlKUpSlKUpSlKUpSlKUpSlKUpSlKUpSlKUpSlKUpSlKUpSlKUpSlKUpSlKUpSlKUpSlKUpSlKUpSlKUpSlKUpSlKUpUVFRUVFRUVFRUVFRUVFRUVFRUVFRUVFRUVFRUVFRUVFRUVFRUVFRUVFRUVFRUVFRUVFRUVFRUVFRUVFRUVFRUVFRUVFRUVFRUVFRUVFRUVFRUVFRUVFRUVFRUVFRUVFRUVFRUVFRUVFRUVFRUVFRUVFRUVFRUVFRUVFRUVFRUVFRUVFRUVFRUVFRUVFRUVFRUVFRUVFRUVFRUVFRUUpSlKUpSlKUpSlKUpSlKUpSlKUpSlKUpSlKUpSlKUpSlKUpSlKUpSlKUpSlKUpSlKUpSlKUpSlKUpSlKUpSlKUpSlKUpSlKUpSlKUpSlKUpSlKUpSlKUpSlKUpSlKUpSlKUpSlKUpSlKUpSlKUpSlKUpSlKUpSlKUpSlKUpSlKUpSlKUpSlKUpSlKUpSlKUpSlKUpSlKUpSlKUpSlKUpSlKUpSlKUpSlKUpSlKUpSlKUpSlKUpSlKUpSlKUpSlKUpSlKUpJJJJJJJJJJJJJJJJJJJJJJJJJJJJJJJJJJJJJJJJJJJJJJJJJJJJJJJJJJJJJJJJJJJJJJJJJJJJJJJJJJJJJJJJJJJJJJJJJJJJJJJJJJJJJJJJJJJJJJJJJJJJJJJJJJJJJJJJJJJJJJJJJJJJJJJJJJJJPwe/8A/wD/AP8A/wD/AP8A/wD/AP8A/wD/AP8A/wD/AP8A/wD/AP8A+BgYGBgYGBgYGBgYGBgYGBgYGBgYGBgYGBgYGBgYGBgYGBgYGBgYGBgYGBgYGBgYGBgYGBgYGBgYGBgYGBgYGBgYGBgYGBgYGBgYGBgYGBgYGBgYGBgYGBgYGBgYGBgYGBgYGBgYGBgYGBgYGBgYGBgYGBgYGBgYGBgYGBgYGBgYGBgYGBgYGBgYGBgYGBgYGBgYGBgYGBgYGBgYGBkZGRkZGRkZGRkZGRkZGRkZGRkZGRkZGRkZGRkZGRkZGRkZGRkZGRkZGRkZGRkZGRkZGRkZGRkZGRkZGRkZGRkZGRkZGRkZGRkZGRkZGRkZGRkZGRkZGRkZGRkZGRkZGRkZGRkZGRkZGRkZGRkZGRkZGRkZGRkZGRkZGRkZGRkZGRkZGRkZGRkZGRkZGRkZGRkZGRkZGRkZGRkZGRl8Hv8A/wD/AP8A/wD/AP8A/wD/AP8A/wD/AP8A/wD/AP8A/wD/AP8A/wD/2gAMAwEAAgADAAAAEPPPPPPPPPPPPPPPPPPPPPPPPPPPPPPPPPPPPPPPPPPPPPPPPPPPPPPPPPPPPPPPPPPPPPPPPPPPPPPPPPPPPPPPPPPPPPPPPPPPPPPPPPPPPPPPPPPPPPPPPPPPPPPPPPPPPPPPPPPPPPPPPPPPPPPPPPPPPPPPPPPPPPPPPPPPPPPPPPPPPPPPPPPPPPPPPPPPPPPPPPPPPPPPPPPPPPPPPPPPPPPPPPPPPPPPPPPPPPPPPPPPPPPPPPPPPPPPPPPPPPPPPPPPPPPPPPPPPPPPPPPPPPPPPPPPPPPPPPPPPPPPPPPPPPPPPPPPPPPPPPPPPPPPPPPPPPPPPPPPPPPPPPPPPPPPPPPPPPPPPPPPPPPPPPPPPPPPPPPPPPPPPPPPPPPPPPPPPPPPPPPPPPPPPPPPPPPPPPPPPPPPPPPPPPPPPPPPPPPPPPPPPPPPPPPPPPPPPPPPPPPPPPPPPPPPPPPPPPPPPPPPPPPPPPPPPPPPPPPPPPPPPPPPPPPPPPPPPPPPPPPPPPPPPPPPPPPPPPPPPPPPPPPPPPPPPPPPPPPPPPPPPPPPPPPPPPPPPPPPPPPPPPPPPPPPPPPPPPPPPPPPPPPPPPPPPPPPPPPPPPPPPPPPPPPPPPPPPPPPPPPPPPPPPPPPPPPPPPPPPPPPPPPPPPPPPPPPPPPPPPPPPPPPPPPPPPPPPPPPPPPPPPPPPPPPPPPPPPPPPPPPPPPPPPPPPPPPPPPPPPPPPPPPPPPPPPPPPPPPPPPPPPPPPPPPPPPPPPPPPPPPPPPPPPPPPPPPPPPPPPPPPPPPPPPPPPPPPPPPPPPPPPPPPPPPPPPPPPPPPPPPPPPPPPPPPPPPPPPPPPPPPPPPPPPPPPPPPPPPPPPPPPPPPPPPPPPPPPPPPPPPPPPPPPPPPPPPPPPPPPPPPPPPPPPPPPPPPPPPPPPPPPPPPPPPPPPPPPPPPPPPPPPPPPPPPPPPPPPPPPPPPPPPPPPPPPPPPPPPPPPPPPPPPPPPPPPPPPPPPPPPPPPPPPPPPPPPPPPPPPPPPPPPPPPPPPPPPPPPPPPPPPPPOPPPPPPPPPPPPPPPPPPPPPPPPPPPPPPPPPPPPPPPPPPPPPPPPPPPPPPPPPPPPPPPPPPPPPPPPPPPGkOGtPPPPPPPPPPPPPPPPPPPPPPPPPPPPPPPPPPPPPPPPPPPPPPPPPPPPPPPPPPPPPPPPPPPPPPPPPPBKXYVPPPPPPPPPPPPPPPPPPPPPPPPPPPPPPPPPPPPPPPPPPPPPPPPPPPPPPPPPPPPPPPPPPPPPPPPPPBfDT1fPPPPPPPPPPPPPPPPPPPPPPPPPPPPPPPPPPPPPPPPPPPPPPPPPPPPPPPPPPPPPPPPPPPPPPPPPPNKJPPPPPPPPPPPPPPPPPPPPPPPPPPPPPPPPPPPPPPPPPPPPPPPPPPPPPPPPPPPPPPPPPPPPPPPPPPPMnPSnfPPPPPPPPPPPPPPPPPPPPPPPPPPPPPPPPPPPPPPPPPPPPPPPPPPPPPPPPPPPPPPPPPPPPPPPPOLjmimfPPPPPPPPPPPPPPPPPPPPPPPPPPPPPPPPPPPPPPPPPPPPPPPPPPPPPPPPPPPPPPPPPPPPPPPOHyAhjdYdPPPPPPPPPPPPPPPPPPPPPPPPPPPPPPPPPPPPPPPPPPPPPPPPPPPPPPPPPPPPPPPPPPPPPPCLwhaGZlmfPPPPPPPPPPPPPPPPPPPPPPPPPPPPPPPPPPPPPPPPPPPPPPPPPPPPPPPPPPPPPPPPPPPMGHMKrNGv6GWPPPPPPPPPPPPPPPPPPPPPPPPPPPPPPPPPPPPPPPPPPPPPPPPPPPPPPPPPPPPPPPPPPMCAMdjWAV/MOUFPPPPPPPPPPPPPPPPPPPPPPPPPPPPPPPPPPPPPPPPPPPPPPPPPPPPPPPPPPPPPPPPPNT7/amRCPaH/wBClzzzzzzzzzzzzzzzzzzzzzzzzzzzzzzzzzzzzzzzzzzzzzzzzzzzzzzzzzzzzzzzzxAyt0iTl+ZF/wDnic88888888888888888888888888888888888888888888888888888888888888888LLBw+wCkmvt4K888888888888888888888888888888888888888888888888888888888888888888QKelhPs2oTNAU888888888888888888888888888888888888888888888888888888888888888888EsMNxcNBxc8qc8888888888888888888888888888888888888888888888884888888888888888888888488888888888888888888888888888888888888888888888888888884y708888888488440848888R0ww888888w088888888810888888888888888888888888888888888E/f8ARofOMMjbaxF32Ej+8PNsememdsAeKE9NBOLvdUfMCuLMMJvPPPPPPPPPPPPPPPPPPPPPPPPPPPPLRHtCY6ZLGSBEjE2AZNB42ZJPtpwuScjwKHCoDNjw2aT8JLiqg7lPPPPPPPPPPPPPPPPPPPPPPPPPPOFMi5hEzqz0IZWw0ofAfrt7SFPuxaWok8RJHELGGY9RIs0OCKAsonPPPPPPPPPPPPPPPPPPPPPPPPPPAPpSffO841C4LLk1qt2dPYEpgsBRsNJSjNCihR+2HIV2bgc0JYkpXPPPPPPPPPPPPPPPPPPPPPPPPPPPPPPPPPPPPPPPPPPPPPPPPPPPPPPPHPDPPPPPPPPPPPPPPPPOFUkPPPPPPPPPPPPPPPPPPPPPPPPPPPPPPPPPPPPPPPPPPPPPPPPPPPPPPPPPPPPPPPPPPPPPPPPPPPPPPPPPPPPPPPPPPPPPPPPPPPPPPPPPPPPPPPPPPPPPPPPPPPPPPPPPPPPPPPPPPPPPPPPPPPPPPPPPPPPPPPPPPPPPPPPPPPPPPPPPPPPPPPPPPPPPPPPPPPPPPPPPPPPPPPPPPPPPPPPPPPPPPPPPPPPPPPPPPPPPPPPPPPPPPPPPPPMMMMMMMMMMMMMMMMMMMMMMMMMMMMMMMMMMMMMMMMMMMMMMMMMMMMMMMMMMMMMMMMMMMMMMMMMMMMMMMPPPPPPPPPPPPPPPPPPPPPPPPPPPPPPPPPPPPPPPPPPPPPPPPPPPPPPPPPPPPPPPPPPPPPPPPPPPPPPPPPPPPPPPPPPPPPPPPPPPPPPPPPPPPPPPPPPPPPPPPPPPPPPPPPPPPPPPPPPPPPPPPPPPPPPPPPPPPPPAAAAAAAAAAAAAAAAAAAAAAAAAAAAAAAAAAAAAAAAAAAAAAAAAAAAAAAAAAAAAAAAAAAAAAAAAAAAAAAAAAAAAAAAAAAAAAAAAAAAAAAAAAAAAAAAAAAAAAAAAAAAAAAAAAAAAAAAAAAAAAAAAAAAAAAAAAAAAAPPPPPPPPPPPPPPPPPPPPPPPPPPPPPPPPPPPPPPPPPPPPPPPPPPPPPPPPPPPPPPPPPPPPPPPPPPPPPPPP//EACYRAAEDAgYBBQEAAAAAAAAAAAEAEBEgITAxQEFgcFBRYZCgoeH/2gAIAQMBAT8Q+jvsdw/v2yuhVBlw/wBGXT1cxjLh34CKo4UTlAsVn/EQVAVvC86dcb5u4+3yL3b4Ix5X2RYd3wHx9g42WI9zWogfFpHY2PMS7jfmnnBAdg2Hf+0E+g0BQoKFDIKHTZI4wIaKfCwEpgOVU2ldF37yQ8GG2YImC+874qBqoheeqFHB4HSFIUDQI1aYUWgENdBXbOfmS4oYPmvQ2Vr9sZFu29V7BGORax+r6jojDRT1S/dyDy48dKyFUB4BPeno8IoKheiH9iyonhTIF0Hds8BAqIpFv6C6qOF/tC0b+loGHPLJyZ+9vUTxHP1aNiUb1mM1Vvn6WhJv301fPCH4CpUBkxDMxOCEauA5AHjRjdgGEloLMYpIXPvwsFh+TVhliIK3ckaZgffK2TPRShRuO2PwWZAPiQOEAoHEtzW4nmRsvjX2H//EACoRAAEDAgQFAwUAAAAAAAAAAAEAEBEgITFBYGEwQHChsVBxkYCQoMHh/9oACAECAQE/EPwd87lv1v8ARwHoCgfUYHmnaEAr/wDKslY9o0e6v2OP/vtt6HF3YqxbPZrEWHJ0NXiyplRBrMIWVHdETpzIWjx6CNX3J5YVw0IBBh49Ibtx8GNZFfo6lEf2/wDvaDR0BvHFZj9HEvwp6EA3uB5omXPm+kIRMyw0WE2JvilMhgtaRTni5BSFHPGWDGqY2yhAWurt7r3tCnBzsvKz0DoAmQREKMe2sYSyPw2MyeNziPi4AyFiotJykEE8411QoJgbJgCNB9CuxvgvVNGWLPQXxbhPQMgQR5WRGSQM6yJucnWKTmi2NNICNBa80yxqgAxfK8ldwvnq+PC4HZj6KGEXB1ygDdXem8vyh58hNRa1FAk8tl/s/pwweOSR5lSB8AiA4gqCEpVRiEGHv/GbO9HmSOowA1Lncv6VhJD9qLgOTAhQwR0ZEMx2UcnRGWUv0dJkHvlcH21v/8QAMBAAAgEDAwMDAwMEAwEAAAAAAAERECExIEFRYXBxgaHwMFCRYLHBQIDR8ZCgwOH/2gAIAQEAAT8Q/wDC7JMbkuR0IXQhFnhDb47LLnZ/jaxaGV+F0PiX8Hzr+CHPxuhHhfz4LZBubkT9lWjrfQEcDZnHf2cCo/8AMsOz7Nvp/wCS7Lo+x1f/AOa7PaXt/wA41Y7NvL7vp5WP7Mvn+y/bqnXxPEUQ4HcJPZYF2vFq79X7Luib0bc0dqTPSDoD0lUs0xsdNSFh2SRJL6LgXYsTefux8TY3ikrKganshNYI+sJslh0iAwVlxV9CddVLHY3wlIGB9jmdvo8AwIxNvIkBbgYWcOiFkcICGaZyk8hEy9l5hxJiZmvebTyCyrcbPHIMabek2+618OxvaFMHyRrPoQjdft7AiSSfgG/HIVX1L94tt9YAEXrditZfrD1GI/uyMSAqQ8xEFiXCjjSqcq13Y76Wt6BJoNxRFpMEBtGzeq/nKvZLhALjDKId1oML7UYBsyDR4qq+R9/qOCMm47CcKHMKZ59HDbiOyadGR2LvSbsyZNgX2J3wlGlu5PE8RwFMvzXK6vWgvYZvqyuzTp5EE4GVPr3+xciU6gXWmPUokPgiKOM+t6DKlhhFMgN57Ccskhp02VPOojNdeucVbRaX754+a2itJrOtrVO73pGScMbkHWlM/YPnYfRyOQyrdHOMuvE5r02BOCIqvfWTHs2Ftl2EGglG8KaHE80I1zgOySrZuv30X7avV9J3Ox3miE6dhVoV6eEsf1EXPX1s/wD+47cjoUlvsukGHYRitmkGTX9a9/q19y+r/wCljPR/RmN5q4Q6w7dhGoG+JulI7ccnrodDuCXwS+CXBEiQ+R3JCIcCwNSSqA3U0SdATpCb/k7DQIz2yEzicf0KZrPrFhZHh4FvT08aPzp887Om6Yjk/wDPg06te/vEglIw7D9OCPHX5+JHjSSOggeJHQR4IVNH/c7iftk/rBWwhC2kWyjAoS/tTX6wyyUTPNSDlx2YgSJeSf8Ar/prD6rQGykNhTNcHn9lLVP+g8CPRdaBCh6igSBG4lCsN8EQSWjhHMpGUThDvwqrEGBRKtcfReolGKK6uJKupH4PCqwdXElITptqH1zUraNK9Grl+yN+7vRsPXC5IXJme0VBa1c7xNGMtYhLFqwiFowNrM7QfSEeR2aFzosWqsWLUjN9ItEhycpjcffIkoo4+S5u3X1Qyy/lzUWyw2BKN5BBLRLaJaXTXRpEVfo0y80ErPDqxMwRMuxEcnAY/wA6ioEmp90MdfIpAsAH8u0GToDBiJLaUEM91Aj5j/Gl4ImrL/kk+i6phshDKyJVHyE4NAqgZqCyYFRst10THoIEbh1zcFX61HmJ6qoWD3aub2ZpV6WjnLg6ZCAmHQIKxuiCR7AuOdeR4OslW2IgXMg1hP3q7Cw6B+BNRaYVSKWSbn/MFxpMogVA0wY+7Ek0IPjuOm4+JdUlNxnWKbTR/kHoY/pMJe7BoP8AkCuyLYlBtTRX/YIQYEecf7iDZT8kOAVb3S9Nem6l/mkXiEyvrYCPi+fmIfOTOkNDr/VpkIXAWKNAeli5M+yDj49OlBJWeY+N7ozdFJlho8zoN03xR3Xa3y0LMzaxyG51OCsW5rxTL6ZvCTgP9rRhDqYX4+MmG0jUZRy7wo2ISKvdgASwHg27s5wdekEBlNxoBC1DAwYyz7+eIOKMZNUDr5S2ehk/GJy5YTGZfIozZvOxd0AbfUa6bDyTpZo1zPewMhBh47vYMjNWFKJtwB8P0C8l5pG+XEdRMuolxqL71OTrVSD4Fc+8tGI+yVbaQNkwosQXMYMEAwxtRLGYUqgTGNc9EKM2IxYrDYZYHRUWaUpQAMEJTbzBP7DDYODolkuVoaWlLuAvt52hlR0hChp3XWvOvxJNCzaT52gai+b517DpKSaXgYpJqLoc3IzyQ+wH3ExAgFkTFh7i9hIZVk0P8UbyxAFuAIbtEugtT+cXqIjwISHdRqIKbIv+skvRAmSu7FtsTa7y9KPRYlM6+gZVewaLlnRoZFHyRBUrwFV0EGEizs04puHsJHh9PUfhrmC7zQ9lxT7j+xSwLzyFESDTJbgVCa1w9UAjixpn1lVF3TlLXmss6PwV9IWBBEm/hRmrBy8hYzcvNM/T94U2KM10tQgqQ7Ut6jXXds5oH/DMOJbL6CkGCCpCSdmbg8XTJL4Lwe0tAGpJnsqdbgzeBYYPKnvXf+j0yd9vr0aipo8X7KefKWSZsneRX+tYxv8Ak5J+PfX/AJDCeU+BXBqrVi6pZlfLf/PMrCto7QsKLKvupHl0agDMZS0N79b0u5tlAqnvPQ0i1CkR8MLVT7BogeA9/BTvXqfAHyG6JVg44Fc5RTqPOXr694lHF7Ktd7D9EaP3bwrVjjhONXozeNGYx1j0mXVgbl6iS4UXwKYLmfeh1f8AHU1UbWfGZUgkPCDBKRFVsJdEjhjv3IqABLG3yrOzBuHNkV7FVhLMAZ3EBVgCJMzL4bmvUefSXBG6TT/++ihNxR+qS8quL2H7DmtWBrfJqW+45SvoMLvk+Z016t+5lPA5W7GC/aOdllHXfKcJeR833iGynGRSllN7xR/2FcumoFxYI6L7r4UkzovsPXZQSecHQ9CfUaC15Ft+B/BQ+NaXbBwgiK3pPQkQUkAaJTMF2vBJ+2p+3JISWFeBHjMtDP2FaZpLNoOy1cTrz/H/ALMIXsHeyIrk/d/DTxpHlSc2aRaBIQ69aw1fUnYxrfVU7agP78UrwUwMoq05MGrMy8NEh6Ukep29bROZEm3/AJU9XXVI8irbSTIkoHa03IFYtUAtSLCaISpGQlAplUnYishwDNcM7M4wyFWqxjEJki3EsC8eSizjSb8a/wAPqMSykB9edsjlrwcZ9itfGFTgM6PSqFmmHNo1l7Fzmpvii2h7qgsLqkIz5BBGIJ/DNFH36UEgOFBb6HNQ29KP6XKylefCI9IzoKiVYbTbRI9NykBULmo7gYMRyZkTvwE5INNYlUVLn22Ey03C1OBcAw57WIn5oqe35QEJKZ1iEUlckfxRNfha1A/R1haRcIaKgASxfFYzLmshFAdlotJU5Y2GZEVGP4kcw2Ssfd1iZuoi/Cl29LFLmST4HFIPIm73oR5SgYBMSWnYhyBv1Sh0uUCxJyJnEERE7g/BY0IsxWXci+A7YeQUBElIECQTltVEkeARJCccDIlYJWoigF2IEh0wibqqyAlUCsRYCqxOTfmo8ZIcjauMpRPIjpn5ciFiQMBzFIQhiRuYaErQF1gNKJehSSDqATQVUZBQtKYyn4hYgFbLDEPQ6KMFURDSvFLGQa9UqDsCcPXKBFGmaCxJEKy+KNo/z0EZWRKASlQTkfABTQlNQPaiHhFhzFf5YSE3629aPsdE5nIEx8wZ5hNiC23KuZCJYri3ZlkEIzc3yjeyg391KExCDwRP/fF//wD/AP8A/wD/AP8A/wD/AP8A/wD/AP8A/wD/AP8A/wD/AP8A/gAAAAAAAAAAAAAAAAAAAAAAAAAAAAAAAAAAAAAAAAAAAAAAAAAAAH//AP8A/wD/AP8A/wD/AP8A/wD/AP8A/wD/AP8A/wD/AP8A/wD/AP8A/wD/AP8A/wD/AP8A/wD/AP8A/wD/AP8A/wD/AP8A/wD/AP8A/wD/AP8A/wD/AP8A/wD/AP8A/wD/AP8A/wD/AP8A/wD/AP8A/wD/APwSf/8A/wD/AP8A/wD/AP8A/wD/AP8A/wD/AP8A/wD/AP8A/wD/AP8AgAAAAAAAAAAAAAAAAAAAAAAAAAKqqqqqqqqqqqqqqqqqqqqqqqqqqqqqqqqqqqqqqqqqqqqqqqqqqqqqqqqqqqqqqqqqqqqqqqqqqqqqqqqqqqqqqqqqqqqqqqqqqqqqqqrVMmTJkyZMmTJkyZMmTJkyZMmTJkyZMmTJkyZMmTJkyZMmTJkyZMmTJkyZMmTJkyZMmTJkyZMmTJkyZMmTJkyZMmTJkyZMmTJkyZMmTJkyZMmTJkyZMmTJkyZMmTJkyZMmTJkyZMmTJkyZMmTJkyZMmTJkyZMmTJkyZMmTJkyZMmTJkyZMmTJkyZM//9k=;clipPath=inset(20.59% 14.67% 18.24% 15%);" vertex="1" parent="1">
          <mxGeometry x="-618.1999999999999" y="330" width="133.4" height="65.75" as="geometry" />
        </mxCell>
        <mxCell id="QATL2oIaA7AdP9qNfyrX-59" value="" style="shape=image;verticalLabelPosition=bottom;labelBackgroundColor=default;verticalAlign=top;aspect=fixed;imageAspect=0;image=data:image/png,iVBORw0KGgoAAAANSUhEUgAAAM8AAADwCAYAAACnrTAnAAAABGdBTUEAALGPC/xhBQAAACBjSFJNAAB6JgAAgIQAAPoAAACA6AAAdTAAAOpgAAA6mAAAF3CculE8AAAABmJLR0QA/wD/AP+gvaeTAAAAB3RJTUUH6QoQFgAkw56UxwAAK39JREFUeNrtnXl4VNX5x7/vvTNZZxLAhaUgimECorYI7q2Na0WYSaAG6w4B0epPLQWSANZOa5UkSOtaBWURRQtRYGZAFK1glVqUxQWUJICyFHEDwiQkk5l73t8fGWoY7pBJMnvO53nyPHBn5txzz3m/97xnew8gkUgkEolEIkkASBaBJF6ZPHnyqaqqXsXM5wHUhwhdANQKgQZFwWdE9G5aWtpmu93uk+KRSAAqKSm5jhn3A7gqBBv9HqCnNc371KxZs76X4pF0SqZOnWrRNPEsgMvb8fN6ZvrDzJlljwFgKR5JJ3LRSkcqCr8EIKODJr1CVWnMjBkzfpDikSQ9xcWlEwB+BoASpiQ3AHxFRUWFO5L5VmTVSWJJSUnJcID/HmZbHEpES+12e4oUjyQpmTZtWndmvAhADXfazLiqvr5hshSPJCnx+bTHAHSNWJ+EMH3SpEl9pXgkSdbPKc4FcEOEb5OhqoY/SvFIkgpmuhfRGbC6fuLEielSPJKkgQj5UbqV2WBItUnxSJKCSZOmngWgd7Tupyh8sRSPJClQFB4YXRcRFikeSZK4bKJPlG95phSPJEnEQylRvqUqxSNJCpi5Mcpum1eKR5IsLc+u6N4PX0rxSJICIcSWKN/yCykeSVIwc+bMHQB2RM9tozeleDpTv6AQKk8YYkzefg9ei9KtDtTWHlgTiYQN0kyjYCgTe6e70zL6Khr3EUBvAp1GxKcxlN4AnwQgHUAaALO/TrrUAQS44S6xAMAhABqAWgBNAOoB1DJhDzF2MbBXBfYKiN2NrO4+paLKHe9loih4mhm/AxDRkTciPDVnzpyIDBjIzXBh5lCppZ8KHgwog1nwYCIMBtAzytn4HsBmAm9m0GZm2mzOqKohO0Q8lVVxcfEzAN0VyepQVSUnUrtKOyye22677ScGg2EIgB4CSAXRfmjaZwsWLNiW9C3KvTmpdenqJUR8DYMvAuhnALrEaXbrwPiECR+qwFsZ6XXvkn3fkVhmqKSkJJuZPgE4ItsGiHBzeXn5yxFr1drzI7vdruzatesGJvodAecHSWc7mP9uNBpnz5kz50iyCKa5ZcFVYFwF4FcAshL0UXwAPgFhhQLFlZG2bXMsWqYpU6b8gkhZ7Xdbw8nciory8RF1Cdv6g/Hjx58hhHiRgUtDlP8OAdz+wty56xJVMIen5lxMrNwEgXwQ+iA5+ZbAK5iURaa0qrXRFNKUKVNGEClLAYRrgGTpl1/uHF1ZWanFjXjGjBlzDinKagA92ngfDwE3zps3b1miWNLB0gGnq+AbiMU4gPp3sq7bPhC9ysyVWeXV70fJhbuMGf/oeP+Q5xw6dOj/IjVI0C7xjBkzpgcpykdo/1LyRjDnzZ8/f338umTndDWIptuZ+BYAQ+TwBwDgcwYWKcI4zzRz6/5I3mjatGk9fT4xE+Cb2uEV1RBhYnl5+cpoFUzIGSwqKlrGQEEH71fDQpy7YMGCxvgSjaWfQWACE+4CkC31oksTExYrPnrU9GjVp5G8UXFx8VAiuocZ1wMwtfL1/wD8fEZGxot2u70pmgVCIQrnYgb+HZY7Mt89f/78Z+LBGupLBwzRIO4nxk2I0MrbpISxDgo9btpRtZQqEbF+hd1uz2hoaBgK4CJm9Gx+sVEDgB+IeAszv19RUbEvVsUQknjGFhW9AOC28JQ7Pl0wb95PY1fvoLrS/qPANFW6Zh1mGzNXmL+sWRhJEcUroYrn63YMEgRF8/l6L1y48L/RftjDJQMuIYhyAD+Xdh9eEYHoQVNZ1asUpTjR8UCra9vGjBnTI5zCAQCDwXBuNB/SPTXnLHeJZQlBrJPCiQgDwLykvsTygXtKzi87y0O3urZNGAynqiK8Q/5MdGo0Hq5h0sC+XqP2EARuhlwEGw2X+EIoylp3aX8niKeaZ2z/vFO3PIrP1xSBQq6NaCXa8wx1Jbn3+wzaFmLcKoUTbRWRDUL5xF2a+/j+yedmdlrxeL3efQi3H0sUsfmCusm559Y37FvH4MfQ+jCnJJJeDfN9mWrjJ3XFlis7pXgWLVp0GEA4F3m6UxRlY/hbm9PT3KUWO6v8EQMXSNuNG85kwluHSy0LaycO6tapxONvKSrDeM9V4V464S7pf1ldQ8onYPwREd4fImmnr8G4VUnxfna4JDe/U4lH83rnAAjHymhWiMrC2Heiw6W5JQC9A0QmsJ0krPQi8PLDpZaFPLF3esK/EUL9YlFR0R8Y+HMHjX3ugnnzwrJM3D015xTWlIVEuFbaZEKa3iZNaKO7zNy+I1GfIORRKLfb/QgDqztwr0/q3e57w+WmQSgfS+EkMnyeqiib3CW5o5O+5QGACRMmZPh8vtcYbTNaAtb5fL78hQsXdmg7LANUX5J7H4NnInx7PyQx1xHmmDKM95J9a1PSigdo3kX61Z49U4j5AbQ+FNwI5keZ+eGOrqTmib3T61IyXkbHV3ZL4tMS3xMeY0H237YeSFrxHOXWW2891Wg0FjEwCsDPWrQETSD6HMBrmqouXDhnzu6OZrJ24qBuSorXAbm0JtnZLkgbll22Y3tSi6clhYWFKenp6aeoqqrU1dXtC+f210OTc89QVV4FIFfaVqdgv0LKiMyybRs7hXgiRX2p5XzBcAHoLm2qM3lwqNfAN2SX16yM53zG7Zqv2pL+w5mxRgqnM44fIFMBLTtc3H+sbHnaSF1p7rXMvBxAqjSlTq4j4rvNZTXPSvFI4RzjmjBwEEATQIcAPrr4thbQDfvUtcW/u4CRAkJXJP/iV0HAWFN59UIpnhMJp9hyJRNcaI7dnIjUAtjLwG5i/Lf537xbVekbDeIgoBxUyHswMyXjYLjmNHjCEGNd1qGubFS7AaKrCqWrxnwqCeoLoDcDvak51lwfJG6ARo2IbzWV1bwixaODu6T/ZQR6nYF43//hBbAdzWe+bCPQF8TY1pihVZ9k3344njN+oKRfdiob+zN4IBQMZEYugLPQfGZnvE86+0D8G3NZzWtSPC04PDXnYhLKm2g+JSCeaATwMQgbSGADk9hgOphdTXM2epFE8IQhxrqutRZiZSgrGEqM8xn4KcIfArfDLy5muj6rosopxQOgtvTMHIXV/wA4KQ7KYx8D7xDhPQXio4wD2VuSTShtEdSRbrVnC6YLQPgFmC4H0CsOstYgGHnZFdUfdmrx/GDPyUo5QutAdHaMsvAdEdYL0Psq6O2Msm2bOlP0l7ZyNMg9Az8nxuVof/TYjrJfNWgXZDy8Y0+nFA8XQq3vZ3EwMDzKt/6cGC5BWGEur14nxdKRfmrOICZ1BAm2gnBJlO1pc72W9osej35a3+nE4y6xPAHg3ijcygdgLRgOg6a60md9sUuafQR8qUkD+/pUzQqCDUBelAYglprSqwtjdWhXTMRzuDS3iJjnRrqFYaKFitK0wPTIl99I846me3dOVxWeQgjcFvkWif5iLq/6Q6cQz+ESy88JeCcSbyYCvmTil1goi7IqqqqkGceew1MHWIi1W4jpFgbOiEQPAEQ3mMuqKpNaPAdK+mWnwPAxA6eHMVkB4B0QzYl04HFJRywcVF9quZIZEwCMRHgPkz5k8Kk/i7ZLHlXxuIstL4NwY7gKDEQLNR8e6/Jo1ZfSPBOH+uLcXkLhCWDcDeCUMCX7vmlndV40X55RE09dseV2JiwIQ1LVTFRurtcW0ZPbPdIUE7g1ujcn1Z1ONxFRCcKxX4v5AXNFzcNJJZ5DpZZ+KmMzOrK2inkLEc3MTO/1MtnX+qTpJZGI7FDcDTnDAeUP/gOi24uPFXFZ1oztHySFeHjCEGN9V/d7DFzYTl95A5geMldUueScTPL3i9xT+g8nhaYDuKidyexoZBp8SkWVO9L5jfhmOHdX95R2CmcHQDeYy6svyKqockrhJD8EcNbMmhXm8uqLwfxrANXtSObMNBLlCd/yNJT0O02D4fM2rpQ+wEQV5nrtMdmn6ezuXJ6hrnFfERh/QtvOiBJC4UuyZ9SsT1jxuEssyxB6qCgvMT3mbfI80vWxrw5J05Ec5bviXHMacSmASQhxkyQDH5nTqy+K5OqDiImnrmTArxjijRCzsUkhmpAIEVMkscO/Av8ZAFeF2HbdZS6vmZ1Q4uF7c1LrMpRP0Xrw9VoC/TFzZ9VTcnJTEuqgQn2J5VYGZgE4uZWvH4Qics0ztn+XMAMGdZnK1NaEQyCXwnSWqbzqcSkcSVsGFUzl1QuhaYPAWNzK17uSCN+pHBFveY4U5/TWSKlB8F2IDQBNMpdXPSNNQdLx7oHlNgaeRPA5RFaEGJo5c/umuG95NKJpJxDOVtLoIikcSbgwlVcvNPjUcwG8H6yBYEW1x73b1jBpYF+AxgV5ATxmOiKGmB6t+lRWuSScpM/6YpcpvdflIH4IOmG7GDyivtRyfrjvG86VrfAZtOk4/lhDDzHuNFXUvCCrWRKx/kfzkq0H60ssHwjgFQDZLT/WBOwI867lsPV5GiYN7OszaNUB4tknGCPjIViDpPNweOoACwnhADCg5XXB4uLsiu3/iTu3TTOIYw/TZfpAUdWhUjiSaJM1Y1t1U7q4kECuY4ydKKx9n7C0PP5V01X/cwOJnaY07w1k/6pRVqUkVviDzDzPwJj/XVPEJeFadR2WlkcRuPvH/hO9bDqQdb0UjiTm/aBKaJnl1UXMmPVj50cJW9CZDrc8/uMO9wA4CczPmjJq7olVNBOJJGg/qDS3hJjLADSR6j0tHEFhOtzy1KdkFAI4icAV5oqa30rhSOKyH1RWVU5MEwGkCM04Li4yVVdi+Y+7JPdZWT2SRMBdYnnQXWzZzYVQY9ry1E3p/zMG9pl2Vt0jq0WSCJjLq//MwBJ3v9wRsXXbVAw0HRE3yoWdkoQSUEX1FIr14WnhaPokEmm7EolEIpFIJBKJRCKRSCQSiUQiCZHCwkI5vNsCgywCSTCsVmsGgPMAXEpEP/d4PLloPZyYFI+kc5Ofnz+Rmctx7Al+38qS+RFFFoFEDyHEqYjOobxSPBKJFI9EIpHikUikeCQSKR6JJHkIOQDI8OHD+xkMhgmB15l5sdPp3Nza70eOHHmSEGKwzu8/czqd7QrGYLPZfsvMxwT4VhTlK4fDsTiU3+fn5x93zsvgwYPfsdvtx8VhKCgouEDTtJFEdAma5zqObqb6GsA+AO8TUaXD4fi8Lc9gtVp/TUQnBV7XNO3tlStX7uxI5RYUFOQxsyGgvDWn07kmIA9nENHQYwyD6CZmLghI8hARFQa7n17aoTJy5MhTNU27hoguZub+ALqheSqlHsBeZv5EVdU3ly9fvgkdOGIzPz/fysxpAfle6XK5jgR870JmHgPgSgCno3nkcbTT6aw8+p2Q53mMRuNpQogSnQLbCqBV8QghhjLzGzq/vwHAknYpv/kI8r4B6b0FICTxMPMKBOwoXL9+fTaAwy0EehkRlQkhLibSfdd0BXAWgKuY2W6z2dYrinLf8uXLPwzxGS4AUBx4XVXV5wBMaK+RWK3WAUKINTrP/DqANQEvnCuZ+bmA7+kl28VfvsGoB2Bq4wtwMBFN1zTNBsAY5L4gotFCiIfz8/O3CCEecrlc7bIZZn7CL4aWz38agCMAMGrUqJ5er3c2M1ul23Zi6nReEiYAmDBhgtFmsz0FYC0zX9yGNC8UQnxgs9meysvLa/XlpGnabEA34tAN/hl+tPPF8psgH82Lh4K3Wq0Z+fn5TwPYyM2H9xpDNP6ziWix1Wp1FhYWZrejXOpOkKdBPp9vAxFZQ0mrU4snSEGa8/Ly0vbv378SwD1oX2w7BcA92dnZlcOGDTvhXnm/a/ZPnY+yFEUpaO+zMfNoncs/+Hy+FbEu91GjRvUkoveY+e4g5dsEYCsRbWnpBQTUndXj8bw7fPjwrm0sl7ogLWB3InoTQC85YBAa7uMKRFFM2dnZLwG4Wuf7/2Xmxcz8Z2Z+goiW67VeLSqqICUl5R8hVGiwczNvb89DjRgx4qdENFDnPgtXrVrl0XGpDwPYGfDn1ssqgIMn+DsUSt/X6/X+E81r5gJ5A0B+jx49TE6n82yHw3FOampqNwBXAFiq8/2fqqr6qt1uVzpS534xPg3gJ20p5069to2ZG3QMaRKAXwdc3sTMD6Slpa2urKw8JlLQNddck5mWlnYzgDJ//+c4AdlstglOp3NO0Np0ux1ZWVn7At96zHxVfn5+H4fDsadNzZ6i3BDEQBboXff3H5YEvImfBxAYHPA7p9PZvSNlrmnaAh1h/wDgdqfTuTLw+/7yXgNgjc1mG47m40PMLb5yxcaNG+9B8+lwodCgU0eDdep8L4DFzPyBoih7icjn9Xp3ypanRV3qXLsx4E37YGpq6gUul2tVoHAAYPXq1fV+YZwNYEOQ+8yyWq2nBcvE2rVrfUH6IgqAm9vxXIU6BvKh0+mM6cFiVqt1HIDAeGl7VVW9RE84gTidzpVEdDWAxoCXwvRrrrkmM0RXXeiUzcQAl7HY6/XmOJ3OyS6X6zWHw7F++fLlG1euXHlQiufHgmxtyPNOp9P5kJ5odCp2HzMPY+YvdD42AfhdK3mZoydmZh7bln6X1Wo9H0COTmsU04GCkSNHnkREfw247FEU5dfLli2rDjUdh8OxnpqP7mxJ97S0tLtC9DaETtnnHW2VFEX5ldPpnKnn3so+TysF2eKzJ5xO53NtSc/lcn1PRLfpjZ4R0bhhw4ZlncAo9vh9/kAsVqv1wja8EPRctgYiWhzLstY0bQICDt0losdCHdJvSW1t7ZMA/htw+aYQfy5OUHbjly9fvlYOGHSsIL9JS0ub3p4EnU7nBgDz9UbPjEbj9a0Y/uwg128PXTukd4/K5cuXH4pVIfuH7H+r0+rMbE96fjf35YDL51mt1jNCeWcGub7G4XC83Ka+ZScXT7CCfLyysrKuA+k+HeT6L0/0o5SUlNeJaJdeP6ywsDA9BJftUmbuq9OKxtRly8rKuhxAn4DL7yxbtuyHDrjcG3Vc01+E8FNLEE/j6bbmQYpHn8qOJOpfrrRVp8JPKB5/30rP0LObmpps7XTZvnS5XP+KcTlfppPXdR10ub/WuXZ2KFrWS05V1X+2NQ9yG/bx/OB0OreHIZ11AAYFVG7fwsLCbpWVlQeC/UhV1ed8Pt8DCJhxZ+bbcYJlR3a7Xdm0adMoHYN6Hh1YCxYmjmsRhBApBQUFQzognnN0lvLktjO5r9vj1krxHM9XYUpno95Fj8dzCoCg4lm6dOnX+fn5K3UWZV4zatSo3kuXLt2re7ONG/OIKHB2XCiK8mIclOkQnZbnQSHEg2G+T9d2/m5fe34ktyTo2HeY0tkf5PrJIbxV9QYOVJ/Pd2NbXDZmfqOtE6wRGCxIQxsXi3akexXmupLiiQVEdDCIMFp9OzqdzjcB6LmOY4IYqAFAgc5HMV8E2q1bt5OjeLt22TMz10vxxBGapqUEEVUoLRsHMfyz/JOgx75us7KuAnBqYN8tHhaBaprWNVnrOOZ9HkVRKBkLloi6BLke0lvO6/U+bzQa/4iA/Ub+OZ+PAl02nc7zC6HMkkcaIURmkH1Qd2qa9nY475WamtqUlOIRQrBeIQoh0pNUPD2DlMPeUH6/atWq72w2mwPA6AAX48bCwsLfV1ZWNgFAYWFhisfjydd548+Ph3JQFIWDbHA72NGdsjF/tigWYm0QI2t3Z5KZUyLhpodJPHrDsI1ut3tfG55vtk663RobG688+v+mpqbLcfwo0/qVK1duiZOXyPdBPuqT6C/IaIrnYJCPTm9Pev49HJHojPYORyJ6u0+JaLN/aUlIuFyuNQCqddIpaHGf/HgcKDiK0Wj8Cv4tzgHlkyfFEyI+ny/Y3MZZ7Unv448/HorIhIM1jRw5skPBzK1W63nQmbBj5rVt1SAAvX1A+f4TCwhA4JbhBkVRloShHEgn/2128/2rJjbovACusFqtJ0vxhEBaWtpB6O+6vMw/F9AmNE0LtkffFwah39ZBV+XOINcdbU1LVdUFCNi/AqC7x+O5qKCg4DydljJci0BVnfx3DSUug47oXDqXM4no91I8ob+BPtArxOzs7FFtSeu6667rS0R3Bamo/4bBT79v1KhRPdvz24KCgp8BKNJJc4vD4Vjf1vT8iydf0/lopBCiQOc+fw9TlemdxUMZGRltbi0MBsNC6E8+3+8vLymeEPhXEIN/MJRVwwBQWFiYbjAYXgWQHsTww/FMZq/X+/KECRPa5BYOGzYsSwgxD/qjmDPbmxlmflZPpwACF4tuao9Ag/BVkD7Mee14AXxLRHN1PsoQQiyz2WzdpXhaxwn9RYq5Ho9nQWFh4QlHz0aMGPETj8ezBsDQE7QaYXkmIsrbv3//ssLCwpBGA4cPH97VaDS+DmCwXhctJSVlUXvz4nK53vdHkmnJmQDODbj2dLgqipk/C3L9t+0cMPoTgO+DDBh91JFFonEvHk3TOmyU/j30bwb5eLTH4/lPfn6+NVBENpstx2q1/klRlC8AtNxV+blO5YbzhTDc4/F8arPZRgWL0JKXl2ew2Wy/UVV1K4BLdb7iEUKMCWUrdyu0tqv1EDP/I1wPnpaW9iZ0gmUAGGG1Wv/S1r7PsmXLvmXmO4K8PPsIIdbZbLanRo0aFdJo53XXXdcjPz//NpvN9obNZrs9FuIJuQCIKCxzKkT0EDNfE0S4g5nZ6fF4Gmw22x5/5XUH0ENngvUNZn6ViJ7v6IhQAFVoXsh4NAzRGQBe27x58y6r1fqWoiif+9dCdSeifsw8AsGHzBnA+BUrVnzS0XJLSUl5wePxzAAQLBDivMCQsR3so9babLal0AlAQkTTs7Kyxlut1g+JqNFfXv0BVJxo67rL5VputVqnElGZzsepAO7x+Xx32my2DQDe87dUh4jIKIQwEVE3IjqTmQcBGNBi8nUvgBfiVjwAgq3ValO/wOFw/Ntmsz0A4JETfC0dJz77cqPX673BYDBcoddf6WCZ/MDMtxLR22ixSpeZ+xLR+Jaz5cFCw/rxMfNdLpfrpXAZc35+/hJ//OTjRKqq6uxwG4fP55tuMBhGBhFsd53Imq2uY3O5XOVWq1UjogroBzYxALjI//e/cj768gxS5pfGe58nNYh42hzy1Ol0lhHRk+3MszM1NTVv1apVh9EcaK/D+dGp4I/QHOC7Xcv5iWiXoihXu1yuuRHoM+rxZlsi0ITK66+/vouZp7fhubNDLN9HiWgYmoPkh4PckSNHnhTP4kkJ0oFsz8JOdjgc9xHRzaEWIBHtIqLbnU5n/tH4AkGW/WeFxUqdzg2qqg72L5HxhtpqAZjU1NSU25YoLG1gX5A6KIuUgbhcrscA3OJ/ttYGGUJ+cTkcjjcB5BLRIwgh0ugJ2ABgsqZpTdEWT8huGzOfEmR1bLv9bIfD8fKwYcNeS0lJuYGZryWiS5i5O4A0NAef2wngQyJa3r179xVz5sw5xohTU1N3ejyewJjM7nAVjn+O5S6bzfZnvwFdjeYVEaegOcbafgD7iGijEGKFz+d7N5IrmZlZ73iPdS6X691IGonT6Vw0bNgwl9FoHE9Ev2LmHGbuQkS1aI4lvQvAu/4TGNqSrhvA9MLCwhkej6cAwHD/gNDpOi6dQHO4qS/9A0XvE9G/2rrZT9M0m9FoPMaL8nq9B9vlYYT6RavV+lcimqjz0TCn0/lGmOuLEIV99zabbS2Oj2jzb6fTGRMfupXyP5mIdgb26YhouMPheB1JRF5eniEzM/N/z1lfX9+wdu3axnjLZ1tG23oHeRt+HoF8MSSB5W/XGQz52OFwrEq2Z/Uvnj0Y7/lsS59Hb2Z5j8vl2i1NO7IUFBTk4figgUDziKV80cSzeKxW6yA0z2gHvg2XyyKMuGvZSwjxYmBdEdEHTqfzVVlCcS4eRVF0Vwn7K1USIYYNG3YKmuNXB7rMgoh+J1udOBdPfn7+L/wneAXyL/98iCQCXHfddX2NRuO/AJyj8/GT7QmQLonSgEFeXp4hOzv7bmYux/HL05mIpsrii5irdguaD2vqovPxttTUVFn28SaewsLClMbGxv4AhhHRXcx8ZpDfPe9wOP4tiy/sohkK4A84fqvBUQ4BKKisrGyQpRVH4rHZbLd7PJ4FQSZCW/JZY2PjRFl04WPkyJEnaZq2HMDPT/C1ekVRRi5fvrxKllic9XlCCYlERC+mpqZesnr16npZdGF8gxkMhwAMCPY5Mx9g5msjtORH0lHxEFHNCSrvQwAjHA7HbR08t0aiQ2VlpUZEwSY7PxVCnO9yud6XJRWnbtuQIUP2btq0qRHN68oAoIqI/imEeM3lcr2TpM/vxvEz2e4Y5WUlgFtbumkAHk5NTZ11NMChJL44poNTUFAwRAhRpyjKN7E8hq8zUlBQ0EUI8R0z1yiKsjAlJWXOic7xkUgkLbDZbL1kKUgkEsmJqC/OHSpLQdJZbbdDkWYExGmHSyx3yKqQJBJ1xf2vFoqIrXhMGT9xEugBd0nuaFklkkTg8NSci5lokYa0xTEVD9nX+sA8D+CFdcX9r5ZVI4lrV600ZzAJ5XUwHF3KPjsYU/EAgGJQ5wBQmMjlLu4/SlaRJD6FYzlfsPIWgC6KojwbjjQ7LJ7MR774GmAHgFQQLTlc3H+srCpJPOEuHZAnGP8EcBKAf2eWbdsYF+IBALByNDK/SkTPu0ss98gqk8RFH6fYUgAWb8Af/4FAz4Qr7bCIx1xRtQbAv1uk+ZS7NPcvbJenbUti2OKU5P6WCJX4MWDnjsz0nv+IK/EAABH+eGxrxNPdRyyuAyX9smU1SqIJ2/MM7tLcxwH+O1qs3yTGQ2Rf64s78ZjKqt8G0bsBgrrOCMOHh6daBsgqlUTFTZtkObmuYd9qMN8X8NH2zIxei8J5rzC7VWTXuWghgXV1pbnXyqqVRJL64tyhZKCNAC4/zjJBfwpnqxN28ZjLtq0FsEbno27M/Lq72DKb7b0yZDVLwuqmAVRXknu/IF4H8Gk636gJZ1/nR0GGu9mcmnspCT7Rxq2tBNxsKq/+RFa7pKPUTTuju/AZFxDh2uD9cb7JVFbzSrjvHfbRsKwZVesAnOjU50EMfOAutvwfR0C8ks6Du7j/KNaMW08kHAY2ZKbVLI7E/SNivA0l/U7TYPicgcxW2tt1MKh3mR/5Yos0BUnIfZtpA3tqQisnPmbnrR5CKHxJ9oya9QkjHv9bYTqI/hLCV70geqbelzqtx6OfysAikuDvWjuUukbLeDBmIqRzmPgZc3nN3ZHKT8QmMU0N/Ciaz/dsDSOY78tUGz+uKxnwK2kiEt3WZkrOefUNlg/AmB2acPCdRmnTI5mniPY56kotVzHjrTb+7G0SPMU0s+ZjaTKSI8U5vTUofwBhHI6PXBu8zSEem1VWsyBhxQMA7hLLYgBt3e8jALzmI6W4a9m2r6QJdT6+tQ8ypTd6J4NRjOYDntvg32GdqaL6FxThQPgRF0/9tIE9haZ9iuDHrZ9w7IEYT7AqZplnbP9OmlTys3/yuZkmtfFOBqa212agiKHmGds/j3ReozJUXF9iGSaa45K1934eMF5QjdpfMh7esUeaWPLxXXGuOZ1QxOBSAD06YNJ3m8urnolGnqM2z+Iu7v8MiO7qYDJNTFgMUv6SNWNbtTS5xOfwJMvJZMT/gXEfgK4dSYuBVeby6uEUpXOLoiYetp+eVteQ8iH0z5tpKwLAOwzxhLl8+wqShzwlHPWlOYOFUO4iws2tzgeG2E0i1Xuu6ZEvv4nWM0R1ht89beDZ0LSP8GNI33DIsoZJmcsew3PZf9sqI2zGMWwflFLX6MsH8wQAV4UzaQG2ZpfXrIzm80R9eUxdieX3DMyKRNIAXmGBF80zq9+XrVH84J428GzyabcwYQyA7hGQ5WPm8pqoH3sTdfEwQHXFlkUg3BjB2+wF0VLSxHw5XxQjt6w4txcTCpm5EIRLI3ir901HxFX05HZP0osHAHhi73R3Ssa7BJwfhUfcxMBiMBxZFVXyYKgIC0aQsAJ0PYArgIhvw9/JPlyYNav6+1g8b8xWNddPG9hT+LT1IPSJ4m13gmgFgV2ZB8zv0pyNXmnyHeNQqaWfgcnqb2EujoJg/ucNQlUvieWi4phuCaifknOeUNT3AI7FBrnvGHgTRGuED2u6PFr1pZRCCBY7+cxToRrywOJyIvoVA2fEIBsaEY0wlVW9EcuyiPl+Gndp/1+DqTLWeSHgK4DWgHmNSr5308t37pZSAdxTc05hVn5OjMv9rthZMbcb5vvNFTVPxLps4mIz2uHS/lOIqSLO7OYbInzEAhsUFR8Jr7bB/OiOb5NZKD/Yc7JSGg3nMbTziel8As5n4PS4yiTRE+ayqvvjIitx84YrtvwRBHs8GxcTdimMLQL0BRjbQPQFN6nbEm1+6Vv7IFNmo5bLggcw8VkA5QI8CIAlin2W9vCcqbz6zniZhoirbdB1pZZHmDE1AV/a34JQBfBuErSXgb0M2q0q2h5B2BvtRa0Hf3d6F0NGem+h+foqQG8QfsJMfQnoDVCOfpCM+IYJL5jTqovIDhE3jWC8FdLhEsssAn6fZB6RD80HBx8EcICBgwQ6CPBBYtSBwILoEAAoLDQmOnxMJTFMgsjorzAzCTawQunM3E0BunLzmrCWf6lJVXqMV0xfVt9KldDiyoOMv3IC1ZVYngQg411LAGCZKb3X6HDHXEtK8fxPQKWWp8C4W9pOp2apKd14I9m3NsVj5uI69FNdSe79DP5rnHdiJZHhSdPO6onx5qoljHgAoK7YcisTngeQIu2pU8Ag/NlcVm2P94wmRNBBd2nuFWBeCkCeuJDcNBF4rKm85uVEyGzCROx0Txt4Nnza61FeCyeJHocgRIF55vZ3EyXDCdOXMD/yxRYV4hIwfSDtLOn4nBVcnEjCSSjxAEBGxfa9poyel4HwJyB+JsskHeng4KV6Le2CrBnV2xIt7wkbaP1wSY6VoCwA0E2aYELSSKBSU3nV44n6AAl9SsGR6Wf20byGxSC+WNpiQlFNwOhEP2YmoedPMh7esceUYchjxiwgfucDJMe4aQsbmYYmw/lMSXM+Tn1pzmDB6vMAnydNNC4N7StAuctUvu3NZHmmpJm5zyzbvtmU3vNCJioF0CjNNW4QYMw5km48J5mEk1QtT0tqS8/MUVidjeadj5LY8ZlQ+I5IHS4lxRM535rcJZbxBPwJQE9px1HlIIEfyTyY9XgyB1lJ+jNB2d4rw91ovpeYSwF0kXYdUZrAWABVPNAZTrXoNAfq1k4c1E01eouZcD/CGu5XAv95SppGJZ0pClGnO436YOmA01WIPxPjRgAGafcd9Y7hBMR0c/n2rZ3t4TvtUe710wb2FEK7MxxHW3RCPExYQizKO6NoOr14juI/vu8mMH4PIFfq4oR8A8Kz7MVTsQpxK8UTj/5HIdS6M/sXgOkeAL+E3L3a0kjWg/FMZobxlXjdEt2pxLNkyZKUurq63kKI3oqipBCRRwjxrdls/nL06NExraAj0y0/ET66PgoR/uP3ZULYpQj8Q6jKPHkKX4zFs2TJErW+vv5qZr4WwNUABga5vxfAFgCriei1sWPHfhTLAnJPzTkLrIwG4xYAZya5PRwA41UmvGgur14nzziKsXgWLlyY6fV67yCiewH0a0cSm5m5rKioqJKIYlaZbIdypHHAYI3F1QRcA+ASJH58NB+AD0F4i1lZbd65bX08B9zoVOKZO3fuMCL6O8IQ75iIPtQ0bdz48eO3xEPB7Z98bqbZ2PhLIfhqgK45QUsab2wH89us0Gof+97pVr6zVsogjsQze/Zso9FofArAhDAn3QTgvqKiotnxVpDfFeeaU4l/qoCGMPNZAAaBMDTGrdPXRNjIwEZmsZE0Xp/sweoTWjzz58/vIoR4lYiujGC+Hy0qKpoS953uib3Tj6RmnM2CLEJBb2LuQ6DTGNwHQB8AJ3XwFrVg3kNEu5h5D4C9BNotSNnhYf7slIoqtzTxBBHP/Pnz04QQbxNRNEaoKoqKikoSufDZ3iujsSHtZA8ZDEYoXX3CZ1QVxSQEZZDS3GKxYK+ioE6wckQleHzw1qZ4U7y1ZPy+x6Of1ksTTgLxMDPNmzfvZSL6TdQyTzRu7Nix82Q1ShJaPPPnz7+DmedEOf+NAIYUFRV9LqtSEm3CMos+e/bsnswci5Pd0gD8XVajJGHFYzQa7YjdXplfzps3b4SsSknCiWfevHmnALg1xs8xWValJOHEw8zjAKTH+Dl+OXfuXLkiWpJY4iGi/Lh4EEUpkNUpSRjxLFq0qCuA8+PhQZj5SlmdkoQRT2Nj4/kA1Dh5FhnsUJI44iGi0+PoWU566aWXsmSVShKlz3NaPD2Mpmk9ZJVKEkU8MvqMRIqnnW5bXO1n1zTNJ6tUkhDiYebD8fQwQohDskolidLyxNOCzG/Gjx9/QFapJCHE4/P5Po2jZ5ErqyWJI5477rhjL4C4OIiViN6U1SlJGPH4+z1L46S/s1xWpyTRxPMKYhzfi4g+HDduXJWsTklCiWf8+PFbmNkR41bnYVmVkoQTjx87ms9oiQWbioqKXLIqJQkpnnHjxn1CRLNikH8PMxfFMpKoRIqnw2RmZj4AYHOU8//guHHjPpHVKElo8YwePbpJ0zQbEUXrWL0Xxo4dO1NWoSThxQM0z/tomnYNgH0Rzvdik8k0TrprkqQRDwCMHz9+u6qqFzDzugjklwGU7969+6bRo0fLaP6SmBKxqP7+YO8PAZgIICUMSe4konvGjh37hqw2SVKL5yjPP/98jqIoMwCMRPu2bH9PRH8D8NexY8c2yiqTdBrxHOW5557rbTAYbmPm6wGc24qQDgF4D8Ciurq65ffdd59HVpWk04qnJU8//bQpIyNjKIA+zNyViNKFELUAvlEUZfuuXbu22u12IatHIpFIkpD/B9/ceGPqlO0zAAAAJXRFWHRkYXRlOmNyZWF0ZQAyMDI1LTEwLTE2VDIyOjAwOjM1KzAwOjAwq8BRcQAAACV0RVh0ZGF0ZTptb2RpZnkAMjAyNS0xMC0xNlQyMjowMDozNSswMDowMNqd6c0AAAAASUVORK5CYII=;" vertex="1" parent="1">
          <mxGeometry x="-760.54" y="15" width="69" height="80" as="geometry" />
        </mxCell>
        <mxCell id="QATL2oIaA7AdP9qNfyrX-60" value="" style="shape=image;verticalLabelPosition=bottom;labelBackgroundColor=default;verticalAlign=top;aspect=fixed;imageAspect=0;image=data:image/png,iVBORw0KGgoAAAANSUhEUgAAATYAAACjCAMAAAA3vsLfAAAAwFBMVEX///8AeNFQ5v8AdNAAdtHs9vwYgNTl8foqhdUAbM4Acs/y9vzz+PxG5f8AcM8Abs5S6v+t8v+61vD4/v8AfNPd7PhT6//g+v/l+//H9v9j6P9/7P+IuOaqzO2j8f/z/f94r+Nant259P/T+P+Tvug9j9iS7v/i+v+00u+ix+tuqeHU5vZLltpYnN17sOPJ4PSM5fpI1/cxr+Ullts6vew/x/ApouBL3foTjdgasudDzvOE8f924vrI7/un5/kflNvOb3OoAAAJu0lEQVR4nO1daWPaOBANtjiitTliEsAQCGcLJLBp2qR7//9/tTa3bD1Zoru1Jft9bDnEi+ZpZjSeubnJKpynVTntNeiHmW3T+sxLexl64a5GSwFo5XPaK9EI6xdKSjsQ+rxOezWaoPpE7NIJNnmqpr0iDeDNKrTEgFZmTtqryjru5kf7vCSudpf2ujKNs6ixIPSlkDiE8uZS1FjYZFN4cTx4yzZFpO0stb1Me4kZxN28ISItRGO+TXuVGcP9uMEVtYjENcb3aa80Q3A2FIpaxFLpoHBGDliWhKIWIa79mPZ6M4FtrY52Fv/fC4kLRO0ZiJrdmC3rfOJI4yXf8ZbzxHdvQ/EPmCmvEKd0kOOU0rIEToKTHa7ndT5x+ZW4Q06NQ0nlgpLHaGR/3I80lxJ3D8LPIIwaMGGUMyCIuFXeJK68AfZJ6DgWtN+PQYB/+/ZrN43VpwRvCSyvVOeniO7mHCeFVr5arjUc/ezVpwVuTm1HRBslJJ1YnG+TLx9Ny7Jcv/dzV58SkMmViC3SqurKJpevfXt9sPZw+52ft/qU4AxAJJV8Mq7Pm9SufWs2rRPcheGWitwJ1ulA+Lx/t93+zbogLeTNbf3/a08NW+S82iW5xEawV21C3j8erChcy1SJq45vgajRF+k02v34++9x0gyWuAEIzAOnQ8Hd94YPTS5rVrP5m3lZ80eUU6NE5cdOXBeQ9vCtQpX+ABoA5tTsxpNCtnbqA9Ksh9fv4TeQW3lzzzzux+AkUPuV3T4irfnxfvwGm27MyJoHoThID4FIig9vCO3T+tq++AZaMUHisKdGZgofM0H22Wx++87+WQxIKW1R+KmW9elg+3x9I7FvIFTri0EcftafFTZEd4Hs07Xe+QkoKuk/ZxAw/CzRmkJG22tZkLThCGpAXeU7MoRHeJFXGihUwfSg0+H2wxxlGeYGGio7OiPYoos8Nd35BEXN9aeH16yRFNi6Zc2rK/BLSnSu4HSMoNPhWpcpD3yZA/OeWcQMXeTR9lLhfnOCRS2SYPNmqMirXtOm1rxcQfb5pCBqOJLi5TrKaH+Tti6GWq7xfgGpzxUKSUcLSBrIrK151zQBKlrTRtsq1tKCoibI4z5yLVVn2ihViaR6SNQC+xTeGgzqcVHVlzZSV3nqrINFzU9K4FbjVZm60kaUCtLURY3FNloDrCltUndSJ+BIyh1KfkTkJlpP2nCxbae16Pu+329NT3qVFElJfv/G1p62Wz5ro6Fv7U9L13X94U6zcHroHElJwTGAtl84r4hmNUK3fzTEQcFEbQGG0taN26LrI/uMRVLJMJM2HDZxRU391thI2jrynF1ZhmUibSNfnjSrdVVBuIm0weMyztriyhJTA2nrybKm6HRcwjzaPEkTVXY6LmEebXKbLYikfuQpF/Nok1I2lUiKB+No82RIu17UDjCOtmnyZvsPCuaNo01G2vrDXufHnt8zjraWlLQFL+pPfkDejKMNpm451PnDa5kzjrahQhAf+G79XhFchZio0BbuOb91xQMuxtEmHVqdmfMnyjvOONo6yrRdkzwyjrYb+azRJXGKUYN5tCmdCWfe1AJ782iTCBPAhlM4GsyjTSFLGd1w8ncKBtJ2zaFwIE7aUA2kTaRubggBbwvJBZhIGwywXL877U2GPqbO7cstwEjaPL68uf7RrZ22fMCcJG9G0nbj8fbbmbUQXcCc25cJGcykjVNjyqktnfZ5xEntN1NpizxG5fIrFrgVSDLngrG03dx8avX3J6fr+gt0ecCrFpHoXWEwbQG6nV6r1ep1Bf6/1+Lst17wxl5H8DazaZMCd8PtHbz+BDBX0AbO3QN7oJ9WQVsIwb0NPzVS0LaDKJXOKyAvaNtDlEvneMAFbQcI91vMkytoO0J0Lx3z5AraThBdTLuf2NcWtJ0gygpHA9WCtiPESWGXjc4K2o4QF49EToWCtgMSywmZVxe0HZB0ccNaaUHbAUklN+ytVkHbAUmX+WyIVdB2QFI5IeuCFLQdUNB2FRJpYzyQgrY9ekn1XWxYWtAWAj9Df6aNqRwsaBM1BrkEUzdY0Ia7HTHwmffknjbc7Yi1UTbjlnPaJETtAPYCK9e0jWDf2ITNlmvaYIvFOPzIJUx+aVPqFRKtu8krbbhZPc9EY0975JM23O2Ii/i9fC5pg83qXYvXG4lT5JVD2gTdyPrd6OHqWtwOKybQptRmWdCsfv/AWmdhHV8RlmrxH/H4RX/aqEJ7alGz+pNrNuotfD9wOvqLKShvWz8T7WlTGF0i6OscbeE2wgXj5RU7eUZT2sIO/DLtnbHTkdw39gLL6BBYXWkLxzKtkiwVT8hRGjN3V4u0j9WZtnB0gbjLMxz7Jd839gZMW9eZNnFPcVGzevnHSJ0n7mQLvWnDHexFoqbQ7WgJxmnpQxucac5pLe79N31jt2hAhz7zEgLHCQyCoe1ZxHPAkZS7kG9kASdDBcd44mmUIXyGY4cYL24qiKTknQ44fCgUBoXRMxmAM2vzpYbQl6PE4fStUuuPR2Sf4Tg/jbbaHnD6kE2eQrkRRlLy9rl9RvZpk43ClIbsYDtHEleZObBZvavSN7a6ssGQI0LHCqNnsoUl/0wl9PsrFjV5p8OBc5oiGqobyhvOyCu79hXMTw4bQcl/+B06d0q20jytLGL9EtEeu/3FAqwFkZR8UMCNpPbfQFTmaWUVzKg4Yr+9wq2m0AHK2TSgqEklXDTA7JTMoTUwFV4xkoKDwzUXNRbl1c6g7NLXJrTP5EfgT9jG00NH0pTGrWcf63nDbrxjUVOIpDizrI6ipjRuXQ/cvX0g+2z+IS9q3oAiUbt91nniMoL3K99Xa368y+sRf05fiIZBosbi059x4nZT4S8CVSHg4PDghDBL1Fj89cESd5oKL+NrVcc2EjWlyac64u9L4h4upsLTitizx5EUqcvtVa1RPklc0/rCZJeEyTEYSRGlcc4ao7OTuKb1LRro4yngsRDtLGoVnaZS/xj+8t3m7/9wmODPnC9vwPXKMXeXFzh/f+EMrt3vnqjEeSD9xGSK84LqChyLpM5Ogd3O68g+jfXURFgjJ4zUzxJ3P4aklaK3YHkBdPnpYRisM6DQPlXGORsGHGDS0qOAVrUZ9QYCpzPq8+jw6fN/VVRm1JuJ2Gju05ZComarzKg3FzirwYHdyLGosXA2SOJiO1CuMjMvuIcSx8DcnNq1wJeeJ+TXUxPAW4olzqa5Cj/lUV1hiSP1QtQgYPkQrRWemgifecVqdjs/ObUr4QyiEmeTVSFqyWALcQl93ia/p8DN7l6vELVrcHBGKCk8NSWEj7SQRiFqyqi+ZDin9i9I6c8ANm2RYAAAAABJRU5ErkJggg==;clipPath=inset(0% 26.33% 0% 26%);" vertex="1" parent="1">
          <mxGeometry x="-760.54" y="540" width="66.07" height="73" as="geometry" />
        </mxCell>
        <mxCell id="QATL2oIaA7AdP9qNfyrX-61" value="" style="shape=image;verticalLabelPosition=bottom;labelBackgroundColor=default;verticalAlign=top;aspect=fixed;imageAspect=0;image=data:image/png,iVBORw0KGgoAAAANSUhEUgAAAlgAAAJYCAMAAACJuGjuAAAC91BMVEX////9+vXy3sHvz3zqvErpti/lryLuy3H14Kz79u3+/Pj77rXrwlnkqRDjqBDkqBDiqBDnrxr68+fjqhb889T58OLrwVX15tD9+Ofruzj+/fv//v7778DjpxDipxD26dbiqyDipg/jphDgpRDhpRDhphHhpBHgpBHfpBHfoxH++uz9+OP55In33nP23Wn322X22WT00UfxzD7wyz7xyjvuwTTpuyv555n32l7100r000r10kj00Ubz0EXyzkHyzUHrwC3fohH666b01Vfzz0P67Kz42V3otyb44n/eoRDwyDjdoBDyzUDdnxDepR7cng/xyzzbnRDwyjnanA/amw7ZmQ/Zmg7vyTj048vesGraplfdrmXiuHnpyZjy4cbrz6Xju37vyDfXnkjSkjDTlDTVm0Lt06z37dzJfgzKfw3NhRnmwozPiiPuyDfboRfZo1HLgRLRkCzw3LzQjSjnxZHt1bDvxzbYmA/PjCbcq1/MgxXNiB3OiR/89/Hw2rnKgA/UmDz69OrTlTjXlw7Xmh758ebuxzTkvYLgs2/ntCDWlg3kv4btxjTqzJ7uxTPWlQ7VlA7uxTLuxDHUkw3txDHUkgzu17PhtnbtwzDUkw7TkA3v2bftwi/twy/swS7RjgzSjgzswS344oL34Hb34Hn33m/44n734Xz34Xv333PQjQv34HXswCvQjAz333HRjgvPiwvrvin23GX23WvuxDnOigr43m3rvSj23mzMiQrQkRvrvCfMiAr23WjquybLhwnquiT23GTKhQn23GPpuSPJgwnIgQnouCL23GLpuCLptyH222D23GHHgAjptiD322D322HFfwjJhgjptR/IhQj321/Jixj3217pshzptB732lzHhAj3213DfQfHgwfGhAjGgwjBfQb321zFggfpsx3YnBPAegb42l3EgQb42lzDgAf42VvDgQfCgAa+dwXCfwbBfwX42Vr52Vr52VvBgAXAfwW7dgS6dQTJjiT62Fn52mXaoynEhiLTm/a9AAAmM0lEQVR4AezVxYHEMBAEQC2DrZGXGfJP8pj+1u+qMhjs1BMAAAAAAAAAAAAAAAAAAAAAAAAAAAAAAAAAAAAAAAAAAAAAAAAAAAAAAAAAAAAAAAAAAAAAAAAAAAAAAAAAAAAAAAAAAAAAAAAAAAAAAAAAAAAAAAAAAAAAAAAAAAAAAAAAAADAYDgaT6Z9TMaz+SLBH8umneYouY/o8mo8HyT4tp6tchWxabcJPu32uZ7xIb2D4z5yNSVO7z8LzqNcTSkloh0kuFynNbfqdus28wTLWVTaqhK3273ruhgvtJXHJPf3uVW3961685xrK/NqEfgmPtxn2sooKkTg11Z9uY8T/925jVf27ALpbSAGoHB5oMwYMATa+x+wgReOumu5Q/+8d4ZvJNk7WhUr8NTzR5ZOWKzAM1XUvHgUZMJKqSJgmbDGnevjYZmw3u5ZvUHVnSYBLBNWYljRZJOwLIaVVSUsGwQLVdNIFazaVlhWDevtpkpVk+lUWCSs2hVYVLVhJSwSVv2jTXFYTYUVJ6zkCqRGWP9MWBlVTiwSVu6wglW7ZTUl6oRFwir/sYpUwcqJFSes/LnuxLICrLcMq5Qqmj+6yIT1H1Q1TQMsE1b9UyCsYlXAMmHVPwXWqOp7YJmwOKxyqghVTCwTVuUKbGFVUAUsE9aIfwt0rgpYJqwNmPGqzlj1vbDsx6uyqrZ8WO2CWNcJy368Kj8FToao2rQAlgkrreqG1WITsExYIw4rOqgClgkroSpYgSQsEtawRxtUXa9A6v0qvEpY41TBSlgkrFpVhRWIquVSWCSsjKrmvqqlE4uEVf0ftI9Vwap3FZKwppNNyT9WdK5KWCSs3L+FQJWwSFhNm1JFp8NKWHY1sQYeVvEKpE5Y9uPV+MOKaLVaCet+wqpUdWdYrVbr9VpYJKyx5zqqdqw6VyEJK1YVr8BIVecqvEpYSGpSh9V6x2q1yVV4lrAOkipUxcNq129hHRJW+SmwvALJiUXCAlKfUsUKJGGRsBZ3VMGKalWRsEhYJVXxHytWoLBuElb5KbBwWAkrylWY/WNFwgoSVuKPFayEFeUq3NVdxApMqFr5CP1wsTz+U923Lx/vtNjo6Aec606sv+zawVITQRDGcb1wgCOchKMWFUEhyWaVxM26Eo2T2XGJWXn/R3F60xN7M5PJWNy6+l9ScOD4q28akH+nN2e3Hz7eed0faDjqGtOySX5ibaUeVjT4pgE7WNLlzafPD8GmtBk0nA0h+Ir2BSrmk5O31+ljRVTZBBa33pzdPxxoip/RFGKimpCUq/x6vpWFYlJVVVUlsJh1+u3R0nEfPiwwBaQ8VYX9gAraYmJloZjrBFXAqrINmMGSLr+jp9A76FQFpiqEqmtiDy3gArISVAEr+MQMlnTx48AjSFDNKKoigqprab2AGcCV8AQCK3awpNc/g1v14FD1VRVBVYt+4/PB7oFLUwUpVrCkq8BD6K6q/ak6qgqazxe5Q2PZxA8rGidY0uXt/gs427Hqv39OFXI6pApavVNbNIHJoocVjddPhdL7O/L8OVTeVHm/VoioKsv56EQ5LYPoWBFWitVTKF089lUFjyosBVU5h5bKgRmkqAJWSnOCJV3B6zclqHxViVNV2txk5UpVEFmsuCpIYDGDRaeKloKKqMLNquuyLnNVYYMjh1WlXEZg8YIVmKotJ6cqHVVZ238QXayYKmQli8US1t5SdWf6MPEHwLKnqsYorPhYkfSvVxIjWFPv/RumX1UOFVTvGllYto7OIHZYkbQ2AosXLIIqrCp9qgBVV+60aBXZqoqoahqBxRMW+c8K6Q8gLlVf1XjcwdI2YyysyGGFqoCVLBZDWEWR+FsFKDZVoGoMi6VtjbGpo08gqAJcAosZrPBULUKqSoiiclFUUN5JAS/quCrTfW/TMIMli5U0VdCRqRphT0+j3DRGQ0ZFVOlOle5UNeu1wOIFK01V2lSBKii3Xgisyuarck+gAVVrgcUM1vD/fwPqCqPKsqwPK6TK7KmyygQWS1gJt3rtP4BBVf3Fipzr+ASCKoHFEFZkqugDGFblo9rCcoVU0cPKsZKnkCGsCCoojoqqwi9+Z8sG96jRQVW2nipoI7B4wXrZVeWhgsbLHRhdKcyd674qaLMRWGxhvXyqsGy5Bi+Qjh9WjpUsFjtYBVFFUAX/WBNDlTlUW1jYxhBV9LCiqmSx2MLy/gKY+AMgVUVbblxGWU7Bw4qqglqBxQuWN1X1kamCwlPlw2obTVQ1VBWGqtr2j8DiBetFUxVAtVqtEFbbPj+vtSGq1kTVv7Fq4RufZbH+smsfzan0WAPHhRdUwdJVFFXdC96v8IT1OznnYIzJGR3gDsE4NWDS4BzwTY43fNQ5EtcINWonpt0L5n8DzvFXR0L0XGleU5pOHkz3arbC+qV6V/W98qxKqPoRU6NaxX7DVbH+9ugSyFnNP7F0j09u2ePVycIUWgubikRjcY9uDTERTi7bCmuOO4B4YiWjQlVYavU3XBUj87enqWK388FaSmfksrlwMl/QyELkSdPZoJgrFXQriWUKJXthWV5XJaGSRtUPf18VpMSowlKpN2/epH4z1sImlnkJRFAqVcHgyr/IPFUomKO0Wluru8gCVFgHdbWGhyjbqAKNaLYuhS/bVf0oUAlVDFVqc5PBGrf1D8WwklVh7A235pxY26CMFnfi2oLAMqQQDgDQajhgBQvshWWtSqASquTEAshHVYqrwn4TXFnZQisIy6QKM6vC2NtuzQerCVDNZKertar8R1sutRcCVi1fn2p3oxHJdCgA7cadgfXsY3XrUcVVcVhMCqOFsNRLoKxqBSGuzA2r5u+Jlpd9/sQa/9FWI75FgNXvETnN18gCAO37HYJlsauSVa0KVGJUCVUCFT7FYfEG//yLUPU3oUosgRjur7Ctf88LKyP8iB9tBrCwbwFhYXoggn5oeugArJ88Y1Sp9+rc0gQV7zeDcQjLfGKFif26UIXZAIv9aHeqALDjWURYWDtZBYCk5gCsB0fV3/mowtSjSqEK22OwtjCkFbRQhQlVrIEtsLD2vgHQ2dcWExZpHwBAOe4ALLOqBx+sEahSFqh4h+hqgB0dBcXGalZVcKIKIdoFi3iPqwDN3QWFRXw5CvRAcwaW+lhdoJJVpSbHCuMEKt7JyZ57rOpogLCEqiD/b8xqZXpY8fEWtAsWaUco0IpnQWGRvAFQCziwFIqHldUP1jxnVJ2gKszNVTFcQVQ1ey/QrIrf2gaLBDIARn5RYXnSAJ3T14f16KgSxwqISqlqT1J1drbn5qyOsCDXZKlKsLJhjyVqANCwa0FhkRJbC/XXhvVHtPTgqBJnVdhjo+oMVWFuXAR551v/lFVtCVViWGEo0UZYhQxA2b+osOoG0HT79WFxVdaonjWqeGd7h0fjRqMtWVVQrQqzdWLpBxQ6iUWFVdgGyA5fHdY9qtW//7g696hitxcXF+7RfVvmc1ChinWviv1vIyyS6ACNLiqsYQagVnhtWD+oL1ZQn1WpVZ3Jqt6+ncB6h7DEgzbyxkpWZe9SSEJNoGEvecX+B0u+WAGzfATw8VHFVL2dnljvBlbDaoAJVSw7YflqYpthytsLxOv1pZDPpRN1uusFJHWvV/3ioZ99unhgaPn52v6hLl0b6nLp88AKbCteaT+sVfPjynOMKkSFvb9wv3v3jrF69wFhPbYE8s5H53bC6vUBuoqTLFeosdMvFw2j2Kylox+HusrCRiUSIM9MU72T7lk6DmdbRQM/XzlbSdaVV3gOw63JBQl6r15aC6crx745YH00gO54HYAlLYDPHlWyqvc89zuuCjt6SNVgomp0fm4rrGFWBWt4WmmBiBr9pF+bnXZZoBH1+PHVra7QDKzTmevoerF0EUSUGrnYsno/eKBznf5kF1FQ/HugvRiWfkkBYsQhWM/ZVWEWo4p1dXWFsDir0ejDQLGxGghVrBFjZTMs/MHTtMu04iS6HTC3HZ2hEijLWxRRqGtk6kRZDIBWpE/o3chVKZjqpOszMhv0237Ql9yeINx5CSxx1rIecACWfKzw+KgSxwpqVZgbVV2PRvj/mJNSlRhWGN7aCSteNP9u9MCOQQGAgrHeTadzmWaHAiub95oApgGqH1XL3cGYgCJvmAJNStPxsvjt07Vq2X52vTlWRrdPNTUsvZ4bv3251u9X4i9eCvVjcOSxwh9S/7VRhY2fQFhMFXZz9DRVmE2wxABJynugLP89F9OlpUKv3fb4QonIOrCXFZOmNTMpIREN+8BmgXolBCjWiahQAVarUrr1+4a9YSGUj3a57OaproClaYlt9tEjsXrAt9xz6S+GFcdXbYeIA7CkC4sVqDCLUXXBk1Hx3GNVNx9uRihKsLJShV3bCcu7Q6Gan35BrEUBaDOy1NYFtsBxBrBORD5NvDUAVHcpdw32xgmLczPo9qZ+8WnKptNlaGp11Hv5dIe9tD4La8ebaOJr9gPavMcNwwqFzrHuBCzFxQrKUSVQYepRxbu7Y7BQFf5DWIo7gZhJ1bW9EyuwLm+TtEaRb3B2XebLAg+KgO0M5d27+gGhJJ95a5pikYxQ6UC2F6YAnUrc/Ka9ffbp0r1ZWLfbQHNxfe5zrOUdAFrpEQdgiQVQQvX4sYKwJFChqrtPnxAWDive6MElUKiyFZa+T6U73HqiCADG5bJituVrjEvEIzMRlweIPDlgZRWftVADMHbFB9jvoKs11adrGPiamBkWbGcozQXmPyAthB275v3HN48+AnimGlUCFTaNCm+v3Df3jeRhZakKt2T2wfKz3/MGmbS0TgGKDZcSYbxLAarHGhGdKgdTvAmAQA3Fvj5fBegKR/UWAKx5lIv0JQDkemZYlEItTuaFpbH9P60tEUdgWaqSUT1tVOENaxrWA0vg9T2rD5h9sFymC/2GaeYqphF1oT4FaN5OwywD9JcVV6MUL4tAo+q7i5f6ZLRVKND00IJEX9gUsJB2TJ8Tlit02aJA+3XiGKynjKq3mPWuClV9u/2MTWB9+TIaSKpkVlOq8I3tgqWx5ab4cWphAoBO0kusqm+DDKGdRkNLZq4VgL6/DzTnUd1dNITMhAHQqhOLSiCulhKwaNpDngkrs+QXhW4b4TLzGQ4Qp2BJrE4w9bH6IwugUHX3DdbXL1++fB0NnqYK/7MJlp5ospVMOAoxN2EPsUxvVAGgRERsj1aafQQO18cDmZy4G9kfTlhW5IMkxcfpesywqgnyXFidZkvUNIACvuygRxyCtbo36YR1xhu7sj6rUqPiqlj/h6qwm69fR+qN1fX49v5UwsalUEuUUUW3IK1TsB4i/yHuvJ7axvY4jv1m542Jhx3pzjivW8gt21629yeecYWxDT6yudcmIXewwbQZ3zDj7QWnO9lO2lKWS0hvW/6sPV8hx/qhI+nEcvlQXARoZ/XZ7/npd460DlSiTNMyWbpU7mAn9BMNHYzJolU5NU6WbPrnNG3evmDyFZg2P3RQLHjZkXs3RPy+joml+J55Xpb3X38PvNnixTf59WD//vSLdqIKXHrrrQtHYBXXCmIJrQLEqm4Nhcsn0fA2169DaDyiseMAXNBm6NiGdgVtjeGt7DSdugGBJVI2jTPHddGIw8VJKhYqtI6IhV5dKal0QizVd/j9V19w5dsm332vf4BhfHC+G/7h6Luv//frr79wjirU6lar3kJiNZBY4CuU60Qrq1V40hWx1IDegtRm10yHqcb4T0ISB4IRRmonhb8unjjQUUAHA35Zelz+HFZskq4EbShYJ53zVCxk4VOLVc6smMnM5jSmqzU1U/EuVvDwq9yWF/jHAT4y+BH8pPMzvsD3+GgBz75f/8frn0Ik9wGQSnUJILHA5cvfWKzCoyGTyapOiDU9FDDfvCF7rDaB3jhLn1Vp94mNu+XBsRymZJxWoKKjAF0SVm1q5EK+0XmNDnWiJemrKhVrKvz0YmXCgWUT1aw/UdoPsuJqwKtYz73PjRJLBaHMVun8RI1qcuUKAuzd/0EjKhX66rpUVqvwXefqvliXwTfUKtEQ2DGxiuQ/2cxxvX5li4Uh9UCczCUlbmSmsZN0rVyqQlfRQxe0IpBclknrSTq743SKNzRHJ8gh1tJyR1aQBsO1aU2v4SvexHoGcSW2yhRVhlXAKhWswteV9fX1dz8+JxVVyKqmVDpHdK3AGZfCqoNiiWBaeiZg6WtjkHPhJEPtZF9hDy7BNGMLLb9G6agcZ8QbC5AWuyL/hHjtWSygDpWKyKwZ1YNYqu8dsVWmARAIrTLMglT7Vg0Pc7MQUC5RBamIVRDrsg7X6wxscrUKNDotln6vxFpWtc7i1QfcQMcAvpDK7BM6VrKasQX5RNRFH4IsoIm7SMEmKlQsmNgBsUBlvIwyM+lBLOUQtartqIJU+L7+w+vcH6eoolJRsRBa184Qq4hWlIvexSoeT+PWaysrS0tLExOpQmTGb1n7W0EpPSZ1pEiDyp+DLSTRsFnfQkskX4GYhh2y+pADZ0kjq7NiAR9uOMNivvbFev4Fq1TSVhlSwSeuFbh+ffj6Pz7lFp06Zz0BhFTUKirWLw1u1bVrG2ccCiuiVeOy9+I9GQpVq4PLywFOpRJUxVdVwAhXAktoAtChb6VKevFGHRSYwBY6/5POkkXRWnnOiUX+B7olFgiUGOrKtsVSDxGrQBtRZUhl8MPrb+lmuVVVFrF0qzYglpRVvOPV6E6DlKKGp+ROuYKY30uQYt0s5Oh8q9UUZ1jJQNYUxhRyyN3JVLsnFuYasFSxbbGee9Umqn6Wjqp1s1Xw6vq759664BpVlM3Nq0d0q/DtjJRV4HIvxNIr6+NZibKiRGdxaLcJB7+81irH2DhdUzhGLkN2Bz2zLoql1Bl20a5Yh61VFWgrqiCVztbHsIiU6m85SQW4WNBqA5yBTQ6FlaEVnvRErKF5XshKJJYaYdCFrhV80j/3RVlrb6GM6TwTjVNU/XQWbzqTdmTixEAXxUIdiJxuV6y/0V6VfFQN21gFtn+9+tYl6ahqwsUyuOgQVmarLl/e6IlYskOhEqONLNpWQIcgppja8nOj5mSDFqSoOztYdSSgdlcsTDIVz7Yr1iE6ALZXVRGrINaLXCxnq4hURKydnZ3GN/ZhZVjF0c8heyKWfrYHC2wgXYIZsrwFszotexbHyCg5YxISm8j17WX3s4XuiqXE0C1pXyz5E8DvWlIBsVT/52y/ucmFkowqsLu7a4i1AxpSVl3uWWLhkujimvxZIb2CLN46TrNh0yjZ6nCG0rSGQ1jgD/VHLDIRnm9bLOmokrXqxo0bXKxNLpW0VUZi7TRpyFkFeiKWr0CTiELncHJJoiRXLVUx7CHrFXxReNY8Xpjhseyw32KhaVtrWyyZqsqwykEqAKl0tnWxpKPKeLY5srOzx+HfGrblOrEK3OyBWC4zLPTf+3RowDo7CNbK1JUZ3Iux+UN4Sn8NDdQ+i5X3JJaDVKRWl7RqGxx9kZ/kSUcVnoCRvR2wB7EcC6umVmh79UassUWZH1TrdK6wuZ7hk+ZGVOukq7V/kAZXcNJpCYtUpc9ixdGV8yCWwwB4hVrlHlXg6NHtF3c3XazaJVbd4uhi7YHbDRpWYqug1UaPxArPyqx2wso+WpSgkWDos6xPQJP1DNi5eKkp3sKKrb6KFYzizKNtsdrpgJo5KJUOF2vTfQA0pAL7iQVu3967fdmwCjqRwopYBTZ6IxYKIlRBziCd5pLWo5OpGrODJ+laiOZxG7fc2AUFGZKur2KF0pC7bbE6GlVNXrxFImvTjFkqwyrAEwtW4QtiNa0CNlaBiz0QC3yyKFqCTqkUMBJWrEccszpYz1CmF91AtbqKeUOU8YIeftTXV7Emi+jhehFLvgPqLhW4c+fFu7c2naMKtKTSGbnd5LK1sPpFYBX69D0SK7RC5vqF4IKt4pjofpN5DHx01tkYHDEnnZwTODRWhMn9FMsHt5Gx7YplaSustx1VkApsvXj37qY4qsCBqAJ37941iXXNcQjcaGnVmxoL5LHcYMzxMC1hbm1ZcE09CvqhedNpHp2irmEkFJq8qvRRrIUc1PYgVnu9KmCNKgOItWvXVrBEFawyiXXv3r0NO6tMGF36XokV4vHCMmGHgTDCROrhbBDNz4Sg+kf7qobFNKI6vYabFR3rn1jLBZSVvvbFIlZ5jSqwtbX1DyKWW1QB/gRiwSpDLBmrdno1FBoDHStUbec/8lgYVxJe2cKVUqKYNLTeNY+lfMgy9CisG/nWUL/ECo6jqvQPeBCro1FlALHkogroj/fvjtwD+4kl6FhRrSAV6JlYvgijtyoiKAlciZg2BQ9pOMSzxwVnlUoJ3dMErkYUqYJr0CIVO5GVbohFb2ijxRUvYrnPK8tHFTAS6xZUkooqWMUxxIJZGy5hhawCPauxQCgFs6JZoXX5HEauSZv7t7FUAn1S4blmPgq7bMYirVgPiFeIRerZLooVOJkjedmOWG5SAZeoolY94OhiNTPLLaoAnhhiPXz4cEPOKjztkVhgNAOzJhYU6xGKlFFgzSh2d5ycWxLWUVhIk5kSjYRgNA2zSgKTg2sZxiLBbomlJKO4SCft6VaR7w+TAdBNKvEASK3i33+9/+FdgVVEKmJVayh8CLEa7lbheQ/FAv5p/U6R8bBCo+WTjH5b7hrRg8zdcET2+AoaQDtCxIkpbF0ZOxBaSrg+Ry5H66hYasW/OsVwpuIf8CaW91qdWoUHiGUvFaIKtKTSGYFWOhvCwspq1d5eT8VS/StM40zHn1zIo/rCiYki3szlxV6hhWVrT55h0/yozf7GprC9mEqEfeqT456sH9fAuNIJsaYnF8ysfVJPzWlgIjngWazORZX+CLE+/PCuZFTh0RDrYZOdhusQCKt6m1hgqLCogdzEamLNn1wYGy/MLjJokx4LOq1rIstp6P39HGab1RPT+h9fnE3VE2vJpL913Bdjyx2osaBt2UxRY/oec6vZAa9idTCqwKNHjx48gli2VRW1SiiWpFWexZqnYrkTyM8y47rWYi5XXmT7r8oxXJFvx1qZXPlAuqeWLCOoo4WiaX+5smbscL4W6MxZoQhWLpwN2q0LYrJieZaKWMXBA8RyjyrK45Hfmuy5WAWtOiJWgblPyFGUodUp63E4gT/iOJvL4rZhNpd0MjmxgkikzJf8Sgf6WIEUs6KV05GzFbvEnmWLMwNyYv3g4QSQRpVhVVMs6aiCVOA/Ta9+v00boZbCCnRErHB8PDzwdKjG/6vGkIoVp2NrFRcZI4zchYbeUwvz1g6ooURqHkEF8JhbGk/6RDPGLE5T051kLFpqEeNE6jPHQvZ+KmuxfEBWrE5GVROIJR9VOn9ALFj1RCzDJAervIkFVLWdXxo8lo8UVtLTmVRpfDIbdC/Noks2p4zBWrow6ra7ymhiNcV3l15JleqJ5LIqSp96mt44VAZVMaPqDDiCH5AXS9KqLWGtTqLKePknF+u+lFWPDav++AOJBauMxNoALlbtcSBWP1B9y6HQYEVR5dr2AbsUCFYrkrurhqrLDvsLVqm6/eZ9MlkjdwIIRFLhNbT6E2L9xZ59HTd3xFAAdgvuxenZBakPtuMcOLOeqywx55wqMZbrM15CBgH/EQ84Cqs7ev3mANx79193VZepUN3dPd/dPDxgFPLNqijiqhisiCtYwhtAa1VxVDnUWK3WX7UqDRXl5RmwHgiWMAIZq3Y7YLmF9aNZlV5VlHxmWNRYQGVRRSmwHigEy6bKd2MFLH1Xt1ZVybmx7myooIpy84C0Dara5bdbWAHr/1SVoApddQHLXlUUBkterKCqHMktrIBlf1kDRXJV4fk1j0IBFYVX1VtYoioKVBGrFKPQLyzTri5XFUNF6XQ6BKv1bK+qt7CUxQqqYhS6h2XfquT5R+lQ6AAspopvVSKs9LNNVcByDMu6VYkDEI9QBVhyVUGVAKv7kCRWRRNUxY7lGZaoCqgoYlVVqKAKsF6ASq8qDqubrpYVVLlurIBlrSqg4qo4Knp8PcNCVdWoRFXlHqubVVESV9XmI9B9YwUsY1UJqN6oes3JsB5tVQVxvd4LwfonCapyZFUp+W2sgPV/tyqEoapU9QcZVu9O3qo4qx7l5eWmW8PiqjACEVJFSa5hBSzxrkr+AMhVvUIVpcCCGx1Vj85LWMJixVRRvMIKWB+yqs6qAMteVTk1rGEj3C1wValp3MIKWLZrdXlXr6uqgtWyVhWHRWmuLlYVq2bkFVbAYqj0XV2oKqRPef261RqLqFhVcVjDYWms4ueqqtFo4hVWwHr3qurwqiqqptMpYBmrCrCGWRWl2whlxVSNPO9YAesDVhWpoqCx9KrisHLOjaWpyqxSjttRGLDUN4AUa1VR6AQsvao4LKT5XVKFskqId1gBC4zep6oQDotXlQ5LLyvKiDL7wmkClv2uSqkqBDuWPgBFWJoqsBpN3MIKWKaXNXJVcVWU+XcFFlBBlR2WoIpyoWoySU5hRb63vlfmqgRU0/l8Pi2wzKgEWCmxxYqrmjgehQHLtlVRpK2qrqocOs+wdFUirAkrK0EVxW9jBSz7tbpaVYSKkmEtWmOgMqZ3AUtQlSpVJc5hBSylqpDrVYXkxlr+H1SUcY81FljxdR2qyt+OYQWsuqoQCZWuih5WgGVWRbmApZQVWK3XbmEFLOWuyl5VeN5sAMuIikJnDcumiuK2sQLWq6DKWFUcVY7cWKIqDktRRcmqPI/CgFWj6gh3Vfr8g6p8ApYdVQVrux1ud+lfVY2gilhRnC/vAYtXla5qKqnSYfVyoKqCtUV2VVcJIxBxDStgdTq2rUpQBVTId19/CVg6KhmWOAKRtePlPWAZq2pqqSqlsWpUGixIklXl7L3CCljCVqWoAiqmCo0FWEJV6bAsqojV+uAXVsCyvQGkKFVVN9ZisZR3dR1WkcTXdaZqv9vt3MIKWH21qubmqsK/AMuKisM66CNwv97t6Nw5hxWw7FUFVJKqAquMwh5XZYJ1PNhUUVw3VsCyX6srVZVzOpXG4luVEdbxCFh8BELVHqr2FLewApZJlYzqb3btAkeWKgrjeOMWwX0FaBxiOCwCd2K4R4mzAjaALOHtAreueVpU92jbSDUuZ+q+79UcUv31rc5Ncio5f1xjv3z3zEyjgEpUhcW6KoufKsAKrLBYUPU/VqIKrKTCLCyHtfyqinsAoUpcHS7W4Cugiuz71ypVAdZCVaeOqDpz5oxZWA7rXjpV8ahqVZIs1qCdKmlYw+KHFVQ5LNOwUk6V9JgUFqsNqizLACvP1wtyWIGVfVgOi39bIRYVVG1sbMQvFlRlZxdLVEkFOaygyjosh5VqqqBKilwsoMrClT8MqgCLqEJFYReWwxJG7adKElShGhXiiwVUmCo0XEcFPaxqVZZhOSz+YYXoqUJksYiqarGCqpMCC6yWqDrjsAzDWnmqgAqq6GIRVGgYVEmFfgIXqvLFsg/r5/ZXlUalYV3Vz/hVhdRioc3j/AmEqmJz02FZhhU9Vb+QqUJbW1uNsL5nqvSNtX2cP4FQVRQOyy6syJ8AkqnSqqQdwGJTRRZrmx5WtarNzZFdWA4LqBKpAqzoqUIallYlqa2qfjeSHJZVWGvtv1dFUWlY5FansMhYbWKsRqOicFh2YRFVradKw+IPIIO1/AmsWBW+WPZhJZgqDUtNVVtYcar8KbQPK8FUaVgDroof75pVraqAqsDKYdmHlQwVYPW/b5UY1LDIYQVVDss4LK3qRPwDmAhWJg0GmYaln8BmVePx2GGZhtX+qkoDC6qkTMHSqmpWWtVo5LAMw2IfViCqEsDKalWZgtWsSrMaSQ7LMKxUU6VhXdWPmyqoqmFNJpMpfhTIVW1vbzssu7Dib/VksPRUKViTw6b6sGp4AkWVNB5PHZZZWFE/V45P/j87gMVRQRUaTtAUT6BWpcdKVE1nM7OwHFZaVKJqZ3cXsPj7R2BBVfMTKFWqJLOwHJaU5P0Dqt29fcDiqhisJU/gtGJ1MB6bheWwklxVa0dUSYBFryoCK99sUgVWQdVsLBmG5bA2GltpqipVgMWnisMqFqoaQ1WoNAvLn8JkDyACLD5VHNbmosNqekTV1G+sDsFqiUrCVDXA4lNFYClV0tHDCqqk3BerE7C22qtSqDSsSgtDxW8saeETOJ1WqiTzsBzWKlOlUWlYeABj+/4crHleoaJPYC6s5A+mYTms9lOF94/AAqrIBtkwqJrMBRZTJQVVpmE5rHRTpWG1QVU1nFeqpHxURVSh3Cwsh7XaF4CJYEFVv98XWKHwFOKHNlqVZuWL1XlY+ntVqWABlVQt1mHhxmo415Uq+4vlsFJNFdrb24uDVaMKCaxwZc1zUaVZaVW+WN2GpVHFqgKs+Kk6B6tSJeXjJlVg5YvVdVhrbacKaVh8qhSsitWvAqvxewvIF6u7sMi31bkqCouowo31qzRfb/4q0Ber87D4VBFVBBZBBViCSmwBln4CfbG6DmtNWnWqGCyiCrCEFWBNp1qVL1Z3YekHMB4Vh0VQEVhalS9WB2HtpJkqAqtSA1VxsPS57ovVwR7dSTdVYAVYQDUAqnhYRJWq/K1nMe+WWxNNFaq+4/V7gMVRUVixlS/1TOZdeze+AEyESgqw+PuXBlY5+7hnMu+8L5Kp2gv9Lh3C4qoSwfrpk57NvEeTTlUIixVdX1oJ1vOX9Wzm3XhnvCqKCqpaw+qfrT2scvRyz2rerV/Ho+KqGCyCamVYZf7heT2reZc/9FiaqSKwiKrVYZXlR6/07Oadt0BWq6tK9wBgRatqD6ucvXRDz3DeLeddcWx35S8AEV8sjqo9rLIsTz/he2We1u33HHtsV3P6nUT+OVkswgpfFYYEVsnLZz+9/q7fV/Zh3XLz7Vfc8dmx6P5Y0v03NXUR78+/0G9LevP1Z/9rDw5qAABAIABdD7Nqdiv4dQOmwwcVAAAAAAAAAAAAAAAAAAAAAAAAAAAAAAAAAAAAAAAAAAAAAAAAAAAAAAAAAAAAAAAAAAAAAAAAAAAAAAAAAAAAAAC4AwAAAAAAAAAAAAAAAAAAAAAAAAAAAAAAAAAAAAAAAAAAAGAB6ZVdTruEaw0AAAAASUVORK5CYII=;clipPath=inset(28% 4% 27.67% 3.67%);" vertex="1" parent="1">
          <mxGeometry x="-760" y="240" width="141.8" height="68.09" as="geometry" />
        </mxCell>
        <mxCell id="QATL2oIaA7AdP9qNfyrX-54" value="" style="shape=image;verticalLabelPosition=bottom;labelBackgroundColor=default;verticalAlign=top;aspect=fixed;imageAspect=0;image=data:image/jpeg,/9j/4AAQSkZJRgABAQAAAQABAAD/2wCEAAkGBwgHBgkIBwgKCgkLDRYPDQwMDRsUFRAWIB0iIiAdHx8kKDQsJCYxJx8fLT0tMTU3Ojo6Iys/RD84QzQ5OjcBCgoKDQwNGg8PGjclHyU3Nzc3Nzc3Nzc3Nzc3Nzc3Nzc3Nzc3Nzc3Nzc3Nzc3Nzc3Nzc3Nzc3Nzc3Nzc3Nzc3N//AABEIALwAyAMBIgACEQEDEQH/xAAcAAEAAgMBAQEAAAAAAAAAAAAABgcDBAUCCAH/xABNEAABAwIDAwYICAkMAwAAAAABAAIDBAUGBxESITETFkFRVNEXIlZhgZGToxQycZKUodLTNlJic3SCsbLBFSMzNDVCQ1VXcoPwCGSi/8QAGgEBAAMBAQEAAAAAAAAAAAAAAAIDBAUGAf/EACsRAQACAQIFBAEDBQAAAAAAAAABAgMEERMUUVKRBRIhMfAyM0E0YXGB0f/aAAwDAQACEQMRAD8Au+SRkUbpJXtYxgLnOcdAAOJJXzhmrmnU4gnmtNhmfBaGEtfKzc6q+XqZ5unp6hMP/IHF77fb4cN0MhbNWt5Sqc07xFroG/rEH0Dzr59QEREBERAREQEREBERAREQEREBERAREQEREBWRlZmdVYWqYrddZHz2V7tNDvdTa/3m/k9bfV563RB9wQTRVEMc8EjZIpGh7HtOoc07wQepfipz/wAe8WvqqWfDNbIXPpmmakLj/h6+Mz0Egj5T1IgqjMe7OvWOLxWF20z4S6KPThsM8Vv1DX0qNL1I8ySOe7e5xJK8oCIiAim2WWMLbhKevkudqNwFSxjWABp2NCdfjfKp94ZsM+SLvmxdyCi0V6eGbDPki75sXcormPmDZsVWKKgttiNBMypbKZS1g1Aa4abh5x6kFaorwp848NRU8UbsJOcWMDSdmLfoPkWTwzYZ8kXfNi7kFFor08M2GfJF3zYu5a9bmzg+vhMNZgoTRnodHFu+TduQUmi7GJprJU3Az4doquipnjV1PUPD9g/ku46fL61L8tcfWjClmqKK52M3CWWpMrZAGHZGy0abx5j60FcIr08M2GfJF3zYu5YK/NzC1dQ1FJLhKQMnidG4tEYIDhpuOnHegpJF+nityyVFNSXeiqa6B09LDOySWFumsjQdS3f18EGkivTwzYZ8kXfNi7k8M2GfJF3zYu5BRaKbZm4wtuLZ6CS2Wo28UzHteCGjb1I0+L8ihKAiIgkWXl2dZMa2euDtlralrJD+Q/xXfUSij7HFj2vbuLTqEQeUREBERBNMtMdtwPPXyutgrvhbGN05bk9jZJ/JOvFWFBnpJUNLoMHyStB0JZU7QB9EaolWhlVi/EGHrLV01lwtU3eGSpMj5omvIY7ZaNnxWnoAPpQSiXPGeGMyS4NmYwcXOqCAPTyah+YmaLMZ2KO2NsooiyobNynwjb10a4aabI/GXbzBx1ii84SrrfdMG1dtpJTHt1UjJA1mkjSOLQN5AHHpVOILtpc+Y4oIYBhfbLGtYD8M3nQafiLf8NdZ5EVPtj92qMtsr4LjSyxRmWSOZjmxji8gggelX54Tsbf6d1/s5vsIObNnzyEhjmwm6N44tfV6Eejk16gz3dUuLafCL5XAakR1W0QPRGoHjS34sxXiOpvMuE7rTPnDAYm0krgNlobx2fMt7Lw4uwRdKivhwfdKszwciWPppWaeMDr8U9SCW3DOCevoKmjnwPUmKoidE8csd4cND/h+dRDLjM1uCbRU299mFaZqgzcoZ+T2fFa3TTZP4v1qb3HNvFlvo31NdgaopIG7jNOJWsaTuGpLB0qhCSSSeJQXxFnhPNGJIcGTSMPBzKgkH08mvfhrrPIip9sfu1xcvcc4osuEqOgteDau5UkZkLKqNkha/V7ieDSNxJHHoUj8J2Nv9O6/2c32EFN47uRveJKm7/yVLbRV6OMDyT4waASDoOOmvpXVywxK/CVfV3Jlhnuj5YuQY5ji0RjUF3906k6N/wCldvNC/YixXa6eS64NrbayheX/AAp0cmy1rtAQdWgDUhvqXWwRivFmFcOU1qo8A19Qxhc8zmKUGQuOuu5nVoPQg6vhrrPIip9sfu1inzzlpwHVGDpYgToC+pLd/pjW94Tsbf6d1/s5vsKE5q4uxBiGz0dPesL1NohjqNtksrXgPdskbPjNHQdfQg4mZeO244noJW2wUPwRj26ctym3tEfkjTgoWiICIiAiIgIiICIiArLyvxBja0WaqhwnYYbjSvqS6SR8L3lr9lo01a8dAHrVaKzcra3H9NZqpmDLfT1NGakmV0uxqJNlu7xnDo0QdHHuKMw7lhStpMQ4agorbJyfLVDKeRpZo9pbvLyN7gBw6VUKt/H1wzOnwnWx4ntdLBajyfLyR8nqPHbs8Hk/G2ehVAg2Lc+aK4U0lMwPnbMx0bCPjOBGg9avbntmz5G0v0WX7xUTbjO24UppGh1QJmGJp4F2o0+tXx/K2dP+SUXuvvEHnntmz5G0v0WX7xOe2bPkbS/RZfvFGr5mtmBYLjJbrtDQU9XGAXRmEO0BGo3hxHBZcO5m5jYlrX0dkpqCqqI4jK5gia3RoIBOrnAcXBBws0cS4zu0dHSYrtv8mQAmSKGOFzGSuG7aO046ka9e7Xzqvlc+Krfmriq1m33jD1HJCHh7XMMQexw6WnlOrUelUyQQSCNCEFuYBxRmFbcK0dJh3DUFbbWGTkp308ji7V7i7eHgbiSOHQujcsxMy6CponV2G6OmfPLyEDHU8gEz3cG/0m87ty5+ALhmbBhSjjwva6We1AycjJJyepO27a4vB+Nr0LQzKueYXwK3y4tooaOKGqElNJDsa8qAdPiuKCTXHFOaNyoZ6GtwTSS09RGY5GGll3g/8i2Oe2bDR+BtIAP/AFZd3vFhtuJc37rQQV9vtVBNS1DA+KRvJDaB+WRaGLMU5qWqx1El9oKOjopmmB0reT2gXgjxdHk68ehBmsmYeZlxofhltw1SVtNNI9zZhTSEcdCBpJwGmnoUbzQxBjW72mkhxZYYbdTMqNqKSOF7Np+yRpq556NV08vrhmZBhWljwta6We1h0nJSScnqTtna4vB469C52aVbj6ptFI3Gdvp6akFRrC6LY1L9k7vFcejVBWaIiAiIgIiICIiAiIgkOEMG3fGEtTHZmQudTNa6TlZNjc7XTT1FWVhnBuamFqOWksk9BTwSyco9pfG/V2gGurmnoAUQyqtWK7pUXFuELrFb5I2MNQZHlu2CTs8GnzqxOaObvlbSe2d92g077hvNy/2ua2XWroJqSbZ5RgMTddlwcN4aDxAVcYry6xBhO2suF3jp2wPlEQMcwcdognh+qVafNHN3ytpPbO+7URzOsWO7Zh+GfFd9gr6E1LWtijkLiJNl2h3sHQD09KDVocnsaMdT1lNHRBwLZY3GoG48Ru0U7+B51f5jb/VD9hYKXCebLqaIxYspGxlgLW8s7cNN3+GsnNHN3ytpPbO+7QRe/wCV+YWIbnJcrt8Bmq5A1rniZrdQBoNwAHBZsM5cZj4WrpK6yOoYKiSIxOcZWP1aSCRo4HpaFIuaObvlbSe2d92nNHN3ytpPbO+7QfssGc8UT5JLlbmsY0uc4iHcB+oqswvgHEGMqSouNpZTvjZOY3mSUM8fQOOg/WC6eNcQYxs00tnuGL4q90kbmVEdHKXhgO4tcdkbzv3D06LdyuseOLnZKmbCV8goKNtUWyRySFpdJstOu5h6CPUgkthw1m3h+1w2y1VdBDSQlxYwmJ2mpJO8tJ4kqM5qQY+itNGcaVVNNSGo/mRCI9Q/ZP4rR0aqZ80c3fK2k9s77tQrNKyY2tdqo5MXXuC4Uz6jZiZHIXFr9k797B0aoM2WdwzDuNpkt2EbjTMpLeQDFM2PVu2XHcXNJI12lzc0rnjRktPZMZV0ExaBVMigazQa7TQSWgb/AI25cXAFTfRf4rfhy6i3VVeeS5R7tljtNSAdx6dw3cSuZiKvr7jeKma613w6qa7k3VGuoeG7gRuG7d1ILNy9p8zZMKUjsLVlJFai6TkmyCLaB2ztfGaTx1W3ibBmaeKaWKlvc9DUQxScoxofGzR2mmvitHQVpZfYezDr8K0tThvENPR21zpOSgfI4FpDyHbgw9Op4qR80c3fK2k9s77tBUGL8G3fB8tNHeWQtdUtc6PkpNvc3TXX1hR5TzNW1YrtdRbm4vusVwkkZIacxvLtgAja4tHmUDQEREBERARdXm5duye8Z3pzcu3ZPeM71DiU6qOZwd8eYcpF1ebl27J7xnenNy7dk94zvTiU6nM4O+PMMFrvN0tDpHWm41dE6QAPNNM6Pa04a6Heuhz1xX5S3j6dJ3rW5uXbsnvGd6c3Lt2T3jO9OJTqczg748w2eeuK/KW8fTpO9alyxFe7tAKe6XevrIQ7bEdRUvkaHdehPHeV65uXbsnvGd6c3Lt2T3jO9OJTqczg748w2G4zxS1oa3El3DQNABWybvrX7z1xX5S3j6dJ3rW5uXbsnvGd6c3Lt2T3jO9OJTqczg748w2eeuK/KW8fTpO9YqrFeI6uF0NVf7pNE4aOZJWSOaR5wSsfNy7dk94zvTm5duye8Z3pxKdTmcHfHmHKXStmIL1aYXQWq7V9HE5225lPUPjaXaaakA8dwXvm5duye8Z3pzcu3ZPeM704lOpzODvjzDZ564r8pbx9Ok71p3O/3m7xMiut2rq2NjtprKmofIGnrAJ4r3zcu3ZPeM705uXbsnvGd6cSnU5nB3x5hzoJpaeZk0Ej4pY3BzHsdo5pHAgjgVjXV5uXbsnvGd6c3Lt2T3jO9OJTqczg748w/aDE9/ttK2lt97uNLTs12YoKp7GjU6nQA6cVsc9cV+Ut4+nSd61ubl27J7xnenNy7dk94zvTiU6nM4O+PMMF0vN0u7o3Xa41da6MEMNTM6TZ146anctFdXm5duye8Z3pzcu3ZPeM704lOpzODvjzDlIurzcu3ZPeM705uXbsnvGd6cSnU5nB3x5hykXV5uXbsnvGd6/U4lOpzODvjzCfoiLlvICIiAiIgIiICIiAiIgIiICIiAiIgIiICIiAiIgIiICIiAiIgIiIN6xU8VZeqGmnbtRTVDGPGumoLgCrY5gYd7JJ7d/eqswv+Elr/S4v3gr1qyRSTEHQiN2/0LXp61ms7w7XpeLHfHab1iUdOAMOkf1SQf8AM7vXBxBlvGymfPZJpHSMGvISkHa8zT1/KoPT3y600rZYbjVNcDr/AEpI9IO4q68N3M3ix0lc4APlZ44HDaB0P1gqVOHl+NtlmCdLq96ezaVCOBaS1wII3EHoVwUWBMPy0cEj6SQufG1x/nncSPlUDzDoW0OKank2hrJwJgB1nj9YKuG2/wBnUv5ln7Ao4Mce60TH0q9P01OLkpkiJ2cDmBh3sknt3960Lllta5onG3zTU02ni7TttnpHH61CMSXS4U+JLkIK6qjDKqQNDJnDTxjw3q0cE3Ke64cpamrdtTeMxz/xtCRr6lKnDvM19q/DOl1F7YuHtspe40M9trpqOrZszQu2XD+I8xG9SrCuAp7vSsra+c01NJvja1ur3jr38B1cVmzKpo5cX0UbdA6eGNr9OsvcNfVp6laQDIIQ1jQ1kbdA0dAAUMeGs3nf6hn0ugx2zXi/zFUQGW1jDdDLWk9fKN+yuBiTLqSippKq0TvnYwbToJANvTzEcfk0USqb3cai5uuBq5m1BftNc158TzDzeZXxRyuno4JnjR0kbXEdRI1UqRjy7xEbLcFNLq4tWtNtnzui6GIoGU1+uMEQDY2VMgaB0DaOgXPWOY2nZw7V9tpjoIiI+CIiAiIgIiICIiAiIg6eF/wktf6XF+8FetZ/U5/zbv2KisL/AISWv9Li/eCvWs/qc/5t37Fs036Zd30n9q753Vx5ZO2sKQj8WWQfXr/FU4rkyzZs4TgP48sh/wDrT+Cr0362X0n9+f8AH/ERzZAGIKY9JpG/vOVn23+zqX8yz9gVX5sPDsQ07RxbSN1+c5Whbf7OpfzLP2BX4/3LOjpP6rN/pD6/LqGvutTWzXJ4bPM6QxshAI1Oumuv8FJo46TDlmZFBDO6np2nRkUZke7pJ3de/fwVa3/F9+o79XwU9wc2KKoe1jOTYQADuG8Ke4Jv0l/s5nqGtbURSGOTZ4O3Ag6dHFMdsfumKxtL5psumnLauKNrfP59qkxFeJb1eJq94MepAjZr8Ro4D/vStP4bVnjUze0KmeatpgpK6mr6dgYaraEoaNAXDTf6dfqUfwrh2oxDX8jGTHTx6GabT4o6h5yslq29/t/lx82HLGonH92mTCuHqnEFwbFG1zaZhBnm6Gt6vlPQrtqZ4KCjknmcI4IGauPUAtejpaCw2zk4QynpYG7TnOOnyknpKqzG2MJL480lFtR29juncZSOk+bqH/RpjbBX5+3VrGP0/DO872n88I3cap1dcKmreNHTyukI6tTqtdEWJ5+ZmZ3kREQEREBERAREQEREBERB08L/AISWv9Li/eCvaqaXUszWjUljgB6FQVnqmUN2o6uVrnRwTskcG8SAQdyszwm2bslf8xn2lq0961iYmXY9Nz4seO0XttugdNhC/wBTKI22ydmp+NKNgD0lXHYba20WeloGu2uRZo53W47yfWSouczbPpupK/X/AGM+0o9iLMOquNO+lt0BpIngtfIXavI6h1fWpUnFi+YndZhvo9JE2rbeXFxtcWXPEtZPE7aia4RsIO4ho01HmJ1PpV023+zqX8yz9gXz0rSpMyLRDSwxOpa4uZG1pIYzTcP9yjgyRFpm0/ar0/U0rkvfJO26L3/DV6rMRXCSmttQ+OSpe5j9nRpBJ36ncrBwLYp7DZ3Q1Zb8ImkMj2tOobuAA19H1rmeE2zdkr/mM+0tC45nx8kW2ygfyhG59Q4AD0Dj61OvCpPu3X4p0eC85YvvLFm7Vxult9G0gyMD5HjqB0A/YVMsJ2dllslPTBoErhtzHreePq4ehUrLcJay6CuuMj5nukDpD0kA8B6FZnhNs3ZK/wCYz7S+Y8lZvNpQ0uqw2z3zXnbf6a2P6LEd5qhSUFFIbfFodRI0cq7rO/o4KIcycR/5Y/2jO9Tjwm2bslf8xn2k8Jtm7JX/ADGfaS1cVp3mxmx6PNeb2yfP5/ZVtZSz0NVJTVUZjmjOj2Eg6H0LCujiKviul6q66Br2xzP2mh4Go3dOi5yyTtv8ONeIi0xX6ERF8REREBERBlq4XU1XNA8aOikcwjqIOixKU5j2s2/EcszW6Q1Y5Vp8/wDeHr3+lRZSvX22mFmbHOPJak/wIiKKsREQEREBERAREQEREBERAREQEREBERAREQZqKE1NZBA0aulkawD5ToikuW1qdX4hZUub/M0Y5Rx/K4NHr3+hFqwYYtXeXY9P0VMuOb3WNjCwtv8AaXQN0FTH48Dj0O6j5iqRnhlppnwzxujlYdlzHDQgr6LUHzOs1FJa3XXkyyrjLW7bd22D+N1qzPi90e6Gn1LRxkrxa/cKpREWF54REQEREBERAREQEREBERAREQEREBERAWWkppqypjpqaN0k0jtljW8SViVvZc2WipbNBcmR7VXUNO1I7eWjXgOoblZix++2zTpNNOoye3f4dfCdijsFpZTDR07/AB53j+87uHBfi7SLpRERG0PV0pWlYrX6h//Z;" vertex="1" parent="1">
          <mxGeometry x="-600" y="80" width="68.06" height="63.98" as="geometry" />
        </mxCell>
      </root>
    </mxGraphModel>
  </diagram>
</mxfile>
